<svg width="25" height="25" viewBox="0 0 25 25" fill="none" xmlns="http://www.w3.org/2000/svg">
<path d="M12.5 25C19.3849 25 25 19.3846 25 12.5C25 5.61514 19.3849 0 12.5 0C5.61514 0 0 5.61514 0 12.5C0 19.3849 5.61538 25 12.5 25Z" fill="#5DDDD3"/>
<path d="M17.123 13.1606C17.508 12.5134 18.1149 11.7619 17.4985 10.6199C16.5915 6.65329 20.7723 5.84884 21.4044 7.48596C22.433 7.87385 22.4057 10.0092 21.8767 11.1264C21.853 11.5863 21.3751 11.9872 22.2389 13.1735L22.3011 13.16C21.1805 13.4848 18.308 13.3352 17.123 13.1606Z" fill="#666666"/>
<path d="M18.2216 11.106C18.5369 11.7681 18.6533 12.0268 19.045 12.3243C18.9535 14.0108 17.6585 13.205 16.7115 14.7341C16.6296 14.866 16.3737 15.5259 16.1479 16.1673C17.1973 16.8544 18.4515 17.2543 19.7995 17.2543C21.1472 17.2543 22.4016 16.8544 23.451 16.1673C23.2252 15.5257 22.9692 14.866 22.8874 14.7341C21.9404 13.205 20.6452 14.0108 20.5539 12.3243C20.9454 12.0266 21.062 11.7681 21.3773 11.106C21.4544 11.1464 21.5354 11.2011 21.5981 11.1305C21.6608 11.0599 21.9594 10.1439 21.9057 10.02C21.8521 9.89646 21.7997 9.97517 21.7194 10.0313C21.7237 10.0047 21.6563 10.3624 21.6572 10.308C21.6648 9.87571 21.355 9.49456 21.2578 8.35022C20.3586 10.013 17.7691 9.32922 17.8796 10.0315C17.3753 9.67834 17.9881 11.1163 18.0009 11.1305C18.0635 11.2011 18.1442 11.1464 18.2216 11.106Z" fill="#FED198"/>
<path d="M18.8359 13.1119C18.725 13.2862 18.5766 13.3976 18.4043 13.4896L18.4045 13.4898L19.8493 16.2282L21.19 13.4878C20.9981 13.3847 20.836 13.2568 20.7228 13.0439L20.7225 13.0437L19.806 13.4997L19.7778 13.5018L18.9646 13.0665L18.836 13.1121V13.1119H18.8359Z" fill="#ECF0F1"/>
<path d="M19.5739 13.5104L19.6594 13.7652L19.4695 16.6695L19.7974 16.9727L20.1253 16.6695L19.9352 13.7652L20.0206 13.5104L19.7974 13.4995L19.5741 13.5104H19.5739Z" fill="#FFCA4F"/>
<path d="M18.4045 13.4895C17.9244 13.7461 17.2595 13.8494 16.7113 14.7341C16.6294 14.8661 16.3734 15.5259 16.1477 16.1673C17.1971 16.8545 18.4512 17.2543 19.7992 17.2543C21.147 17.2543 22.4013 16.8545 23.4507 16.1673C23.225 15.5257 22.969 14.8661 22.8871 14.7341C22.3375 13.8467 21.6706 13.7457 21.1898 13.4877L19.8092 16.1944L18.4046 13.4897L18.4043 13.4895H18.4045Z" fill="#15BDB1"/>
<path d="M18.9396 12.7872L18.7219 13.2414L19.3694 14.3291L19.7929 13.4996L18.9397 12.7871H18.9396V12.7872ZM20.659 12.7872L20.8807 13.2308L20.2293 14.3291L19.8061 13.4996L20.659 12.7872Z" fill="white"/>
<path d="M18.5146 13.4253L19.8096 15.9476L21.0852 13.4264C21.1492 13.4672 21.2175 13.5033 21.2893 13.5378L19.8096 16.4293L18.3159 13.5344C18.3856 13.5008 18.4521 13.4654 18.5146 13.4255V13.4253Z" fill="#20D0C2"/>
<path d="M6.22412 11.8928H6.72793H8.25629H8.7601L8.96557 14.0304L9.33046 14.3231L10.0999 14.8132L7.49199 20.9734L4.88403 14.8132L5.65351 14.3231L6.01865 14.0306L6.22388 11.893L6.22412 11.8928Z" fill="#F0B97D"/>
<path d="M5.38731 14.4812L3.28516 15.1521L7.49214 20.9734L11.0713 14.9568L9.58614 14.4859L8.27833 15.4092H6.71045L5.38731 14.481V14.4812Z" fill="#ECF0F1"/>
<path d="M7.0229 15.3246L7.20264 15.768L6.80322 20.8198L7.49243 21.3471L8.1814 20.8198L7.78198 15.768L7.96172 15.3246L7.49238 15.3059L7.02305 15.3246H7.0229Z" fill="#FFCA4F"/>
<path d="M5.42346 14.47L1.70544 15.6567C1.70544 15.6567 1.22102 15.923 1.07893 16.668C1.05188 16.8103 1.03723 17.098 1.03088 17.4767C2.80486 21.5594 6.69451 24.5095 11.316 24.9438L11.5286 21.404L11.7301 24.9759C11.9847 24.9915 12.2413 25.0002 12.4998 25.0002C13.1281 25.0002 13.7451 24.9533 14.3484 24.8638C14.2318 23.114 14.0354 17.3493 13.9055 16.668C13.7632 15.923 13.279 15.6567 13.279 15.6567L9.58621 14.4862L7.52263 21.252L5.42346 14.4702V14.47Z" fill="#15BDB1"/>
<path d="M5.42353 14.47L4.62158 14.7259L4.46753 16.7608C4.46753 16.7608 4.50991 16.928 4.63735 16.9131L5.36108 17.1853C5.36108 17.1853 5.40869 17.2327 5.36626 17.2927L4.74673 17.7171L7.56763 22.8377L10.2381 17.7171L9.61855 17.2927C9.57617 17.2327 9.62354 17.1853 9.62354 17.1853L10.3473 16.9131C10.4747 16.9282 10.5171 16.7608 10.5171 16.7608L10.3635 14.7325L9.58613 14.486L7.52256 21.2517L5.42329 14.47H5.42353Z" fill="#20D0C2"/>
<path d="M4.39589 7.46623C4.39589 7.67438 4.31987 7.87824 4.32553 8.07809C3.61308 7.94591 3.95727 10.062 4.36025 10.353C4.39228 10.376 4.47118 10.3245 4.53749 10.2822C4.67734 11.0604 5.8706 13.1402 6.62948 14.0155C6.84013 14.2586 8.12856 14.2545 8.33715 14.0247C9.1143 13.169 10.3062 11.0647 10.4467 10.2819C10.5133 10.3243 10.5919 10.3757 10.624 10.3527C11.027 10.0618 11.3711 7.94572 10.6587 8.07785C10.6643 7.87804 10.5883 7.67414 10.5883 7.46599C10.5489 5.82284 9.05995 5.00239 7.49208 4.99536C5.92421 5.00234 4.4353 5.82279 4.3956 7.46599L4.39589 7.46623Z" fill="#FED198"/>
<path d="M5.35069 5.35959C5.12608 5.33342 4.31441 5.58195 4.21695 6.44073C4.11953 7.29931 4.16597 8.09067 4.16597 8.09067C4.16597 8.09067 4.64136 8.21063 4.70137 8.69798C4.76114 9.18533 4.71851 9.18533 4.71851 9.18533L4.89082 9.14656L5.01353 8.31098C5.72486 7.86513 5.00811 7.20503 5.71963 7.05029C7.64112 8.41967 9.33663 8.18534 10.1011 7.54101C10.1011 7.54101 9.92252 8.21488 10.0603 8.45507C10.1979 8.69549 10.1158 9.07391 10.1158 9.07391L10.2946 9.06531C10.2946 9.06531 10.2624 8.07299 10.6591 8.07753C12.1665 5.58844 7.39415 2.49697 5.35088 5.35905L5.35069 5.35959Z" fill="#666666"/>
<path d="M6.00127 13.7253C6.05449 13.7292 5.38062 14.4892 5.38062 14.4892L5.95435 16.4537L7.49243 15.306C6.64624 14.8909 6.14155 14.3532 6.00127 13.7253Z" fill="white"/>
<path d="M8.98336 13.7253C8.93013 13.7292 9.60401 14.4892 9.60401 14.4892L9.03028 16.4537L7.49219 15.306C8.33814 14.8909 8.84332 14.3532 8.98336 13.7253Z" fill="white"/>
<path d="M15.9984 8.24462L17.1488 9.42523L16.8351 8.24462H16.93C17.0743 8.24462 17.1925 8.12646 17.1925 7.98212V5.8394C17.1925 5.69507 17.0745 5.5769 16.93 5.5769H12.9725C12.8281 5.5769 12.71 5.69487 12.71 5.8394V7.98212C12.71 8.12646 12.8279 8.24462 12.9725 8.24462H15.9981H15.9984Z" fill="white"/>
<path d="M13.292 5.94446H16.3377V6.10008H13.292V5.94446ZM13.292 7.01952H15.0966V7.17514H13.292V7.01952ZM13.292 6.66117H16.3377V6.81679H13.292V6.66117ZM13.292 6.30281H16.3377V6.45843H13.292V6.30281Z" fill="#C8CACC"/>
<path d="M12.7889 12.6988L11.4328 14.0905L11.8024 12.6988H11.6903C11.5202 12.6988 11.3811 12.5596 11.3811 12.3896V9.86387C11.3811 9.6938 11.5203 9.55469 11.6903 9.55469H16.3551C16.5251 9.55469 16.6643 9.69385 16.6643 9.86387V12.3896C16.6643 12.5597 16.5251 12.6988 16.3551 12.6988H12.7886H12.7889Z" fill="white"/>
<path d="M15.9788 9.98755H12.3887V10.1709H15.9788V9.98755ZM15.9788 11.2548H13.8517V11.4381H15.9788V11.2548ZM15.9788 10.8324H12.3887V11.0157H15.9788V10.8324ZM15.9788 10.41H12.3887V10.5933H15.9788V10.41Z" fill="#C8CACC"/>
</svg>
