<svg width="15" height="15" viewBox="0 0 15 15" fill="none" xmlns="http://www.w3.org/2000/svg">
<path fill-rule="evenodd" clip-rule="evenodd" d="M11.8273 14.4478L7.50468 10.1273L3.17268 14.4553C2.44787 15.1816 1.26982 15.1816 0.545012 14.4553C-0.181671 13.7308 -0.181671 12.5552 0.545012 11.8289L4.87514 7.49906L0.545012 3.1711C-0.181671 2.44478 -0.181671 1.26919 0.545012 0.54474C1.26982 -0.18158 2.44787 -0.18158 3.17268 0.54474L7.50468 4.87271L11.8273 0.552228C12.5521 -0.174092 13.7283 -0.174092 14.455 0.552228C15.1798 1.27855 15.1798 2.45414 14.455 3.17858L10.1324 7.50094L14.455 11.8214C15.1817 12.5459 15.1817 13.7233 14.455 14.4478C13.7302 15.1722 12.5521 15.1722 11.8273 14.4478Z" fill="#F9A030"/>
</svg>
