<svg width="25" height="25" viewBox="0 0 25 25" fill="none" xmlns="http://www.w3.org/2000/svg">
<path d="M12.5 25C19.4036 25 25 19.4036 25 12.5C25 5.59644 19.4036 0 12.5 0C5.59644 0 0 5.59644 0 12.5C0 19.4036 5.59644 25 12.5 25Z" fill="#00BAFF"/>
<path d="M5.12524 10.6488L18.1361 23.6597C22.2081 21.599 24.9999 17.3758 24.9999 12.5001C24.9999 11.6373 24.9125 10.795 24.746 9.98147L19.9627 5.198L5.12524 10.6488Z" fill="#008CC3"/>
<path d="M5.02539 22.5199C7.11016 24.0776 9.69731 25 12.4999 25C15.4211 25 18.1082 23.9977 20.2363 22.3185L17.102 15.8203H7.89785L5.02539 22.5199Z" fill="#E0E0E0"/>
<path d="M20.2363 22.3185L17.102 15.8203H12.4976V25C12.4983 25 12.4991 25 12.4999 25C15.4211 25 18.1082 23.9977 20.2363 22.3185Z" fill="#C0C0C0"/>
<path d="M5.6499 10.8027C5.11392 10.8027 4.67944 10.3683 4.67944 9.83227V5.95045C4.67944 5.41446 5.11392 4.97998 5.6499 4.97998H8.56128C9.36099 4.97998 9.81748 5.89298 9.33765 6.53273L6.42627 10.4145C6.24297 10.6589 5.95537 10.8027 5.6499 10.8027Z" fill="#E0E0E0"/>
<path d="M19.3501 10.8029C19.8861 10.8029 20.3206 10.3684 20.3206 9.83246V5.95068C20.3206 5.4147 19.8861 4.98022 19.3501 4.98022H16.4388C15.6391 4.98022 15.1826 5.89316 15.6624 6.53296L18.5738 10.4147C18.7571 10.6591 19.0447 10.8029 19.3501 10.8029Z" fill="#C0C0C0"/>
<path d="M12.5 18.8762C9.18375 18.8762 6.49536 16.1878 6.49536 12.8716V10.6177C6.49536 7.30142 9.18375 4.61304 12.5 4.61304C15.8163 4.61304 18.5047 7.30142 18.5047 10.6177V12.8716C18.5047 16.1878 15.8163 18.8762 12.5 18.8762Z" fill="white"/>
<path d="M12.4999 4.61304C12.4991 4.61304 12.4983 4.61309 12.4976 4.61309V18.8762C12.4983 18.8762 12.4991 18.8762 12.4999 18.8762C15.8162 18.8762 18.5045 16.1878 18.5045 12.8716V10.6177C18.5045 7.30141 15.8162 4.61304 12.4999 4.61304Z" fill="#E0E0E0"/>
<path d="M14.8366 5.08472C14.1328 6.10629 13.6243 8.78162 13.6243 9.56218C13.6242 10.5337 14.4118 11.3212 15.3833 11.3212C16.0939 11.3212 17.6894 10.8996 18.4956 10.293C18.3706 7.94578 16.8976 5.95624 14.8366 5.08472Z" fill="#B3B3B3"/>
<path d="M6.4021 19.3089C7.78189 20.9831 9.99908 22.0693 12.4999 22.0693C15.0724 22.0693 17.3453 20.9204 18.7148 19.164L17.9828 17.6462C16.603 18.9426 14.6569 19.7505 12.5 19.7505C10.3791 19.7505 8.4626 18.969 7.0874 17.7106L6.4021 19.3089Z" fill="#B3B3B3"/>
<path d="M17.9827 17.6462C16.603 18.9426 14.6568 19.7505 12.4999 19.7505C12.4991 19.7505 12.4983 19.7505 12.4976 19.7505V22.0693C12.4983 22.0693 12.4991 22.0693 12.4999 22.0693C15.0724 22.0693 17.3453 20.9204 18.7148 19.164L17.9827 17.6462Z" fill="#999999"/>
<path d="M14.3612 13.8047C14.3612 14.2102 14.0314 14.54 13.6259 14.54C13.2205 14.54 12.8906 14.2102 12.8906 13.8047V12.6646L13.7924 11.7618C14.0913 11.4625 13.8796 10.9512 13.4568 10.9514L11.5432 10.9525C11.1204 10.9528 10.9087 11.4644 11.2076 11.7633L12.1094 12.6651V13.8048C12.1094 14.2102 11.7796 14.54 11.3742 14.54C10.9688 14.54 10.6389 14.2102 10.6389 13.8048H9.85767C9.85767 14.641 10.538 15.3213 11.3742 15.3213C11.8205 15.3213 12.2223 15.1275 12.5001 14.8197C12.7778 15.1275 13.1796 15.3213 13.6259 15.3213C14.4622 15.3213 15.1425 14.641 15.1425 13.8048H14.3612V13.8047Z" fill="#333333"/>
<path d="M14.3611 13.8047C14.3611 14.2101 14.0313 14.54 13.6258 14.54C13.2204 14.54 12.8905 14.2101 12.8905 13.8047V12.6646L13.7923 11.7618C14.0912 11.4625 13.8795 10.9512 13.4567 10.9514L12.4685 10.952V14.8527C12.479 14.8417 12.4897 14.8309 12.4999 14.8197C12.7776 15.1275 13.1795 15.3212 13.6258 15.3212C14.462 15.3212 15.1423 14.6409 15.1423 13.8047H14.3611Z" fill="#1A1A1A"/>
<path d="M9.65372 10.1198C9.9615 10.1198 10.211 9.87028 10.211 9.56251C10.211 9.25475 9.9615 9.00525 9.65372 9.00525C9.34594 9.00525 9.09644 9.25475 9.09644 9.56251C9.09644 9.87028 9.34594 10.1198 9.65372 10.1198Z" fill="#333333"/>
<path d="M15.3461 10.1198C15.6539 10.1198 15.9034 9.87028 15.9034 9.56251C15.9034 9.25475 15.6539 9.00525 15.3461 9.00525C15.0383 9.00525 14.7888 9.25475 14.7888 9.56251C14.7888 9.87028 15.0383 10.1198 15.3461 10.1198Z" fill="#1A1A1A"/>
<path d="M12.4999 24.2188L10.8184 22.5372L12.4999 20.8549L14.1815 22.5364L12.4999 24.2188Z" fill="#FFB344"/>
<path d="M14.1815 22.5364L12.4999 20.8549L12.4976 20.8572V24.2164L12.4999 24.2188L14.1815 22.5364Z" fill="#FF9451"/>
</svg>
