<svg width="21" height="17" viewBox="0 0 21 17" fill="none" xmlns="http://www.w3.org/2000/svg">
<path d="M19.694 0H1.30598C0.585866 0 0 0.577599 0 1.2876V2.80295C0 3.51295 0.585866 4.09059 1.30598 4.09059H1.91739L8.66679 10.7452V16.5708C8.66679 16.7444 8.77286 16.9009 8.93552 16.9673C8.98938 16.9893 9.04594 17 9.10201 17C9.21533 17 9.32669 16.9564 9.40995 16.8743L12.2219 14.1017C12.3036 14.0212 12.3495 13.9121 12.3495 13.7982V10.7451L19.0987 4.09059H19.694C20.4141 4.09059 21 3.51295 21 2.80295V1.2876C21 0.577599 20.4141 0 19.694 0ZM11.6061 10.264C11.5201 10.3488 11.4778 10.4601 11.4788 10.5712V13.6205L9.53743 15.5346V10.5687C9.53771 10.4584 9.4953 10.3481 9.40999 10.264L3.14868 4.09059H17.8674L11.6061 10.264ZM20.1293 2.80295C20.1293 3.0396 19.934 3.23218 19.694 3.23218H1.30598C1.06595 3.23218 0.870637 3.03964 0.870637 2.80295V1.2876C0.870637 1.05094 1.06591 0.858371 1.30598 0.858371H19.694C19.934 0.858371 20.1294 1.0509 20.1294 1.2876V2.80295H20.1293Z" fill="white"/>
</svg>
