<svg width="25" height="15" viewBox="0 0 25 15" fill="none" xmlns="http://www.w3.org/2000/svg">
<path d="M7.29512 8.00139C10.7469 9.12129 12.5 13.3816 12.5 13.3816C12.5 13.3816 8.65669 15.8263 5.20488 14.7064C1.75312 13.5864 0 9.32607 0 9.32607C0 9.32607 3.84331 6.88148 7.29512 8.00139Z" fill="#88CFFF"/>
<path d="M11.442 5.89982C13.5681 8.8915 12.5 13.3817 12.5 13.3817C12.5 13.3817 7.9846 13.0216 5.85843 10.0299C3.73226 7.03822 4.80042 2.54797 4.80042 2.54797C4.80042 2.54797 9.3158 2.90818 11.442 5.89982Z" fill="#5AB9FA"/>
<path d="M17.7049 8.00139C14.2531 9.12129 12.5 13.3816 12.5 13.3816C12.5 13.3816 16.3433 15.8263 19.7951 14.7064C23.2469 13.5864 25 9.32607 25 9.32607C25 9.32607 21.1567 6.88148 17.7049 8.00139Z" fill="#0093F7"/>
<path d="M13.558 5.89982C11.4318 8.8915 12.5 13.3817 12.5 13.3817C12.5 13.3817 17.0154 13.0216 19.1416 10.0299C21.2677 7.03822 20.1996 2.54797 20.1996 2.54797C20.1996 2.54797 15.6842 2.90818 13.558 5.89982Z" fill="#0887DD"/>
<path d="M15.9485 6.69083C15.9485 10.3861 12.5001 13.3817 12.5001 13.3817C12.5001 13.3817 9.05176 10.3861 9.05176 6.69083C9.05176 2.9956 12.5001 0 12.5001 0C12.5001 0 15.9485 2.9956 15.9485 6.69083Z" fill="#32A5F3"/>
</svg>
