<svg width="120" height="120" viewBox="0 0 120 120" fill="none" xmlns="http://www.w3.org/2000/svg">
<path d="M88.1124 77.5999C85.7124 76.2 82.9124 75.7999 80.7125 76.3999C79.1124 76.8 77.7125 77.7999 76.7124 79.3999C74.7125 81.9999 72.1124 84.7999 71.5124 85.2C66.7124 88.3999 62.9124 88.0001 58.9124 84L37.8589 62.7619C37.7607 62.6238 37.6456 62.5001 37.5123 62.4C37.5123 62.4 37.486 62.3784 37.4382 62.3377L36.1124 61.0001C32.1123 56.8001 31.7124 53.2001 34.9124 48.4001C35.5124 47.8001 38.3124 45.2002 40.7124 43.2C42.1124 42.1999 43.3124 40.8 43.7124 39.1999C44.3124 36.9999 43.7124 34.3999 42.3125 31.8C41.9124 31.2 33.7126 17.2001 26.1125 13.2C22.3126 11.2001 17.5126 12 14.5126 15L9.51244 19.9999C-0.4874 30 -2.68748 41.5999 3.31252 54.4001C5.31244 58.6001 8.31244 62.8001 12.1126 66.6L53.1125 107.6C56.3124 110.8 59.5126 113.4 62.9124 115.2C68.5126 118.4 74.1125 120 79.3126 120C86.7125 120 93.7126 116.8 99.9125 110.6L104.912 105.4C108.112 102.4 108.712 97.5999 106.712 93.7999C102.713 86.2001 88.7124 78 88.1124 77.5999ZM101.912 102.8L96.9125 107.8C87.5124 117.2 76.9126 118.6 64.7124 111.8C61.7124 110.2 58.7124 107.8 55.9124 105L14.9124 63.7999C11.3124 60.1999 8.71252 56.4 6.91252 52.5998C1.71244 41.4 3.51244 31.6001 12.3125 22.8L17.3124 17.8001C19.1124 16.0001 21.9125 15.6 23.9124 16.8C30.5124 20.2001 38.5124 33.6 38.5124 33.7999C39.5124 35.4 39.9123 36.9998 39.5124 38.1998C39.3125 38.7998 38.9124 39.3999 38.1125 39.7999L37.9126 39.9999C36.3125 41.5999 32.1125 44.9998 31.3126 46.1998C30.1517 47.9135 29.3593 49.6116 28.9318 51.2864C27.5513 48.5126 26.4582 45.3143 26.1125 41.7999C25.9126 40.5998 25.1124 39.7999 23.9124 39.9999C22.7124 40.1998 21.9125 41.1998 22.1124 42.1999C23.5124 56.1998 34.5125 65.1999 34.9124 65.5999L56.1123 86.7999C61.5123 92.1999 67.3124 92.7999 73.7122 88.5999C75.1121 87.7999 78.5122 83.7999 79.9121 81.9998V81.7999C80.3122 81 80.712 80.5999 81.5122 80.4C82.7122 80.2001 84.3123 80.5999 85.9121 81.4001C85.9121 81.4001 99.5122 89.4 102.912 96C104.113 98.2001 103.712 101 101.912 102.8Z" fill="url(#paint0_linear)"/>
<path d="M103.913 36H101.913V22.0001C101.913 21.2002 101.313 20.4 100.513 20.2001C99.7128 19.8 98.9127 20.2001 98.3127 20.8001L86.3127 36.8002C85.9126 37.4002 85.7127 38.2001 86.1128 38.8001C86.5128 39.6 87.1128 40.0001 87.9128 40.0001H97.9128V46.0001C97.9128 47.2001 98.7128 48 99.9128 48C101.113 48 101.913 47.2001 101.913 46.0001V40.0001H103.913C105.113 40.0001 105.913 39.2002 105.913 38.0002C105.913 36.8002 105.113 36 103.913 36ZM97.9126 36H91.9126L97.9126 28.0001V36Z" fill="url(#paint1_linear)"/>
<path d="M83.9124 43.9999H71.3124L81.7124 34.9999C84.3123 32.4 85.1124 28.8 83.7123 25.3999C82.5123 21.9999 79.5123 19.9999 76.1122 19.9999H75.9123C70.3124 19.9999 65.9122 24.3999 65.9122 30C65.9122 31.2 66.7121 31.9999 67.9121 31.9999C69.1121 31.9999 69.912 31.2 69.912 30C69.912 26.5999 72.512 24 75.912 24C77.912 24 79.3121 25.0001 80.112 26.8001C80.712 28.2 80.712 30.4001 79.112 32.0002L67.112 42.4001C65.912 43.4002 65.7121 44.8001 66.1119 46.0001C66.512 47.2001 67.712 48 69.1119 48H83.912C85.112 48 85.9119 47.2001 85.9119 46.0001C85.9119 44.8001 85.1124 43.9999 83.9124 43.9999Z" fill="url(#paint2_linear)"/>
<path d="M85.9126 0C67.1124 0 51.9125 15.1999 51.9125 34.0001C51.9125 39.4001 53.1125 44.8001 55.7124 49.4002L51.9125 65.4C51.7126 66.1999 51.9125 67.0001 52.5125 67.3999C52.9126 67.8 53.3124 67.9999 53.9124 67.9999C54.1124 67.9999 54.3125 67.9999 54.5124 67.9999L69.3125 63.6C74.3124 66.4001 80.1125 67.9999 85.9126 67.9999C104.713 67.9999 119.913 52.8 119.913 33.9998C119.913 15.1997 104.713 0 85.9126 0ZM85.9126 63.7999C80.5126 63.7999 75.1126 62.4 70.5125 59.5999C70.3126 59.4 69.9125 59.4 69.5124 59.4C69.3125 59.4 69.1124 59.5999 68.9124 59.5999L56.5124 63.1999L59.7123 49.8C59.9122 49.3999 59.7123 48.7999 59.5124 48.4001C57.1124 44.0002 55.9124 39 55.9124 34.0001C55.9124 17.4 69.3123 4.00008 85.9124 4.00008C102.512 4.00008 115.912 17.2001 115.912 33.8002C115.912 50.4002 102.512 63.7999 85.9126 63.7999Z" fill="url(#paint3_linear)"/>
<path d="M80.1125 94.0001C67.9126 92.8001 59.5126 84.6 59.5126 84.6C58.7127 83.8001 57.5127 83.8001 56.7125 84.6C55.9124 85.3999 55.9126 86.5999 56.7125 87.4001C56.9124 87.8002 65.9124 96.6 79.9126 98.0002C80.9127 98.0002 81.7126 97.2002 81.9125 96.2002C81.9125 94.9999 81.1126 94.2 80.1125 94.0001Z" fill="url(#paint4_linear)"/>
<defs>
<linearGradient id="paint0_linear" x1="59.9563" y1="0" x2="59.9563" y2="120" gradientUnits="userSpaceOnUse">
<stop stop-color="#F9A030"/>
<stop offset="1" stop-color="#FFBE6C"/>
</linearGradient>
<linearGradient id="paint1_linear" x1="59.9563" y1="0" x2="59.9563" y2="120" gradientUnits="userSpaceOnUse">
<stop stop-color="#F9A030"/>
<stop offset="1" stop-color="#FFBE6C"/>
</linearGradient>
<linearGradient id="paint2_linear" x1="59.9563" y1="0" x2="59.9563" y2="120" gradientUnits="userSpaceOnUse">
<stop stop-color="#F9A030"/>
<stop offset="1" stop-color="#FFBE6C"/>
</linearGradient>
<linearGradient id="paint3_linear" x1="59.9563" y1="0" x2="59.9563" y2="120" gradientUnits="userSpaceOnUse">
<stop stop-color="#F9A030"/>
<stop offset="1" stop-color="#FFBE6C"/>
</linearGradient>
<linearGradient id="paint4_linear" x1="59.9563" y1="0" x2="59.9563" y2="120" gradientUnits="userSpaceOnUse">
<stop stop-color="#F9A030"/>
<stop offset="1" stop-color="#FFBE6C"/>
</linearGradient>
</defs>
</svg>
