<svg width="160" height="120" viewBox="0 0 160 120" fill="none" xmlns="http://www.w3.org/2000/svg">
<path d="M152.663 36.7784H136.923L128.966 5.53269C127.967 1.60664 123.963 -0.77196 120.044 0.228485L101.903 4.86051C100.68 5.17282 99.9407 6.41954 100.253 7.64468C100.565 8.86981 101.809 9.60927 103.033 9.29758L121.173 4.66556C122.652 4.2891 124.159 5.18502 124.536 6.66426L125.417 10.1256L5.54054 40.7354L4.65929 37.2744C4.47679 36.5578 4.58398 35.8127 4.96085 35.1768C5.33804 34.5409 5.93991 34.09 6.65554 33.9072L103.033 9.29758C104.256 8.98528 100.564 8.86981 100.253 7.64468C99.9404 6.41954 103.127 4.54883 101.903 4.86051L5.52554 29.4702C1.60492 30.4712 -0.77133 34.4796 0.228356 38.4053L17.1371 104.807C17.9824 108.126 20.974 110.34 24.248 110.34C24.8461 110.34 25.4543 110.266 26.0599 110.111L27.1424 109.835V112.652C27.1424 116.704 30.4339 120 34.4799 120H152.663C156.708 120 160 116.704 160 112.652V44.1261C160 40.0745 156.708 36.7784 152.663 36.7784ZM27.1427 105.11L24.9305 105.675C23.4533 106.052 21.9449 105.155 21.568 103.676L11.218 63.0309L27.1427 58.9647V105.11ZM27.1427 44.1257V54.2394L10.0883 58.5942L6.67054 45.1719L28.7602 39.5313C27.7496 40.7908 27.1427 42.3883 27.1427 44.1257ZM132.204 36.7781H114.03L131.094 32.4208L132.204 36.7781ZM126.547 14.5617L129.965 27.984L95.5251 36.7784H39.5424L126.547 14.5617ZM152.663 115.421H34.4802C32.9555 115.421 31.7149 114.179 31.7149 112.652V44.1261C31.7149 42.5993 32.9552 41.3572 34.4802 41.3572H152.663C154.187 41.3572 155.428 42.5993 155.428 44.1261V112.652C155.428 114.179 154.187 115.421 152.663 115.421Z" fill="url(#paint0_linear)"/>
<path d="M152.663 36.7784H136.923L128.966 5.53269C127.967 1.60664 123.963 -0.77196 120.044 0.228485L101.903 4.86051C100.68 5.17282 99.9407 6.41954 100.253 7.64468C100.565 8.86981 101.809 9.60927 103.033 9.29758L121.173 4.66556C122.652 4.2891 124.159 5.18502 124.536 6.66426L125.417 10.1256L5.54054 40.7354L4.65929 37.2744C4.47679 36.5578 4.58398 35.8127 4.96085 35.1768C5.33804 34.5409 5.93991 34.09 6.65554 33.9072L103.033 9.29758C104.256 8.98528 100.564 8.86981 100.253 7.64468C99.9404 6.41954 103.127 4.54883 101.903 4.86051L5.52554 29.4702C1.60492 30.4712 -0.77133 34.4796 0.228356 38.4053L17.1371 104.807C17.9824 108.126 20.974 110.34 24.248 110.34C24.8461 110.34 25.4543 110.266 26.0599 110.111L27.1424 109.835V112.652C27.1424 116.704 30.4339 120 34.4799 120H152.663C156.708 120 160 116.704 160 112.652V44.1261C160 40.0745 156.708 36.7784 152.663 36.7784ZM27.1427 105.11L24.9305 105.675C23.4533 106.052 21.9449 105.155 21.568 103.676L11.218 63.0309L27.1427 58.9647V105.11ZM27.1427 44.1257V54.2394L10.0883 58.5942L6.67054 45.1719L28.7602 39.5313C27.7496 40.7908 27.1427 42.3883 27.1427 44.1257ZM132.204 36.7781H114.03L131.094 32.4208L132.204 36.7781ZM126.547 14.5617L129.965 27.984L95.5251 36.7784H39.5424L126.547 14.5617ZM152.663 115.421H34.4802C32.9555 115.421 31.7149 114.179 31.7149 112.652V44.1261C31.7149 42.5993 32.9552 41.3572 34.4802 41.3572H152.663C154.187 41.3572 155.428 42.5993 155.428 44.1261V112.652C155.428 114.179 154.187 115.421 152.663 115.421Z" fill="url(#paint1_linear)"/>
<path d="M91.0445 93.1379H41.2295C39.967 93.1379 38.9433 94.1628 38.9433 95.4273C38.9433 96.6919 39.967 97.7167 41.2295 97.7167H91.0445C92.307 97.7167 93.3307 96.6919 93.3307 95.4273C93.3307 94.1631 92.3073 93.1379 91.0445 93.1379Z" fill="url(#paint2_linear)"/>
<path d="M91.0445 93.1379H41.2295C39.967 93.1379 38.9433 94.1628 38.9433 95.4273C38.9433 96.6919 39.967 97.7167 41.2295 97.7167H91.0445C92.307 97.7167 93.3307 96.6919 93.3307 95.4273C93.3307 94.1631 92.3073 93.1379 91.0445 93.1379Z" fill="url(#paint3_linear)"/>
<path d="M129.143 52.8803C125.859 52.8803 122.82 53.9418 120.343 55.7358C117.791 53.8842 114.729 52.8803 111.534 52.8803C103.235 52.8803 96.4833 59.6415 96.4833 67.9524C96.4839 76.263 103.236 83.0242 111.535 83.0242C114.73 83.0242 117.791 82.0203 120.343 80.1687C122.82 81.9627 125.859 83.0242 129.143 83.0242C137.442 83.0242 144.194 76.263 144.194 67.9524C144.194 59.6415 137.442 52.8803 129.143 52.8803ZM114.11 68.6668C114.113 68.7257 114.117 68.7842 114.12 68.843C114.131 69.0349 114.146 69.2261 114.164 69.4166C114.168 69.4611 114.172 69.5055 114.177 69.5499C114.456 72.2274 115.431 74.7424 117.022 76.8907C115.384 77.9027 113.495 78.445 111.535 78.445C105.757 78.445 101.056 73.7379 101.056 67.9521C101.056 62.1666 105.757 57.4592 111.535 57.4592C113.495 57.4592 115.384 58.0015 117.022 59.0135C115.431 61.1618 114.456 63.6768 114.177 66.3543C114.172 66.3987 114.168 66.4428 114.164 66.4873C114.146 66.6778 114.131 66.869 114.12 67.0609C114.117 67.1197 114.113 67.1779 114.11 67.2367C114.099 67.4743 114.092 67.7124 114.092 67.9518C114.092 68.1912 114.099 68.4293 114.11 68.6668ZM129.143 78.4454C126.282 78.4454 123.687 77.2903 121.794 75.4227C121.755 75.3843 121.716 75.3454 121.678 75.3063C121.591 75.2175 121.504 75.1276 121.42 75.0356C121.397 75.0103 121.374 74.9846 121.351 74.959C121.252 74.8488 121.155 74.7374 121.061 74.6232L121.059 74.6213C119.564 72.8069 118.664 70.4825 118.664 67.9518C118.664 65.4214 119.564 63.0969 121.059 61.2822L121.06 61.281C121.155 61.1665 121.253 61.0551 121.352 60.9446C121.374 60.9193 121.397 60.8939 121.42 60.8689C121.504 60.7766 121.591 60.6864 121.679 60.5976C121.717 60.5588 121.755 60.5203 121.794 60.4821C123.686 58.6145 126.282 57.4592 129.143 57.4592C134.921 57.4592 139.622 62.1663 139.622 67.9524C139.622 73.7382 134.921 78.4454 129.143 78.4454Z" fill="url(#paint4_linear)"/>
<path d="M129.143 52.8803C125.859 52.8803 122.82 53.9418 120.343 55.7358C117.791 53.8842 114.729 52.8803 111.534 52.8803C103.235 52.8803 96.4833 59.6415 96.4833 67.9524C96.4839 76.263 103.236 83.0242 111.535 83.0242C114.73 83.0242 117.791 82.0203 120.343 80.1687C122.82 81.9627 125.859 83.0242 129.143 83.0242C137.442 83.0242 144.194 76.263 144.194 67.9524C144.194 59.6415 137.442 52.8803 129.143 52.8803ZM114.11 68.6668C114.113 68.7257 114.117 68.7842 114.12 68.843C114.131 69.0349 114.146 69.2261 114.164 69.4166C114.168 69.4611 114.172 69.5055 114.177 69.5499C114.456 72.2274 115.431 74.7424 117.022 76.8907C115.384 77.9027 113.495 78.445 111.535 78.445C105.757 78.445 101.056 73.7379 101.056 67.9521C101.056 62.1666 105.757 57.4592 111.535 57.4592C113.495 57.4592 115.384 58.0015 117.022 59.0135C115.431 61.1618 114.456 63.6768 114.177 66.3543C114.172 66.3987 114.168 66.4428 114.164 66.4873C114.146 66.6778 114.131 66.869 114.12 67.0609C114.117 67.1197 114.113 67.1779 114.11 67.2367C114.099 67.4743 114.092 67.7124 114.092 67.9518C114.092 68.1912 114.099 68.4293 114.11 68.6668ZM129.143 78.4454C126.282 78.4454 123.687 77.2903 121.794 75.4227C121.755 75.3843 121.716 75.3454 121.678 75.3063C121.591 75.2175 121.504 75.1276 121.42 75.0356C121.397 75.0103 121.374 74.9846 121.351 74.959C121.252 74.8488 121.155 74.7374 121.061 74.6232L121.059 74.6213C119.564 72.8069 118.664 70.4825 118.664 67.9518C118.664 65.4214 119.564 63.0969 121.059 61.2822L121.06 61.281C121.155 61.1665 121.253 61.0551 121.352 60.9446C121.374 60.9193 121.397 60.8939 121.42 60.8689C121.504 60.7766 121.591 60.6864 121.679 60.5976C121.717 60.5588 121.755 60.5203 121.794 60.4821C123.686 58.6145 126.282 57.4592 129.143 57.4592C134.921 57.4592 139.622 62.1663 139.622 67.9524C139.622 73.7382 134.921 78.4454 129.143 78.4454Z" fill="url(#paint5_linear)"/>
<path d="M57.5217 54.369H47.4949C42.7796 54.369 38.9436 58.2102 38.9436 62.9321V72.9728C38.9433 77.6947 42.7796 81.5359 47.4949 81.5359H57.5217C62.2367 81.5359 66.073 77.6947 66.073 72.9728V62.9321C66.073 58.2106 62.237 54.369 57.5217 54.369ZM61.5002 69.1823H56.623C55.3605 69.1823 54.3367 70.2071 54.3367 71.4717C54.3367 72.7363 55.3602 73.7611 56.623 73.7611H61.4214C61.0549 75.5818 59.4458 76.9574 57.5214 76.9574H47.4946C45.5699 76.9574 43.9608 75.5821 43.5946 73.7611H48.393C49.6555 73.7611 50.6792 72.7363 50.6792 71.4717C50.6792 70.2071 49.6558 69.1823 48.393 69.1823H43.5158V67.1983H48.393C49.6555 67.1983 50.6792 66.1734 50.6792 64.9089C50.6792 63.6446 49.6558 62.6195 48.393 62.6195H43.5314C43.6914 60.5685 45.4058 58.9475 47.4946 58.9475H57.5214C59.6102 58.9475 61.3242 60.5685 61.4845 62.6195H56.623C55.3605 62.6195 54.3367 63.6443 54.3367 64.9089C54.3367 66.1731 55.3602 67.1983 56.623 67.1983H61.5002V69.1823Z" fill="url(#paint6_linear)"/>
<path d="M57.5217 54.369H47.4949C42.7796 54.369 38.9436 58.2102 38.9436 62.9321V72.9728C38.9433 77.6947 42.7796 81.5359 47.4949 81.5359H57.5217C62.2367 81.5359 66.073 77.6947 66.073 72.9728V62.9321C66.073 58.2106 62.237 54.369 57.5217 54.369ZM61.5002 69.1823H56.623C55.3605 69.1823 54.3367 70.2071 54.3367 71.4717C54.3367 72.7363 55.3602 73.7611 56.623 73.7611H61.4214C61.0549 75.5818 59.4458 76.9574 57.5214 76.9574H47.4946C45.5699 76.9574 43.9608 75.5821 43.5946 73.7611H48.393C49.6555 73.7611 50.6792 72.7363 50.6792 71.4717C50.6792 70.2071 49.6558 69.1823 48.393 69.1823H43.5158V67.1983H48.393C49.6555 67.1983 50.6792 66.1734 50.6792 64.9089C50.6792 63.6446 49.6558 62.6195 48.393 62.6195H43.5314C43.6914 60.5685 45.4058 58.9475 47.4946 58.9475H57.5214C59.6102 58.9475 61.3242 60.5685 61.4845 62.6195H56.623C55.3605 62.6195 54.3367 63.6443 54.3367 64.9089C54.3367 66.1731 55.3602 67.1983 56.623 67.1983H61.5002V69.1823Z" fill="url(#paint7_linear)"/>
<path d="M144.725 103.211H65.1207C63.8582 103.211 62.8345 104.236 62.8345 105.501C62.8345 106.765 63.8579 107.79 65.1207 107.79H144.725C145.987 107.79 147.011 106.765 147.011 105.501C147.011 104.236 145.988 103.211 144.725 103.211Z" fill="url(#paint8_linear)"/>
<path d="M144.725 103.211H65.1207C63.8582 103.211 62.8345 104.236 62.8345 105.501C62.8345 106.765 63.8579 107.79 65.1207 107.79H144.725C145.987 107.79 147.011 106.765 147.011 105.501C147.011 104.236 145.988 103.211 144.725 103.211Z" fill="url(#paint9_linear)"/>
<path d="M50.5464 103.211H41.2299C39.9674 103.211 38.9436 104.236 38.9436 105.501C38.9436 106.765 39.9671 107.79 41.2299 107.79H50.5464C51.8089 107.79 52.8327 106.765 52.8327 105.501C52.8327 104.236 51.8089 103.211 50.5464 103.211Z" fill="url(#paint10_linear)"/>
<path d="M50.5464 103.211H41.2299C39.9674 103.211 38.9436 104.236 38.9436 105.501C38.9436 106.765 39.9671 107.79 41.2299 107.79H50.5464C51.8089 107.79 52.8327 106.765 52.8327 105.501C52.8327 104.236 51.8089 103.211 50.5464 103.211Z" fill="url(#paint11_linear)"/>
<defs>
<linearGradient id="paint0_linear" x1="80" y1="0" x2="80" y2="120" gradientUnits="userSpaceOnUse">
<stop stop-color="#FC7112"/>
<stop offset="1" stop-color="#F9A030" stop-opacity="0.85"/>
</linearGradient>
<linearGradient id="paint1_linear" x1="80" y1="0" x2="80" y2="120" gradientUnits="userSpaceOnUse">
<stop stop-color="#F9A030"/>
<stop offset="1" stop-color="#FFBE6C"/>
</linearGradient>
<linearGradient id="paint2_linear" x1="80" y1="0" x2="80" y2="120" gradientUnits="userSpaceOnUse">
<stop stop-color="#FC7112"/>
<stop offset="1" stop-color="#F9A030" stop-opacity="0.85"/>
</linearGradient>
<linearGradient id="paint3_linear" x1="80" y1="0" x2="80" y2="120" gradientUnits="userSpaceOnUse">
<stop stop-color="#F9A030"/>
<stop offset="1" stop-color="#FFBE6C"/>
</linearGradient>
<linearGradient id="paint4_linear" x1="80" y1="0" x2="80" y2="120" gradientUnits="userSpaceOnUse">
<stop stop-color="#FC7112"/>
<stop offset="1" stop-color="#F9A030" stop-opacity="0.85"/>
</linearGradient>
<linearGradient id="paint5_linear" x1="80" y1="0" x2="80" y2="120" gradientUnits="userSpaceOnUse">
<stop stop-color="#F9A030"/>
<stop offset="1" stop-color="#FFBE6C"/>
</linearGradient>
<linearGradient id="paint6_linear" x1="80" y1="0" x2="80" y2="120" gradientUnits="userSpaceOnUse">
<stop stop-color="#FC7112"/>
<stop offset="1" stop-color="#F9A030" stop-opacity="0.85"/>
</linearGradient>
<linearGradient id="paint7_linear" x1="80" y1="0" x2="80" y2="120" gradientUnits="userSpaceOnUse">
<stop stop-color="#F9A030"/>
<stop offset="1" stop-color="#FFBE6C"/>
</linearGradient>
<linearGradient id="paint8_linear" x1="80" y1="0" x2="80" y2="120" gradientUnits="userSpaceOnUse">
<stop stop-color="#FC7112"/>
<stop offset="1" stop-color="#F9A030" stop-opacity="0.85"/>
</linearGradient>
<linearGradient id="paint9_linear" x1="80" y1="0" x2="80" y2="120" gradientUnits="userSpaceOnUse">
<stop stop-color="#F9A030"/>
<stop offset="1" stop-color="#FFBE6C"/>
</linearGradient>
<linearGradient id="paint10_linear" x1="80" y1="0" x2="80" y2="120" gradientUnits="userSpaceOnUse">
<stop stop-color="#FC7112"/>
<stop offset="1" stop-color="#F9A030" stop-opacity="0.85"/>
</linearGradient>
<linearGradient id="paint11_linear" x1="80" y1="0" x2="80" y2="120" gradientUnits="userSpaceOnUse">
<stop stop-color="#F9A030"/>
<stop offset="1" stop-color="#FFBE6C"/>
</linearGradient>
</defs>
</svg>
