<svg width="120" height="120" viewBox="0 0 120 120" fill="none" xmlns="http://www.w3.org/2000/svg">
<path d="M40.8074 55.9736C39.148 54.3137 36.9421 53.3997 34.5958 53.3997C32.2495 53.3997 30.0433 54.3137 28.3842 55.9736C24.9593 59.4003 24.9593 64.9761 28.3842 68.4028C30.0433 70.0625 32.2497 70.9768 34.596 70.9768C36.9423 70.9768 39.1485 70.0625 40.8072 68.4028C42.4666 66.7429 43.3804 64.5358 43.3804 62.1883C43.3806 59.8405 42.4668 57.6335 40.8074 55.9736ZM38.3226 65.9169C37.3272 66.9129 36.0037 67.4614 34.596 67.4614C33.1881 67.4614 31.8644 66.9129 30.8685 65.9169C28.8138 63.8611 28.8138 60.5155 30.8688 58.4593C31.8642 57.4635 33.1877 56.915 34.5958 56.915C36.0037 56.915 37.3272 57.4635 38.3228 58.4596C39.3184 59.4554 39.8669 60.7798 39.8669 62.1883C39.8666 63.5966 39.3184 64.9205 38.3226 65.9169Z" fill="url(#paint0_linear)"/>
<path d="M63.9976 79.1741C62.3384 77.5142 60.1325 76.6002 57.7859 76.6002C55.4394 76.6002 53.2332 77.5142 51.5741 79.1741C48.1492 82.601 48.1492 88.1768 51.5743 91.6033C53.2332 93.2632 55.4391 94.1773 57.7857 94.1773C60.1323 94.1773 62.3384 93.263 63.9976 91.6031C65.6567 89.9434 66.5705 87.7362 66.5705 85.3888C66.5708 83.0412 65.6569 80.834 63.9976 79.1741ZM61.5127 89.1173C60.5171 90.1134 59.1934 90.6619 57.7855 90.6619C56.3776 90.6619 55.0541 90.1134 54.0587 89.1173C52.0037 87.0616 52.0037 83.716 54.0587 81.6596C55.0543 80.6637 56.3778 80.1153 57.7857 80.1153C59.1936 80.1153 60.5173 80.6637 61.513 81.6598C62.5081 82.6559 63.0565 83.98 63.0565 85.3886C63.0561 86.7971 62.5081 88.1213 61.5127 89.1173Z" fill="url(#paint1_linear)"/>
<path d="M63.9969 55.9735C63.3108 55.287 62.1985 55.287 61.5123 55.9733L28.3841 89.1173C27.6981 89.8036 27.6981 90.9168 28.3841 91.6031C28.727 91.9461 29.1768 92.118 29.6263 92.118C30.0759 92.118 30.5256 91.9464 30.8685 91.6031L63.9969 58.4593C64.6831 57.7727 64.6831 56.6596 63.9969 55.9735Z" fill="url(#paint2_linear)"/>
<path d="M118.54 1.46789C116.167 -0.905322 111.583 -0.393445 105.282 2.94959C99.8405 5.83678 93.6077 10.6057 88.1817 16.0342C86.0703 18.1469 84.1053 20.3293 82.3271 22.5315L57.6758 19.5735C57.3503 19.5337 57.0057 19.5126 56.6497 19.5126C55.2207 19.5173 53.656 19.8289 52.131 20.4195C50.5473 21.0407 49.2449 21.8515 48.261 22.8312L26.2621 44.838C25.578 45.5245 25.578 46.6378 26.2621 47.3246C26.5947 47.655 27.0351 47.8379 27.506 47.8379C27.9745 47.8379 28.4149 47.655 28.7474 47.3246L50.7439 25.3156C51.3367 24.7155 52.3321 24.111 53.405 23.6962C54.4733 23.2791 55.6796 23.0282 56.6307 23.0282H56.6495C56.8649 23.0282 57.0688 23.0399 57.2563 23.0633L89.3653 26.9164C90.1875 27.0102 91.0917 27.4812 91.7806 28.1772C92.4762 28.8661 92.947 29.771 93.0408 30.5935L93.7006 36.0959C91.0121 38.1491 88.3648 39.8472 85.894 41.0832C85.4375 41.3116 84.9586 41.5343 84.47 41.7446C84.0914 40.2278 83.3084 38.8363 82.1747 37.7024C80.5271 36.054 78.3361 35.146 76.006 35.146C73.6756 35.146 71.4849 36.054 69.8368 37.7024C66.4353 41.1057 66.4353 46.643 69.837 50.0461C71.4847 51.6945 73.6758 52.6024 76.006 52.6024C78.3361 52.6024 80.5273 51.6945 82.1747 50.0461C83.4319 48.7883 84.2567 47.2137 84.5778 45.5027C85.4684 45.1658 86.4277 44.7465 87.4653 44.2276C89.6133 43.153 91.8781 41.7575 94.1813 40.108L96.8918 62.7178C96.9152 62.9054 96.927 63.1091 96.927 63.3249C96.9293 64.2811 96.6811 65.495 96.2592 66.5708C95.8446 67.6443 95.2402 68.6378 94.6406 69.2331L48.261 115.632C47.7128 116.18 46.9773 116.482 46.1903 116.485C45.4033 116.482 44.6675 116.18 44.1196 115.632L4.3664 75.8604C3.81819 75.3119 3.51609 74.5761 3.51374 73.7887C3.51609 73.0013 3.81819 72.2653 4.3664 71.717L28.7474 47.3246C29.4337 46.6402 26.9484 48.0091 26.2621 47.3246C25.9319 46.9919 26.4685 46.4 26 46.4C25.5315 46.4 26.5947 44.5052 26.2621 44.838L1.88109 69.2299C1.26961 69.844 0.794061 70.561 0.468515 71.3625C0.157031 72.1384 0 72.9539 0 73.7882C0 74.6225 0.157031 75.438 0.468515 76.2116C0.794061 77.0154 1.26961 77.7327 1.88109 78.3442L41.6364 118.118C42.2479 118.73 42.9622 119.206 43.7633 119.529C44.5363 119.841 45.3517 120 46.1833 120H46.1973C47.0312 120 47.844 119.841 48.6172 119.529C49.4183 119.206 50.1353 118.73 50.7465 118.118L97.1241 71.7166C98.1033 70.7322 98.9137 69.4292 99.5323 67.845C100.123 66.3169 100.436 64.7538 100.441 63.3242C100.441 62.9703 100.42 62.6256 100.38 62.2976L97.4238 37.6353C99.6073 35.8697 101.793 33.9028 103.918 31.7772C109.355 26.3379 114.132 20.1157 117.025 14.7059C120.387 8.41774 120.911 3.84015 118.54 1.46789ZM74.9307 45.0351C75.7915 45.8964 77.1525 46.6362 79.2889 46.6362C79.6564 46.6362 80.0473 46.6139 80.4624 46.567C80.2465 46.9227 79.9918 47.2578 79.6901 47.5598C78.7062 48.5444 77.3977 49.0868 76.006 49.0868C74.6143 49.0868 73.3058 48.5444 72.3214 47.5598C70.2898 45.5273 70.2898 42.2204 72.3214 40.1879C73.3058 39.2031 74.6143 38.661 76.006 38.661C77.3977 38.661 78.706 39.2033 79.6904 40.1877C80.4354 40.9333 80.926 41.8652 81.1207 42.8781C79.5113 43.2472 78.1121 43.2467 77.415 42.5496C76.729 41.8631 75.6165 41.8633 74.9305 42.5496C74.2447 43.236 74.2447 44.3488 74.9307 45.0351ZM113.926 13.0479C111.189 18.1659 106.636 24.0866 101.433 29.2917C99.9502 30.7753 98.4396 32.1737 96.9249 33.4761L96.529 30.1734C96.3251 28.5235 95.5427 26.972 94.2661 25.69C92.9848 24.4128 91.4339 23.6301 89.7849 23.4261L86.4846 23.0303C87.7934 21.505 89.1917 19.9954 90.6663 18.5198C103.057 6.12379 114.145 2.04354 116.055 3.95364C116.942 4.8407 116.627 7.99661 113.926 13.0479Z" fill="url(#paint3_linear)"/>
<defs>
<linearGradient id="paint0_linear" x1="60" y1="0" x2="60" y2="120" gradientUnits="userSpaceOnUse">
<stop stop-color="#F9A030"/>
<stop offset="1" stop-color="#FFBE6C"/>
</linearGradient>
<linearGradient id="paint1_linear" x1="60" y1="0" x2="60" y2="120" gradientUnits="userSpaceOnUse">
<stop stop-color="#F9A030"/>
<stop offset="1" stop-color="#FFBE6C"/>
</linearGradient>
<linearGradient id="paint2_linear" x1="60" y1="0" x2="60" y2="120" gradientUnits="userSpaceOnUse">
<stop stop-color="#F9A030"/>
<stop offset="1" stop-color="#FFBE6C"/>
</linearGradient>
<linearGradient id="paint3_linear" x1="60" y1="0" x2="60" y2="120" gradientUnits="userSpaceOnUse">
<stop stop-color="#F9A030"/>
<stop offset="1" stop-color="#FFBE6C"/>
</linearGradient>
</defs>
</svg>
