<svg width="25" height="25" viewBox="0 0 25 25" fill="none" xmlns="http://www.w3.org/2000/svg">
<path d="M25 12.4999C25 19.3596 19.4494 24.9998 12.5 24.9998C5.56869 24.9998 0 19.3766 0 12.4999C0 5.59639 5.59643 0 12.5 0C19.4165 0 25 5.60821 25 12.4999Z" fill="#87DCFA"/>
<path d="M25 12.5001C25 19.3594 19.4494 25 12.5 25C5.56865 25 0 19.3769 0 12.5001C0 12.0526 0.0236818 11.6107 0.0694341 11.1755C0.886335 11.1698 1.70426 11.4003 2.32673 11.8674C2.9425 12.3304 3.74964 12.5619 4.55677 12.5619C5.36288 12.5619 6.16797 12.3309 6.78423 11.8694L6.78784 11.8668C8.0194 10.9434 10.0164 10.944 11.2453 11.8674C11.8611 12.3304 12.6683 12.5619 13.4759 12.5619C14.2815 12.5619 15.0876 12.3309 15.7029 11.8694L15.7065 11.8668C16.938 10.9434 18.934 10.944 20.164 11.8674C20.7802 12.3304 21.5869 12.5619 22.395 12.5619C23.2001 12.5619 24.0062 12.3309 24.6215 11.8694L24.6276 11.8653C24.7362 11.784 24.8509 11.7095 24.9707 11.6426C24.9902 11.926 25 12.212 25 12.5001Z" fill="#46A5CD"/>
<path d="M24.9591 13.519C24.4415 19.9091 19.1023 24.9999 12.5002 24.9999C6.21289 24.9999 1.04703 20.3732 0.141113 14.3812C0.28672 14.4022 0.434328 14.413 0.581986 14.413C1.25074 14.413 1.92052 14.1944 2.43034 13.7561L2.43342 13.7541C3.45559 12.877 5.11254 12.878 6.13266 13.7546C6.6435 14.1939 7.31328 14.413 7.98355 14.413C8.65231 14.413 9.32106 14.1944 9.83191 13.7561L9.83449 13.7541C10.8567 12.877 12.5136 12.878 13.5342 13.7546C14.0451 14.1939 14.7149 14.413 15.3851 14.413C16.0539 14.413 16.7221 14.1944 17.2335 13.7561L17.2361 13.7541C18.2582 12.877 19.9142 12.878 20.9353 13.7546C21.4466 14.1939 22.1159 14.413 22.7867 14.413C23.455 14.413 24.1237 14.1944 24.6351 13.7561L24.6397 13.752C24.7404 13.6656 24.8474 13.5879 24.9591 13.519Z" fill="#6CD0F5"/>
<path d="M19.8025 16.0165C19.3882 16.7852 18.3467 16.9306 17.7377 16.3047L13.519 11.9685C13.0598 11.5093 13.0949 10.7298 13.5974 10.2273C14.0999 9.72478 14.8795 9.68967 15.3387 10.1488L19.5892 14.4997C19.9843 14.9043 20.0708 15.5186 19.8025 16.0165Z" fill="#FA875A"/>
<path d="M15.8584 10.0098L17.4934 8.04224L15.8097 6.52222L13.7845 8.34068C12.8475 8.10274 11.7663 8.30806 11.0595 9.06944C2.07821 17.4765 2.40629 17.0047 2.5039 17.1441C3.19443 17.9569 4.09024 20.0812 6.67805 21.1787C8.35775 21.851 8.63217 22.1285 8.80204 21.8881C15.4339 12.439 16.4052 11.6037 15.8137 10.7213C15.6673 10.5029 15.6904 10.212 15.8584 10.0098Z" fill="#FFAF82"/>
<path d="M15.8585 10.0098L17.4931 8.04263L16.5416 7.18335L15.2456 9.69142C15.0523 9.9236 15.0253 10.2573 15.1935 10.5087C15.8385 11.4692 14.1595 12.2113 7.56396 21.5549L8.46695 21.9373C8.60499 21.9869 8.72394 21.9975 8.80172 21.888C15.4338 12.4392 16.4049 11.6036 15.8134 10.7216C15.6666 10.5033 15.6899 10.2115 15.8585 10.0098Z" fill="#FF9B69"/>
<path d="M20.0808 7.49934C19.6267 7.49934 19.6595 7.6196 19.6595 7.82429C19.6595 8.43371 18.4395 7.87956 18.4395 8.5634C18.7462 9.21579 19.1928 9.02072 19.1268 9.32326L18.7821 10.0563V10.0574C18.7103 10.1948 18.5824 10.2938 18.5007 10.3142C18.4713 10.3242 18.2327 10.3497 17.782 10.2126C16.4419 9.77634 15.0416 8.59861 14.6145 8.14621C14.6147 8.14602 14.6145 8.14587 14.6143 8.14587C14.4874 8.00827 14.3706 7.86486 14.257 7.70236C14.257 7.70217 14.257 7.70217 14.2566 7.70202C14.2018 7.62356 14.15 7.54318 14.1011 7.46106C14.1011 7.43723 13.3433 6.36291 13.6353 4.93547C13.841 3.61223 14.9562 2.48352 16.5758 2.49831C16.601 2.49851 16.6261 2.49909 16.6508 2.49963C18.2338 2.54089 19.4911 3.83362 19.5231 5.41677C19.5346 5.98591 19.4911 5.78679 20.3196 7.20056C20.3926 7.34226 20.2667 7.49934 20.0808 7.49934Z" fill="#FFAF82"/>
<path d="M18.7821 10.0573C18.7103 10.1948 18.5825 10.2938 18.5007 10.3142C18.4713 10.3241 18.2327 10.3497 17.7821 10.2125C16.5547 9.83907 15.0793 8.63853 14.6146 8.14615C14.6148 8.14595 14.6146 8.1458 14.6144 8.1458C14.4763 7.9961 14.3621 7.85259 14.257 7.7023C14.257 7.7021 14.257 7.7021 14.2566 7.70196C14.2022 7.62349 14.1501 7.54312 14.1011 7.46099C14.1011 7.45117 13.8995 7.1646 13.7295 6.63306C15.0122 8.23477 16.7695 9.44654 18.7821 10.0573Z" fill="#FF9B69"/>
<path d="M18.5548 6.3562C18.7551 6.3562 18.9174 6.19383 18.9174 5.99353C18.9174 5.79323 18.7551 5.63086 18.5548 5.63086C18.3545 5.63086 18.1921 5.79323 18.1921 5.99353C18.1921 6.19383 18.3545 6.3562 18.5548 6.3562Z" fill="#BA6746"/>
<path d="M7.40555 5.12667C7.89281 4.62423 8.69154 4.60113 9.20702 5.07462L13.0918 8.64261C13.5761 9.07528 13.5848 9.85561 13.1113 10.3855C12.6379 10.9154 11.8615 10.9943 11.3772 10.5617L7.46102 6.97957C6.92356 6.48801 6.89851 5.64953 7.40555 5.12667Z" fill="#FF9B69"/>
<path d="M19.4088 4.80658L13.8109 6.76918C13.7319 6.79691 13.645 6.75702 13.614 6.67914C13.237 5.73363 13.2613 4.65834 13.8626 3.81087C14.8745 2.38275 17.1341 2.14261 18.5622 3.1534C18.9233 3.40975 19.33 3.95873 19.508 4.61918C19.5292 4.69789 19.4856 4.77967 19.4088 4.80658Z" fill="#FF3C2D"/>
<path d="M19.4089 4.80673L13.8111 6.76929C13.7323 6.79693 13.6455 6.75752 13.6145 6.67994C13.5816 6.59781 13.5519 6.51461 13.5251 6.43067C15.0758 5.92702 18.1202 4.78286 18.8136 3.37268C19.0971 3.66642 19.3708 4.10934 19.5081 4.61909C19.5293 4.6978 19.4858 4.77973 19.4089 4.80673Z" fill="#CD2D23"/>
<path d="M23.8215 17.8022C23.534 18.416 23.1976 19.0029 22.8179 19.5575L18.1331 16.6386C17.5497 16.2322 17.4067 15.4297 17.8131 14.8464C18.0631 14.4873 18.4638 14.2949 18.8708 14.2949C19.1249 14.2949 19.3816 14.37 19.6059 14.5264L23.8215 17.8022Z" fill="#FF9B69"/>
<path d="M24.5021 16.0007C23.9578 17.8681 22.9892 19.559 21.7041 20.9577C21.5827 21.0904 21.4582 21.22 21.3306 21.3471C20.5379 22.1398 19.6376 22.8271 18.6536 23.3847C16.8413 24.412 14.7435 25 12.5 25C10.2597 25 8.16187 24.4125 6.34804 23.3847C5.36395 22.8276 4.4637 22.1403 3.66995 21.3471C3.5429 21.22 3.41838 21.0904 3.29646 20.9577C1.83497 19.3681 0.781937 17.4 0.297852 15.2219C0.966606 15.2219 1.63585 15.4416 2.14513 15.8793C2.65646 16.3186 3.32575 16.5383 3.99656 16.5383C4.66478 16.5383 5.33456 16.3192 5.84491 15.8809L5.8475 15.8789C6.86968 15.0023 8.52662 15.0028 9.54675 15.8794C10.0581 16.3187 10.7274 16.5384 11.3982 16.5384C12.0664 16.5384 12.7352 16.3192 13.246 15.8809L13.2491 15.8789C14.2712 15.0023 15.9282 15.0028 16.9483 15.8794C17.4596 16.3187 18.1289 16.5384 18.7992 16.5384C19.468 16.5384 20.1367 16.3193 20.6476 15.881L20.6506 15.8789C21.6728 15.0024 23.3287 15.0029 24.3499 15.8795C24.3992 15.9215 24.4501 15.9621 24.5021 16.0007Z" fill="#B4EBFF"/>
<path d="M4.48633 13.7183C3.97402 13.4723 3.75044 12.8634 3.98183 12.3444L7.05847 5.44345C7.41892 4.73544 8.28514 4.45365 8.9931 4.8141C9.70112 5.17455 9.98291 6.04076 9.62246 6.74872L5.85026 13.2959C5.57613 13.7718 4.98145 13.956 4.48633 13.7183Z" fill="#FFAF82"/>
<path d="M4.68367 14.2443L2.07036 14.4631C1.82109 14.484 1.63535 14.2374 1.72422 14.0036L2.00132 13.274C2.10747 12.9945 2.35298 12.7915 2.64742 12.7398L6.52724 12.0583L6.36684 12.7763C6.187 13.5809 5.5053 14.1755 4.68367 14.2443Z" fill="#FF9B69"/>
</svg>
