<svg width="25" height="25" viewBox="0 0 25 25" fill="none" xmlns="http://www.w3.org/2000/svg">
<path d="M25 12.5C25 19.4036 19.4036 25 12.5 25C5.59635 25 0 19.4036 0 12.5C0 5.59635 5.59635 0 12.5 0C19.4036 0 25 5.59635 25 12.5Z" fill="#FFE955"/>
<path d="M25 12.5C25 13.3408 24.917 14.1626 24.7587 14.9565C24.6773 15.3637 24.5762 15.7642 24.4566 16.1558C22.8935 21.2753 18.1313 25 12.5 25C7.3946 25 3.0035 21.9385 1.06297 17.5512C0.699234 16.729 0.421333 15.8604 0.241661 14.9565C0.0829697 14.1621 0 13.3408 0 12.5C0 10.2432 0.598145 8.12645 1.64452 6.29883C3.79887 10.062 7.85351 12.5977 12.5 12.5977C17.1465 12.5977 21.2017 10.062 23.3555 6.29883C24.4019 8.12645 25 10.2432 25 12.5Z" fill="#FFD112"/>
<path d="M8.51987 11.3502C8.51987 11.3454 8.52007 11.3408 8.52007 11.3361C8.52007 10.4778 7.82427 9.78182 6.96577 9.78182C6.76169 9.78182 6.56714 9.82149 6.3888 9.89282C6.04414 9.27543 5.38458 8.85754 4.62718 8.85754C3.64337 8.85754 2.82474 9.56191 2.64698 10.4936C2.59376 10.486 2.53959 10.482 2.48447 10.482C1.94965 10.482 1.50162 10.8522 1.38184 11.3502H8.51987Z" fill="white"/>
<path d="M7.00321 11.3502C7.00321 11.3475 7.0034 11.3449 7.0034 11.3422C7.0034 10.8486 6.60324 10.4482 6.10962 10.4482C5.99232 10.4482 5.88036 10.4711 5.77775 10.5121C5.57957 10.1572 5.20039 9.91687 4.76476 9.91687C4.19923 9.91687 3.7285 10.322 3.62607 10.8578C3.59556 10.8534 3.56447 10.8509 3.5328 10.8509C3.22534 10.8509 2.96766 11.0639 2.8988 11.3502H7.00321Z" fill="#D0F6FF"/>
<path d="M23.31 11.3502C23.31 11.3454 23.3104 11.3408 23.3104 11.3361C23.3104 10.4778 22.6144 9.78182 21.7559 9.78182C21.552 9.78182 21.3574 9.82149 21.1789 9.89282C20.8342 9.27543 20.1747 8.85754 19.4173 8.85754C18.4337 8.85754 17.615 9.56191 17.4371 10.4936C17.384 10.486 17.3299 10.482 17.2748 10.482C16.7399 10.482 16.2919 10.8522 16.1721 11.3502H23.31Z" fill="white"/>
<path d="M21.7934 11.3502C21.7934 11.3475 21.7938 11.3449 21.7938 11.3422C21.7938 10.8486 21.3934 10.4482 20.8998 10.4482C20.7825 10.4482 20.6707 10.4711 20.5681 10.5121C20.3699 10.1572 19.9906 9.91687 19.5551 9.91687C18.9894 9.91687 18.5187 10.322 18.4164 10.8578C18.3859 10.8534 18.3548 10.8509 18.323 10.8509C18.0155 10.8509 17.7578 11.0639 17.689 11.3502H21.7934Z" fill="#D0F6FF"/>
<path d="M10.2244 5.20789C10.2244 5.20483 10.2246 5.20178 10.2246 5.19873C10.2246 4.63282 9.76585 4.17391 9.19974 4.17391C9.06528 4.17391 8.9371 4.20004 8.81942 4.24715C8.59225 3.84012 8.15738 3.5647 7.65803 3.5647C7.00953 3.5647 6.46994 4.02895 6.35264 4.64331C6.31754 4.63816 6.28188 4.63549 6.24545 4.63549C5.89297 4.63549 5.59752 4.87963 5.51855 5.20789H10.2244Z" fill="white"/>
<path d="M9.22431 5.20782C9.22431 5.20611 9.2245 5.20439 9.2245 5.20248C9.2245 4.8771 8.96072 4.61331 8.63532 4.61331C8.55808 4.61331 8.48426 4.62838 8.41655 4.65547C8.2859 4.42125 8.03585 4.26294 7.74879 4.26294C7.37591 4.26294 7.06558 4.52996 6.99806 4.8832C6.97803 4.88034 6.95743 4.87862 6.93664 4.87862C6.73389 4.87862 6.56395 5.019 6.51855 5.20782H9.22431Z" fill="#D0F6FF"/>
<path d="M19.7488 5.20789C19.7488 5.20483 19.749 5.20178 19.749 5.19873C19.749 4.63282 19.2903 4.17391 18.7244 4.17391C18.5899 4.17391 18.4616 4.20004 18.3439 4.24715C18.1167 3.84012 17.682 3.5647 17.1825 3.5647C16.5342 3.5647 15.9944 4.02895 15.8771 4.64331C15.8422 4.63816 15.8065 4.63549 15.7701 4.63549C15.4176 4.63549 15.1222 4.87963 15.0432 5.20789H19.7488Z" fill="white"/>
<path d="M18.749 5.20782C18.749 5.20611 18.7492 5.20439 18.7492 5.20248C18.7492 4.8771 18.4852 4.61331 18.1598 4.61331C18.0825 4.61331 18.0087 4.62838 17.9412 4.65547C17.8106 4.42125 17.5605 4.26294 17.2733 4.26294C16.9004 4.26294 16.59 4.52996 16.5227 4.8832C16.5025 4.88034 16.4821 4.87862 16.4611 4.87862C16.2584 4.87862 16.0886 5.019 16.0432 5.20782H18.749Z" fill="#D0F6FF"/>
<path d="M15.4628 8.95116C15.4628 10.5873 14.1363 11.9141 12.5 11.9141H12.4912C10.8589 11.9091 9.53711 10.5844 9.53711 8.95116C9.53711 7.31789 10.8589 5.99303 12.4912 5.98865H12.5C14.1363 5.98865 15.4628 7.31484 15.4628 8.95116Z" fill="#FF9F00"/>
<path d="M12.4912 5.98865H12.5C14.1363 5.98865 15.4628 7.31484 15.4628 8.95116C15.4628 10.5873 14.1363 11.9141 12.5 11.9141H12.4912" fill="#FF9F00"/>
<path d="M15.4626 8.95135C15.4626 10.5873 14.1362 11.9141 12.4999 11.9141H12.4995V5.98865H12.4999C14.1362 5.98865 15.4626 7.31503 15.4626 8.95135Z" fill="#EB7722"/>
<path d="M24.7587 14.9565C24.6801 15.3502 24.583 15.7378 24.4682 16.1168C24.4643 16.1299 24.4603 16.1427 24.4565 16.1559C24.3003 16.6676 24.1123 17.1651 23.8944 17.6461C21.9331 21.9824 17.5687 25 12.4999 25C7.43114 25 3.06674 21.9824 1.1058 17.6461C1.0913 17.6142 1.077 17.5831 1.06288 17.5513C0.857842 17.0874 0.679695 16.6085 0.531685 16.1168C0.416863 15.7374 0.319778 15.3502 0.241577 14.9565H24.7587Z" fill="white"/>
<path d="M0.540527 16.1451C0.686821 16.6269 0.861916 17.0963 1.06295 17.5512C1.07706 17.5831 1.09137 17.6142 1.10587 17.646C3.06681 21.9824 7.4312 25 12.5 25C17.5688 25 21.9332 21.9824 23.8945 17.646C24.1123 17.165 24.3004 16.6676 24.4566 16.1558C24.4575 16.1522 24.4587 16.1488 24.4596 16.1451H0.540527Z" fill="#D0F6FF"/>
<path d="M23.8946 17.646C23.6323 18.226 23.3271 18.7822 22.9825 19.3109C22.7402 19.6836 22.4786 20.0424 22.1984 20.3863C21.9327 20.7128 21.6504 21.0255 21.3536 21.3232C19.0903 23.5947 15.9596 25 12.5001 25C9.04053 25 5.90923 23.5943 3.64655 21.3232C3.34976 21.0255 3.06786 20.7128 2.80235 20.3863C2.52254 20.0424 2.26028 19.6836 2.01805 19.3105C1.67339 18.7816 1.36822 18.2256 1.10596 17.646H23.8946Z" fill="#0F9BE8"/>
<path d="M22.9825 19.3109C22.7403 19.6836 22.4786 20.0424 22.1984 20.3863C21.9327 20.7128 21.6504 21.0254 21.3536 21.3232C19.0904 23.5946 15.9596 25 12.5001 25C9.04054 25 5.90925 23.5943 3.64656 21.3232C3.34978 21.0254 3.06787 20.7128 2.80237 20.3863C2.52256 20.0424 2.2603 19.6836 2.01807 19.3106C2.36044 19.1143 2.73447 18.9365 3.41119 18.9365C4.92582 18.9365 4.92582 19.8257 6.44044 19.8257C7.95564 19.8257 7.95564 18.9365 9.47027 18.9365C10.9849 18.9365 10.9849 19.8257 12.4995 19.8257C14.0143 19.8257 14.0143 18.9365 15.5293 18.9365C17.044 18.9365 17.044 19.8257 18.5586 19.8257C20.0738 19.8257 20.0738 18.9365 21.5884 18.9365C22.2657 18.9365 22.6407 19.1143 22.9825 19.3109Z" fill="#84C3F7"/>
<path d="M14.9004 21.228C15.0852 21.4557 15.4451 21.6104 15.8588 21.6104C16.2724 21.6104 16.6323 21.4557 16.8171 21.228H14.9004Z" fill="#D0F6FF"/>
<path d="M18.6338 21.228C18.8186 21.4557 19.1785 21.6104 19.5922 21.6104C20.0057 21.6104 20.3657 21.4557 20.5505 21.228H18.6338Z" fill="#D0F6FF"/>
<path d="M16.2981 21.2281H15.4192V14.6056C15.4192 13.6571 16.1911 12.8854 17.1396 12.8854C18.0881 12.8854 18.8597 13.6571 18.8597 14.6056V14.9566H17.9808V14.6056C17.9808 14.1417 17.6035 13.7643 17.1396 13.7643C16.6756 13.7643 16.2981 14.1417 16.2981 14.6056V21.2281Z" fill="#535E89"/>
<path d="M20.0317 21.2281H19.1528V14.6056C19.1528 13.6571 19.9245 12.8854 20.8731 12.8854C21.8214 12.8854 22.5933 13.6571 22.5933 14.6056V14.9566H21.7144V14.6056C21.7144 14.1417 21.3369 13.7643 20.8731 13.7643C20.409 13.7643 20.0317 14.1417 20.0317 14.6056V21.2281Z" fill="#535E89"/>
<path d="M15.8586 15.5601H19.5923V16.4389H15.8586V15.5601Z" fill="#535E89"/>
<path d="M15.8586 17.4478H19.5923V18.3267H15.8586V17.4478Z" fill="#535E89"/>
<path d="M15.8586 19.4114H19.5923V20.2903H15.8586V19.4114Z" fill="#535E89"/>
</svg>
