<svg width="94" height="90" viewBox="0 0 94 90" fill="none" xmlns="http://www.w3.org/2000/svg">
<path d="M92.6077 54.4001L88.0685 49.9002C86.2713 48.1207 83.139 48.1207 81.3418 49.9002L56.8217 74.2013L53.4424 86.4837L52.6155 87.3032C51.9973 87.9158 51.9957 88.9042 52.6059 89.5216L52.598 89.5532L52.6283 89.5453C52.9373 89.8468 53.3388 90 53.7419 90C54.1498 90 54.5577 89.8453 54.8684 89.5374L55.6969 88.7163L68.0892 85.3675L92.6093 61.0663C94.4638 59.2284 94.4638 56.2379 92.6077 54.4001ZM60.5005 75.0224L76.8202 58.8495L83.5803 65.5488L67.2607 81.7217L60.5005 75.0224ZM59.0618 78.0634L64.1921 83.1475L57.1371 85.0548L59.0618 78.0634ZM90.3548 58.8337L85.8332 63.3162L79.073 56.6169L83.5963 52.1343C84.189 51.5454 85.223 51.5454 85.8157 52.1343L90.3564 56.6343C90.9682 57.239 90.9682 58.2274 90.3548 58.8337Z" fill="white"/>
<path d="M92.6077 54.4001L88.0685 49.9002C86.2713 48.1207 83.139 48.1207 81.3418 49.9002L56.8217 74.2013L53.4424 86.4837L52.6155 87.3032C51.9973 87.9158 51.9957 88.9042 52.6059 89.5216L52.598 89.5532L52.6283 89.5453C52.9373 89.8468 53.3388 90 53.7419 90C54.1498 90 54.5577 89.8453 54.8684 89.5374L55.6969 88.7163L68.0892 85.3675L92.6093 61.0663C94.4638 59.2284 94.4638 56.2379 92.6077 54.4001ZM60.5005 75.0224L76.8202 58.8495L83.5803 65.5488L67.2607 81.7217L60.5005 75.0224ZM59.0618 78.0634L64.1921 83.1475L57.1371 85.0548L59.0618 78.0634ZM90.3548 58.8337L85.8332 63.3162L79.073 56.6169L83.5963 52.1343C84.189 51.5454 85.223 51.5454 85.8157 52.1343L90.3564 56.6343C90.9682 57.239 90.9682 58.2274 90.3548 58.8337Z" fill="url(#paint0_linear)"/>
<path d="M92.6077 54.4001L88.0685 49.9002C86.2713 48.1207 83.139 48.1207 81.3418 49.9002L56.8217 74.2013L53.4424 86.4837L52.6155 87.3032C51.9973 87.9158 51.9957 88.9042 52.6059 89.5216L52.598 89.5532L52.6283 89.5453C52.9373 89.8468 53.3388 90 53.7419 90C54.1498 90 54.5577 89.8453 54.8684 89.5374L55.6969 88.7163L68.0892 85.3675L92.6093 61.0663C94.4638 59.2284 94.4638 56.2379 92.6077 54.4001ZM60.5005 75.0224L76.8202 58.8495L83.5803 65.5488L67.2607 81.7217L60.5005 75.0224ZM59.0618 78.0634L64.1921 83.1475L57.1371 85.0548L59.0618 78.0634ZM90.3548 58.8337L85.8332 63.3162L79.073 56.6169L83.5963 52.1343C84.189 51.5454 85.223 51.5454 85.8157 52.1343L90.3564 56.6343C90.9682 57.239 90.9682 58.2274 90.3548 58.8337Z" fill="url(#paint1_linear)"/>
<path d="M71.6963 50.5254V33.1573H11.1528V78.946H43.0178V50.5254H71.6963ZM57.3571 36.3151H68.5098V47.3676H57.3571V36.3151ZM28.6785 36.3151H39.8313V47.3676H28.6785V36.3151ZM14.3393 36.3151H25.492V47.3676H14.3393V36.3151ZM14.3393 50.5254H25.492V61.5779H14.3393V50.5254ZM25.492 75.7881H14.3393V64.7357H25.492V75.7881ZM39.8313 75.7881H28.6785V64.7357H39.8313V75.7881ZM39.8313 61.5779H28.6785V50.5254H39.8313V61.5779ZM43.0178 47.3676V36.3151H54.1706V47.3676H43.0178Z" fill="white"/>
<path d="M71.6963 50.5254V33.1573H11.1528V78.946H43.0178V50.5254H71.6963ZM57.3571 36.3151H68.5098V47.3676H57.3571V36.3151ZM28.6785 36.3151H39.8313V47.3676H28.6785V36.3151ZM14.3393 36.3151H25.492V47.3676H14.3393V36.3151ZM14.3393 50.5254H25.492V61.5779H14.3393V50.5254ZM25.492 75.7881H14.3393V64.7357H25.492V75.7881ZM39.8313 75.7881H28.6785V64.7357H39.8313V75.7881ZM39.8313 61.5779H28.6785V50.5254H39.8313V61.5779ZM43.0178 47.3676V36.3151H54.1706V47.3676H43.0178Z" fill="url(#paint2_linear)"/>
<path d="M71.6963 50.5254V33.1573H11.1528V78.946H43.0178V50.5254H71.6963ZM57.3571 36.3151H68.5098V47.3676H57.3571V36.3151ZM28.6785 36.3151H39.8313V47.3676H28.6785V36.3151ZM14.3393 36.3151H25.492V47.3676H14.3393V36.3151ZM14.3393 50.5254H25.492V61.5779H14.3393V50.5254ZM25.492 75.7881H14.3393V64.7357H25.492V75.7881ZM39.8313 75.7881H28.6785V64.7357H39.8313V75.7881ZM39.8313 61.5779H28.6785V50.5254H39.8313V61.5779ZM43.0178 47.3676V36.3151H54.1706V47.3676H43.0178Z" fill="url(#paint3_linear)"/>
<path d="M41.4245 86.8406H3.1865V25.2627H79.6625V45.7887C79.6625 46.6618 80.3763 47.3676 81.2558 47.3676C82.1353 47.3676 82.849 46.6618 82.849 45.7887V7.8946C82.849 7.02146 82.1353 6.31568 81.2558 6.31568H73.2895V1.57892C73.2895 0.705777 72.5758 0 71.6963 0H60.5435C59.6641 0 58.9503 0.705777 58.9503 1.57892V6.31568H23.8988V1.57892C23.8988 0.705777 23.185 0 22.3055 0H11.1528C10.2733 0 9.5595 0.705777 9.5595 1.57892V6.31568H1.59325C0.713776 6.31568 0 7.02146 0 7.8946V88.4195C0 89.2927 0.713776 89.9985 1.59325 89.9985H41.4245C42.304 89.9985 43.0178 89.2927 43.0178 88.4195C43.0178 87.5464 42.304 86.8406 41.4245 86.8406ZM62.1368 3.15784H70.103V12.6314H62.1368V3.15784ZM12.746 3.15784H20.7123V12.6314H12.746V3.15784ZM3.1865 9.47352H9.5595V14.2103C9.5595 15.0834 10.2733 15.7892 11.1528 15.7892H22.3055C23.185 15.7892 23.8988 15.0834 23.8988 14.2103V9.47352H58.9503V14.2103C58.9503 15.0834 59.6641 15.7892 60.5435 15.7892H71.6963C72.5758 15.7892 73.2895 15.0834 73.2895 14.2103V9.47352H79.6625V22.1049H3.1865V9.47352Z" fill="white"/>
<path d="M41.4245 86.8406H3.1865V25.2627H79.6625V45.7887C79.6625 46.6618 80.3763 47.3676 81.2558 47.3676C82.1353 47.3676 82.849 46.6618 82.849 45.7887V7.8946C82.849 7.02146 82.1353 6.31568 81.2558 6.31568H73.2895V1.57892C73.2895 0.705777 72.5758 0 71.6963 0H60.5435C59.6641 0 58.9503 0.705777 58.9503 1.57892V6.31568H23.8988V1.57892C23.8988 0.705777 23.185 0 22.3055 0H11.1528C10.2733 0 9.5595 0.705777 9.5595 1.57892V6.31568H1.59325C0.713776 6.31568 0 7.02146 0 7.8946V88.4195C0 89.2927 0.713776 89.9985 1.59325 89.9985H41.4245C42.304 89.9985 43.0178 89.2927 43.0178 88.4195C43.0178 87.5464 42.304 86.8406 41.4245 86.8406ZM62.1368 3.15784H70.103V12.6314H62.1368V3.15784ZM12.746 3.15784H20.7123V12.6314H12.746V3.15784ZM3.1865 9.47352H9.5595V14.2103C9.5595 15.0834 10.2733 15.7892 11.1528 15.7892H22.3055C23.185 15.7892 23.8988 15.0834 23.8988 14.2103V9.47352H58.9503V14.2103C58.9503 15.0834 59.6641 15.7892 60.5435 15.7892H71.6963C72.5758 15.7892 73.2895 15.0834 73.2895 14.2103V9.47352H79.6625V22.1049H3.1865V9.47352Z" fill="url(#paint4_linear)"/>
<path d="M41.4245 86.8406H3.1865V25.2627H79.6625V45.7887C79.6625 46.6618 80.3763 47.3676 81.2558 47.3676C82.1353 47.3676 82.849 46.6618 82.849 45.7887V7.8946C82.849 7.02146 82.1353 6.31568 81.2558 6.31568H73.2895V1.57892C73.2895 0.705777 72.5758 0 71.6963 0H60.5435C59.6641 0 58.9503 0.705777 58.9503 1.57892V6.31568H23.8988V1.57892C23.8988 0.705777 23.185 0 22.3055 0H11.1528C10.2733 0 9.5595 0.705777 9.5595 1.57892V6.31568H1.59325C0.713776 6.31568 0 7.02146 0 7.8946V88.4195C0 89.2927 0.713776 89.9985 1.59325 89.9985H41.4245C42.304 89.9985 43.0178 89.2927 43.0178 88.4195C43.0178 87.5464 42.304 86.8406 41.4245 86.8406ZM62.1368 3.15784H70.103V12.6314H62.1368V3.15784ZM12.746 3.15784H20.7123V12.6314H12.746V3.15784ZM3.1865 9.47352H9.5595V14.2103C9.5595 15.0834 10.2733 15.7892 11.1528 15.7892H22.3055C23.185 15.7892 23.8988 15.0834 23.8988 14.2103V9.47352H58.9503V14.2103C58.9503 15.0834 59.6641 15.7892 60.5435 15.7892H71.6963C72.5758 15.7892 73.2895 15.0834 73.2895 14.2103V9.47352H79.6625V22.1049H3.1865V9.47352Z" fill="url(#paint5_linear)"/>
<defs>
<linearGradient id="paint0_linear" x1="633.832" y1="2926.8" x2="633.832" y2="3039.3" gradientUnits="userSpaceOnUse">
<stop stop-color="#00A651"/>
<stop offset="1" stop-color="#FDB813"/>
</linearGradient>
<linearGradient id="paint1_linear" x1="47" y1="0" x2="47" y2="90" gradientUnits="userSpaceOnUse">
<stop stop-color="#F9A030"/>
<stop offset="1" stop-color="#FFBE6C"/>
</linearGradient>
<linearGradient id="paint2_linear" x1="633.832" y1="2926.8" x2="633.832" y2="3039.3" gradientUnits="userSpaceOnUse">
<stop stop-color="#00A651"/>
<stop offset="1" stop-color="#FDB813"/>
</linearGradient>
<linearGradient id="paint3_linear" x1="47" y1="0" x2="47" y2="90" gradientUnits="userSpaceOnUse">
<stop stop-color="#F9A030"/>
<stop offset="1" stop-color="#FFBE6C"/>
</linearGradient>
<linearGradient id="paint4_linear" x1="633.832" y1="2926.8" x2="633.832" y2="3039.3" gradientUnits="userSpaceOnUse">
<stop stop-color="#00A651"/>
<stop offset="1" stop-color="#FDB813"/>
</linearGradient>
<linearGradient id="paint5_linear" x1="47" y1="0" x2="47" y2="90" gradientUnits="userSpaceOnUse">
<stop stop-color="#F9A030"/>
<stop offset="1" stop-color="#FFBE6C"/>
</linearGradient>
</defs>
</svg>
