<svg width="129" height="90" viewBox="0 0 129 90" fill="none" xmlns="http://www.w3.org/2000/svg">
<path d="M10.6334 34.8723C9.88034 35.6237 9.88084 36.8426 10.6334 37.5942C11.386 38.3457 12.6057 38.3457 13.3575 37.5942C14.1101 36.8421 14.1101 35.6234 13.3575 34.8718C12.6055 34.1206 11.386 34.1203 10.6334 34.8723Z" fill="black"/>
<path d="M10.6334 34.8723C9.88034 35.6237 9.88084 36.8426 10.6334 37.5942C11.386 38.3457 12.6057 38.3457 13.3575 37.5942C14.1101 36.8421 14.1101 35.6234 13.3575 34.8718C12.6055 34.1206 11.386 34.1203 10.6334 34.8723Z" fill="url(#paint0_linear)"/>
<path d="M117.004 38.1581C118.068 38.1581 118.931 37.2962 118.931 36.2331C118.931 35.17 118.068 34.3081 117.004 34.3081C115.94 34.3081 115.077 35.17 115.077 36.2331C115.077 37.2962 115.94 38.1581 117.004 38.1581Z" fill="black"/>
<path d="M117.004 38.1581C118.068 38.1581 118.931 37.2962 118.931 36.2331C118.931 35.17 118.068 34.3081 117.004 34.3081C115.94 34.3081 115.077 35.17 115.077 36.2331C115.077 37.2962 115.94 38.1581 117.004 38.1581Z" fill="url(#paint1_linear)"/>
<path d="M128.408 32.6521L96.3189 0.59182C95.9397 0.212964 95.4255 0.000251593 94.8893 0.000251593C94.3531 0.000251593 93.8389 0.212964 93.4597 0.59182L79.5469 14.4932C75.019 11.3244 68.7162 11.7594 64.6756 15.7969L64.5 15.9729L64.3241 15.7972C62.1304 13.6053 59.214 12.3983 56.1117 12.398C53.6942 12.398 51.3894 13.1311 49.4516 14.4917L47.6718 12.7134L47.6693 12.7107L35.54 0.591568C35.1608 0.212713 34.6468 0 34.1104 0C33.5743 0 33.0605 0.212713 32.6808 0.591568L0.591838 32.6523C0.2129 33.0312 0 33.5447 0 34.0804C0 34.6161 0.2129 35.1299 0.591838 35.5085L12.7214 47.6273C13.1162 48.0215 13.6337 48.2189 14.1509 48.2189C14.6685 48.2189 15.1857 48.0218 15.5805 47.6273L19.1074 44.1036L34.7355 59.718C34.2447 60.6582 33.9655 61.7253 33.9655 62.8571C33.9663 66.6016 37.0066 69.649 40.7499 69.6674C40.7685 73.3963 43.8003 76.4259 47.5327 76.4445C47.5413 78.2512 48.2488 79.9486 49.5287 81.2274C50.8083 82.5062 52.5078 83.2133 54.3165 83.2219C54.3249 85.0288 55.0323 86.7265 56.3123 88.005C57.6 89.2914 59.3123 90 61.1331 90C62.3566 90 63.5048 89.6748 64.4985 89.1084C65.5393 89.6992 66.7033 89.9965 67.8678 89.9965C69.6139 89.9965 71.3602 89.3324 72.6895 88.0043C74.0102 86.6842 74.6746 84.9528 74.6824 83.2191C76.4179 83.2111 78.1511 82.547 79.472 81.2274C80.7923 79.9083 81.4564 78.1782 81.4655 76.4453C83.2748 76.4372 84.9747 75.7296 86.2544 74.4508C87.535 73.1715 88.2435 71.4728 88.2516 69.6651C89.986 69.6563 91.7177 68.9925 93.0385 67.6734C95.2133 65.5003 95.6404 62.2388 94.3063 59.6772L109.893 44.1041L113.42 47.6281C113.799 48.0069 114.313 48.2196 114.85 48.2196C115.386 48.2196 115.9 48.0069 116.279 47.6281L128.409 35.5087C129.197 34.7195 129.197 33.4407 128.408 32.6521ZM14.1509 43.3431L4.88008 34.0801L34.1102 4.87579L43.3808 14.1387L14.1509 43.3431ZM40.7829 65.6289C39.2528 65.6289 38.0076 64.3851 38.0074 62.8566C38.0076 61.3275 39.2525 60.0835 40.7829 60.0835C42.313 60.0835 43.5574 61.3276 43.5576 62.8558C43.5576 64.3848 42.313 65.6286 40.7829 65.6289ZM47.5662 72.406C46.0359 72.406 44.7912 71.1619 44.7912 69.6329C44.7912 68.1042 46.0361 66.8606 47.566 66.8606C49.0963 66.8606 50.3412 68.1047 50.3412 69.6337C50.3412 71.1622 49.0963 72.406 47.5662 72.406ZM56.311 78.3713C55.7872 78.8951 55.0905 79.1834 54.3501 79.1834C53.6088 79.1834 52.9109 78.8949 52.3868 78.3713C51.8625 77.8474 51.574 77.1511 51.574 76.4105C51.574 75.67 51.8625 74.9742 52.3868 74.4506C52.9106 73.9267 53.6078 73.6385 54.3488 73.6385C55.8789 73.6385 57.1236 74.8825 57.1236 76.4118C57.1236 77.1514 56.8353 77.8474 56.311 78.3713ZM61.1326 85.9607C60.3911 85.9607 59.6945 85.6722 59.1704 85.1486C58.6466 84.6253 58.3579 83.9287 58.3579 83.1882C58.3579 81.6594 59.6025 80.4158 61.1321 80.4158C62.6627 80.4158 63.9076 81.6599 63.9076 83.1884C63.9074 84.7169 62.6625 85.9607 61.1326 85.9607ZM90.1795 64.8168C89.0974 65.898 87.3368 65.898 86.2546 64.8168L75.0369 53.609C74.2473 52.8203 72.9676 52.8203 72.178 53.609C71.3886 54.3976 71.3886 55.6764 72.178 56.4649L83.3957 67.6727C83.92 68.1965 84.2088 68.8928 84.2085 69.6332C84.2085 70.374 83.9198 71.0701 83.3952 71.5939C82.8716 72.1173 82.1752 72.4055 81.434 72.4055C80.693 72.4055 79.9966 72.1173 79.4728 71.5942L68.2546 60.3858C67.465 59.5971 66.1853 59.5971 65.3959 60.3858C64.6066 61.1745 64.6066 62.4533 65.3959 63.242L76.6136 74.4498C77.695 75.5307 77.6948 77.2901 76.6134 78.3705C75.5312 79.4517 73.7711 79.4517 72.6892 78.3713L61.471 67.1629C60.6814 66.3743 59.4017 66.3743 58.6123 67.1629C57.823 67.9516 57.823 69.2304 58.6123 70.0191L69.8301 81.2269C70.9117 82.3081 70.9119 84.0669 69.8301 85.1479C69.1641 85.813 68.2417 86.0675 67.3783 85.9142C67.7449 85.0787 67.95 84.1568 67.95 83.1882C67.95 79.4436 64.9097 76.3954 61.1654 76.3771C61.147 72.6479 58.115 69.6183 54.3828 69.5997C54.3647 65.8703 51.3322 62.8405 47.5995 62.8221C47.5808 59.0816 44.5302 56.0442 40.7829 56.0442C39.6252 56.0442 38.5342 56.335 37.5778 56.8462L21.9653 41.2477L46.2389 16.9954L47.898 18.6533C48.6877 19.442 49.9673 19.442 50.7567 18.6533C52.1868 17.2245 54.0878 16.4378 56.1105 16.4378C58.1329 16.4378 60.0344 17.225 61.464 18.6535L61.6398 18.8298L50.4085 30.0507C47.7509 32.7062 47.7514 37.0279 50.4095 39.6842C51.7388 41.0121 53.4838 41.6756 55.2299 41.6756C56.9754 41.6754 58.7217 41.0113 60.0505 39.6834L64.5138 35.2243L90.2445 60.8963C91.3095 61.9584 91.2796 63.7177 90.1795 64.8168ZM91.6646 56.6033L70.3297 35.3164C74.086 36.1582 78.1825 35.1221 81.1004 32.207C81.8898 31.4183 81.8898 30.1395 81.1004 29.3511C80.3108 28.5624 79.0311 28.5624 78.2418 29.3511C75.2906 32.3004 70.4874 32.3007 67.5348 29.3511C66.7457 28.5624 65.4655 28.5627 64.6766 29.3514L57.1938 36.827C56.1115 37.9082 54.3516 37.908 53.2702 36.8275C52.1878 35.7461 52.1875 33.9868 53.2692 32.9058L67.5353 18.653C70.4871 15.7035 75.2909 15.7033 78.2428 18.6528C79.0324 19.4415 80.312 19.4415 81.1017 18.6528L82.761 16.9949L107.034 41.2474L91.6646 56.6033ZM114.849 43.3431L85.6192 14.1387L94.8896 4.87604L124.12 34.0801L114.849 43.3431Z" fill="black"/>
<path d="M128.408 32.6521L96.3189 0.59182C95.9397 0.212964 95.4255 0.000251593 94.8893 0.000251593C94.3531 0.000251593 93.8389 0.212964 93.4597 0.59182L79.5469 14.4932C75.019 11.3244 68.7162 11.7594 64.6756 15.7969L64.5 15.9729L64.3241 15.7972C62.1304 13.6053 59.214 12.3983 56.1117 12.398C53.6942 12.398 51.3894 13.1311 49.4516 14.4917L47.6718 12.7134L47.6693 12.7107L35.54 0.591568C35.1608 0.212713 34.6468 0 34.1104 0C33.5743 0 33.0605 0.212713 32.6808 0.591568L0.591838 32.6523C0.2129 33.0312 0 33.5447 0 34.0804C0 34.6161 0.2129 35.1299 0.591838 35.5085L12.7214 47.6273C13.1162 48.0215 13.6337 48.2189 14.1509 48.2189C14.6685 48.2189 15.1857 48.0218 15.5805 47.6273L19.1074 44.1036L34.7355 59.718C34.2447 60.6582 33.9655 61.7253 33.9655 62.8571C33.9663 66.6016 37.0066 69.649 40.7499 69.6674C40.7685 73.3963 43.8003 76.4259 47.5327 76.4445C47.5413 78.2512 48.2488 79.9486 49.5287 81.2274C50.8083 82.5062 52.5078 83.2133 54.3165 83.2219C54.3249 85.0288 55.0323 86.7265 56.3123 88.005C57.6 89.2914 59.3123 90 61.1331 90C62.3566 90 63.5048 89.6748 64.4985 89.1084C65.5393 89.6992 66.7033 89.9965 67.8678 89.9965C69.6139 89.9965 71.3602 89.3324 72.6895 88.0043C74.0102 86.6842 74.6746 84.9528 74.6824 83.2191C76.4179 83.2111 78.1511 82.547 79.472 81.2274C80.7923 79.9083 81.4564 78.1782 81.4655 76.4453C83.2748 76.4372 84.9747 75.7296 86.2544 74.4508C87.535 73.1715 88.2435 71.4728 88.2516 69.6651C89.986 69.6563 91.7177 68.9925 93.0385 67.6734C95.2133 65.5003 95.6404 62.2388 94.3063 59.6772L109.893 44.1041L113.42 47.6281C113.799 48.0069 114.313 48.2196 114.85 48.2196C115.386 48.2196 115.9 48.0069 116.279 47.6281L128.409 35.5087C129.197 34.7195 129.197 33.4407 128.408 32.6521ZM14.1509 43.3431L4.88008 34.0801L34.1102 4.87579L43.3808 14.1387L14.1509 43.3431ZM40.7829 65.6289C39.2528 65.6289 38.0076 64.3851 38.0074 62.8566C38.0076 61.3275 39.2525 60.0835 40.7829 60.0835C42.313 60.0835 43.5574 61.3276 43.5576 62.8558C43.5576 64.3848 42.313 65.6286 40.7829 65.6289ZM47.5662 72.406C46.0359 72.406 44.7912 71.1619 44.7912 69.6329C44.7912 68.1042 46.0361 66.8606 47.566 66.8606C49.0963 66.8606 50.3412 68.1047 50.3412 69.6337C50.3412 71.1622 49.0963 72.406 47.5662 72.406ZM56.311 78.3713C55.7872 78.8951 55.0905 79.1834 54.3501 79.1834C53.6088 79.1834 52.9109 78.8949 52.3868 78.3713C51.8625 77.8474 51.574 77.1511 51.574 76.4105C51.574 75.67 51.8625 74.9742 52.3868 74.4506C52.9106 73.9267 53.6078 73.6385 54.3488 73.6385C55.8789 73.6385 57.1236 74.8825 57.1236 76.4118C57.1236 77.1514 56.8353 77.8474 56.311 78.3713ZM61.1326 85.9607C60.3911 85.9607 59.6945 85.6722 59.1704 85.1486C58.6466 84.6253 58.3579 83.9287 58.3579 83.1882C58.3579 81.6594 59.6025 80.4158 61.1321 80.4158C62.6627 80.4158 63.9076 81.6599 63.9076 83.1884C63.9074 84.7169 62.6625 85.9607 61.1326 85.9607ZM90.1795 64.8168C89.0974 65.898 87.3368 65.898 86.2546 64.8168L75.0369 53.609C74.2473 52.8203 72.9676 52.8203 72.178 53.609C71.3886 54.3976 71.3886 55.6764 72.178 56.4649L83.3957 67.6727C83.92 68.1965 84.2088 68.8928 84.2085 69.6332C84.2085 70.374 83.9198 71.0701 83.3952 71.5939C82.8716 72.1173 82.1752 72.4055 81.434 72.4055C80.693 72.4055 79.9966 72.1173 79.4728 71.5942L68.2546 60.3858C67.465 59.5971 66.1853 59.5971 65.3959 60.3858C64.6066 61.1745 64.6066 62.4533 65.3959 63.242L76.6136 74.4498C77.695 75.5307 77.6948 77.2901 76.6134 78.3705C75.5312 79.4517 73.7711 79.4517 72.6892 78.3713L61.471 67.1629C60.6814 66.3743 59.4017 66.3743 58.6123 67.1629C57.823 67.9516 57.823 69.2304 58.6123 70.0191L69.8301 81.2269C70.9117 82.3081 70.9119 84.0669 69.8301 85.1479C69.1641 85.813 68.2417 86.0675 67.3783 85.9142C67.7449 85.0787 67.95 84.1568 67.95 83.1882C67.95 79.4436 64.9097 76.3954 61.1654 76.3771C61.147 72.6479 58.115 69.6183 54.3828 69.5997C54.3647 65.8703 51.3322 62.8405 47.5995 62.8221C47.5808 59.0816 44.5302 56.0442 40.7829 56.0442C39.6252 56.0442 38.5342 56.335 37.5778 56.8462L21.9653 41.2477L46.2389 16.9954L47.898 18.6533C48.6877 19.442 49.9673 19.442 50.7567 18.6533C52.1868 17.2245 54.0878 16.4378 56.1105 16.4378C58.1329 16.4378 60.0344 17.225 61.464 18.6535L61.6398 18.8298L50.4085 30.0507C47.7509 32.7062 47.7514 37.0279 50.4095 39.6842C51.7388 41.0121 53.4838 41.6756 55.2299 41.6756C56.9754 41.6754 58.7217 41.0113 60.0505 39.6834L64.5138 35.2243L90.2445 60.8963C91.3095 61.9584 91.2796 63.7177 90.1795 64.8168ZM91.6646 56.6033L70.3297 35.3164C74.086 36.1582 78.1825 35.1221 81.1004 32.207C81.8898 31.4183 81.8898 30.1395 81.1004 29.3511C80.3108 28.5624 79.0311 28.5624 78.2418 29.3511C75.2906 32.3004 70.4874 32.3007 67.5348 29.3511C66.7457 28.5624 65.4655 28.5627 64.6766 29.3514L57.1938 36.827C56.1115 37.9082 54.3516 37.908 53.2702 36.8275C52.1878 35.7461 52.1875 33.9868 53.2692 32.9058L67.5353 18.653C70.4871 15.7035 75.2909 15.7033 78.2428 18.6528C79.0324 19.4415 80.312 19.4415 81.1017 18.6528L82.761 16.9949L107.034 41.2474L91.6646 56.6033ZM114.849 43.3431L85.6192 14.1387L94.8896 4.87604L124.12 34.0801L114.849 43.3431Z" fill="url(#paint2_linear)"/>
<defs>
<linearGradient id="paint0_linear" x1="64.5" y1="0" x2="64.5" y2="90" gradientUnits="userSpaceOnUse">
<stop stop-color="#F9A030"/>
<stop offset="1" stop-color="#FFBE6C"/>
</linearGradient>
<linearGradient id="paint1_linear" x1="64.5" y1="0" x2="64.5" y2="90" gradientUnits="userSpaceOnUse">
<stop stop-color="#F9A030"/>
<stop offset="1" stop-color="#FFBE6C"/>
</linearGradient>
<linearGradient id="paint2_linear" x1="64.5" y1="0" x2="64.5" y2="90" gradientUnits="userSpaceOnUse">
<stop stop-color="#F9A030"/>
<stop offset="1" stop-color="#FFBE6C"/>
</linearGradient>
</defs>
</svg>
