<svg width="100" height="90" viewBox="0 0 100 90" fill="none" xmlns="http://www.w3.org/2000/svg">
<path d="M95.6057 37.5807H94.1416V17.3053C94.1416 12.1245 89.9797 7.90958 84.8643 7.90958H44.6341L17.4929 0.0560865C17.4851 0.0539107 17.4771 0.0527235 17.4693 0.0505477C17.4613 0.0483719 17.4537 0.0452073 17.4457 0.0432293C17.4293 0.0390755 17.4131 0.0370975 17.3968 0.0335371C17.3716 0.0281964 17.3465 0.022658 17.3213 0.0185042C17.2984 0.0147459 17.2759 0.0123723 17.2531 0.00960309C17.2265 0.00643827 17.2002 0.00366904 17.1738 0.00208663C17.1523 0.000899823 17.131 0.000701867 17.1095 0.000306265C17.0822 -8.9337e-05 17.055 -0.000287087 17.0279 0.00089972C17.0078 0.00169092 16.9877 0.00366881 16.9677 0.00525122C16.9398 0.00762483 16.9119 0.0101965 16.8843 0.0143504C16.8656 0.0171196 16.847 0.0206799 16.8285 0.0240426C16.8 0.0291854 16.7718 0.0347236 16.7439 0.0416466C16.7265 0.0459982 16.7095 0.0509434 16.6924 0.0558884C16.6638 0.064196 16.6357 0.0727015 16.6076 0.0825916C16.5918 0.0883278 16.5761 0.0944599 16.5603 0.100789C16.532 0.111866 16.5039 0.123536 16.4763 0.136393C16.4617 0.143316 16.4474 0.150833 16.433 0.158152C16.4054 0.172195 16.3783 0.186437 16.3517 0.202459C16.3379 0.210569 16.3246 0.219272 16.3109 0.227976C16.2847 0.244591 16.259 0.261602 16.234 0.279997C16.2209 0.289492 16.2082 0.299777 16.1953 0.309865C16.1713 0.328656 16.1474 0.347843 16.1246 0.368216C16.1117 0.379689 16.0994 0.391755 16.0869 0.403623C16.0654 0.424194 16.0441 0.444765 16.0238 0.466523C16.0111 0.480172 15.9992 0.494413 15.9869 0.508655C15.9683 0.530215 15.95 0.551974 15.9326 0.574721C15.9201 0.591138 15.9084 0.607951 15.8965 0.624765C15.881 0.64672 15.8658 0.668874 15.8517 0.691621C15.8396 0.711006 15.8285 0.731182 15.8174 0.751159C15.805 0.773115 15.7927 0.795269 15.7816 0.818016C15.7707 0.840169 15.7609 0.862917 15.7509 0.885664C15.7412 0.908016 15.7316 0.930367 15.723 0.953312C15.714 0.977444 15.7062 1.00217 15.6982 1.02709C15.6931 1.04311 15.6869 1.05815 15.6822 1.07437C15.6799 1.08248 15.6789 1.09039 15.6767 1.0983C15.6746 1.10641 15.6715 1.11412 15.6695 1.12223L13.9945 7.90919H9.2783C4.17304 7.90919 0.0183593 12.1071 0.00156249 17.2737C0.00136718 17.2844 0 17.2945 0 17.3049V68.7332C0 69.5521 0.658202 70.2167 1.46484 70.2167C2.27343 70.2167 2.92968 69.5521 2.92968 68.7332V24.1475C4.59062 25.7291 6.82382 26.7011 9.2783 26.7011H84.8643C84.8661 26.7011 84.8676 26.7009 84.8694 26.7009C88.367 26.7037 91.2119 29.5864 91.2119 33.1296V43.515H75.0963L75.0936 43.5152C75.0512 43.5152 75.009 43.5177 74.967 43.5215C74.9204 43.5256 74.8743 43.5324 74.829 43.5409C74.8221 43.5421 74.8155 43.5427 74.8086 43.544C74.7704 43.5518 74.7329 43.562 74.6956 43.5727C74.6874 43.5751 74.679 43.5767 74.671 43.5792C74.6377 43.5895 74.6055 43.6018 74.5733 43.6143C74.561 43.619 74.5485 43.623 74.5362 43.6281C74.5092 43.6394 74.4833 43.6526 74.4573 43.6655C74.4401 43.6738 74.4227 43.6815 74.4059 43.6904C74.3856 43.7013 74.3665 43.7138 74.3469 43.7256C74.3252 43.7387 74.3032 43.7513 74.2821 43.7656C74.2678 43.7751 74.2547 43.7859 74.2411 43.796C74.2161 43.8142 74.1909 43.8322 74.167 43.8522C74.1567 43.8609 74.1471 43.8706 74.1372 43.8795C74.1116 43.9021 74.086 43.9244 74.0618 43.9489C74.0475 43.9634 74.0346 43.9792 74.0211 43.9942C74.0022 44.015 73.9827 44.0354 73.9647 44.0575C73.9344 44.0949 73.9061 44.1337 73.8795 44.1738L73.878 44.176L66.0659 56.0443C66.0114 56.127 65.9653 56.2146 65.9288 56.3058C65.9149 56.3398 65.9038 56.3744 65.8926 56.4088C65.8893 56.4193 65.885 56.4294 65.8819 56.4399C65.871 56.4765 65.8626 56.5135 65.8546 56.5503C65.8524 56.5599 65.8497 56.5694 65.8477 56.5791C65.8413 56.6124 65.837 56.6458 65.8329 56.6792C65.8311 56.6935 65.8284 56.7077 65.827 56.7221C65.8243 56.7496 65.8237 56.7769 65.8227 56.8044C65.8217 56.8254 65.82 56.8464 65.82 56.8675C65.82 56.8879 65.8217 56.9083 65.8225 56.9286C65.8235 56.9567 65.8243 56.985 65.827 57.0131C65.8284 57.0268 65.8309 57.0404 65.8327 57.0541C65.837 57.0881 65.8413 57.1221 65.8479 57.1559C65.8497 57.1652 65.8524 57.1743 65.8546 57.1836C65.8626 57.2208 65.8712 57.258 65.8821 57.295C65.8852 57.3055 65.8895 57.3155 65.8928 57.3262C65.904 57.3606 65.9151 57.3953 65.929 57.4293C65.9657 57.5203 66.0118 57.6081 66.0665 57.691L73.8784 69.5575L73.8795 69.559C73.911 69.6063 73.9454 69.6514 73.9817 69.6947C73.9936 69.709 74.0063 69.7222 74.0186 69.7357C74.0434 69.7632 74.0692 69.7897 74.096 69.8152C74.1118 69.8302 74.1274 69.8449 74.1434 69.8589C74.1719 69.8836 74.2014 69.9068 74.2317 69.9293C74.2454 69.9394 74.2585 69.9505 74.2723 69.96C74.3163 69.9902 74.3618 70.0181 74.4088 70.0434C74.4208 70.0498 74.4331 70.0551 74.445 70.0611C74.4825 70.08 74.5208 70.0977 74.56 70.1133C74.5752 70.1194 74.5905 70.1249 74.6059 70.1305C74.6432 70.1439 74.6811 70.1558 74.7198 70.1663C74.7356 70.1704 74.7512 70.1748 74.7672 70.1787C74.8069 70.188 74.8471 70.1952 74.8879 70.2011C74.9028 70.2033 74.9174 70.2062 74.9323 70.208C74.9827 70.2138 75.0338 70.2169 75.0858 70.2173C75.0899 70.2173 75.094 70.2181 75.0983 70.2181L75.101 70.2179H91.2125V80.604C91.2125 84.149 88.3649 87.033 84.8649 87.033H9.27908C5.77909 87.033 2.93144 84.149 2.93144 80.604C2.93144 80.5963 2.93046 80.5888 2.93027 80.5811L2.92968 68.7332C2.92968 67.9163 2.27343 70.2167 1.46484 70.2167C0.658202 70.2167 0 67.9163 0 68.7332L0.000585956 80.604C0.000585956 80.6195 0.00234376 80.6345 0.0029297 80.6497C0.0273437 85.8096 4.1787 90 9.27908 90H84.8649C89.9799 90 94.1414 85.7858 94.1422 80.6056V70.2179H95.6063C98.0289 70.2179 100 68.2217 100 65.7682V42.0305C99.9994 39.5769 98.0283 37.5807 95.6057 37.5807ZM18.1445 3.33029L43.9919 10.8097L43.9956 10.8107L61.319 15.8234H15.0613L18.1445 3.33029ZM91.2117 26.2867C89.551 24.7055 87.3182 23.7337 84.8643 23.7337C84.8618 23.7337 84.8594 23.7341 84.8567 23.7341H9.2783C5.77811 23.7341 2.93046 20.8501 2.93046 17.3053C2.93046 13.7605 5.77811 10.8766 9.2783 10.8766H13.2623L12.0416 15.8234H9.27869C8.46971 15.8234 7.81385 16.4876 7.81385 17.3069C7.81385 18.1262 8.46971 18.7904 9.27869 18.7904H13.1802C13.1822 18.7904 13.1844 18.7908 13.1865 18.7908C13.1881 18.7908 13.191 18.7904 13.191 18.7904H71.7731C71.7751 18.7904 71.7768 18.7908 71.7786 18.7908C71.7801 18.7908 71.7817 18.7904 71.7833 18.7904H82.9094C83.7184 18.7904 84.3743 18.1262 84.3743 17.3069C84.3743 16.4876 83.7184 15.8234 82.9094 15.8234H71.9831L54.8876 10.8766H84.8641C88.3641 10.8766 91.2117 13.7605 91.2117 17.3053V26.2867ZM97.0697 65.7674C97.0697 66.5849 96.4129 67.2501 95.6057 67.2501H75.8803L69.0446 56.8667L75.8803 46.4818H95.6057C95.6262 46.4818 95.6461 46.4794 95.6664 46.4786C96.1578 46.4717 96.6297 46.3831 97.0697 46.2252V65.7674ZM95.6057 43.5132C95.5955 43.5132 95.5856 43.5146 95.5754 43.5148H94.1416V40.5477H95.6057C96.4129 40.5477 97.0697 41.213 97.0697 42.0305C97.0697 42.848 96.4129 43.5132 95.6057 43.5132Z" fill="#F9A030"/>
<path d="M95.6057 37.5807H94.1416V17.3053C94.1416 12.1245 89.9797 7.90958 84.8643 7.90958H44.6341L17.4929 0.0560865C17.4851 0.0539107 17.4771 0.0527235 17.4693 0.0505477C17.4613 0.0483719 17.4537 0.0452073 17.4457 0.0432293C17.4293 0.0390755 17.4131 0.0370975 17.3968 0.0335371C17.3716 0.0281964 17.3465 0.022658 17.3213 0.0185042C17.2984 0.0147459 17.2759 0.0123723 17.2531 0.00960309C17.2265 0.00643827 17.2002 0.00366904 17.1738 0.00208663C17.1523 0.000899823 17.131 0.000701867 17.1095 0.000306265C17.0822 -8.9337e-05 17.055 -0.000287087 17.0279 0.00089972C17.0078 0.00169092 16.9877 0.00366881 16.9677 0.00525122C16.9398 0.00762483 16.9119 0.0101965 16.8843 0.0143504C16.8656 0.0171196 16.847 0.0206799 16.8285 0.0240426C16.8 0.0291854 16.7718 0.0347236 16.7439 0.0416466C16.7265 0.0459982 16.7095 0.0509434 16.6924 0.0558884C16.6638 0.064196 16.6357 0.0727015 16.6076 0.0825916C16.5918 0.0883278 16.5761 0.0944599 16.5603 0.100789C16.532 0.111866 16.5039 0.123536 16.4763 0.136393C16.4617 0.143316 16.4474 0.150833 16.433 0.158152C16.4054 0.172195 16.3783 0.186437 16.3517 0.202459C16.3379 0.210569 16.3246 0.219272 16.3109 0.227976C16.2847 0.244591 16.259 0.261602 16.234 0.279997C16.2209 0.289492 16.2082 0.299777 16.1953 0.309865C16.1713 0.328656 16.1474 0.347843 16.1246 0.368216C16.1117 0.379689 16.0994 0.391755 16.0869 0.403623C16.0654 0.424194 16.0441 0.444765 16.0238 0.466523C16.0111 0.480172 15.9992 0.494413 15.9869 0.508655C15.9683 0.530215 15.95 0.551974 15.9326 0.574721C15.9201 0.591138 15.9084 0.607951 15.8965 0.624765C15.881 0.64672 15.8658 0.668874 15.8517 0.691621C15.8396 0.711006 15.8285 0.731182 15.8174 0.751159C15.805 0.773115 15.7927 0.795269 15.7816 0.818016C15.7707 0.840169 15.7609 0.862917 15.7509 0.885664C15.7412 0.908016 15.7316 0.930367 15.723 0.953312C15.714 0.977444 15.7062 1.00217 15.6982 1.02709C15.6931 1.04311 15.6869 1.05815 15.6822 1.07437C15.6799 1.08248 15.6789 1.09039 15.6767 1.0983C15.6746 1.10641 15.6715 1.11412 15.6695 1.12223L13.9945 7.90919H9.2783C4.17304 7.90919 0.0183593 12.1071 0.00156249 17.2737C0.00136718 17.2844 0 17.2945 0 17.3049V68.7332C0 69.5521 0.658202 70.2167 1.46484 70.2167C2.27343 70.2167 2.92968 69.5521 2.92968 68.7332V24.1475C4.59062 25.7291 6.82382 26.7011 9.2783 26.7011H84.8643C84.8661 26.7011 84.8676 26.7009 84.8694 26.7009C88.367 26.7037 91.2119 29.5864 91.2119 33.1296V43.515H75.0963L75.0936 43.5152C75.0512 43.5152 75.009 43.5177 74.967 43.5215C74.9204 43.5256 74.8743 43.5324 74.829 43.5409C74.8221 43.5421 74.8155 43.5427 74.8086 43.544C74.7704 43.5518 74.7329 43.562 74.6956 43.5727C74.6874 43.5751 74.679 43.5767 74.671 43.5792C74.6377 43.5895 74.6055 43.6018 74.5733 43.6143C74.561 43.619 74.5485 43.623 74.5362 43.6281C74.5092 43.6394 74.4833 43.6526 74.4573 43.6655C74.4401 43.6738 74.4227 43.6815 74.4059 43.6904C74.3856 43.7013 74.3665 43.7138 74.3469 43.7256C74.3252 43.7387 74.3032 43.7513 74.2821 43.7656C74.2678 43.7751 74.2547 43.7859 74.2411 43.796C74.2161 43.8142 74.1909 43.8322 74.167 43.8522C74.1567 43.8609 74.1471 43.8706 74.1372 43.8795C74.1116 43.9021 74.086 43.9244 74.0618 43.9489C74.0475 43.9634 74.0346 43.9792 74.0211 43.9942C74.0022 44.015 73.9827 44.0354 73.9647 44.0575C73.9344 44.0949 73.9061 44.1337 73.8795 44.1738L73.878 44.176L66.0659 56.0443C66.0114 56.127 65.9653 56.2146 65.9288 56.3058C65.9149 56.3398 65.9038 56.3744 65.8926 56.4088C65.8893 56.4193 65.885 56.4294 65.8819 56.4399C65.871 56.4765 65.8626 56.5135 65.8546 56.5503C65.8524 56.5599 65.8497 56.5694 65.8477 56.5791C65.8413 56.6124 65.837 56.6458 65.8329 56.6792C65.8311 56.6935 65.8284 56.7077 65.827 56.7221C65.8243 56.7496 65.8237 56.7769 65.8227 56.8044C65.8217 56.8254 65.82 56.8464 65.82 56.8675C65.82 56.8879 65.8217 56.9083 65.8225 56.9286C65.8235 56.9567 65.8243 56.985 65.827 57.0131C65.8284 57.0268 65.8309 57.0404 65.8327 57.0541C65.837 57.0881 65.8413 57.1221 65.8479 57.1559C65.8497 57.1652 65.8524 57.1743 65.8546 57.1836C65.8626 57.2208 65.8712 57.258 65.8821 57.295C65.8852 57.3055 65.8895 57.3155 65.8928 57.3262C65.904 57.3606 65.9151 57.3953 65.929 57.4293C65.9657 57.5203 66.0118 57.6081 66.0665 57.691L73.8784 69.5575L73.8795 69.559C73.911 69.6063 73.9454 69.6514 73.9817 69.6947C73.9936 69.709 74.0063 69.7222 74.0186 69.7357C74.0434 69.7632 74.0692 69.7897 74.096 69.8152C74.1118 69.8302 74.1274 69.8449 74.1434 69.8589C74.1719 69.8836 74.2014 69.9068 74.2317 69.9293C74.2454 69.9394 74.2585 69.9505 74.2723 69.96C74.3163 69.9902 74.3618 70.0181 74.4088 70.0434C74.4208 70.0498 74.4331 70.0551 74.445 70.0611C74.4825 70.08 74.5208 70.0977 74.56 70.1133C74.5752 70.1194 74.5905 70.1249 74.6059 70.1305C74.6432 70.1439 74.6811 70.1558 74.7198 70.1663C74.7356 70.1704 74.7512 70.1748 74.7672 70.1787C74.8069 70.188 74.8471 70.1952 74.8879 70.2011C74.9028 70.2033 74.9174 70.2062 74.9323 70.208C74.9827 70.2138 75.0338 70.2169 75.0858 70.2173C75.0899 70.2173 75.094 70.2181 75.0983 70.2181L75.101 70.2179H91.2125V80.604C91.2125 84.149 88.3649 87.033 84.8649 87.033H9.27908C5.77909 87.033 2.93144 84.149 2.93144 80.604C2.93144 80.5963 2.93046 80.5888 2.93027 80.5811L2.92968 68.7332C2.92968 67.9163 2.27343 70.2167 1.46484 70.2167C0.658202 70.2167 0 67.9163 0 68.7332L0.000585956 80.604C0.000585956 80.6195 0.00234376 80.6345 0.0029297 80.6497C0.0273437 85.8096 4.1787 90 9.27908 90H84.8649C89.9799 90 94.1414 85.7858 94.1422 80.6056V70.2179H95.6063C98.0289 70.2179 100 68.2217 100 65.7682V42.0305C99.9994 39.5769 98.0283 37.5807 95.6057 37.5807ZM18.1445 3.33029L43.9919 10.8097L43.9956 10.8107L61.319 15.8234H15.0613L18.1445 3.33029ZM91.2117 26.2867C89.551 24.7055 87.3182 23.7337 84.8643 23.7337C84.8618 23.7337 84.8594 23.7341 84.8567 23.7341H9.2783C5.77811 23.7341 2.93046 20.8501 2.93046 17.3053C2.93046 13.7605 5.77811 10.8766 9.2783 10.8766H13.2623L12.0416 15.8234H9.27869C8.46971 15.8234 7.81385 16.4876 7.81385 17.3069C7.81385 18.1262 8.46971 18.7904 9.27869 18.7904H13.1802C13.1822 18.7904 13.1844 18.7908 13.1865 18.7908C13.1881 18.7908 13.191 18.7904 13.191 18.7904H71.7731C71.7751 18.7904 71.7768 18.7908 71.7786 18.7908C71.7801 18.7908 71.7817 18.7904 71.7833 18.7904H82.9094C83.7184 18.7904 84.3743 18.1262 84.3743 17.3069C84.3743 16.4876 83.7184 15.8234 82.9094 15.8234H71.9831L54.8876 10.8766H84.8641C88.3641 10.8766 91.2117 13.7605 91.2117 17.3053V26.2867ZM97.0697 65.7674C97.0697 66.5849 96.4129 67.2501 95.6057 67.2501H75.8803L69.0446 56.8667L75.8803 46.4818H95.6057C95.6262 46.4818 95.6461 46.4794 95.6664 46.4786C96.1578 46.4717 96.6297 46.3831 97.0697 46.2252V65.7674ZM95.6057 43.5132C95.5955 43.5132 95.5856 43.5146 95.5754 43.5148H94.1416V40.5477H95.6057C96.4129 40.5477 97.0697 41.213 97.0697 42.0305C97.0697 42.848 96.4129 43.5132 95.6057 43.5132Z" fill="url(#paint0_linear)"/>
<path d="M95.6057 37.5807H94.1416V17.3053C94.1416 12.1245 89.9797 7.90958 84.8643 7.90958H44.6341L17.4929 0.0560865C17.4851 0.0539107 17.4771 0.0527235 17.4693 0.0505477C17.4613 0.0483719 17.4537 0.0452073 17.4457 0.0432293C17.4293 0.0390755 17.4131 0.0370975 17.3968 0.0335371C17.3716 0.0281964 17.3465 0.022658 17.3213 0.0185042C17.2984 0.0147459 17.2759 0.0123723 17.2531 0.00960309C17.2265 0.00643827 17.2002 0.00366904 17.1738 0.00208663C17.1523 0.000899823 17.131 0.000701867 17.1095 0.000306265C17.0822 -8.9337e-05 17.055 -0.000287087 17.0279 0.00089972C17.0078 0.00169092 16.9877 0.00366881 16.9677 0.00525122C16.9398 0.00762483 16.9119 0.0101965 16.8843 0.0143504C16.8656 0.0171196 16.847 0.0206799 16.8285 0.0240426C16.8 0.0291854 16.7718 0.0347236 16.7439 0.0416466C16.7265 0.0459982 16.7095 0.0509434 16.6924 0.0558884C16.6638 0.064196 16.6357 0.0727015 16.6076 0.0825916C16.5918 0.0883278 16.5761 0.0944599 16.5603 0.100789C16.532 0.111866 16.5039 0.123536 16.4763 0.136393C16.4617 0.143316 16.4474 0.150833 16.433 0.158152C16.4054 0.172195 16.3783 0.186437 16.3517 0.202459C16.3379 0.210569 16.3246 0.219272 16.3109 0.227976C16.2847 0.244591 16.259 0.261602 16.234 0.279997C16.2209 0.289492 16.2082 0.299777 16.1953 0.309865C16.1713 0.328656 16.1474 0.347843 16.1246 0.368216C16.1117 0.379689 16.0994 0.391755 16.0869 0.403623C16.0654 0.424194 16.0441 0.444765 16.0238 0.466523C16.0111 0.480172 15.9992 0.494413 15.9869 0.508655C15.9683 0.530215 15.95 0.551974 15.9326 0.574721C15.9201 0.591138 15.9084 0.607951 15.8965 0.624765C15.881 0.64672 15.8658 0.668874 15.8517 0.691621C15.8396 0.711006 15.8285 0.731182 15.8174 0.751159C15.805 0.773115 15.7927 0.795269 15.7816 0.818016C15.7707 0.840169 15.7609 0.862917 15.7509 0.885664C15.7412 0.908016 15.7316 0.930367 15.723 0.953312C15.714 0.977444 15.7062 1.00217 15.6982 1.02709C15.6931 1.04311 15.6869 1.05815 15.6822 1.07437C15.6799 1.08248 15.6789 1.09039 15.6767 1.0983C15.6746 1.10641 15.6715 1.11412 15.6695 1.12223L13.9945 7.90919H9.2783C4.17304 7.90919 0.0183593 12.1071 0.00156249 17.2737C0.00136718 17.2844 0 17.2945 0 17.3049V68.7332C0 69.5521 0.658202 70.2167 1.46484 70.2167C2.27343 70.2167 2.92968 69.5521 2.92968 68.7332V24.1475C4.59062 25.7291 6.82382 26.7011 9.2783 26.7011H84.8643C84.8661 26.7011 84.8676 26.7009 84.8694 26.7009C88.367 26.7037 91.2119 29.5864 91.2119 33.1296V43.515H75.0963L75.0936 43.5152C75.0512 43.5152 75.009 43.5177 74.967 43.5215C74.9204 43.5256 74.8743 43.5324 74.829 43.5409C74.8221 43.5421 74.8155 43.5427 74.8086 43.544C74.7704 43.5518 74.7329 43.562 74.6956 43.5727C74.6874 43.5751 74.679 43.5767 74.671 43.5792C74.6377 43.5895 74.6055 43.6018 74.5733 43.6143C74.561 43.619 74.5485 43.623 74.5362 43.6281C74.5092 43.6394 74.4833 43.6526 74.4573 43.6655C74.4401 43.6738 74.4227 43.6815 74.4059 43.6904C74.3856 43.7013 74.3665 43.7138 74.3469 43.7256C74.3252 43.7387 74.3032 43.7513 74.2821 43.7656C74.2678 43.7751 74.2547 43.7859 74.2411 43.796C74.2161 43.8142 74.1909 43.8322 74.167 43.8522C74.1567 43.8609 74.1471 43.8706 74.1372 43.8795C74.1116 43.9021 74.086 43.9244 74.0618 43.9489C74.0475 43.9634 74.0346 43.9792 74.0211 43.9942C74.0022 44.015 73.9827 44.0354 73.9647 44.0575C73.9344 44.0949 73.9061 44.1337 73.8795 44.1738L73.878 44.176L66.0659 56.0443C66.0114 56.127 65.9653 56.2146 65.9288 56.3058C65.9149 56.3398 65.9038 56.3744 65.8926 56.4088C65.8893 56.4193 65.885 56.4294 65.8819 56.4399C65.871 56.4765 65.8626 56.5135 65.8546 56.5503C65.8524 56.5599 65.8497 56.5694 65.8477 56.5791C65.8413 56.6124 65.837 56.6458 65.8329 56.6792C65.8311 56.6935 65.8284 56.7077 65.827 56.7221C65.8243 56.7496 65.8237 56.7769 65.8227 56.8044C65.8217 56.8254 65.82 56.8464 65.82 56.8675C65.82 56.8879 65.8217 56.9083 65.8225 56.9286C65.8235 56.9567 65.8243 56.985 65.827 57.0131C65.8284 57.0268 65.8309 57.0404 65.8327 57.0541C65.837 57.0881 65.8413 57.1221 65.8479 57.1559C65.8497 57.1652 65.8524 57.1743 65.8546 57.1836C65.8626 57.2208 65.8712 57.258 65.8821 57.295C65.8852 57.3055 65.8895 57.3155 65.8928 57.3262C65.904 57.3606 65.9151 57.3953 65.929 57.4293C65.9657 57.5203 66.0118 57.6081 66.0665 57.691L73.8784 69.5575L73.8795 69.559C73.911 69.6063 73.9454 69.6514 73.9817 69.6947C73.9936 69.709 74.0063 69.7222 74.0186 69.7357C74.0434 69.7632 74.0692 69.7897 74.096 69.8152C74.1118 69.8302 74.1274 69.8449 74.1434 69.8589C74.1719 69.8836 74.2014 69.9068 74.2317 69.9293C74.2454 69.9394 74.2585 69.9505 74.2723 69.96C74.3163 69.9902 74.3618 70.0181 74.4088 70.0434C74.4208 70.0498 74.4331 70.0551 74.445 70.0611C74.4825 70.08 74.5208 70.0977 74.56 70.1133C74.5752 70.1194 74.5905 70.1249 74.6059 70.1305C74.6432 70.1439 74.6811 70.1558 74.7198 70.1663C74.7356 70.1704 74.7512 70.1748 74.7672 70.1787C74.8069 70.188 74.8471 70.1952 74.8879 70.2011C74.9028 70.2033 74.9174 70.2062 74.9323 70.208C74.9827 70.2138 75.0338 70.2169 75.0858 70.2173C75.0899 70.2173 75.094 70.2181 75.0983 70.2181L75.101 70.2179H91.2125V80.604C91.2125 84.149 88.3649 87.033 84.8649 87.033H9.27908C5.77909 87.033 2.93144 84.149 2.93144 80.604C2.93144 80.5963 2.93046 80.5888 2.93027 80.5811L2.92968 68.7332C2.92968 67.9163 2.27343 70.2167 1.46484 70.2167C0.658202 70.2167 0 67.9163 0 68.7332L0.000585956 80.604C0.000585956 80.6195 0.00234376 80.6345 0.0029297 80.6497C0.0273437 85.8096 4.1787 90 9.27908 90H84.8649C89.9799 90 94.1414 85.7858 94.1422 80.6056V70.2179H95.6063C98.0289 70.2179 100 68.2217 100 65.7682V42.0305C99.9994 39.5769 98.0283 37.5807 95.6057 37.5807ZM18.1445 3.33029L43.9919 10.8097L43.9956 10.8107L61.319 15.8234H15.0613L18.1445 3.33029ZM91.2117 26.2867C89.551 24.7055 87.3182 23.7337 84.8643 23.7337C84.8618 23.7337 84.8594 23.7341 84.8567 23.7341H9.2783C5.77811 23.7341 2.93046 20.8501 2.93046 17.3053C2.93046 13.7605 5.77811 10.8766 9.2783 10.8766H13.2623L12.0416 15.8234H9.27869C8.46971 15.8234 7.81385 16.4876 7.81385 17.3069C7.81385 18.1262 8.46971 18.7904 9.27869 18.7904H13.1802C13.1822 18.7904 13.1844 18.7908 13.1865 18.7908C13.1881 18.7908 13.191 18.7904 13.191 18.7904H71.7731C71.7751 18.7904 71.7768 18.7908 71.7786 18.7908C71.7801 18.7908 71.7817 18.7904 71.7833 18.7904H82.9094C83.7184 18.7904 84.3743 18.1262 84.3743 17.3069C84.3743 16.4876 83.7184 15.8234 82.9094 15.8234H71.9831L54.8876 10.8766H84.8641C88.3641 10.8766 91.2117 13.7605 91.2117 17.3053V26.2867ZM97.0697 65.7674C97.0697 66.5849 96.4129 67.2501 95.6057 67.2501H75.8803L69.0446 56.8667L75.8803 46.4818H95.6057C95.6262 46.4818 95.6461 46.4794 95.6664 46.4786C96.1578 46.4717 96.6297 46.3831 97.0697 46.2252V65.7674ZM95.6057 43.5132C95.5955 43.5132 95.5856 43.5146 95.5754 43.5148H94.1416V40.5477H95.6057C96.4129 40.5477 97.0697 41.213 97.0697 42.0305C97.0697 42.848 96.4129 43.5132 95.6057 43.5132Z" fill="url(#paint1_linear)"/>
<path d="M80.9567 51.4271C77.995 51.4271 75.5856 53.8674 75.5856 56.8668C75.5856 59.8663 77.995 62.3063 80.9567 62.3063C83.9184 62.3063 86.3278 59.8663 86.3278 56.8668C86.3278 53.8674 83.9184 51.4271 80.9567 51.4271ZM80.9567 59.3393C79.6104 59.3393 78.5153 58.2303 78.5153 56.8668C78.5153 55.5034 79.6104 54.3941 80.9567 54.3941C82.303 54.3941 83.3981 55.5034 83.3981 56.8668C83.3981 58.2303 82.303 59.3393 80.9567 59.3393Z" fill="#F9A030"/>
<path d="M80.9567 51.4271C77.995 51.4271 75.5856 53.8674 75.5856 56.8668C75.5856 59.8663 77.995 62.3063 80.9567 62.3063C83.9184 62.3063 86.3278 59.8663 86.3278 56.8668C86.3278 53.8674 83.9184 51.4271 80.9567 51.4271ZM80.9567 59.3393C79.6104 59.3393 78.5153 58.2303 78.5153 56.8668C78.5153 55.5034 79.6104 54.3941 80.9567 54.3941C82.303 54.3941 83.3981 55.5034 83.3981 56.8668C83.3981 58.2303 82.303 59.3393 80.9567 59.3393Z" fill="url(#paint2_linear)"/>
<path d="M80.9567 51.4271C77.995 51.4271 75.5856 53.8674 75.5856 56.8668C75.5856 59.8663 77.995 62.3063 80.9567 62.3063C83.9184 62.3063 86.3278 59.8663 86.3278 56.8668C86.3278 53.8674 83.9184 51.4271 80.9567 51.4271ZM80.9567 59.3393C79.6104 59.3393 78.5153 58.2303 78.5153 56.8668C78.5153 55.5034 79.6104 54.3941 80.9567 54.3941C82.303 54.3941 83.3981 55.5034 83.3981 56.8668C83.3981 58.2303 82.303 59.3393 80.9567 59.3393Z" fill="url(#paint3_linear)" stroke="0"/>
<defs>
<linearGradient id="paint0_linear" x1="725.339" y1="3315.08" x2="725.339" y2="3328.68" gradientUnits="userSpaceOnUse">
<stop stop-color="#00A651"/>
<stop offset="1" stop-color="#FDB813"/>
</linearGradient>
<linearGradient id="paint1_linear" x1="50" y1="0" x2="50" y2="90" gradientUnits="userSpaceOnUse">
<stop stop-color="#F9A030"/>
<stop offset="1" stop-color="#FFBE6C"/>
</linearGradient>
<linearGradient id="paint2_linear" x1="725.339" y1="3315.08" x2="725.339" y2="3328.68" gradientUnits="userSpaceOnUse">
<stop stop-color="#00A651"/>
<stop offset="1" stop-color="#FDB813"/>
</linearGradient>
<linearGradient id="paint3_linear" x1="50" y1="0" x2="50" y2="90" gradientUnits="userSpaceOnUse">
<stop stop-color="#F9A030"/>
<stop offset="1" stop-color="#FFBE6C"/>
</linearGradient>
</defs>
</svg>
