<svg width="25" height="19" viewBox="0 0 25 19" fill="none" xmlns="http://www.w3.org/2000/svg">
<path d="M23.7718 7.04239C23.4548 7.04239 23.1775 6.92353 22.9398 6.68581C17.1553 0.940966 7.80507 0.940966 2.0206 6.68581C1.54517 7.16125 0.792393 7.16125 0.356577 6.68581C-0.118859 6.21038 -0.118859 5.4576 0.356577 5.02179C7.0523 -1.67393 17.9477 -1.67393 24.6434 5.02179C25.1189 5.49722 25.1189 6.25 24.6434 6.68581C24.4057 6.92353 24.0887 7.04239 23.7718 7.04239Z" fill="#00A6F9"/>
<path d="M19.6118 11.2422C19.2949 11.2422 19.0175 11.1233 18.7798 10.8856C15.2933 7.39905 9.66729 7.39905 6.18076 10.8856C5.70532 11.361 4.95255 11.361 4.51673 10.8856C4.0413 10.4101 4.0413 9.65737 4.51673 9.22155C8.91451 4.82377 16.046 4.82377 20.4438 9.22155C20.9193 9.69699 20.9193 10.4498 20.4438 10.8856C20.2061 11.1233 19.9288 11.2422 19.6118 11.2422Z" fill="#00A6F9"/>
<path d="M15.3328 15.2436C15.0158 15.2436 14.7385 15.1247 14.5008 14.887C13.3914 13.7777 11.5689 13.7777 10.4596 14.887C9.98413 15.3625 9.23136 15.3625 8.79554 14.887C8.32011 14.4116 8.32011 13.6588 8.79554 13.223C10.8161 11.2024 14.1442 11.2024 16.1648 13.223C16.6402 13.6984 16.6402 14.4512 16.1648 14.887C15.9271 15.1247 15.6497 15.2436 15.3328 15.2436Z" fill="#00A6F9"/>
<path d="M12.4801 18.9282C13.1365 18.9282 13.6687 18.3961 13.6687 17.7396C13.6687 17.0832 13.1365 16.551 12.4801 16.551C11.8237 16.551 11.2915 17.0832 11.2915 17.7396C11.2915 18.3961 11.8237 18.9282 12.4801 18.9282Z" fill="#00A6F9"/>
<path d="M0.356477 6.32921C0.316857 6.36883 0.237618 6.44807 0.197998 6.5273C0.237618 6.60654 0.277237 6.64616 0.356477 6.7254C0.831912 7.20083 1.58469 7.20083 2.0205 6.7254C7.80497 0.941019 17.1552 0.941019 22.9397 6.7254C23.1774 6.96311 23.4944 7.08197 23.7717 7.08197C24.049 7.08197 24.366 6.96311 24.6037 6.7254C24.6433 6.68578 24.7226 6.60654 24.7622 6.5273C24.7226 6.44807 24.6829 6.40845 24.6037 6.32921C17.908 -0.36641 7.0522 -0.36641 0.356477 6.32921Z" fill="#0093F7"/>
<path d="M4.51663 10.5291C4.47701 10.5687 4.39777 10.6479 4.35815 10.7272C4.39777 10.8064 4.43739 10.846 4.51663 10.9253C4.99207 11.4007 5.74484 11.4007 6.18066 10.9253C9.66719 7.43872 15.2932 7.43872 18.7797 10.9253C19.0174 11.163 19.3344 11.2818 19.6117 11.2818C19.8891 11.2818 20.206 11.163 20.4437 10.9253C20.4834 10.8856 20.5626 10.8064 20.6022 10.7272C20.5626 10.6479 20.523 10.6083 20.4437 10.5291C16.046 6.13127 8.91441 6.13127 4.51663 10.5291Z" fill="#0093F7"/>
<path d="M8.79556 14.5305C8.75594 14.5702 8.6767 14.6494 8.63708 14.7286C8.6767 14.8079 8.71632 14.8475 8.79556 14.9267C9.271 15.4022 10.0238 15.4022 10.4596 14.9267C11.5689 13.8174 13.3914 13.8174 14.5008 14.9267C14.7385 15.1645 15.0555 15.2833 15.3328 15.2833C15.6101 15.2833 15.9271 15.1645 16.1648 14.9267C16.2044 14.8871 16.2837 14.8079 16.3233 14.7286C16.2837 14.6494 16.2441 14.6098 16.1648 14.5305C14.1442 12.4703 10.8162 12.4703 8.79556 14.5305Z" fill="#0093F7"/>
<path d="M12.48 17.8585C12.0838 17.8585 11.6876 18.0566 11.4895 18.3736C11.6876 18.6906 12.0838 18.8887 12.48 18.8887C12.8762 18.8887 13.2724 18.6906 13.4705 18.3736C13.2724 18.0962 12.8762 17.8585 12.48 17.8585Z" fill="#0093F7"/>
</svg>
