<svg width="72" height="90" viewBox="0 0 72 90" fill="none" xmlns="http://www.w3.org/2000/svg">
<path d="M63.7295 41.2497L63.7293 41.2485C63.4737 40.2965 62.8638 39.5271 62.0558 39.1379C52.3064 34.5969 52.0618 33.9453 50.1742 33.9453C49.4414 33.9453 48.7266 34.1105 48.0502 34.4364L38.2928 39.1377C37.4847 39.5269 36.8746 40.2961 36.6186 41.2497C36.3021 42.4341 35.7709 44.8789 35.7709 47.9447C35.7709 56.172 39.455 63.7538 47.226 69.4365C49.0248 70.7526 51.321 70.7538 53.1223 69.4365C60.9102 63.7408 64.5774 56.1527 64.5774 47.9449C64.5774 44.8787 64.0462 42.4341 63.7295 41.2497ZM51.5965 67.2817C50.7096 67.9302 49.6411 67.9321 48.7521 67.2819C41.6752 62.1055 38.3833 55.2859 38.3833 47.9447C38.3833 45.1869 38.8572 43.0024 39.1393 41.9472C39.2028 41.7104 39.3256 41.5781 39.4117 41.5368C49.6171 36.7015 49.2604 36.5999 50.1742 36.5999C51.082 36.5999 50.741 36.7061 60.9369 41.5368C61.0225 41.5781 61.1451 41.7101 61.2088 41.946C61.4914 43.0028 61.9654 45.1872 61.9654 47.9451C61.9652 55.2723 58.6855 62.0955 51.5965 67.2817Z" fill="url(#paint0_linear)"/>
<path d="M63.7295 41.2497L63.7293 41.2485C63.4737 40.2965 62.8638 39.5271 62.0558 39.1379C52.3064 34.5969 52.0618 33.9453 50.1742 33.9453C49.4414 33.9453 48.7266 34.1105 48.0502 34.4364L38.2928 39.1377C37.4847 39.5269 36.8746 40.2961 36.6186 41.2497C36.3021 42.4341 35.7709 44.8789 35.7709 47.9447C35.7709 56.172 39.455 63.7538 47.226 69.4365C49.0248 70.7526 51.321 70.7538 53.1223 69.4365C60.9102 63.7408 64.5774 56.1527 64.5774 47.9449C64.5774 44.8787 64.0462 42.4341 63.7295 41.2497ZM51.5965 67.2817C50.7096 67.9302 49.6411 67.9321 48.7521 67.2819C41.6752 62.1055 38.3833 55.2859 38.3833 47.9447C38.3833 45.1869 38.8572 43.0024 39.1393 41.9472C39.2028 41.7104 39.3256 41.5781 39.4117 41.5368C49.6171 36.7015 49.2604 36.5999 50.1742 36.5999C51.082 36.5999 50.741 36.7061 60.9369 41.5368C61.0225 41.5781 61.1451 41.7101 61.2088 41.946C61.4914 43.0028 61.9654 45.1872 61.9654 47.9451C61.9652 55.2723 58.6855 62.0955 51.5965 67.2817Z" fill="url(#paint1_linear)"/>
<path d="M65.9526 0H20.5034C17.0793 0 14.2937 2.83096 14.2937 6.31056V66.5871H6.80011C3.05049 66.5871 0 69.6874 0 73.498V81.4535C0 86.1659 3.77246 89.9995 8.40925 89.9995C28.4038 89.9995 48.7242 89.9993 62.6811 90C67.8195 90 72 85.7515 72 80.5296V6.14568C71.9998 2.75696 69.287 0 65.9526 0ZM9.95161 87.1588C6.04994 88.1406 2.61235 85.1896 2.61235 81.4535V73.498C2.61235 71.1511 4.49097 69.242 6.80011 69.242H14.2947V69.2441C14.2947 69.2441 14.2947 69.246 14.2947 69.2476C14.2947 69.259 14.2947 69.2688 14.2947 69.2755C14.2947 69.2778 14.2947 69.2796 14.2947 69.2813V69.2885C14.2949 69.578 14.2959 71.4674 14.3011 81.4532C14.3011 84.1943 12.4498 86.5041 9.95161 87.1588ZM69.3876 80.5298C69.3875 84.2878 66.379 87.3453 62.6809 87.3453H14.5927C17.409 84.34 16.8704 80.949 16.9133 79.2195V67.9145C16.9133 67.8673 16.9107 67.8208 16.906 67.7749V6.31056C16.906 4.2947 18.52 2.65465 20.5036 2.65465H65.9526C67.8467 2.65465 69.3876 4.22069 69.3876 6.1455V80.5298Z" fill="url(#paint2_linear)"/>
<path d="M65.9526 0H20.5034C17.0793 0 14.2937 2.83096 14.2937 6.31056V66.5871H6.80011C3.05049 66.5871 0 69.6874 0 73.498V81.4535C0 86.1659 3.77246 89.9995 8.40925 89.9995C28.4038 89.9995 48.7242 89.9993 62.6811 90C67.8195 90 72 85.7515 72 80.5296V6.14568C71.9998 2.75696 69.287 0 65.9526 0ZM9.95161 87.1588C6.04994 88.1406 2.61235 85.1896 2.61235 81.4535V73.498C2.61235 71.1511 4.49097 69.242 6.80011 69.242H14.2947V69.2441C14.2947 69.2441 14.2947 69.246 14.2947 69.2476C14.2947 69.259 14.2947 69.2688 14.2947 69.2755C14.2947 69.2778 14.2947 69.2796 14.2947 69.2813V69.2885C14.2949 69.578 14.2959 71.4674 14.3011 81.4532C14.3011 84.1943 12.4498 86.5041 9.95161 87.1588ZM69.3876 80.5298C69.3875 84.2878 66.379 87.3453 62.6809 87.3453H14.5927C17.409 84.34 16.8704 80.949 16.9133 79.2195V67.9145C16.9133 67.8673 16.9107 67.8208 16.906 67.7749V6.31056C16.906 4.2947 18.52 2.65465 20.5036 2.65465H65.9526C67.8467 2.65465 69.3876 4.22069 69.3876 6.1455V80.5298Z" fill="url(#paint3_linear)"/>
<path d="M57.8653 45.694C57.3037 45.2338 56.4816 45.3236 56.0287 45.8942C47.2794 56.8649 47.8533 56.3026 47.6824 56.3143C47.514 56.3254 47.6863 56.3576 44.2023 53.0425C43.6791 52.538 42.8524 52.5595 42.3557 53.0912C41.8589 53.623 41.8804 54.463 42.4036 54.968L45.7395 58.1868C46.2606 58.6898 46.9562 58.9697 47.6712 58.9697C48.4996 58.9697 49.3115 58.5902 49.8518 57.9092L58.0622 47.5609C58.515 46.9898 58.4268 46.1542 57.8653 45.694Z" fill="url(#paint4_linear)"/>
<path d="M57.8653 45.694C57.3037 45.2338 56.4816 45.3236 56.0287 45.8942C47.2794 56.8649 47.8533 56.3026 47.6824 56.3143C47.514 56.3254 47.6863 56.3576 44.2023 53.0425C43.6791 52.538 42.8524 52.5595 42.3557 53.0912C41.8589 53.623 41.8804 54.463 42.4036 54.968L45.7395 58.1868C46.2606 58.6898 46.9562 58.9697 47.6712 58.9697C48.4996 58.9697 49.3115 58.5902 49.8518 57.9092L58.0622 47.5609C58.515 46.9898 58.4268 46.1542 57.8653 45.694Z" fill="url(#paint5_linear)"/>
<path d="M55.528 10.1421H22.2643C21.543 10.1421 20.9582 10.7362 20.9582 11.4694C20.9582 12.2026 21.543 12.7967 22.2643 12.7967H55.5278C56.2491 12.7967 56.8339 12.2026 56.8339 11.4694C56.8339 10.7362 56.2493 10.1421 55.528 10.1421Z" fill="url(#paint6_linear)"/>
<path d="M55.528 10.1421H22.2643C21.543 10.1421 20.9582 10.7362 20.9582 11.4694C20.9582 12.2026 21.543 12.7967 22.2643 12.7967H55.5278C56.2491 12.7967 56.8339 12.2026 56.8339 11.4694C56.8339 10.7362 56.2493 10.1421 55.528 10.1421Z" fill="url(#paint7_linear)"/>
<path d="M63.2711 10.1421H60.7525C60.0312 10.1421 59.4464 10.7362 59.4464 11.4694C59.4464 12.2026 60.0312 12.7967 60.7525 12.7967H63.2711C63.9924 12.7967 64.5772 12.2026 64.5772 11.4694C64.5772 10.7362 63.9926 10.1421 63.2711 10.1421Z" fill="url(#paint8_linear)"/>
<path d="M63.2711 10.1421H60.7525C60.0312 10.1421 59.4464 10.7362 59.4464 11.4694C59.4464 12.2026 60.0312 12.7967 60.7525 12.7967H63.2711C63.9924 12.7967 64.5772 12.2026 64.5772 11.4694C64.5772 10.7362 63.9926 10.1421 63.2711 10.1421Z" fill="url(#paint9_linear)"/>
<path d="M63.2711 77.011H32.2715C31.5503 77.011 30.9655 77.6051 30.9655 78.3383C30.9655 79.0715 31.5503 79.6656 32.2715 79.6656H63.2711C63.9924 79.6656 64.5772 79.0715 64.5772 78.3383C64.5774 77.6051 63.9925 77.011 63.2711 77.011Z" fill="url(#paint10_linear)"/>
<path d="M63.2711 77.011H32.2715C31.5503 77.011 30.9655 77.6051 30.9655 78.3383C30.9655 79.0715 31.5503 79.6656 32.2715 79.6656H63.2711C63.9924 79.6656 64.5772 79.0715 64.5772 78.3383C64.5774 77.6051 63.9925 77.011 63.2711 77.011Z" fill="url(#paint11_linear)"/>
<path d="M27.047 77.011H22.2644C21.5432 77.011 20.9583 77.6051 20.9583 78.3383C20.9583 79.0715 21.5432 79.6656 22.2644 79.6656H27.047C27.7683 79.6656 28.3531 79.0715 28.3531 78.3383C28.3531 77.6051 27.7683 77.011 27.047 77.011Z" fill="url(#paint12_linear)"/>
<path d="M27.047 77.011H22.2644C21.5432 77.011 20.9583 77.6051 20.9583 78.3383C20.9583 79.0715 21.5432 79.6656 22.2644 79.6656H27.047C27.7683 79.6656 28.3531 79.0715 28.3531 78.3383C28.3531 77.6051 27.7683 77.011 27.047 77.011Z" fill="url(#paint13_linear)"/>
<path d="M63.2711 19.6989H22.2643C21.543 19.6989 20.9582 20.2931 20.9582 21.0263C20.9582 21.7594 21.543 22.3536 22.2643 22.3536H63.2711C63.9924 22.3536 64.5772 21.7594 64.5772 21.0263C64.5774 20.2931 63.9926 19.6989 63.2711 19.6989Z" fill="url(#paint14_linear)"/>
<path d="M63.2711 19.6989H22.2643C21.543 19.6989 20.9582 20.2931 20.9582 21.0263C20.9582 21.7594 21.543 22.3536 22.2643 22.3536H63.2711C63.9924 22.3536 64.5772 21.7594 64.5772 21.0263C64.5774 20.2931 63.9926 19.6989 63.2711 19.6989Z" fill="url(#paint15_linear)"/>
<path d="M63.2711 29.2558H39.4119C38.6906 29.2558 38.1058 29.8499 38.1058 30.5831C38.1058 31.3163 38.6906 31.9105 39.4119 31.9105H63.2711C63.9924 31.9105 64.5772 31.3163 64.5772 30.5831C64.5772 29.8499 63.9926 29.2558 63.2711 29.2558Z" fill="url(#paint16_linear)"/>
<path d="M63.2711 29.2558H39.4119C38.6906 29.2558 38.1058 29.8499 38.1058 30.5831C38.1058 31.3163 38.6906 31.9105 39.4119 31.9105H63.2711C63.9924 31.9105 64.5772 31.3163 64.5772 30.5831C64.5772 29.8499 63.9926 29.2558 63.2711 29.2558Z" fill="url(#paint17_linear)"/>
<path d="M34.1874 29.2558H22.2644C21.5432 29.2558 20.9583 29.8499 20.9583 30.5831C20.9583 31.3163 21.5432 31.9105 22.2644 31.9105H34.1874C34.9087 31.9105 35.4935 31.3163 35.4935 30.5831C35.4935 29.8499 34.9087 29.2558 34.1874 29.2558Z" fill="url(#paint18_linear)"/>
<path d="M34.1874 29.2558H22.2644C21.5432 29.2558 20.9583 29.8499 20.9583 30.5831C20.9583 31.3163 21.5432 31.9105 22.2644 31.9105H34.1874C34.9087 31.9105 35.4935 31.3163 35.4935 30.5831C35.4935 29.8499 34.9087 29.2558 34.1874 29.2558Z" fill="url(#paint19_linear)"/>
<path d="M31.9111 38.8125H22.2643C21.543 38.8125 20.9582 39.4066 20.9582 40.1398C20.9582 40.873 21.543 41.4672 22.2643 41.4672H31.9111C32.6324 41.4672 33.2172 40.873 33.2172 40.1398C33.2172 39.4066 32.6324 38.8125 31.9111 38.8125Z" fill="url(#paint20_linear)"/>
<path d="M31.9111 38.8125H22.2643C21.543 38.8125 20.9582 39.4066 20.9582 40.1398C20.9582 40.873 21.543 41.4672 22.2643 41.4672H31.9111C32.6324 41.4672 33.2172 40.873 33.2172 40.1398C33.2172 39.4066 32.6324 38.8125 31.9111 38.8125Z" fill="url(#paint21_linear)"/>
<path d="M31.9111 48.3692H22.2643C21.543 48.3692 20.9582 48.9633 20.9582 49.6965C20.9582 50.4297 21.543 51.0239 22.2643 51.0239H31.9111C32.6324 51.0239 33.2172 50.4297 33.2172 49.6965C33.2172 48.9633 32.6324 48.3692 31.9111 48.3692Z" fill="url(#paint22_linear)"/>
<path d="M31.9111 48.3692H22.2643C21.543 48.3692 20.9582 48.9633 20.9582 49.6965C20.9582 50.4297 21.543 51.0239 22.2643 51.0239H31.9111C32.6324 51.0239 33.2172 50.4297 33.2172 49.6965C33.2172 48.9633 32.6324 48.3692 31.9111 48.3692Z" fill="url(#paint23_linear)"/>
<path d="M34.1751 57.9261H22.2643C21.543 57.9261 20.9582 58.5202 20.9582 59.2534C20.9582 59.9866 21.543 60.5807 22.2643 60.5807H34.1751C34.8964 60.5807 35.4812 59.9866 35.4812 59.2534C35.4812 58.5202 34.8966 57.9261 34.1751 57.9261Z" fill="url(#paint24_linear)"/>
<path d="M34.1751 57.9261H22.2643C21.543 57.9261 20.9582 58.5202 20.9582 59.2534C20.9582 59.9866 21.543 60.5807 22.2643 60.5807H34.1751C34.8964 60.5807 35.4812 59.9866 35.4812 59.2534C35.4812 58.5202 34.8966 57.9261 34.1751 57.9261Z" fill="url(#paint25_linear)"/>
<path d="M38.3978 67.4828H22.2643C21.543 67.4828 20.9582 68.0769 20.9582 68.8101C20.9582 69.5433 21.543 70.1374 22.2643 70.1374H38.3978C39.1191 70.1374 39.7039 69.5433 39.7039 68.8101C39.7041 68.0769 39.1193 67.4828 38.3978 67.4828Z" fill="url(#paint26_linear)"/>
<path d="M38.3978 67.4828H22.2643C21.543 67.4828 20.9582 68.0769 20.9582 68.8101C20.9582 69.5433 21.543 70.1374 22.2643 70.1374H38.3978C39.1191 70.1374 39.7039 69.5433 39.7039 68.8101C39.7041 68.0769 39.1193 67.4828 38.3978 67.4828Z" fill="url(#paint27_linear)"/>
<defs>
<linearGradient id="paint0_linear" x1="-84.96" y1="2926.8" x2="-84.96" y2="3039.3" gradientUnits="userSpaceOnUse">
<stop stop-color="#00A651"/>
<stop offset="1" stop-color="#FDB813"/>
</linearGradient>
<linearGradient id="paint1_linear" x1="36" y1="0" x2="36" y2="90" gradientUnits="userSpaceOnUse">
<stop stop-color="#F9A030"/>
<stop offset="1" stop-color="#FFBE6C"/>
</linearGradient>
<linearGradient id="paint2_linear" x1="-84.96" y1="2926.8" x2="-84.96" y2="3039.3" gradientUnits="userSpaceOnUse">
<stop stop-color="#00A651"/>
<stop offset="1" stop-color="#FDB813"/>
</linearGradient>
<linearGradient id="paint3_linear" x1="36" y1="0" x2="36" y2="90" gradientUnits="userSpaceOnUse">
<stop stop-color="#F9A030"/>
<stop offset="1" stop-color="#FFBE6C"/>
</linearGradient>
<linearGradient id="paint4_linear" x1="-84.96" y1="2926.8" x2="-84.96" y2="3039.3" gradientUnits="userSpaceOnUse">
<stop stop-color="#00A651"/>
<stop offset="1" stop-color="#FDB813"/>
</linearGradient>
<linearGradient id="paint5_linear" x1="36" y1="0" x2="36" y2="90" gradientUnits="userSpaceOnUse">
<stop stop-color="#F9A030"/>
<stop offset="1" stop-color="#FFBE6C"/>
</linearGradient>
<linearGradient id="paint6_linear" x1="-84.96" y1="2926.8" x2="-84.96" y2="3039.3" gradientUnits="userSpaceOnUse">
<stop stop-color="#00A651"/>
<stop offset="1" stop-color="#FDB813"/>
</linearGradient>
<linearGradient id="paint7_linear" x1="36" y1="0" x2="36" y2="90" gradientUnits="userSpaceOnUse">
<stop stop-color="#F9A030"/>
<stop offset="1" stop-color="#FFBE6C"/>
</linearGradient>
<linearGradient id="paint8_linear" x1="-84.96" y1="2926.8" x2="-84.96" y2="3039.3" gradientUnits="userSpaceOnUse">
<stop stop-color="#00A651"/>
<stop offset="1" stop-color="#FDB813"/>
</linearGradient>
<linearGradient id="paint9_linear" x1="36" y1="0" x2="36" y2="90" gradientUnits="userSpaceOnUse">
<stop stop-color="#F9A030"/>
<stop offset="1" stop-color="#FFBE6C"/>
</linearGradient>
<linearGradient id="paint10_linear" x1="-84.96" y1="2926.8" x2="-84.96" y2="3039.3" gradientUnits="userSpaceOnUse">
<stop stop-color="#00A651"/>
<stop offset="1" stop-color="#FDB813"/>
</linearGradient>
<linearGradient id="paint11_linear" x1="36" y1="0" x2="36" y2="90" gradientUnits="userSpaceOnUse">
<stop stop-color="#F9A030"/>
<stop offset="1" stop-color="#FFBE6C"/>
</linearGradient>
<linearGradient id="paint12_linear" x1="-84.96" y1="2926.8" x2="-84.96" y2="3039.3" gradientUnits="userSpaceOnUse">
<stop stop-color="#00A651"/>
<stop offset="1" stop-color="#FDB813"/>
</linearGradient>
<linearGradient id="paint13_linear" x1="36" y1="0" x2="36" y2="90" gradientUnits="userSpaceOnUse">
<stop stop-color="#F9A030"/>
<stop offset="1" stop-color="#FFBE6C"/>
</linearGradient>
<linearGradient id="paint14_linear" x1="-84.96" y1="2926.8" x2="-84.96" y2="3039.3" gradientUnits="userSpaceOnUse">
<stop stop-color="#00A651"/>
<stop offset="1" stop-color="#FDB813"/>
</linearGradient>
<linearGradient id="paint15_linear" x1="36" y1="0" x2="36" y2="90" gradientUnits="userSpaceOnUse">
<stop stop-color="#F9A030"/>
<stop offset="1" stop-color="#FFBE6C"/>
</linearGradient>
<linearGradient id="paint16_linear" x1="-84.96" y1="2926.8" x2="-84.96" y2="3039.3" gradientUnits="userSpaceOnUse">
<stop stop-color="#00A651"/>
<stop offset="1" stop-color="#FDB813"/>
</linearGradient>
<linearGradient id="paint17_linear" x1="36" y1="0" x2="36" y2="90" gradientUnits="userSpaceOnUse">
<stop stop-color="#F9A030"/>
<stop offset="1" stop-color="#FFBE6C"/>
</linearGradient>
<linearGradient id="paint18_linear" x1="-84.96" y1="2926.8" x2="-84.96" y2="3039.3" gradientUnits="userSpaceOnUse">
<stop stop-color="#00A651"/>
<stop offset="1" stop-color="#FDB813"/>
</linearGradient>
<linearGradient id="paint19_linear" x1="36" y1="0" x2="36" y2="90" gradientUnits="userSpaceOnUse">
<stop stop-color="#F9A030"/>
<stop offset="1" stop-color="#FFBE6C"/>
</linearGradient>
<linearGradient id="paint20_linear" x1="-84.96" y1="2926.8" x2="-84.96" y2="3039.3" gradientUnits="userSpaceOnUse">
<stop stop-color="#00A651"/>
<stop offset="1" stop-color="#FDB813"/>
</linearGradient>
<linearGradient id="paint21_linear" x1="36" y1="0" x2="36" y2="90" gradientUnits="userSpaceOnUse">
<stop stop-color="#F9A030"/>
<stop offset="1" stop-color="#FFBE6C"/>
</linearGradient>
<linearGradient id="paint22_linear" x1="-84.96" y1="2926.8" x2="-84.96" y2="3039.3" gradientUnits="userSpaceOnUse">
<stop stop-color="#00A651"/>
<stop offset="1" stop-color="#FDB813"/>
</linearGradient>
<linearGradient id="paint23_linear" x1="36" y1="0" x2="36" y2="90" gradientUnits="userSpaceOnUse">
<stop stop-color="#F9A030"/>
<stop offset="1" stop-color="#FFBE6C"/>
</linearGradient>
<linearGradient id="paint24_linear" x1="-84.96" y1="2926.8" x2="-84.96" y2="3039.3" gradientUnits="userSpaceOnUse">
<stop stop-color="#00A651"/>
<stop offset="1" stop-color="#FDB813"/>
</linearGradient>
<linearGradient id="paint25_linear" x1="36" y1="0" x2="36" y2="90" gradientUnits="userSpaceOnUse">
<stop stop-color="#F9A030"/>
<stop offset="1" stop-color="#FFBE6C"/>
</linearGradient>
<linearGradient id="paint26_linear" x1="-84.96" y1="2926.8" x2="-84.96" y2="3039.3" gradientUnits="userSpaceOnUse">
<stop stop-color="#00A651"/>
<stop offset="1" stop-color="#FDB813"/>
</linearGradient>
<linearGradient id="paint27_linear" x1="36" y1="0" x2="36" y2="90" gradientUnits="userSpaceOnUse">
<stop stop-color="#F9A030"/>
<stop offset="1" stop-color="#FFBE6C"/>
</linearGradient>
</defs>
</svg>
