<svg width="90" height="90" viewBox="0 0 90 90" fill="none" xmlns="http://www.w3.org/2000/svg">
<path d="M71.1097 39.5609H69.4284V23.6377C69.4284 22.8184 68.7641 22.1541 67.9448 22.1541C67.1255 22.1541 66.4612 22.8184 66.4612 23.6377V39.5609H58.6454L61.4922 23.9032C61.639 23.0969 61.1043 22.3246 60.2981 22.178C59.4923 22.0316 58.7196 22.5662 58.573 23.3721L55.4081 40.7789C55.3293 41.2116 55.4469 41.6571 55.7287 41.9948C56.0107 42.3326 56.4278 42.5277 56.8676 42.5277H66.461V45.7915C66.461 46.6108 67.1253 47.2751 67.9446 47.2751C68.7639 47.2751 69.4282 46.6108 69.4282 45.7915V42.5279H71.1095C71.9288 42.5279 72.5931 41.8636 72.5931 41.0443C72.5931 40.225 71.929 39.5609 71.1097 39.5609Z" fill="url(#paint0_linear)"/>
<path d="M71.1097 39.5609H69.4284V23.6377C69.4284 22.8184 68.7641 22.1541 67.9448 22.1541C67.1255 22.1541 66.4612 22.8184 66.4612 23.6377V39.5609H58.6454L61.4922 23.9032C61.639 23.0969 61.1043 22.3246 60.2981 22.178C59.4923 22.0316 58.7196 22.5662 58.573 23.3721L55.4081 40.7789C55.3293 41.2116 55.4469 41.6571 55.7287 41.9948C56.0107 42.3326 56.4278 42.5277 56.8676 42.5277H66.461V45.7915C66.461 46.6108 67.1253 47.2751 67.9446 47.2751C68.7639 47.2751 69.4282 46.6108 69.4282 45.7915V42.5279H71.1095C71.9288 42.5279 72.5931 41.8636 72.5931 41.0443C72.5931 40.225 71.929 39.5609 71.1097 39.5609Z" fill="url(#paint1_linear)"/>
<path d="M52.1208 44.308H41.1514C41.7499 42.3301 43.619 41.1328 46.349 39.5283C49.7497 37.5297 53.6042 35.2644 53.6042 29.9672C53.6042 25.659 50.0991 22.1539 45.7909 22.1539C41.4827 22.1539 37.9776 25.659 37.9776 29.9672C37.9776 30.7865 38.6419 31.4508 39.4612 31.4508C40.2805 31.4508 40.9448 30.7865 40.9448 29.9672C40.9448 27.2952 43.1189 25.1211 45.7909 25.1211C48.463 25.1211 50.637 27.2952 50.637 29.9672C50.637 33.5667 47.953 35.144 44.8456 36.9703C41.6263 38.8623 37.9776 41.0068 37.9776 45.7916C37.9776 46.6109 38.6419 47.2752 39.4612 47.2752H52.1206C52.9399 47.2752 53.6042 46.6109 53.6042 45.7916C53.6042 44.9722 52.9401 44.308 52.1208 44.308Z" fill="url(#paint2_linear)"/>
<path d="M52.1208 44.308H41.1514C41.7499 42.3301 43.619 41.1328 46.349 39.5283C49.7497 37.5297 53.6042 35.2644 53.6042 29.9672C53.6042 25.659 50.0991 22.1539 45.7909 22.1539C41.4827 22.1539 37.9776 25.659 37.9776 29.9672C37.9776 30.7865 38.6419 31.4508 39.4612 31.4508C40.2805 31.4508 40.9448 30.7865 40.9448 29.9672C40.9448 27.2952 43.1189 25.1211 45.7909 25.1211C48.463 25.1211 50.637 27.2952 50.637 29.9672C50.637 33.5667 47.953 35.144 44.8456 36.9703C41.6263 38.8623 37.9776 41.0068 37.9776 45.7916C37.9776 46.6109 38.6419 47.2752 39.4612 47.2752H52.1206C52.9399 47.2752 53.6042 46.6109 53.6042 45.7916C53.6042 44.9722 52.9401 44.308 52.1208 44.308Z" fill="url(#paint3_linear)"/>
<path d="M81.8958 61.7435L79.0067 62.3213C86.0275 55.5026 90 46.1765 90 36.2969C90 16.2828 73.7172 0 53.7032 0C41.9077 0 30.8061 5.7651 24.006 15.422C23.5342 16.0919 23.6949 17.0176 24.3648 17.4892C25.0347 17.9608 25.96 17.8003 26.432 17.1304C32.6771 8.26172 42.8719 2.96701 53.7032 2.96701C72.0812 2.96701 87.033 17.9188 87.033 36.2969C87.033 45.5017 83.2753 54.1816 76.6505 60.4661L77.312 57.1595C77.4726 56.356 76.9516 55.5745 76.1481 55.4138C75.3443 55.2537 74.5631 55.7742 74.4024 56.5777L72.8201 64.4898C72.7227 64.9762 72.8751 65.4791 73.2257 65.8298C73.5066 66.1107 73.8853 66.2643 74.2746 66.2643C74.3713 66.2643 74.4687 66.2548 74.5656 66.2355L82.4776 64.6531C83.2811 64.4922 83.8021 63.7107 83.6415 62.9074C83.4808 62.1041 82.6995 61.5832 81.8958 61.7435Z" fill="url(#paint4_linear)"/>
<path d="M81.8958 61.7435L79.0067 62.3213C86.0275 55.5026 90 46.1765 90 36.2969C90 16.2828 73.7172 0 53.7032 0C41.9077 0 30.8061 5.7651 24.006 15.422C23.5342 16.0919 23.6949 17.0176 24.3648 17.4892C25.0347 17.9608 25.96 17.8003 26.432 17.1304C32.6771 8.26172 42.8719 2.96701 53.7032 2.96701C72.0812 2.96701 87.033 17.9188 87.033 36.2969C87.033 45.5017 83.2753 54.1816 76.6505 60.4661L77.312 57.1595C77.4726 56.356 76.9516 55.5745 76.1481 55.4138C75.3443 55.2537 74.5631 55.7742 74.4024 56.5777L72.8201 64.4898C72.7227 64.9762 72.8751 65.4791 73.2257 65.8298C73.5066 66.1107 73.8853 66.2643 74.2746 66.2643C74.3713 66.2643 74.4687 66.2548 74.5656 66.2355L82.4776 64.6531C83.2811 64.4922 83.8021 63.7107 83.6415 62.9074C83.4808 62.1041 82.6995 61.5832 81.8958 61.7435Z" fill="url(#paint5_linear)"/>
<path d="M80.4498 75.6123C80.1876 73.629 79.0427 71.9188 77.309 70.9205L57.5389 59.538C55.0447 58.1017 51.8812 58.52 49.8457 60.5554L45.9518 64.4493C44.9823 65.4186 43.4495 65.5043 42.3864 64.6492C39.3218 62.1831 36.3042 59.4691 33.4175 56.5824C30.531 53.6957 27.817 50.6781 25.3508 47.6135C24.4952 46.5504 24.5812 45.0174 25.5506 44.0481L29.4447 40.1542C31.4799 38.119 31.8983 34.9555 30.4621 32.461L19.0794 12.691C18.0813 10.9573 16.3712 9.81242 14.3877 9.55016C12.4052 9.28789 10.4554 9.94865 9.04076 11.3633L3.17319 17.2309C-0.978753 21.3829 -1.05873 28.9462 2.94784 38.5275C6.77986 47.691 13.9283 57.7756 23.0763 66.9236C32.2243 76.0716 42.3089 83.2201 51.4723 87.0521C56.1736 89.0181 60.3885 90 63.9535 90C67.654 90 70.6541 88.9416 72.7687 86.8268L78.6363 80.9592C80.0513 79.5445 80.7123 77.5958 80.4498 75.6123ZM11.1389 13.4615C11.7866 12.8137 12.6436 12.4614 13.5425 12.4614C13.6937 12.4614 13.8461 12.4713 13.9988 12.4915C15.0597 12.6318 15.9743 13.2442 16.5081 14.1714L27.8906 33.9414C28.6588 35.2758 28.435 36.9678 27.3464 38.0563L25.2003 40.2022L10.2921 14.3084L11.1389 13.4615ZM70.671 84.7287C67.4733 87.9261 60.893 87.7753 52.6172 84.3145C43.802 80.628 34.056 73.7066 25.1746 64.8255C16.2935 55.9441 9.37193 46.1981 5.68563 37.3829C2.22485 29.1069 2.07386 22.5267 5.27149 19.329L8.11949 16.481L23.0454 42.4051C21.3955 44.45 21.3609 47.3878 23.0392 49.4736C25.5719 52.6212 28.3578 55.7186 31.3198 58.6803C34.2817 61.6421 37.3791 64.428 40.5265 66.9609C42.578 68.6115 45.4534 68.6051 47.4928 67.0354L73.5137 81.8861L70.671 84.7287ZM76.5385 78.8611L75.6886 79.711L49.7117 64.8854L51.9438 62.6533C53.0322 61.5649 54.7241 61.3411 56.0585 62.1091L75.8285 73.4917C76.7558 74.0255 77.368 74.9401 77.5085 76.001C77.6488 77.0621 77.2952 78.1045 76.5385 78.8611Z" fill="url(#paint6_linear)"/>
<path d="M80.4498 75.6123C80.1876 73.629 79.0427 71.9188 77.309 70.9205L57.5389 59.538C55.0447 58.1017 51.8812 58.52 49.8457 60.5554L45.9518 64.4493C44.9823 65.4186 43.4495 65.5043 42.3864 64.6492C39.3218 62.1831 36.3042 59.4691 33.4175 56.5824C30.531 53.6957 27.817 50.6781 25.3508 47.6135C24.4952 46.5504 24.5812 45.0174 25.5506 44.0481L29.4447 40.1542C31.4799 38.119 31.8983 34.9555 30.4621 32.461L19.0794 12.691C18.0813 10.9573 16.3712 9.81242 14.3877 9.55016C12.4052 9.28789 10.4554 9.94865 9.04076 11.3633L3.17319 17.2309C-0.978753 21.3829 -1.05873 28.9462 2.94784 38.5275C6.77986 47.691 13.9283 57.7756 23.0763 66.9236C32.2243 76.0716 42.3089 83.2201 51.4723 87.0521C56.1736 89.0181 60.3885 90 63.9535 90C67.654 90 70.6541 88.9416 72.7687 86.8268L78.6363 80.9592C80.0513 79.5445 80.7123 77.5958 80.4498 75.6123ZM11.1389 13.4615C11.7866 12.8137 12.6436 12.4614 13.5425 12.4614C13.6937 12.4614 13.8461 12.4713 13.9988 12.4915C15.0597 12.6318 15.9743 13.2442 16.5081 14.1714L27.8906 33.9414C28.6588 35.2758 28.435 36.9678 27.3464 38.0563L25.2003 40.2022L10.2921 14.3084L11.1389 13.4615ZM70.671 84.7287C67.4733 87.9261 60.893 87.7753 52.6172 84.3145C43.802 80.628 34.056 73.7066 25.1746 64.8255C16.2935 55.9441 9.37193 46.1981 5.68563 37.3829C2.22485 29.1069 2.07386 22.5267 5.27149 19.329L8.11949 16.481L23.0454 42.4051C21.3955 44.45 21.3609 47.3878 23.0392 49.4736C25.5719 52.6212 28.3578 55.7186 31.3198 58.6803C34.2817 61.6421 37.3791 64.428 40.5265 66.9609C42.578 68.6115 45.4534 68.6051 47.4928 67.0354L73.5137 81.8861L70.671 84.7287ZM76.5385 78.8611L75.6886 79.711L49.7117 64.8854L51.9438 62.6533C53.0322 61.5649 54.7241 61.3411 56.0585 62.1091L75.8285 73.4917C76.7558 74.0255 77.368 74.9401 77.5085 76.001C77.6488 77.0621 77.2952 78.1045 76.5385 78.8611Z" fill="url(#paint7_linear)"/>
<path d="M53.7032 6.32971C52.8839 6.32971 52.2196 6.99399 52.2196 7.8133V10.9782C52.2196 11.7976 52.8839 12.4618 53.7032 12.4618C54.5225 12.4618 55.1868 11.7976 55.1868 10.9782V7.8133C55.1868 6.99399 54.5225 6.32971 53.7032 6.32971Z" fill="url(#paint8_linear)"/>
<path d="M53.7032 6.32971C52.8839 6.32971 52.2196 6.99399 52.2196 7.8133V10.9782C52.2196 11.7976 52.8839 12.4618 53.7032 12.4618C54.5225 12.4618 55.1868 11.7976 55.1868 10.9782V7.8133C55.1868 6.99399 54.5225 6.32971 53.7032 6.32971Z" fill="url(#paint9_linear)"/>
<path d="M82.1869 34.8135H79.0219C78.2026 34.8135 77.5384 35.4778 77.5384 36.2971C77.5384 37.1164 78.2026 37.7807 79.0219 37.7807H82.1869C83.0062 37.7807 83.6705 37.1164 83.6705 36.2971C83.6703 35.4776 83.006 34.8135 82.1869 34.8135Z" fill="url(#paint10_linear)"/>
<path d="M82.1869 34.8135H79.0219C78.2026 34.8135 77.5384 35.4778 77.5384 36.2971C77.5384 37.1164 78.2026 37.7807 79.0219 37.7807H82.1869C83.0062 37.7807 83.6705 37.1164 83.6705 36.2971C83.6703 35.4776 83.006 34.8135 82.1869 34.8135Z" fill="url(#paint11_linear)"/>
<path d="M68.6867 10.3447C67.9769 9.93479 67.0699 10.1781 66.6601 10.8877L65.869 12.2581C65.4592 12.9675 65.7023 13.8749 66.412 14.2847C66.6456 14.4195 66.9005 14.4837 67.1523 14.4837C67.6651 14.4837 68.1638 14.2173 68.4385 13.7417L69.2297 12.3713C69.6393 11.6617 69.3962 10.7545 68.6867 10.3447Z" fill="url(#paint12_linear)"/>
<path d="M68.6867 10.3447C67.9769 9.93479 67.0699 10.1781 66.6601 10.8877L65.869 12.2581C65.4592 12.9675 65.7023 13.8749 66.412 14.2847C66.6456 14.4195 66.9005 14.4837 67.1523 14.4837C67.6651 14.4837 68.1638 14.2173 68.4385 13.7417L69.2297 12.3713C69.6393 11.6617 69.3962 10.7545 68.6867 10.3447Z" fill="url(#paint13_linear)"/>
<path d="M41.537 12.258L40.7458 10.8877C40.3363 10.1779 39.4287 9.93492 38.7193 10.3447C38.0098 10.7542 37.7667 11.6616 38.1763 12.3713L38.9675 13.7416C39.2424 14.2175 39.7411 14.4836 40.2536 14.4836C40.5052 14.4836 40.7604 14.4195 40.994 14.2846C41.7037 13.8749 41.9468 12.9675 41.537 12.258Z" fill="url(#paint14_linear)"/>
<path d="M41.537 12.258L40.7458 10.8877C40.3363 10.1779 39.4287 9.93492 38.7193 10.3447C38.0098 10.7542 37.7667 11.6616 38.1763 12.3713L38.9675 13.7416C39.2424 14.2175 39.7411 14.4836 40.2536 14.4836C40.5052 14.4836 40.7604 14.4195 40.994 14.2846C41.7037 13.8749 41.9468 12.9675 41.537 12.258Z" fill="url(#paint15_linear)"/>
<path d="M31.1477 21.5615L29.7773 20.7703C29.0678 20.3604 28.1604 20.6037 27.7507 21.3133C27.341 22.0227 27.5841 22.9301 28.2937 23.3399L29.6641 24.1311C29.8977 24.2659 30.1529 24.33 30.4045 24.33C30.9172 24.33 31.4159 24.0637 31.6907 23.5881C32.1002 22.8786 31.8571 21.9712 31.1477 21.5615Z" fill="url(#paint16_linear)"/>
<path d="M31.1477 21.5615L29.7773 20.7703C29.0678 20.3604 28.1604 20.6037 27.7507 21.3133C27.341 22.0227 27.5841 22.9301 28.2937 23.3399L29.6641 24.1311C29.8977 24.2659 30.1529 24.33 30.4045 24.33C30.9172 24.33 31.4159 24.0637 31.6907 23.5881C32.1002 22.8786 31.8571 21.9712 31.1477 21.5615Z" fill="url(#paint17_linear)"/>
<path d="M79.1123 49.2541L77.7419 48.4629C77.0325 48.053 76.1251 48.2963 75.7153 49.0059C75.3056 49.7155 75.5487 50.6227 76.2583 51.0325L77.6287 51.8237C77.8623 51.9585 78.1176 52.0226 78.3691 52.0226C78.8819 52.0226 79.3805 51.7563 79.6553 51.2807C80.065 50.571 79.8219 49.6637 79.1123 49.2541Z" fill="url(#paint18_linear)"/>
<path d="M79.1123 49.2541L77.7419 48.4629C77.0325 48.053 76.1251 48.2963 75.7153 49.0059C75.3056 49.7155 75.5487 50.6227 76.2583 51.0325L77.6287 51.8237C77.8623 51.9585 78.1176 52.0226 78.3691 52.0226C78.8819 52.0226 79.3805 51.7563 79.6553 51.2807C80.065 50.571 79.8219 49.6637 79.1123 49.2541Z" fill="url(#paint19_linear)"/>
<path d="M79.6553 21.3133C79.2455 20.6037 78.3383 20.3608 77.6287 20.7703L76.2583 21.5615C75.5489 21.9711 75.3058 22.8785 75.7153 23.5881C75.9901 24.0639 76.4888 24.3301 77.0015 24.3301C77.2531 24.3301 77.5083 24.2659 77.7419 24.1311L79.1123 23.3399C79.8219 22.9301 80.065 22.0229 79.6553 21.3133Z" fill="url(#paint20_linear)"/>
<path d="M79.6553 21.3133C79.2455 20.6037 78.3383 20.3608 77.6287 20.7703L76.2583 21.5615C75.5489 21.9711 75.3058 22.8785 75.7153 23.5881C75.9901 24.0639 76.4888 24.3301 77.0015 24.3301C77.2531 24.3301 77.5083 24.2659 77.7419 24.1311L79.1123 23.3399C79.8219 22.9301 80.065 22.0229 79.6553 21.3133Z" fill="url(#paint21_linear)"/>
<defs>
<linearGradient id="paint0_linear" x1="45" y1="0" x2="45" y2="90" gradientUnits="userSpaceOnUse">
<stop stop-color="#00A651"/>
<stop offset="1" stop-color="#FDB813"/>
</linearGradient>
<linearGradient id="paint1_linear" x1="45" y1="0" x2="45" y2="90" gradientUnits="userSpaceOnUse">
<stop stop-color="#F9A030"/>
<stop offset="1" stop-color="#FFBE6C"/>
</linearGradient>
<linearGradient id="paint2_linear" x1="45" y1="0" x2="45" y2="90" gradientUnits="userSpaceOnUse">
<stop stop-color="#00A651"/>
<stop offset="1" stop-color="#FDB813"/>
</linearGradient>
<linearGradient id="paint3_linear" x1="45" y1="0" x2="45" y2="90" gradientUnits="userSpaceOnUse">
<stop stop-color="#F9A030"/>
<stop offset="1" stop-color="#FFBE6C"/>
</linearGradient>
<linearGradient id="paint4_linear" x1="45" y1="0" x2="45" y2="90" gradientUnits="userSpaceOnUse">
<stop stop-color="#00A651"/>
<stop offset="1" stop-color="#FDB813"/>
</linearGradient>
<linearGradient id="paint5_linear" x1="45" y1="0" x2="45" y2="90" gradientUnits="userSpaceOnUse">
<stop stop-color="#F9A030"/>
<stop offset="1" stop-color="#FFBE6C"/>
</linearGradient>
<linearGradient id="paint6_linear" x1="45" y1="0" x2="45" y2="90" gradientUnits="userSpaceOnUse">
<stop stop-color="#00A651"/>
<stop offset="1" stop-color="#FDB813"/>
</linearGradient>
<linearGradient id="paint7_linear" x1="45" y1="0" x2="45" y2="90" gradientUnits="userSpaceOnUse">
<stop stop-color="#F9A030"/>
<stop offset="1" stop-color="#FFBE6C"/>
</linearGradient>
<linearGradient id="paint8_linear" x1="45" y1="0" x2="45" y2="90" gradientUnits="userSpaceOnUse">
<stop stop-color="#00A651"/>
<stop offset="1" stop-color="#FDB813"/>
</linearGradient>
<linearGradient id="paint9_linear" x1="45" y1="0" x2="45" y2="90" gradientUnits="userSpaceOnUse">
<stop stop-color="#F9A030"/>
<stop offset="1" stop-color="#FFBE6C"/>
</linearGradient>
<linearGradient id="paint10_linear" x1="45" y1="0" x2="45" y2="90" gradientUnits="userSpaceOnUse">
<stop stop-color="#00A651"/>
<stop offset="1" stop-color="#FDB813"/>
</linearGradient>
<linearGradient id="paint11_linear" x1="45" y1="0" x2="45" y2="90" gradientUnits="userSpaceOnUse">
<stop stop-color="#F9A030"/>
<stop offset="1" stop-color="#FFBE6C"/>
</linearGradient>
<linearGradient id="paint12_linear" x1="45" y1="0" x2="45" y2="90" gradientUnits="userSpaceOnUse">
<stop stop-color="#00A651"/>
<stop offset="1" stop-color="#FDB813"/>
</linearGradient>
<linearGradient id="paint13_linear" x1="45" y1="0" x2="45" y2="90" gradientUnits="userSpaceOnUse">
<stop stop-color="#F9A030"/>
<stop offset="1" stop-color="#FFBE6C"/>
</linearGradient>
<linearGradient id="paint14_linear" x1="45" y1="0" x2="45" y2="90" gradientUnits="userSpaceOnUse">
<stop stop-color="#00A651"/>
<stop offset="1" stop-color="#FDB813"/>
</linearGradient>
<linearGradient id="paint15_linear" x1="45" y1="0" x2="45" y2="90" gradientUnits="userSpaceOnUse">
<stop stop-color="#F9A030"/>
<stop offset="1" stop-color="#FFBE6C"/>
</linearGradient>
<linearGradient id="paint16_linear" x1="45" y1="0" x2="45" y2="90" gradientUnits="userSpaceOnUse">
<stop stop-color="#00A651"/>
<stop offset="1" stop-color="#FDB813"/>
</linearGradient>
<linearGradient id="paint17_linear" x1="45" y1="0" x2="45" y2="90" gradientUnits="userSpaceOnUse">
<stop stop-color="#F9A030"/>
<stop offset="1" stop-color="#FFBE6C"/>
</linearGradient>
<linearGradient id="paint18_linear" x1="45" y1="0" x2="45" y2="90" gradientUnits="userSpaceOnUse">
<stop stop-color="#00A651"/>
<stop offset="1" stop-color="#FDB813"/>
</linearGradient>
<linearGradient id="paint19_linear" x1="45" y1="0" x2="45" y2="90" gradientUnits="userSpaceOnUse">
<stop stop-color="#F9A030"/>
<stop offset="1" stop-color="#FFBE6C"/>
</linearGradient>
<linearGradient id="paint20_linear" x1="45" y1="0" x2="45" y2="90" gradientUnits="userSpaceOnUse">
<stop stop-color="#00A651"/>
<stop offset="1" stop-color="#FDB813"/>
</linearGradient>
<linearGradient id="paint21_linear" x1="45" y1="0" x2="45" y2="90" gradientUnits="userSpaceOnUse">
<stop stop-color="#F9A030"/>
<stop offset="1" stop-color="#FFBE6C"/>
</linearGradient>
</defs>
</svg>
