<svg width="55" height="75" viewBox="0 0 55 75" fill="none" xmlns="http://www.w3.org/2000/svg">
<path d="M48.1898 11.6381C44.1487 3.07135 36.5517 0.000244141 27.5 0.000244141C18.4483 0.000244141 10.8514 3.07135 6.81046 11.6381C2.76953 20.2049 5.19409 25.7006 0.344971 38.7932C0.344971 38.7932 9.07338 47.8449 27.5 47.8449C45.9267 47.8449 54.6551 38.7932 54.6551 38.7932C49.8061 25.7006 52.2307 20.2049 48.1898 11.6381Z" fill="#9D6E48"/>
<path d="M27.5 0.000244141C18.4483 0.000244141 10.8514 3.07135 6.81046 11.6381C2.76953 20.2049 5.19409 25.7006 0.344971 38.7932C0.344971 38.7932 8.46078 47.1574 25.5028 47.7841L25.3987 31.0346C25.3987 31.0346 17.1552 29.297 17.1552 23.276C17.1552 9.68312 25.4527 0.000244141 27.5 0.000244141Z" fill="#8D5F3D"/>
<path d="M51.4835 70.6079L49.9984 59.4698C49.8569 58.4088 49.4572 57.4228 48.8593 56.5813C49.1364 55.9896 48.9282 55.2706 48.3537 54.9258L44.1062 52.3773C43.5017 52.0146 42.7181 52.2029 42.3444 52.8008L42.255 52.9438L37.0271 51.0203C35.9712 50.6683 35.2588 49.68 35.2588 48.5668V44.3963L40.829 42.0753C43.7202 40.8708 45.6035 38.0459 45.6035 34.9137V33.6206C47.746 33.6206 49.4828 31.8838 49.4828 29.7413C49.4828 27.5988 47.746 25.862 45.6035 25.862V23.2758C45.6035 19.7049 42.7087 16.8103 39.138 16.8103H15.8622C12.2913 16.8103 9.39672 19.7049 9.39672 23.2758V25.862C7.25422 25.862 5.51742 27.5988 5.51742 29.7413C5.51742 31.8838 7.25422 33.6206 9.39672 33.6206V34.9137C9.39672 38.0457 11.28 40.8707 14.1712 42.0755L19.7415 44.3966V48.567C19.7415 49.6802 19.0292 50.6685 17.9732 51.0205L12.7454 52.944L12.656 52.8009C12.2823 52.2032 11.4986 52.0147 10.8941 52.3774L6.64662 54.926C6.072 55.2708 5.86398 55.9897 6.14102 56.5815C5.54329 57.423 5.1434 58.4089 5.00196 59.4699L3.51684 70.608C3.20682 72.9335 5.01586 75 7.36203 75H47.6381C49.9843 74.9999 51.7935 72.9333 51.4835 70.6079Z" fill="#FFD7A3"/>
<path d="M35.2586 44.3965L19.7414 44.3966V48.5671C19.7414 49.4873 19.2538 50.3211 18.4884 50.7816C29.3056 52.6505 35.2583 44.3971 35.2586 44.3965Z" fill="#FDC88E"/>
<path d="M42.3443 52.8008L41.3492 54.393C38.3647 59.168 33.1311 62.0688 27.5001 62.0688C21.8692 62.0688 16.6355 59.168 13.6511 54.393L12.656 52.8008C12.2823 52.2029 11.4987 52.0146 10.8942 52.3773L6.64667 54.9259C6.02647 55.298 5.83202 56.1066 6.21542 56.72L11.9828 65.9482H43.0171L48.7847 56.72C49.1681 56.1066 48.9736 55.2981 48.3534 54.9259L44.1059 52.3773C43.5016 52.0146 42.718 52.2031 42.3443 52.8008Z" fill="#EF7F1A"/>
<path d="M45.6034 25.862V23.2758C45.6034 19.7049 42.7086 16.8103 39.1379 16.8103H15.8621C12.2912 16.8103 9.39663 19.7049 9.39663 23.2758V25.862C7.25413 25.862 5.51733 27.5988 5.51733 29.7413C5.51733 31.8838 7.25413 33.6206 9.39663 33.6206V34.9137C9.39663 38.0457 11.2799 40.8707 14.1711 42.0755L22.5263 45.5568C24.1022 46.2136 25.7926 46.5516 27.4998 46.5516C29.207 46.5516 30.8973 46.2136 32.4732 45.5568L40.8289 42.0753C43.7201 40.8708 45.6034 38.0459 45.6034 34.9137V33.6206C47.7459 33.6206 49.4827 31.8838 49.4827 29.7413C49.4827 27.5988 47.7459 25.862 45.6034 25.862Z" fill="#FFE1B2"/>
<path d="M18.4483 31.0343C17.737 31.0343 17.1552 30.4524 17.1552 29.7412V28.4481C17.1552 27.7369 17.737 27.155 18.4483 27.155C19.1595 27.155 19.7414 27.7369 19.7414 28.4481V29.7412C19.7414 30.4524 19.1595 31.0343 18.4483 31.0343Z" fill="#623F33"/>
<path d="M36.5516 31.0343C35.8404 31.0343 35.2585 30.4524 35.2585 29.7412V28.4481C35.2585 27.7369 35.8404 27.155 36.5516 27.155C37.2628 27.155 37.8447 27.7369 37.8447 28.4481V29.7412C37.8447 30.4524 37.2628 31.0343 36.5516 31.0343Z" fill="#623F33"/>
<path d="M27.5 40.1215C25.201 40.1215 23.0506 39.5558 21.6002 38.569C21.0099 38.1674 20.8564 37.363 21.2587 36.7727C21.6595 36.183 22.4647 36.0295 23.055 36.4311C24.0715 37.1225 25.7333 37.5354 27.5 37.5354C29.2667 37.5354 30.9285 37.1225 31.945 36.4311C32.5366 36.0283 33.3398 36.1824 33.7413 36.7727C34.1434 37.363 33.99 38.1674 33.3997 38.569C31.9495 39.5558 29.7989 40.1215 27.5 40.1215Z" fill="#E4B07B"/>
<path d="M14.569 16.9408C11.618 17.54 9.39663 20.1482 9.39663 23.276V25.8622C7.25413 25.8622 5.51733 27.599 5.51733 29.7415C5.51733 31.884 7.25413 33.6208 9.39663 33.6208V34.9139C9.39663 38.0459 11.2799 40.871 14.1711 42.0757L22.5261 45.557C22.935 45.7274 23.3524 45.8742 23.7751 46.0014C20.0826 43.3003 17.6248 40.9389 16.1846 39.3949C15.1369 38.2716 14.569 36.7892 14.569 35.253V25.8439C19.7472 25.7122 33.6366 24.7514 39.1379 19.3967C40.2735 18.2914 40.7565 17.5094 40.7919 16.9686L14.569 16.9408Z" fill="#FFD7A3"/>
<path d="M11.9829 18.1034V23.2758C11.9829 23.2758 21.1957 23.3954 30.0861 22.2517L33.9656 19.3965L33.9662 21.6591C38.2286 20.8917 42.0652 19.7628 44.3104 18.1034C44.3104 15.9609 42.5736 14.2241 40.4311 14.2241H15.8622C13.7197 14.2241 11.9829 15.9609 11.9829 18.1034Z" fill="#9D6E48"/>
<path d="M48.1571 1.32563C46.3896 -0.441876 43.5241 -0.441876 41.7566 1.32563C40.8291 2.2531 39.6723 4.2018 39.0346 6.1012C35.682 3.8386 31.6931 2.58624 27.5 2.58624C23.307 2.58624 19.3181 3.83844 15.9653 6.1012C15.3276 4.2018 14.1709 2.2531 13.2435 1.32563C11.476 -0.441876 8.61046 -0.441876 6.84296 1.32563C5.07546 3.09313 5.07546 5.9588 6.84296 7.72614C7.7276 8.61078 9.5436 9.70765 11.3586 10.362C10.8826 10.9587 10.4341 11.5839 10.0193 12.2395C9.63799 12.8431 9.81725 13.6419 10.4208 14.0238C11.025 14.4064 11.8232 14.2252 12.2051 13.6223C15.5521 8.33131 21.2701 5.17243 27.5 5.17243C33.73 5.17243 39.4479 8.33131 42.795 13.6225C43.0411 14.0114 43.4604 14.2243 43.8892 14.2243C44.1254 14.2243 44.3646 14.1599 44.5794 14.0242C45.183 13.6422 45.3624 12.8434 44.9809 12.2399C44.566 11.5843 44.1175 10.959 43.6416 10.3621C45.4565 9.70765 47.2725 8.61094 48.1573 7.7263C49.9246 5.9588 49.9246 3.09313 48.1571 1.32563Z" fill="#EF7F1A"/>
<path d="M10.0433 2.58618C10.5613 2.58618 11.0485 2.7879 11.4148 3.15434C11.9593 3.69889 12.8081 5.06198 13.3517 6.46935C12.8467 6.89365 12.362 7.33945 11.8994 7.80464C10.5153 7.25572 9.20196 6.42765 8.67163 5.89748C8.30536 5.53105 8.10364 5.04387 8.10364 4.52583C8.10364 4.00778 8.30536 3.52061 8.67179 3.15417C9.03822 2.7879 9.52524 2.58618 10.0433 2.58618Z" fill="#8D5F3D"/>
<path d="M44.9569 2.58618C45.4749 2.58618 45.9621 2.7879 46.3284 3.15434C46.6948 3.52061 46.8965 4.00778 46.8965 4.52583C46.8965 5.04388 46.6948 5.53105 46.3284 5.89732C45.798 6.42765 44.4847 7.25556 43.1006 7.80448C42.638 7.33912 42.1533 6.89349 41.6483 6.46919C42.1921 5.06182 43.0407 3.69889 43.5852 3.15417C43.9518 2.7879 44.4388 2.58618 44.9569 2.58618Z" fill="#8D5F3D"/>
<path d="M47.5359 54.4351L45.3173 53.1039L39.1891 62.9093C38.0077 64.7998 35.9357 65.9482 33.7064 65.9482H21.2942C19.0649 65.9482 16.9929 64.7998 15.8115 62.9093L9.68336 53.1039L7.46472 54.4351L13.4236 63.9698C13.9619 64.831 13.3427 65.9482 12.3271 65.9482H11.983V74.9999H43.0173V65.9482H42.6733C41.6578 65.9482 41.0386 64.831 41.5768 63.9698L47.5359 54.4351Z" fill="#8D5F3D"/>
<path d="M15.8622 14.2242C13.7197 14.2242 11.9829 15.961 11.9829 18.1035V23.2758C11.9829 23.2758 14.0438 23.3025 17.1559 23.2097C17.1624 19.9641 17.6417 16.9431 18.3947 14.224L15.8622 14.2242Z" fill="#8D5F3D"/>
</svg>
