<svg width="43" height="75" viewBox="0 0 43 75" fill="none" xmlns="http://www.w3.org/2000/svg">
<path d="M21.5 5.04242C11.9831 5.04242 4.24036 12.785 4.24036 22.3021V27.6041C4.24036 28.0311 4.48777 28.4196 4.87493 28.5999L21.036 36.1299C21.183 36.1985 21.3415 36.2328 21.5 36.2328C21.6584 36.2328 21.817 36.1985 21.9639 36.1299L38.125 28.5999C38.5121 28.4196 38.7597 28.0311 38.7597 27.6041V22.3021C38.7597 12.785 31.017 5.04242 21.5 5.04242Z" fill="#FFC89F"/>
<path d="M15.1061 24.096C13.9838 24.096 13.0708 23.1831 13.0708 22.0609C13.0708 20.9386 13.9838 20.0258 15.1061 20.0258C16.2283 20.0258 17.1413 20.9386 17.1413 22.0609C17.1413 23.1831 16.2283 24.096 15.1061 24.096Z" fill="#464649"/>
<path d="M27.894 24.096C26.7718 24.096 25.8589 23.1831 25.8589 22.0609C25.8589 20.9386 26.7719 20.0258 27.894 20.0258C29.0162 20.0258 29.9293 20.9386 29.9293 22.0609C29.9291 23.1831 29.0162 24.096 27.894 24.096Z" fill="#464649"/>
<path d="M21.4999 5.04242C20.6843 5.04242 19.8821 5.10057 19.0964 5.21058C27.4797 6.38378 33.9525 13.6006 33.9525 22.3021V24.7482L15.3708 33.4904L21.036 36.1301C21.1831 36.1986 21.3416 36.2329 21.5001 36.2329C21.6584 36.2329 21.817 36.1986 21.964 36.1301L38.125 28.6C38.5122 28.4197 38.7597 28.0312 38.7597 27.6042V26.6013V22.3021C38.7596 12.785 31.0168 5.04242 21.4999 5.04242Z" fill="#F7B081"/>
<path d="M40.6455 26.6833C39.6909 26.075 38.5084 25.9973 37.4823 26.4753L21.5002 33.922L5.51783 26.4753C4.49186 25.9973 3.30929 26.075 2.35465 26.6833C1.39987 27.2917 0.830042 28.3308 0.830042 29.4629V44.2297C0.829602 44.2456 0.829602 44.2617 0.830042 44.2779V54.3299C0.830042 65.7274 10.1026 75 21.5002 75C32.8977 75 42.1703 65.7274 42.1703 54.3299V29.4629C42.1701 28.3308 41.6001 27.2918 40.6455 26.6833Z" fill="#8CC7EC"/>
<path d="M40.6455 26.6833C39.6909 26.075 38.5085 25.9973 37.4824 26.4753L36.0163 27.1584C36.6137 27.7666 36.9565 28.5865 36.9565 29.4629V54.3299C36.9565 64.8446 29.0646 73.5506 18.8932 74.8363C19.7472 74.9442 20.6172 75 21.5 75C32.8975 75 42.1702 65.7274 42.1702 54.3299V29.4629C42.1702 28.3308 41.6002 27.2918 40.6455 26.6833Z" fill="#00A0E3"/>
<path d="M0.829956 40.2854V43.7445L21.5001 33.9219L17.9937 32.2882L0.829956 40.2854Z" fill="#00A0E3"/>
<path d="M19.7368 7.34735C19.7051 7.34735 19.6734 7.34603 19.6416 7.34325C14.1884 6.87787 12.7397 2.83769 12.6806 2.66586C12.4835 2.09208 12.7889 1.46703 13.3628 1.26986C13.9337 1.07387 14.5559 1.37519 14.7559 1.94384C14.7978 2.05795 15.5579 4.03051 18.1882 4.84276C18.0232 3.73109 18.0623 2.23549 18.838 0.622548C19.1009 0.0757221 19.7574 -0.154405 20.3041 0.108681C20.8509 0.371621 21.0811 1.02802 20.818 1.57484C19.7488 3.79804 20.6706 5.66483 20.7105 5.74335C20.8981 6.09872 20.8747 6.52426 20.6528 6.85912C20.4486 7.16762 20.1027 7.34735 19.7368 7.34735Z" fill="#464649"/>
</svg>
