<svg height="512pt" viewBox="0 -7 512 512" width="512pt" xmlns="http://www.w3.org/2000/svg"><path d="m349.996094 122.332031c1.289062-6.253906 1.96875-12.734375 1.96875-19.371093 0-52.699219-42.722656-95.417969-95.417969-95.417969-52.703125 0-95.421875 42.71875-95.421875 95.417969 0 6.636718.679688 13.117187 1.96875 19.371093zm0 0" fill="#f7ec77"/><path d="m256.542969 7.542969c-5.132813 0-10.167969.410156-15.082031 1.191406 45.53125 7.230469 80.335937 46.660156 80.335937 94.226563 0 6.636718-.679687 13.117187-1.96875 19.371093h30.167969c1.289062-6.253906 1.96875-12.734375 1.96875-19.371093 0-52.699219-42.722656-95.417969-95.421875-95.417969zm0 0" fill="#f7e05d"/><path d="m119.574219 117.953125c-13.046875 0-24.804688 5.480469-33.128907 14.253906-3.132812-.609375-6.367187-.9375-9.675781-.9375-27.847656 0-50.417969 22.574219-50.417969 50.417969 0 1.878906.109376 3.734375.3125 5.5625-10.652343 8.898438-17.4375 22.277344-17.4375 37.246094 0 26.792968 21.722657 48.511718 48.515626 48.511718 26.792968 0 48.515624-21.71875 48.515624-48.511718 0-.636719-.023437-1.265625-.046874-1.890625 5.027343-3.628907 9.359374-8.152344 12.757812-13.347657.203125.003907.402344.015626.605469.015626 25.21875 0 45.660156-20.441407 45.660156-45.660157 0-25.214843-20.441406-45.660156-45.660156-45.660156zm0 0" fill="#f0739a"/><path d="m391.636719 117.953125c13.046875 0 24.808593 5.480469 33.128906 14.253906 3.132813-.609375 6.367187-.9375 9.679687-.9375 27.84375 0 50.414063 22.574219 50.414063 50.417969 0 1.878906-.109375 3.734375-.3125 5.5625 10.65625 8.898438 17.4375 22.277344 17.4375 37.246094 0 26.792968-21.722656 48.511718-48.515625 48.511718s-48.515625-21.71875-48.515625-48.511718c0-.636719.023437-1.265625.050781-1.890625-5.03125-3.628907-9.363281-8.152344-12.761718-13.347657-.203126.003907-.402344.015626-.605469.015626-25.21875 0-45.660157-20.441407-45.660157-45.660157 0-25.214843 20.441407-45.660156 45.660157-45.660156zm0 0" fill="#f0739a"/><path d="m484.546875 187.25c.203125-1.828125.3125-3.683594.3125-5.5625 0-27.84375-22.570313-50.417969-50.414063-50.417969-3.3125 0-6.546874.328125-9.679687.9375-8.320313-8.773437-20.082031-14.253906-33.128906-14.253906-5.292969 0-10.367188.910156-15.09375 2.566406 6.929687 2.425781 13.105469 6.46875 18.054687 11.6875 3.132813-.609375 6.367188-.9375 9.679688-.9375 27.84375 0 50.417968 22.574219 50.417968 50.417969 0 1.878906-.113281 3.734375-.3125 5.5625 10.652344 8.898438 17.433594 22.277344 17.433594 37.242188 0 21.527343-14.023437 39.769531-33.429687 46.113281 4.75 1.550781 9.816406 2.402343 15.082031 2.402343 26.796875 0 48.515625-21.71875 48.515625-48.515624 0-14.964844-6.78125-28.34375-17.4375-37.242188zm0 0" fill="#df608d"/><path d="m113.867188 288.28125c0 29.363281-23.800782 53.164062-53.164063 53.164062-29.359375 0-53.160156-23.800781-53.160156-53.164062 0-29.359375 23.800781-53.160156 53.160156-53.160156 29.363281 0 53.164063 23.800781 53.164063 53.160156zm0 0" fill="#fc9086"/><path d="m504.457031 288.28125c0 29.363281-23.800781 53.164062-53.160156 53.164062-29.363281 0-53.164063-23.800781-53.164063-53.164062 0-29.359375 23.800782-53.160156 53.164063-53.160156 29.359375 0 53.160156 23.800781 53.160156 53.160156zm0 0" fill="#fc9086"/><path d="m451.296875 235.121094c-5.242187 0-10.300781.769531-15.085937 2.183594 22.011718 6.503906 38.078124 26.859374 38.078124 50.976562 0 24.121094-16.066406 44.476562-38.078124 50.980469 4.785156 1.414062 9.84375 2.183593 15.085937 2.183593 29.359375 0 53.160156-23.800781 53.160156-53.164062 0-29.359375-23.800781-53.160156-53.160156-53.160156zm0 0" fill="#f57a73"/><path d="m449.777344 296.292969c0 107-86.742188 193.742187-193.742188 193.742187-107.003906 0-193.746094-86.742187-193.746094-193.742187s86.742188-193.742188 193.746094-193.742188c107 0 193.742188 86.742188 193.742188 193.742188zm0 0" fill="#ffeec6"/><path d="m256.035156 102.550781c-5.078125 0-10.105468.195313-15.085937.578125 99.953125 7.695313 178.660156 91.238282 178.660156 193.164063s-78.707031 185.464843-178.660156 193.160156c4.980469.386719 10.007812.582031 15.085937.582031 107 0 193.742188-86.742187 193.742188-193.742187 0-107.003907-86.742188-193.742188-193.742188-193.742188zm0 0" fill="#ffe89f"/><path d="m228.335938 257.789062c0 26.269532-21.296876 47.5625-47.566407 47.5625-26.265625 0-47.5625-21.292968-47.5625-47.5625 0-26.269531 21.296875-47.5625 47.5625-47.5625 26.269531 0 47.566407 21.292969 47.566407 47.5625zm0 0" fill="#f5f7f3"/><path d="m382.441406 257.789062c0 26.269532-21.296875 47.5625-47.566406 47.5625-26.265625 0-47.5625-21.292968-47.5625-47.5625 0-26.269531 21.296875-47.5625 47.5625-47.5625 26.269531 0 47.566406 21.292969 47.566406 47.5625zm0 0" fill="#f5f7f3"/><path d="m301.777344 301.675781c0 25.261719-20.480469 45.742188-45.742188 45.742188-25.265625 0-45.746094-20.480469-45.746094-45.742188 0-25.265625 20.480469-45.746093 45.746094-45.746093 25.261719 0 45.742188 20.480468 45.742188 45.746093zm0 0" fill="#f86654"/><path d="m256.035156 255.929688c-5.289062 0-10.359375.90625-15.085937 2.558593 17.851562 6.234375 30.664062 23.207031 30.664062 43.1875 0 19.976563-12.8125 36.953125-30.664062 43.1875 4.726562 1.648438 9.796875 2.554688 15.085937 2.554688 25.261719 0 45.742188-20.480469 45.742188-45.742188 0-25.265625-20.480469-45.746093-45.742188-45.746093zm0 0" fill="#ea543c"/><path d="m174.84375 338.644531c0-13.660156-15.351562-24.730469-34.292969-24.730469-18.9375 0-34.292969 11.070313-34.292969 24.730469 0 13.660157 15.355469 24.734375 34.292969 24.734375 18.941407 0 34.292969-11.074218 34.292969-24.734375zm0 0" fill="#ffa3ba"/><path d="m404.101562 338.644531c0-13.660156-15.355468-24.730469-34.296874-24.730469-18.9375 0-34.292969 11.070313-34.292969 24.730469 0 13.660157 15.355469 24.734375 34.292969 24.734375 18.941406 0 34.296874-11.074218 34.296874-24.734375zm0 0" fill="#ffa3ba"/><path d="m354.625 141.996094h-197.183594c-8.296875 0-15.082031-6.785156-15.082031-15.082032v-15.566406c0-8.296875 6.785156-15.085937 15.082031-15.085937h197.183594c8.296875 0 15.085938 6.789062 15.085938 15.085937v15.566406c0 8.296876-6.789063 15.082032-15.085938 15.082032zm0 0" fill="#aceded"/><path d="m354.625 96.261719h-30.164062c8.292968 0 15.082031 6.789062 15.082031 15.085937v15.566406c0 8.296876-6.789063 15.082032-15.082031 15.082032h30.164062c8.296875 0 15.085938-6.785156 15.085938-15.082032v-15.566406c0-8.296875-6.789063-15.085937-15.085938-15.085937zm0 0" fill="#66d6e6"/><path d="m501.242188 253.832031c5.421874-8.8125 8.285156-18.914062 8.285156-29.339843 0-15.320313-6.214844-29.824219-17.175782-40.375.035157-.816407.050782-1.628907.050782-2.429688 0-31.957031-26-57.957031-57.957032-57.957031-2.367187 0-4.75.144531-7.117187.4375-9.792969-8.898438-22.320313-13.757813-35.691406-13.757813-4.914063 0-9.726563.675782-14.382813 1.984375v-1.046875c0-11.136718-8.089844-20.414062-18.699218-22.277344-3.167969-23.480468-14.304688-45.105468-31.800782-61.417968-19.117187-17.832032-44.050781-27.652344-70.207031-27.652344-26.027344 0-50.871094 9.734375-69.953125 27.410156-17.589844 16.292969-28.828125 37.960938-32.042969 61.503906-11.113281 1.425782-19.734375 10.9375-19.734375 22.433594v1.292969c-4.910156-1.46875-10.007812-2.230469-15.238281-2.230469-13.371094 0-25.898437 4.859375-35.691406 13.757813-2.371094-.292969-4.75-.4375-7.117188-.4375-31.957031 0-57.957031 26-57.957031 57.957031 0 .800781.015625 1.613281.050781 2.433594-10.960937 10.546875-17.175781 25.050781-17.175781 40.371094 0 10.757812 2.984375 20.996093 8.660156 29.933593-6.53125 9.675781-10.347656 21.328125-10.347656 33.855469 0 33.476562 27.230469 60.707031 60.703125 60.707031.339844 0 .675781-.011719 1.015625-.019531 9.792969 36.234375 29.5 68.894531 57.175781 94.664062 1.453125 1.351563 3.296875 2.023438 5.136719 2.023438 2.023438 0 4.039062-.808594 5.523438-2.402344 2.835937-3.050781 2.667968-7.820312-.378907-10.660156-26.535156-24.707031-45.160156-56.253906-53.851562-91.222656v-.003906c-3.644531-14.65625-5.492188-29.820313-5.492188-45.074219 0-59.234375 28.292969-114.953125 75.910157-150.023438 3.414062 2.074219 7.421874 3.269531 11.699218 3.269531h197.183594c4.285156 0 8.292969-1.199218 11.710938-3.273437 47.625 35.074219 75.898437 90.75 75.898437 150.027344 0 15.09375-1.808594 30.109375-5.378906 44.625-9.765625 39.714843-32.890625 75.679687-65.113281 101.273437-33.203126 26.367188-73.214844 40.304688-115.707032 40.304688-36.578125 0-71.980468-10.597656-102.378906-30.648438-3.476562-2.292968-8.152344-1.332031-10.449219 2.144532-2.289062 3.476562-1.332031 8.15625 2.144531 10.449218 32.871094 21.679688 71.144532 33.136719 110.683594 33.136719 45.933594 0 89.1875-15.070313 125.085938-43.574219 33.617187-26.699218 58.070312-63.859375 69.226562-105.03125.316406.007813.632813.015625.949219.015625 33.472656 0 60.703125-27.230469 60.703125-60.703125 0-12.789062-3.984375-24.65625-10.757812-34.453125zm-486.160157 34.449219c0-25.152344 20.46875-45.621094 45.621094-45.621094.445313 0 .890625.015625 1.335937.027344-4.777343 17.269531-7.289062 35.28125-7.289062 53.605469 0 12.636719 1.183594 25.21875 3.507812 37.542969-24.023437-1.273438-43.175781-21.21875-43.175781-45.554688zm51.695313-60.390625c-2.015625-.203125-4.046875-.3125-6.074219-.3125-15.210937 0-29.125 5.636719-39.789063 14.917969-2.726562-5.550782-4.144531-11.652344-4.144531-18.003906 0-12.171876 5.371094-23.636719 14.730469-31.457032 1.9375-1.617187 2.9375-4.101562 2.660156-6.613281-.175781-1.605469-.265625-3.199219-.265625-4.734375 0-23.640625 19.230469-42.875 42.875-42.875 2.738281 0 5.507813.269531 8.234375.796875 2.539063.496094 5.140625-.339844 6.914063-2.210937 7.28125-7.675782 17.101562-11.90625 27.65625-11.90625 5.34375 0 10.488281 1.089843 15.320312 3.21875.164063 2.042968.59375 4.015624 1.265625 5.875-32.15625 23.875-56.066406 56.503906-69.382812 93.304687zm90.664062-93.433594c-4.160156 0-7.542968-3.386719-7.542968-7.542969v-15.566406c0-4.160156 3.382812-7.542968 7.542968-7.542968h60.167969c4.164063 0 7.539063-3.375 7.539063-7.542969 0-4.164063-3.375-7.539063-7.539063-7.539063h-47.777344c3.132813-19.21875 12.554688-36.855468 27.011719-50.246094 16.285156-15.085937 37.488281-23.394531 59.699219-23.394531 22.324219 0 43.605469 8.382813 59.921875 23.601563 14.34375 13.375 23.683594 30.921875 26.800781 50.039062h-95.492187c-4.164063 0-7.539063 3.375-7.539063 7.539063 0 4.167969 3.375 7.542969 7.539063 7.542969h106.851562c4.160156 0 7.542969 3.382812 7.542969 7.542968v15.566406c0 4.15625-3.382813 7.539063-7.542969 7.539063h-197.183594zm218.46875.132813c.714844-1.976563 1.15625-4.078125 1.292969-6.261719 4.578125-1.875 9.429687-2.832031 14.433594-2.832031 10.554687 0 20.375 4.226562 27.65625 11.902344 1.773437 1.871093 4.375 2.707031 6.914062 2.214843 2.726563-.53125 5.496094-.800781 8.238281-.800781 23.640626 0 42.875 19.234375 42.875 42.875 0 1.53125-.089843 3.128906-.269531 4.738281-.273437 2.511719.726563 4.992188 2.660157 6.609375 9.363281 7.820313 14.730468 19.285156 14.730468 31.457032 0 6.113281-1.347656 12.070312-3.925781 17.511718-10.585937-8.988281-24.277344-14.425781-39.222656-14.425781-2.003907 0-4.007813.101563-5.996094.296875-13.3125-36.800781-37.222656-69.40625-69.386719-93.285156zm77.898438 199.242187c2.324218-12.324219 3.511718-24.90625 3.511718-37.539062 0-18.328125-2.511718-36.339844-7.285156-53.601563.421875-.011718.839844-.03125 1.261719-.03125 25.152344 0 45.621094 20.46875 45.621094 45.621094 0 24.3125-19.121094 44.242188-43.109375 45.550781zm0 0"/><path d="m290.582031 370.171875c-3.667969-1.976563-8.242187-.609375-10.21875 3.054687-4.867187 9.007813-14.242187 14.605469-24.46875 14.605469-10.203125 0-19.566406-5.578125-24.4375-14.550781-1.988281-3.660156-6.566406-5.015625-10.226562-3.027344-3.664063 1.988282-5.015625 6.566406-3.03125 10.226563 7.515625 13.839843 21.957031 22.433593 37.691406 22.433593 15.777344 0 30.238281-8.628906 37.742187-22.519531 1.980469-3.667969.613282-8.242187-3.050781-10.222656zm0 0"/><path d="m178.980469 238.496094c-14.0625 0-25.5 11.441406-25.5 25.503906 0 4.164062 3.375 7.542969 7.539062 7.542969 4.167969 0 7.542969-3.378907 7.542969-7.542969 0-5.746094 4.675781-10.417969 10.417969-10.417969 5.746093 0 10.417969 4.671875 10.417969 10.417969 0 4.164062 3.378906 7.542969 7.542968 7.542969 4.167969 0 7.542969-3.378907 7.542969-7.542969 0-14.0625-11.441406-25.503906-25.503906-25.503906zm0 0"/><path d="m315.125 271.542969c4.167969 0 7.542969-3.378907 7.542969-7.542969 0-5.746094 4.675781-10.417969 10.417969-10.417969 5.746093 0 10.417968 4.671875 10.417968 10.417969 0 4.164062 3.378906 7.542969 7.542969 7.542969 4.167969 0 7.542969-3.378907 7.542969-7.542969 0-14.0625-11.441406-25.503906-25.503906-25.503906s-25.5 11.441406-25.5 25.503906c0 4.167969 3.375 7.542969 7.539062 7.542969zm0 0"/><path d="m256.035156 248.386719c-29.382812 0-53.289062 23.90625-53.289062 53.289062 0 29.378907 23.90625 53.285157 53.289062 53.285157 29.382813 0 53.285156-23.90625 53.285156-53.285157 0-29.382812-23.902343-53.289062-53.285156-53.289062zm0 91.492187c-21.066406 0-38.203125-17.140625-38.203125-38.203125 0-21.066406 17.136719-38.203125 38.203125-38.203125 21.0625 0 38.203125 17.136719 38.203125 38.203125 0 21.0625-17.136719 38.203125-38.203125 38.203125zm0 0"/></svg>