<svg width="27" height="55" viewBox="0 0 27 55" fill="none" xmlns="http://www.w3.org/2000/svg">
<path d="M19.7225 31.9151V15.4824C19.7225 11.4318 16.5476 8.05133 12.5493 7.98965C8.48019 7.9267 5.15042 11.2618 5.15042 15.3703V31.9155C5.15042 32.0884 5.06841 32.2491 4.93214 32.3532C1.89728 34.6758 0.0760311 38.2593 0.00230309 42.1568C-0.0610698 45.5221 1.18526 48.7171 3.51142 51.153C5.83551 53.5864 8.94244 54.9522 12.2598 54.9988C12.3194 54.9997 12.3787 55.0001 12.4383 55.0001C15.7751 55.0001 18.911 53.6791 21.2683 51.2709C23.5099 48.9815 24.8056 45.888 24.8702 42.6641C24.9518 38.564 23.1173 34.7799 19.9408 32.3528C19.8045 32.2491 19.7225 32.088 19.7225 31.9151Z" fill="#EDF0F5"/>
<path d="M24.8702 42.6641C24.8056 45.8885 23.5096 48.9819 21.2679 51.2714C18.9115 53.6796 15.7752 55.0001 12.4384 55.0001C12.4375 55.0001 12.4375 55.0001 12.4363 55.0001V7.98926C12.474 7.98926 12.5117 7.98926 12.5494 7.9901C16.5472 8.05136 19.7225 11.4314 19.7225 15.4828V31.9147C19.7225 32.088 19.8041 32.2492 19.9408 32.3528C23.1169 34.7807 24.9518 38.564 24.8702 42.6641Z" fill="#D8DCEB"/>
<path d="M18.0284 42.2046C18.0284 45.4722 15.2847 48.1015 12.0084 47.8531C9.27835 47.6462 7.07231 45.4168 6.86148 42.6523C6.65189 39.9051 8.38988 37.5241 10.8229 36.781V16.7861C10.8229 15.8575 11.5888 15.1089 12.5149 15.1538C13.3827 15.1949 14.0495 15.9523 14.0495 16.8327V36.781C16.3492 37.4838 18.0284 39.6491 18.0284 42.2046Z" fill="#6AA9FF"/>
<path d="M18.0284 42.2047C18.0284 45.3283 15.52 47.8696 12.4363 47.8696V15.1514C12.4719 15.1514 12.5075 15.1526 12.5427 15.156C12.5622 15.156 12.5817 15.1581 12.6011 15.1602C12.6086 15.1602 12.616 15.1614 12.6235 15.1635C13.4378 15.2592 14.0496 15.9893 14.0496 16.8328V36.7811C16.3492 37.484 18.0284 39.6492 18.0284 42.2047Z" fill="#4895FF"/>
<path d="M20.8603 11.2574C19.9694 11.2574 19.247 10.5256 19.247 9.62299C19.247 8.64779 18.4637 7.85429 17.5011 7.85429C16.6102 7.85429 15.8878 7.12247 15.8878 6.21987C15.8878 5.31727 16.6102 4.58545 17.5011 4.58545C20.2432 4.58545 22.4736 6.8451 22.4736 9.62299C22.4736 10.526 21.7513 11.2574 20.8603 11.2574Z" fill="#FFDE55"/>
<path d="M25.3867 10.6126C24.4957 10.6126 23.7734 9.88079 23.7734 8.97819C23.7734 5.8302 21.2455 3.26884 18.1382 3.26884C17.2472 3.26884 16.5248 2.53702 16.5248 1.63442C16.5248 0.731817 17.2472 0 18.1382 0C23.0245 0 27 4.02751 27 8.97819C27 9.88079 26.2776 10.6126 25.3867 10.6126Z" fill="#FFDE55"/>
<path d="M11.2964 15.6297C11.3511 15.5743 11.409 15.5231 11.4716 15.4761C11.409 15.5231 11.3502 15.5755 11.2964 15.6297Z" fill="#FFB99D"/>
<path d="M11.2964 15.6297C11.3511 15.5743 11.409 15.5231 11.4716 15.4761C11.409 15.5231 11.3502 15.5755 11.2964 15.6297Z" fill="#FF4C04"/>
<path d="M22.474 9.6236C22.474 10.5266 21.7516 11.2584 20.8611 11.258C19.9697 11.258 19.2469 10.5258 19.2478 9.6236C19.2478 9.13642 19.0514 8.69414 18.735 8.37397L21.0152 6.06396C21.9156 6.97622 22.474 8.23508 22.474 9.6236Z" fill="#FFCD00"/>
<path d="M25.3871 10.6131C24.4957 10.6131 23.7729 9.88091 23.7738 8.97872C23.7746 7.40473 23.1417 5.9776 22.1211 4.94366L24.4021 2.63281C26.0067 4.25842 27.0008 6.50297 27 8.97872C27.0008 9.88091 26.2784 10.6131 25.3871 10.6131Z" fill="#FFCD00"/>
<path d="M14.0495 16.8328V21.418H10.8229V16.7862C10.8229 15.8836 11.5457 15.1514 12.4362 15.1514C12.4623 15.1514 12.488 15.1526 12.5149 15.1539C13.3826 15.195 14.0495 15.9524 14.0495 16.8328Z" fill="#FF8859"/>
<path d="M14.0496 16.8328V21.418H12.4363V15.1514C12.4624 15.1514 12.4881 15.1526 12.515 15.1539C13.3827 15.195 14.0496 15.9524 14.0496 16.8328Z" fill="#FF6426"/>
</svg>
