<svg width="55" height="55" viewBox="0 0 55 55" fill="none" xmlns="http://www.w3.org/2000/svg">
<path d="M54.7263 32.3994L48.8051 27.2096L54.5169 21.7956C54.7268 21.5967 54.8131 21.3024 54.7438 21.0234C54.6744 20.7444 54.4596 20.5233 54.1805 20.4432L46.5784 18.2634L49.3881 10.9526C49.4913 10.6841 49.4416 10.3816 49.2579 10.1589C49.0741 9.93633 48.784 9.82751 48.497 9.87349L40.6833 11.1252L40.0478 3.33051C40.0245 3.04413 39.8482 2.79179 39.5856 2.66869C39.323 2.54558 39.0136 2.57018 38.7744 2.73325L32.2589 7.17429L28.301 0.401973C28.1556 0.153184 27.8869 0 27.5961 0C27.3053 0 27.0367 0.153184 26.8913 0.401973L22.3481 8.17589L14.4895 3.66922C14.2379 3.52495 13.9276 3.5243 13.6756 3.66728C13.4234 3.81026 13.2677 4.07538 13.2669 4.36263L13.2479 12.1824L5.3595 11.5364C5.0703 11.5127 4.78921 11.6435 4.62358 11.8795C4.45784 12.1155 4.43211 12.421 4.55633 12.6807L7.93397 19.7529L0.526887 22.5116C0.254876 22.6129 0.0582205 22.85 0.0108673 23.1335C-0.0364858 23.4168 0.0730318 23.7036 0.298013 23.8857L6.41922 28.8435L0.925712 34.4735C0.723975 34.6803 0.649053 34.9777 0.729381 35.2538C0.809816 35.5299 1.03318 35.7425 1.31524 35.8117L8.99715 37.6971L6.47868 45.1104C6.38613 45.3827 6.44776 45.6831 6.6402 45.8984C6.83274 46.1138 7.12692 46.2114 7.41179 46.1543L15.1699 44.6028L16.1128 52.3671C16.1473 52.6523 16.3334 52.8975 16.6007 53.0105C16.8681 53.1236 17.1762 53.087 17.4088 52.9148L23.7438 48.2262L27.9661 54.6249C28.1155 54.859 28.3757 55 28.6544 55C28.665 55 28.6756 54.9998 28.6863 54.9994C28.9768 54.9882 29.2393 54.8247 29.3748 54.5705L33.0622 47.8669L39.7477 52.0535C39.9934 52.2073 40.3031 52.22 40.5609 52.0868C40.8184 51.9536 40.9846 51.6947 40.9966 51.4077L41.3243 43.5945L49.1812 44.5441C49.4693 44.5789 49.7553 44.4591 49.9302 44.2296C50.1052 44.0001 50.1428 43.6959 50.0291 43.4315L46.9332 36.2345L54.4432 33.7635C54.7191 33.6727 54.9249 33.4435 54.9834 33.1621C55.0418 32.8808 54.9437 32.59 54.7263 32.3994Z" fill="#FFA600"/>
<path d="M27.3216 44.0047C36.5806 44.0047 44.0864 36.5525 44.0864 27.3598C44.0864 18.167 36.5806 10.7148 27.3216 10.7148C18.0626 10.7148 10.5568 18.167 10.5568 27.3598C10.5568 36.5525 18.0626 44.0047 27.3216 44.0047Z" fill="#FFDB2D"/>
<path d="M27.3221 10.7148C26.9022 10.7148 26.4862 10.7306 26.0742 10.7608C34.7502 11.3947 41.591 18.5838 41.591 27.3598C41.591 36.1356 34.7502 43.3248 26.0742 43.9588C26.4862 43.9888 26.9023 44.0047 27.3221 44.0047C36.5809 44.0047 44.0868 36.5525 44.0868 27.3599C44.0868 18.167 36.5809 10.7148 27.3221 10.7148Z" fill="#FFCA00"/>
</svg>
