<svg width="63" height="55" viewBox="0 0 63 55" fill="none" xmlns="http://www.w3.org/2000/svg">
<path d="M38.056 0H37.7302C19.2113 0 0.393751 14.4458 0.0272015 42.2648L0 52.9634C0 54.085 0.914849 55 2.03658 55H20.5961C15.6972 47.2417 15.3108 36.1304 20.7049 26.7329C23.3896 22.0828 27.4713 18.1234 32.4353 16.0072C34.6793 15.01 37.3696 14.5188 39.3732 14.3013L41.6813 14.2965C43.1612 14.3508 44.6954 15.0704 46.2296 16.4552C47.3156 17.4192 47.9403 18.8446 48.3205 20.4604C48.9315 23.1215 48.8092 26.2713 48.7141 28.6473C48.6328 30.9147 48.5784 32.286 49.0399 33.2906C49.5695 34.4311 50.7643 34.9742 52.0676 34.689C55.1089 34.0236 60.7296 27.4118 60.7704 19.7137C60.8244 8.22754 51.4834 0.122224 38.056 0Z" fill="#57DEFF"/>
<path d="M27.0181 30.7379C27.304 25.3047 29.4419 19.793 33.9965 16.7401C35.7479 15.559 37.866 14.7443 40.3912 14.4049C40.8123 14.3099 41.2465 14.2827 41.681 14.2964L46.2294 14.2284L43.4733 10.454C42.7609 10.2402 42.042 10.1553 41.4096 10.1553C30.8593 10.1553 22.2763 15.8671 17.1749 24.7097C11.5897 34.4152 11.3568 46.0486 15.9258 54.9997H42.2241C32.1422 51.9702 26.5105 40.8682 27.0181 30.7379Z" fill="#52C2FF"/>
<path d="M60.4171 42.781C46.46 42.781 37.0513 37.9069 34.6074 29.3806C33.7521 26.3802 33.9149 23.3932 34.7025 20.8814C35.744 17.5481 38.1853 14.1873 41.6809 14.2966C43.1609 14.3509 44.695 15.0704 46.2293 16.4553C47.3152 17.4193 47.9399 18.8446 48.3201 20.4605C48.673 19.5779 48.8766 18.6276 48.8766 17.6229C48.8766 14.2151 46.5958 11.3503 43.473 10.4542C40.1306 9.57462 30.0512 11.2059 25.3748 20.7455C23.9765 23.556 23.1348 26.8551 22.9582 30.5344C22.4993 39.4257 26.2042 49.2188 33.5619 54.9999H60.417C61.544 54.9999 62.4536 54.0903 62.4536 52.9634V44.8172C62.4537 43.6906 61.5442 42.781 60.4171 42.781Z" fill="#4DA6FF"/>
</svg>
