<svg width="62" height="55" viewBox="0 0 62 55" fill="none" xmlns="http://www.w3.org/2000/svg">
<path d="M31 0V6.75439L36.0483 4.24019C36.7622 3.88462 36.7622 2.86965 36.0483 2.51408L31 0Z" fill="#A5CDFF"/>
<path d="M31 0C30.4645 0 30.0312 0.431557 30.0312 0.964912V10.614H31.9688V0.964912C31.9688 0.431557 31.5355 0 31 0Z" fill="#CD916E"/>
<path d="M38.0055 19.0434C37.8772 18.0846 37.056 17.3687 36.085 17.3687H25.9152C24.9441 17.3687 24.123 18.0847 23.9946 19.0434L22.2812 31.8423V36.6669H39.7187V31.8423L38.0055 19.0434Z" fill="#FFE1A0"/>
<path d="M25.915 17.3687C24.944 17.3687 24.1228 18.0847 23.9945 19.0434L22.2812 31.8423V36.6669H26.421L28.8382 19.0434C28.9666 18.0846 29.7877 17.3687 30.7588 17.3687H25.915Z" fill="#F7D291"/>
<path d="M40.6875 34.737V32.8072C40.6875 32.2743 40.2537 31.8423 39.7187 31.8423H37.7812C37.2463 31.8423 36.8125 32.2743 36.8125 32.8072V34.737C36.8125 35.2699 36.3787 35.7019 35.8437 35.7019H33.9062C33.3713 35.7019 32.9375 35.2699 32.9375 34.737V32.8072C32.9375 32.2743 32.5037 31.8423 31.9687 31.8423H30.0312C29.4963 31.8423 29.0625 32.2743 29.0625 32.8072V34.737C29.0625 35.2699 28.6287 35.7019 28.0937 35.7019H26.1562C25.6213 35.7019 25.1875 35.2699 25.1875 34.737V32.8072C25.1875 32.2743 24.7537 31.8423 24.2187 31.8423H22.2812C21.7463 31.8423 21.3125 32.2743 21.3125 32.8072V34.737C21.3125 35.2699 20.8787 35.7019 20.3437 35.7019H19.375V54.0353H42.625V35.7019H41.6562C41.1213 35.7019 40.6875 35.2699 40.6875 34.737Z" fill="#F0C382"/>
<path d="M49.4062 13.5088V20.2632L54.4545 17.749C55.1685 17.3934 55.1685 16.3784 54.4545 16.0229L49.4062 13.5088Z" fill="#A5CDFF"/>
<path d="M49.4062 13.5088C48.8708 13.5088 48.4375 13.9403 48.4375 14.4737V24.1228H50.375V14.4737C50.375 13.9403 49.9417 13.5088 49.4062 13.5088Z" fill="#CD916E"/>
<path d="M57.3165 34.5622C57.2258 33.5682 56.389 32.8071 55.3869 32.8071H43.4257C42.4236 32.8071 41.5869 33.5682 41.4962 34.5622L39.7188 54.0352H59.0937L57.3165 34.5622Z" fill="#FFE1A0"/>
<path d="M48.2693 32.8071H43.4255C42.4235 32.8071 41.5867 33.5682 41.496 34.5622L39.7188 54.0352H44.5625L46.3398 34.5622C46.4305 33.5682 47.2672 32.8071 48.2693 32.8071Z" fill="#F7D291"/>
<path d="M54.2623 24.8783C54.1552 23.8992 53.3249 23.1577 52.3362 23.1577H46.4762C45.4875 23.1577 44.6573 23.8992 44.5501 24.8783L43.6818 32.8068H55.1307L54.2623 24.8783Z" fill="#FFE1A0"/>
<path d="M49.4062 41.491C50.4763 41.491 51.3438 40.627 51.3438 39.5612C51.3438 38.4954 50.4763 37.6313 49.4062 37.6313C48.3362 37.6313 47.4688 38.4954 47.4688 39.5612C47.4688 40.627 48.3362 41.491 49.4062 41.491Z" fill="#F5B97D"/>
<path d="M54.9193 30.877H49.629C48.4759 30.877 47.578 29.8798 47.7029 28.7379L48.3142 23.1577H46.4762C45.4875 23.1577 44.6574 23.8992 44.5501 24.8783L43.6818 32.8068H55.1307L54.9193 30.877Z" fill="#F7D291"/>
<path d="M12.5938 13.5088V20.2632L17.642 17.749C18.356 17.3934 18.356 16.3784 17.642 16.0229L12.5938 13.5088Z" fill="#A5CDFF"/>
<path d="M12.5938 13.5088C12.0583 13.5088 11.625 13.9403 11.625 14.4737V24.1228H13.5625V14.4737C13.5625 13.9403 13.1292 13.5088 12.5938 13.5088Z" fill="#CD916E"/>
<path d="M20.504 34.5622C20.4133 33.5682 19.5765 32.8071 18.5744 32.8071H6.61305C5.611 32.8071 4.77424 33.5682 4.68354 34.5622L2.90625 54.0352H22.2812L20.504 34.5622Z" fill="#FFE1A0"/>
<path d="M11.4568 32.8071H6.61305C5.611 32.8071 4.77424 33.5682 4.68354 34.5622L2.90625 54.0352H7.75L9.52729 34.5622C9.61799 33.5682 10.4547 32.8071 11.4568 32.8071Z" fill="#F7D291"/>
<path d="M17.4498 24.8788C17.3427 23.8997 16.5124 23.1582 15.5237 23.1582H9.66374C8.67501 23.1582 7.84479 23.8997 7.73763 24.8788L6.86926 32.8073H18.3182L17.4498 24.8788Z" fill="#FFE1A0"/>
<path d="M35.0872 11.3398C34.9659 10.3741 34.1418 9.64941 33.1647 9.64941H28.8354C27.8583 9.64941 27.0342 10.3741 26.913 11.3398L26.1562 17.3687H35.8437L35.0872 11.3398Z" fill="#FFE1A0"/>
<path d="M31 42.4561C28.8599 42.4561 27.125 44.1841 27.125 46.3157V54.035H34.875V46.3157C34.875 44.1841 33.1401 42.4561 31 42.4561Z" fill="#D29B6E"/>
<path d="M12.5938 41.491C13.6638 41.491 14.5312 40.627 14.5312 39.5612C14.5312 38.4954 13.6638 37.6313 12.5938 37.6313C11.5237 37.6313 10.6562 38.4954 10.6562 39.5612C10.6562 40.627 11.5237 41.491 12.5938 41.491Z" fill="#F5B97D"/>
<path d="M31 26.0525C32.0701 26.0525 32.9375 25.1885 32.9375 24.1227C32.9375 23.0569 32.0701 22.1929 31 22.1929C29.9299 22.1929 29.0625 23.0569 29.0625 24.1227C29.0625 25.1885 29.9299 26.0525 31 26.0525Z" fill="#F5B97D"/>
<path d="M61.0312 55.0001H0.96875C0.433273 55.0001 0 54.5686 0 54.0352C0 53.5019 0.433273 53.0703 0.96875 53.0703H61.0312C61.5667 53.0703 62 53.5019 62 54.0352C62 54.5686 61.5667 55.0001 61.0312 55.0001Z" fill="#F0C382"/>
<path d="M18.1068 30.8775H12.8165C11.6634 30.8775 10.7655 29.8803 10.8904 28.7384L11.5017 23.1582H9.66374C8.67501 23.1582 7.84491 23.8997 7.73763 24.8788L6.86926 32.8073H18.3182L18.1068 30.8775Z" fill="#F7D291"/>
<path d="M29.8191 13.2696L30.2734 9.64941H28.8353C27.8582 9.64941 27.0341 10.3741 26.9128 11.3398L26.1562 17.3687H35.8437L35.6016 15.4389H31.7417C30.5763 15.4389 29.6745 14.4215 29.8191 13.2696Z" fill="#F7D291"/>
<path d="M31 42.4561C28.8599 42.4561 27.125 44.1841 27.125 46.3157V49.2104C27.125 47.0788 28.8599 45.3508 31 45.3508C33.1401 45.3508 34.875 47.0788 34.875 49.2104V46.3157C34.875 44.1841 33.1401 42.4561 31 42.4561Z" fill="#CD916E"/>
</svg>
