<svg width="56" height="55" viewBox="0 0 56 55" fill="none" xmlns="http://www.w3.org/2000/svg">
<path d="M49.5817 41.3665C48.4662 42.5947 47.1216 43.4923 45.6714 44.0536C42.1321 45.4265 37.9643 44.7972 34.9595 42.0796C30.7247 38.2492 30.4047 31.7193 34.2447 27.495C37.2097 24.2328 41.7894 23.299 45.6725 24.8079C46.8174 25.2516 47.9022 25.9093 48.8668 26.7819C53.1016 30.6124 53.4216 37.1423 49.5817 41.3665Z" fill="#F9A030"/>
<path d="M49.5817 41.3662C48.4663 42.5944 47.1216 43.492 45.6714 44.0533C44.5254 43.6096 43.4405 42.9519 42.476 42.0793C38.24 38.2489 37.9201 31.719 41.7611 27.4947C42.8765 26.2665 44.2224 25.3679 45.6725 24.8076C46.8174 25.2513 47.9022 25.909 48.8668 26.7816C53.1016 30.6121 53.4216 37.142 49.5817 41.3662Z" fill="#FDB252"/>
<path d="M23.1934 23.5556C22.802 24.1883 22.1007 24.6117 21.3053 24.6117H4.12435C3.51503 24.6117 2.96017 24.3627 2.55843 23.962C2.1567 23.5613 1.9071 23.009 1.9071 22.4C1.9071 21.4747 2.48493 20.678 3.29803 20.3497C3.52837 20.2567 3.66137 20.0191 3.63173 19.7728C3.34735 17.4103 5.21165 15.3456 7.52953 15.3402C7.61276 15.34 7.68385 15.2825 7.6996 15.2009C8.35924 11.7868 11.5524 9.35942 15.1346 9.76004C18.5217 10.1415 21.1544 13.0086 21.1544 16.4904C21.1544 17.5254 20.9215 18.5051 20.5052 19.3817C20.3274 19.7561 20.603 20.1872 21.0184 20.1872H21.3054C23.0378 20.1871 24.0981 22.099 23.1934 23.5556Z" fill="#C8D2DC"/>
<path d="M23.3752 23.1914C23.2903 23.4104 23.0797 23.5554 22.8443 23.5554H8.60202C7.99269 23.5554 7.43783 23.3064 7.03609 22.9057C6.63436 22.5039 6.38477 21.9515 6.38477 21.3426C6.38477 20.4237 6.95439 19.6327 7.75852 19.2997C7.9917 19.2032 8.13958 18.9662 8.1095 18.7162C8.09091 18.5618 8.08128 18.4048 8.08128 18.2457C8.08128 16.0578 9.85939 14.2841 12.0528 14.2841C12.0857 14.2841 12.1186 14.2852 12.1516 14.2864C12.4624 12.4684 13.5007 10.8961 14.9564 9.88027C15.0748 9.79768 15.222 9.76877 15.365 9.78982C18.6406 10.2723 21.1545 13.0878 21.1545 16.4902C21.1545 17.5253 20.9217 18.505 20.5054 19.3816C20.3276 19.756 20.6032 20.1871 21.0186 20.1871C21.1384 20.2077 22.077 20.0444 22.8715 20.8368C23.513 21.4787 23.6796 22.4054 23.3752 23.1914Z" fill="#DCE6EB"/>
<path d="M45.8812 14.2448C45.4795 14.6455 44.9257 14.8945 44.3153 14.8945H27.1343C25.1788 14.8945 24.1687 12.5158 25.5684 11.1196C25.9712 10.7189 26.525 10.4699 27.1343 10.4699H27.4303C27.8464 10.4699 28.1114 10.0372 27.9334 9.66204C27.4678 8.68055 27.232 7.56967 27.2954 6.39867C27.4849 2.89692 30.3829 0.0906977 33.8974 0.00221563C34.3068 -0.00804 34.709 0.0173809 35.1002 0.0769508C37.9869 0.512706 40.2757 2.76294 40.766 5.62557C40.7989 5.62448 40.8318 5.62328 40.8647 5.62328C43.0581 5.62328 44.8362 7.39696 44.8362 9.5849C44.8362 9.74397 44.8266 9.90097 44.808 10.0554C44.7779 10.3053 44.9258 10.5422 45.159 10.6386C46.6178 11.2418 47.0036 13.1252 45.8812 14.2448Z" fill="#C8D2DC"/>
<path d="M46.4006 13.4315C46.3194 13.6547 46.1052 13.8023 45.8673 13.8023H31.9729C30.7542 13.8023 29.7556 12.8074 29.7556 11.5906C29.7556 10.3675 30.7606 9.3789 31.9729 9.3789H32.2599C32.6752 9.3789 32.9509 8.94783 32.7731 8.57339C32.3568 7.69654 32.1238 6.71625 32.1238 5.68207C32.1238 3.4423 33.2138 1.45642 34.8932 0.223018C35.0241 0.126789 35.1884 0.0888217 35.3482 0.119043C38.1172 0.642844 40.2897 2.8454 40.7659 5.62555C40.7988 5.62446 40.8317 5.62326 40.8646 5.62326C43.2559 5.62326 45.0902 7.71061 44.8079 10.0553C44.7778 10.3053 44.9257 10.5421 45.1589 10.6386C46.2493 11.0895 46.8062 12.3177 46.4006 13.4315Z" fill="#DCE6EB"/>
<path d="M55.2053 55H0.795C0.008594 55 -0.298859 53.9813 0.356953 53.5477C4.25705 50.9784 12.4169 45.3607 18.2948 39.6492C20.7016 37.3106 22.7248 34.9574 23.9185 32.791C24.7673 31.2504 26.3889 30.2939 28.151 30.2939C29.1881 30.2939 30.1753 30.6256 30.9856 31.2142C31.5575 31.6274 32.0408 32.1672 32.3915 32.808C33.5535 34.9303 35.4995 37.2326 37.8144 39.5225C43.6311 45.2794 51.7738 50.9637 55.6467 53.5513C56.298 53.9859 55.9893 55 55.2053 55Z" fill="#7E8B96"/>
<path d="M55.2053 55.0001H6.46871C5.6823 55.0001 5.37485 53.9814 6.03066 53.5478C9.93075 50.9785 18.0906 45.3608 23.9685 39.6493C26.3753 37.3108 28.3985 34.9576 29.5922 32.7911C29.9406 32.1584 30.4194 31.6241 30.9857 31.2144C31.5576 31.6275 32.0409 32.1674 32.3916 32.8081C33.5536 34.9304 35.4996 37.2328 37.8145 39.5226C43.6312 45.2795 51.7739 50.9639 55.6468 53.5514C56.298 53.986 55.9893 55.0001 55.2053 55.0001Z" fill="#A2ABB8"/>
<path d="M37.8144 39.5224L37.6067 39.5518L34.8562 41.4738C34.5612 41.6798 34.1685 41.6798 33.8746 41.4738L31.6131 39.8947C31.3192 39.6888 30.9265 39.6888 30.6315 39.8947L28.3712 41.4738C28.0773 41.6798 27.6847 41.6798 27.3897 41.4738L25.1293 39.8947C24.8354 39.6888 24.4428 39.6888 24.1478 39.8947L21.8875 41.4738C21.5936 41.6787 21.2009 41.6787 20.9059 41.4738L18.2949 39.6492C20.7017 37.3106 22.7249 34.9574 23.9187 32.791C24.7674 31.2504 26.389 30.2939 28.1512 30.2939C29.9203 30.2939 31.5441 31.2595 32.3917 32.8079C33.5536 34.9303 35.4996 37.2325 37.8144 39.5224Z" fill="#DCE6EB"/>
<path d="M28.1511 30.2939C29.1882 30.2939 30.1755 30.6256 30.9857 31.2142C30.4195 31.624 29.9406 32.1582 29.5923 32.791C28.3985 34.9574 26.3753 37.3106 23.9685 39.6492C23.4738 40.1302 22.9621 40.6112 22.4378 41.089L21.8875 41.4738C21.5936 41.6787 21.2009 41.6787 20.9059 41.4738L18.2949 39.6492C20.7017 37.3106 22.7249 34.9574 23.9187 32.791C24.7674 31.2504 26.3889 30.2939 28.1511 30.2939Z" fill="#C8D2DC"/>
</svg>
