<svg width="55" height="55" viewBox="0 0 55 55" fill="none" xmlns="http://www.w3.org/2000/svg">
<path d="M45.7495 17.5931H38.647C37.7571 17.5931 37.0356 16.8717 37.0356 15.9818V9.14343H17.9644V15.9818C17.9644 16.8717 17.2429 17.5931 16.353 17.5931H9.25053C8.36064 17.5931 7.6392 16.8717 7.6392 15.9818V9.14343H1.61133C0.721445 9.14343 0 8.42198 0 7.5321V1.61133C0 0.721445 0.721445 0 1.61133 0H53.3887C54.2786 0 55 0.721445 55 1.61133V7.5321C55 8.42198 54.2786 9.14343 53.3887 9.14343H47.3608V15.9818C47.3608 16.8717 46.6394 17.5931 45.7495 17.5931Z" fill="#61B2E6"/>
<path d="M12.8018 31.6691C11.6429 31.6691 10.4841 31.228 9.60188 30.3458C8.13192 28.8758 7.85133 26.6037 8.91953 24.8203L11.4193 20.6471C11.7105 20.1612 12.2353 19.8638 12.8017 19.8638C13.368 19.8638 13.8928 20.1612 14.184 20.6471L16.6838 24.8202C17.752 26.6036 17.4714 28.8757 16.0014 30.3457C15.1194 31.2279 13.9606 31.6691 12.8018 31.6691Z" fill="#368DCF"/>
<path d="M42.1982 31.6691C41.0393 31.6691 39.8806 31.228 38.9983 30.3458C37.5283 28.8758 37.2478 26.6037 38.316 24.8203L40.8158 20.6471C41.1069 20.1612 41.6317 19.8638 42.1981 19.8638C42.7644 19.8638 43.2893 20.1612 43.5804 20.6471L46.0802 24.8202C47.1484 26.6036 46.8678 28.8757 45.3979 30.3457C44.5158 31.2279 43.357 31.6691 42.1982 31.6691Z" fill="#368DCF"/>
<path d="M42.1982 19.8638C41.6319 19.8638 41.107 20.1612 40.8159 20.6471L38.3161 24.8203C37.2479 26.6037 37.5285 28.8758 38.9984 30.3458C39.8807 31.228 41.0394 31.6691 42.1983 31.6691L42.1982 19.8638Z" fill="#4AB8F7"/>
<path d="M12.8018 19.8638C12.2354 19.8638 11.7106 20.1612 11.4195 20.6471L8.91966 24.8203C7.85145 26.6037 8.13204 28.8758 9.602 30.3458C10.4843 31.228 11.643 31.6691 12.8019 31.6691L12.8018 19.8638Z" fill="#4AB8F7"/>
<path d="M28.0961 0H1.61133C0.721445 0 0 0.721445 0 1.61133V7.5321C0 8.42198 0.721445 9.14343 1.61133 9.14343H7.6392V15.9818C7.6392 16.8717 8.36064 17.5931 9.25053 17.5931H16.353C17.2429 17.5931 17.9644 16.8717 17.9644 15.9818V9.14343H28.096V0H28.0961Z" fill="#BDE6FC"/>
<path d="M17.9642 9.55176H7.64307V12.7744H17.9642V9.55176Z" fill="#13496B"/>
<path d="M47.3591 9.55176H37.038V12.7744H47.3591V9.55176Z" fill="#13496B"/>
<path d="M12.8036 9.55176H7.64307V12.7744H12.8036V9.55176Z" fill="#368DCF"/>
<path d="M42.1985 9.55176H37.038V12.7744H42.1985V9.55176Z" fill="#368DCF"/>
<path d="M23.4272 41.049C21.1442 41.049 19.0146 41.7186 17.2243 42.8713C17.5094 39.6032 16.4049 36.2356 13.9092 33.7399C13.2976 33.1284 12.3059 33.1284 11.6943 33.7399C9.20068 36.2335 8.09585 39.5975 8.37837 42.863C6.54457 41.6825 4.40924 41.0491 2.17615 41.0492C1.31119 41.0492 0.610046 41.7505 0.610046 42.6154C0.610046 48.9506 5.76415 54.1047 12.0994 54.1047C12.3522 54.1047 13.2511 54.1047 13.5039 54.1047C19.8391 54.1047 24.9932 48.9505 24.9932 42.6153C24.9934 41.7503 24.2922 41.049 23.4272 41.049Z" fill="#11A892"/>
<path d="M12.8017 33.2812C12.4009 33.2812 12.0001 33.4341 11.6943 33.7399C9.20068 36.2335 8.09585 39.5975 8.37837 42.8631C6.54457 41.6825 4.40924 41.0491 2.17615 41.0492C1.31119 41.0492 0.610046 41.7505 0.610046 42.6155C0.610046 48.9507 5.76415 54.1048 12.0994 54.1048C12.2258 54.1048 12.5137 54.1048 12.8017 54.1048V33.2812Z" fill="#82D9B6"/>
<path d="M52.8236 41.049C50.5406 41.049 48.4111 41.7186 46.6208 42.8713C46.9059 39.6032 45.8014 36.2356 43.3056 33.7399C42.6941 33.1284 41.7023 33.1284 41.0907 33.7399C38.5971 36.2335 37.4923 39.5975 37.7748 42.863C35.941 41.6825 33.8057 41.0491 31.5726 41.0492C30.7076 41.0492 30.0065 41.7505 30.0065 42.6154C30.0065 48.9506 35.1606 54.1047 41.4958 54.1047C41.7486 54.1047 42.6476 54.1047 42.9003 54.1047C49.2355 54.1047 54.3896 48.9505 54.3896 42.6153C54.3898 41.7503 53.6887 41.049 52.8236 41.049Z" fill="#11A892"/>
<path d="M42.1982 33.2812C41.7974 33.2812 41.3966 33.4341 41.0908 33.7399C38.5972 36.2335 37.4924 39.5975 37.7749 42.8631C35.9411 41.6825 33.8058 41.0491 31.5727 41.0492C30.7077 41.0492 30.0066 41.7505 30.0066 42.6155C30.0066 48.9507 35.1607 54.1048 41.4959 54.1048C41.6223 54.1048 41.9102 54.1048 42.1982 54.1048V33.2812Z" fill="#82D9B6"/>
<path d="M53.3887 55H1.61133C0.721445 55 0 54.2786 0 53.3887C0 52.4988 0.721445 51.7773 1.61133 51.7773H53.3887C54.2786 51.7773 55 52.4988 55 53.3887C55 54.2786 54.2786 55 53.3887 55Z" fill="#9ADB86"/>
<path d="M27.5005 51.7773H1.61133C0.721445 51.7773 0 52.4988 0 53.3887C0 54.2786 0.721445 55 1.61133 55H27.5005V51.7773Z" fill="#D5FFAB"/>
</svg>
