<svg width="69" height="55" viewBox="0 0 69 55" fill="none" xmlns="http://www.w3.org/2000/svg">
<path d="M57.2558 17.555C54.2037 21.2126 53.3701 25.9273 53.1464 28.4943C53.0623 29.4588 53.9553 30.2122 54.8853 29.9615C57.3606 29.2942 61.8329 27.65 64.8851 23.9924C67.9372 20.3348 68.7708 15.6201 68.9945 13.053C69.0786 12.0885 68.1856 11.335 67.2556 11.5857C64.7805 12.253 60.308 13.8973 57.2558 17.555Z" fill="#67C787"/>
<path opacity="0.1" d="M57.1126 26.5325C56.8833 26.5325 56.6528 26.4546 56.4634 26.2947C56.0358 25.9339 55.98 25.2928 56.3389 24.8628L64.2536 15.3778C64.6123 14.9478 65.2499 14.8915 65.6775 15.2526C66.1051 15.6133 66.1609 16.2544 65.802 16.6844L57.8874 26.1695C57.6875 26.4091 57.4011 26.5325 57.1126 26.5325Z" fill="black"/>
<path d="M51.8386 9.30177C50.2146 13.7886 51.0348 18.5056 51.6978 20.9948C51.9468 21.93 53.0421 22.3309 53.8307 21.7755C55.9297 20.2971 59.5732 17.214 61.1972 12.7271C62.8211 8.24026 62.001 3.52329 61.3381 1.0341C61.0891 0.098887 59.9937 -0.301975 59.2052 0.253377C57.1061 1.73161 53.4626 4.81491 51.8386 9.30177Z" fill="#8ADBA1"/>
<path opacity="0.1" d="M54.4122 17.8484C54.2974 17.8484 54.1806 17.8286 54.0666 17.7869C53.5421 17.5949 53.2715 17.0116 53.4625 16.4841L57.6738 4.849C57.8646 4.32156 58.4445 4.04998 58.9693 4.24161C59.4938 4.43363 59.7644 5.0169 59.5734 5.54434L55.3621 17.1794C55.2127 17.5921 54.8251 17.8484 54.4122 17.8484Z" fill="black"/>
<path d="M11.7441 17.555C14.7963 21.2126 15.6298 25.9273 15.8535 28.4943C15.9376 29.4588 15.0447 30.2122 14.1147 29.9615C11.6394 29.2942 7.16709 27.65 4.11492 23.9924C1.06274 20.3348 0.229217 15.6201 0.00550574 13.053C-0.0785881 12.0885 0.814369 11.335 1.74439 11.5857C4.21949 12.253 8.69196 13.8973 11.7441 17.555Z" fill="#67C787"/>
<path opacity="0.1" d="M11.8874 26.5325C11.5989 26.5325 11.3125 26.4091 11.1126 26.1695L3.19797 16.6844C2.83909 16.2543 2.89488 15.6133 3.32249 15.2526C3.75024 14.8915 4.38768 14.9478 4.74642 15.3778L12.6611 24.8628C13.02 25.2929 12.9642 25.9339 12.5366 26.2947C12.3472 26.4546 12.1166 26.5325 11.8874 26.5325Z" fill="black"/>
<path d="M17.1613 9.30177C18.7854 13.7886 17.9652 18.5056 17.3023 20.9948C17.0532 21.93 15.9579 22.3309 15.1694 21.7755C13.0704 20.2971 9.42685 17.214 7.80293 12.7271C6.179 8.24026 6.99905 3.52329 7.6621 1.0341C7.91114 0.098887 9.00638 -0.301975 9.79503 0.253377C11.8939 1.73161 15.5374 4.81491 17.1613 9.30177Z" fill="#8ADBA1"/>
<path opacity="0.1" d="M14.5878 17.8481C14.1749 17.8481 13.7873 17.5919 13.6379 17.1791L9.42659 5.54405C9.23563 5.01648 9.50624 4.43335 10.0307 4.24132C10.5557 4.04915 11.1354 4.32141 11.3262 4.84871L15.5375 16.4839C15.7285 17.0114 15.4579 17.5946 14.9335 17.7866C14.8194 17.8283 14.7025 17.8481 14.5878 17.8481Z" fill="black"/>
<path d="M4.63385 38.203H23.7729V10.9046C23.7729 8.87074 21.4487 7.72466 19.8496 8.96994C13.3948 13.9967 8.82116 21.0717 6.87244 29.0442L4.63385 38.203Z" fill="#B38A82"/>
<path opacity="0.1" d="M14.7734 13.7803C10.9856 18.1346 8.26147 23.3611 6.87244 29.0446L4.63385 38.2034H20.1822C13.9164 33.0738 13.6761 20.6363 14.7734 13.7803Z" fill="black"/>
<g opacity="0.1">
<path opacity="0.1" d="M12.7458 33.7792C12.5972 33.7792 12.4464 33.7461 12.3039 33.6762C11.8021 33.4303 11.5936 32.8219 11.8381 32.3173C12.0108 31.9606 12.0329 31.7842 12.0695 31.4919C12.1277 31.0268 12.2 30.448 12.767 29.3603C13.0262 28.863 13.6372 28.6711 14.1314 28.932C14.6258 29.1924 14.8165 29.8067 14.5574 30.3039C14.1602 31.0662 14.1209 31.381 14.0752 31.7456C14.0304 32.1033 13.9748 32.5485 13.6554 33.2078C13.4802 33.569 13.1202 33.7792 12.7458 33.7792Z" fill="black"/>
<path opacity="0.1" d="M16.307 23.7099C16.2172 23.7099 16.1261 23.6978 16.0354 23.6725C15.4976 23.5219 15.1831 22.9615 15.3326 22.4208C15.5108 21.7771 15.8949 21.2672 16.2662 20.7743C16.8357 20.018 17.3737 19.3035 17.3665 17.9878C17.3636 17.4263 17.8135 16.9688 18.3717 16.9658C18.3736 16.9658 18.3755 16.9658 18.3774 16.9658C18.933 16.9658 19.3851 17.4172 19.388 17.9766C19.3988 19.9815 18.5197 21.1488 17.8777 22.0014C17.5972 22.3738 17.3549 22.6954 17.2801 22.9659C17.1558 23.4154 16.7494 23.7099 16.307 23.7099Z" fill="black"/>
</g>
<path d="M64.3661 38.203H45.2271V10.9046C45.2271 8.87074 47.5512 7.72466 49.1503 8.96994C55.6051 13.9967 60.1788 21.0717 62.1275 29.0442L64.3661 38.203Z" fill="#B38A82"/>
<g opacity="0.1">
<path opacity="0.1" d="M56.2541 33.7793C55.8796 33.7793 55.5198 33.5691 55.3448 33.2078C55.0254 32.5485 54.9697 32.1033 54.925 31.7456C54.8793 31.3812 54.8399 31.0662 54.4428 30.3039C54.1836 29.8067 54.3743 29.1924 54.8688 28.932C55.3632 28.6711 55.974 28.863 56.2331 29.3603C56.8001 30.448 56.8725 31.0269 56.9307 31.4919C56.9672 31.7842 56.9893 31.9606 57.1621 32.3173C57.4067 32.822 57.198 33.4303 56.6962 33.6762C56.5536 33.7462 56.4027 33.7793 56.2541 33.7793Z" fill="black"/>
<path opacity="0.1" d="M52.693 23.7099C52.2506 23.7099 51.8442 23.4154 51.7197 22.9659C51.6449 22.6954 51.4026 22.3738 51.1222 22.0014C50.4801 21.1488 49.6011 19.9815 49.6119 17.9766C49.6148 17.4172 50.0668 16.9658 50.6225 16.9658C50.6243 16.9658 50.6261 16.9658 50.6281 16.9658C51.1863 16.9688 51.6363 17.4263 51.6333 17.9878C51.6262 19.3035 52.1642 20.0178 52.7337 20.7743C53.105 21.2673 53.4889 21.7771 53.6672 22.4208C53.8168 22.9615 53.5023 23.5219 52.9644 23.6725C52.874 23.6977 52.7826 23.7099 52.693 23.7099Z" fill="black"/>
</g>
<path d="M45.2273 11.8286H23.7726V38.2031H45.2273V11.8286Z" fill="#ABDFEB"/>
<path d="M43.5197 11.8281C43.5197 14.5722 43.5197 18.0263 43.5197 21.9501C43.5197 31.8861 37.99 36.4611 34.5 36.4611C31.0099 36.4611 25.4802 31.8863 25.4802 21.9501C25.4802 18.0263 25.4802 14.5722 25.4802 11.8281H23.7729V38.2031H45.227V11.8281H43.5197Z" fill="#8BCDD8"/>
<path d="M29.4381 26.0317C28.8798 26.0317 28.4274 25.5768 28.4274 25.0153V19.8592C28.4274 19.2977 28.8798 18.8428 29.4381 18.8428C29.9964 18.8428 30.4489 19.2977 30.4489 19.8592V25.0153C30.4489 25.5768 29.9963 26.0317 29.4381 26.0317Z" fill="#8BCDD8"/>
<path d="M39.1424 35.6647C38.5841 35.6647 38.1317 35.2098 38.1317 34.6484V26.2068C38.1317 25.6454 38.5841 25.1904 39.1424 25.1904C39.7007 25.1904 40.1531 25.6454 40.1531 26.2068V34.6484C40.1531 35.2098 39.7007 35.6647 39.1424 35.6647Z" fill="#8BCDD8"/>
<path d="M59.8749 55H9.12587C4.12 55 0.0620728 50.9193 0.0620728 45.8856V41.2723C0.0620728 39.5773 1.4286 38.2031 3.11425 38.2031H65.8866C67.5723 38.2031 68.9388 39.5773 68.9388 41.2723V45.8856C68.9387 50.9193 64.8806 55 59.8749 55Z" fill="#ABDFEB"/>
<path d="M3.11425 38.2031C1.4286 38.2031 0.0620728 39.5773 0.0620728 41.2723V45.8856C0.0620728 50.9194 4.12014 55 9.12587 55H38.2791C19.9903 52.9792 8.78654 47.0706 14.2251 38.2031H3.11425Z" fill="#8BCDD8"/>
<path d="M45.1244 33.0912C44.1704 33.0242 43.2677 33.2216 42.4812 33.6177C41.1803 34.2728 39.6301 34.065 38.4921 33.1534C37.3968 32.2759 36.0095 31.7515 34.5 31.7515C32.9905 31.7515 31.6032 32.2759 30.5078 33.1534C29.3699 34.065 27.8196 34.2728 26.5188 33.6177C25.7323 33.2216 24.8295 33.0242 23.8756 33.0912C21.3567 33.268 19.3182 35.3299 19.156 37.8637C18.9649 40.8477 21.315 43.3278 24.2413 43.3278C25.0516 43.3278 25.8173 43.1375 26.4972 42.7993C27.809 42.1465 29.3631 42.3359 30.5078 43.253C31.6032 44.1305 32.9903 44.6548 34.4998 44.6548C36.0094 44.6548 37.3965 44.1303 38.4919 43.253C39.6367 42.3359 41.1908 42.1465 42.5025 42.7993C43.1824 43.1377 43.9483 43.3278 44.7583 43.3278C47.6846 43.3278 50.0348 40.8477 49.8437 37.8637C49.6817 35.3299 47.6433 33.268 45.1244 33.0912Z" fill="white"/>
<path opacity="0.05" d="M30.508 43.253C31.6033 44.1304 32.9905 44.6548 34.5 44.6548C35.3186 44.6548 36.1007 44.4995 36.8203 44.2183C32.3222 43.7529 33.6675 39.8845 28.1541 40.2405C22.9296 40.578 22.598 35.4126 24.7862 33.11C24.4893 33.0781 24.1856 33.0693 23.8755 33.091C21.3566 33.2679 19.3182 35.3298 19.1558 37.8636C18.9647 40.8475 21.3149 43.3276 24.2412 43.3276C25.0513 43.3276 25.8172 43.1374 26.4972 42.7991C27.8091 42.1465 29.3631 42.3359 30.508 43.253Z" fill="black"/>
<path d="M14.2035 45.6714H9.74976C9.19142 45.6714 8.73901 45.2165 8.73901 44.6551C8.73901 44.0936 9.19142 43.6387 9.74976 43.6387H14.2035C14.7618 43.6387 15.2142 44.0936 15.2142 44.6551C15.2142 45.2165 14.7617 45.6714 14.2035 45.6714Z" fill="#8BCDD8"/>
<path d="M39.1424 51.3121H25.9852C25.4269 51.3121 24.9745 50.8571 24.9745 50.2957C24.9745 49.7342 25.4269 49.2793 25.9852 49.2793H39.1424C39.7007 49.2793 40.1532 49.7342 40.1532 50.2957C40.1532 50.8571 39.7007 51.3121 39.1424 51.3121Z" fill="#8BCDD8"/>
<path d="M58.87 47.6182H51.6312C51.0729 47.6182 50.6205 47.1633 50.6205 46.6018C50.6205 46.0404 51.0729 45.5854 51.6312 45.5854H58.87C59.4284 45.5854 59.8808 46.0404 59.8808 46.6018C59.8808 47.1633 59.4284 47.6182 58.87 47.6182Z" fill="#8BCDD8"/>
</svg>
