<svg width="62" height="55" viewBox="0 0 62 55" fill="none" xmlns="http://www.w3.org/2000/svg">
<path d="M53.192 46.5648C53.192 46.5648 51.7485 37.4007 47.0048 32.3876C43.5096 28.6937 40.5386 22.7463 39.217 19.8718C38.7516 18.8596 37.7409 18.2104 36.6268 18.2104H24.538C23.4239 18.2104 22.4132 18.8596 21.9478 19.8718C20.6262 22.7463 17.6554 28.6937 14.16 32.3876C9.41637 37.4009 7.9729 46.5648 7.9729 46.5648H53.192Z" fill="#B38A82"/>
<path opacity="0.1" d="M26.3952 18.2104H24.5381C23.424 18.2104 22.4134 18.8596 21.9479 19.8718C20.6263 22.7463 17.6555 28.6937 14.1602 32.3876C9.41637 37.4009 7.9729 46.5648 7.9729 46.5648H27.6988C19.3569 40.504 23.0211 28.0813 26.3952 18.2104Z" fill="black"/>
<g opacity="0.1">
<path opacity="0.1" d="M20.4106 42.0026C20.3152 42.0026 20.2181 41.9872 20.1226 41.9549C19.6541 41.7958 19.4031 41.287 19.5622 40.8185C19.8588 39.9444 20.3176 39.3117 20.8033 38.642C21.4003 37.8186 22.0175 36.9673 22.4759 35.4588C22.6199 34.9852 23.1204 34.7186 23.5937 34.8621C24.0672 35.0059 24.3344 35.5063 24.1906 35.9799C23.6448 37.7761 22.8736 38.8396 22.2541 39.6941C21.8153 40.2991 21.4687 40.7769 21.2592 41.3944C21.1323 41.7675 20.784 42.0026 20.4106 42.0026Z" fill="black"/>
<path opacity="0.1" d="M41.7153 42.0469C41.3351 42.0469 40.9822 41.8028 40.8614 41.421C40.5496 40.4358 39.9562 39.909 39.1351 39.1799C38.399 38.5264 37.5648 37.7859 36.7378 36.5542C36.4619 36.1434 36.5714 35.5868 36.9821 35.311C37.393 35.0351 37.9495 35.1443 38.2255 35.5554C38.9253 36.5976 39.6367 37.2292 40.3248 37.84C41.2423 38.6545 42.1088 39.424 42.5699 40.8805C42.7192 41.3521 42.4578 41.8556 41.986 42.005C41.8961 42.0333 41.8049 42.0469 41.7153 42.0469Z" fill="black"/>
</g>
<path d="M50.7545 40.5796C48.0489 43.8039 47.31 47.9601 47.1117 50.223C47.0371 51.0733 47.8287 51.7375 48.6531 51.5165C50.8473 50.9282 54.8118 49.4788 57.5174 46.2545C60.223 43.0302 60.9619 38.8741 61.1602 36.6112C61.2347 35.761 60.4432 35.0968 59.6188 35.3178C57.4247 35.9059 53.4601 37.3553 50.7545 40.5796Z" fill="#67C787"/>
<path opacity="0.1" d="M50.6275 48.4932C50.4242 48.4932 50.2198 48.4246 50.052 48.2836C49.6729 47.9656 49.6235 47.4005 49.9416 47.0213L56.9576 38.66C57.2754 38.281 57.8407 38.2313 58.2198 38.5496C58.5989 38.8676 58.6483 39.4328 58.3302 39.8119L51.3142 48.1732C51.1371 48.3844 50.8831 48.4932 50.6275 48.4932Z" fill="black"/>
<path d="M45.416 39.9947C43.9764 43.95 44.7034 48.1082 45.2911 50.3025C45.5118 51.1269 46.4828 51.4802 47.1818 50.9907C49.0424 49.6875 52.2722 46.9694 53.7118 43.0143C55.1514 39.059 54.4244 34.9008 53.8367 32.7065C53.616 31.8821 52.6451 31.5287 51.946 32.0183C50.0854 33.3214 46.8556 36.0394 45.416 39.9947Z" fill="#8ADBA1"/>
<path opacity="0.1" d="M47.6972 47.5285C47.5955 47.5285 47.492 47.511 47.3908 47.4743C46.9258 47.305 46.6861 46.7908 46.8553 46.3259L50.5885 36.0693C50.7578 35.6043 51.2721 35.3644 51.7369 35.5338C52.202 35.7031 52.4416 36.2173 52.2724 36.6822L48.5392 46.9388C48.4069 47.3026 48.0632 47.5285 47.6972 47.5285Z" fill="black"/>
<path d="M10.4106 40.5796C13.1162 43.8039 13.8551 47.9601 14.0534 50.223C14.1279 51.0733 13.3364 51.7375 12.5119 51.5165C10.3178 50.9282 6.35327 49.4788 3.64767 46.2545C0.942068 43.0302 0.203189 38.8741 0.00488056 36.6112C-0.0696644 35.761 0.721898 35.0968 1.54631 35.3178C3.74037 35.9059 7.70499 37.3553 10.4106 40.5796Z" fill="#67C787"/>
<path opacity="0.1" d="M10.5375 48.4936C10.2818 48.4936 10.0279 48.3847 9.85075 48.1735L2.8348 39.8123C2.51667 39.4331 2.56613 38.8681 2.94519 38.5501C3.32412 38.2318 3.88942 38.2814 4.20743 38.6604L11.2234 47.0218C11.5415 47.401 11.4921 47.966 11.113 48.284C10.9451 48.4249 10.7407 48.4936 10.5375 48.4936Z" fill="black"/>
<path d="M15.749 39.9947C17.1887 43.95 16.4616 48.1082 15.874 50.3025C15.6532 51.1269 14.6822 51.4802 13.9832 50.9907C12.1226 49.6875 8.89279 46.9694 7.45326 43.0143C6.01361 39.059 6.74066 34.9008 7.3283 32.7065C7.54907 31.8821 8.51994 31.5287 9.21904 32.0183C11.0797 33.3214 14.3095 36.0394 15.749 39.9947Z" fill="#8ADBA1"/>
<path opacity="0.1" d="M13.4678 47.5285C13.1019 47.5285 12.7583 47.3025 12.6258 46.9387L8.89263 36.6821C8.72347 36.2171 8.96311 35.703 9.42818 35.5337C9.89301 35.3646 10.4072 35.6043 10.5766 36.0692L14.3098 46.3258C14.479 46.7908 14.2393 47.3049 13.7742 47.4742C13.6731 47.5111 13.5695 47.5285 13.4678 47.5285Z" fill="black"/>
<path d="M56.9474 55.0002H4.21764C1.88823 55.0002 0 53.1119 0 50.7826C0 48.4533 1.88823 46.5649 4.21764 46.5649H56.9475C59.2768 46.5649 61.1652 48.4533 61.1652 50.7826C61.1651 53.1119 59.2768 55.0002 56.9474 55.0002Z" fill="#F5D7B7"/>
<path d="M20.5727 46.5649H4.21764C1.88835 46.5649 0 48.4532 0 50.7826C0 53.1119 1.88835 55.0002 4.21764 55.0002H21.3666C18.2415 54.0228 18.4232 47.9825 20.5727 46.5649Z" fill="#F2CAA7"/>
<path d="M53.3652 52.7089C53.8602 52.7089 54.2614 52.3077 54.2614 51.8127C54.2614 51.3177 53.8602 50.9165 53.3652 50.9165C52.8702 50.9165 52.469 51.3177 52.469 51.8127C52.469 52.3077 52.8702 52.7089 53.3652 52.7089Z" fill="#DBB695"/>
<path d="M24.368 51.8129C24.863 51.8129 25.2642 51.4117 25.2642 50.9167C25.2642 50.4218 24.863 50.0205 24.368 50.0205C23.873 50.0205 23.4718 50.4218 23.4718 50.9167C23.4718 51.4117 23.873 51.8129 24.368 51.8129Z" fill="#DBB695"/>
<path d="M42.1214 50.916C42.6164 50.916 43.0176 50.5147 43.0176 50.0197C43.0176 49.5248 42.6164 49.1235 42.1214 49.1235C41.6265 49.1235 41.2252 49.5248 41.2252 50.0197C41.2252 50.5147 41.6265 50.916 42.1214 50.916Z" fill="#DBB695"/>
<path d="M15.6233 50.916C16.1182 50.916 16.5195 50.5147 16.5195 50.0197C16.5195 49.5248 16.1182 49.1235 15.6233 49.1235C15.1283 49.1235 14.7271 49.5248 14.7271 50.0197C14.7271 50.5147 15.1283 50.916 15.6233 50.916Z" fill="#DBB695"/>
<path d="M8.99314 52.4545C9.4881 52.4545 9.88935 52.0533 9.88935 51.5583C9.88935 51.0634 9.4881 50.6621 8.99314 50.6621C8.49817 50.6621 8.09692 51.0634 8.09692 51.5583C8.09692 52.0533 8.49817 52.4545 8.99314 52.4545Z" fill="#DBB695"/>
<path d="M41.8103 21.9832C42.6871 24.7791 43.9623 27.1471 44.9237 28.7012C45.6192 29.8255 45.282 31.2994 44.1687 32.0124C43.1123 32.6889 41.7171 32.4451 40.9475 31.4545C39.5 29.5911 37.6891 27.838 36.2597 26.5657C35.2494 25.6664 33.6457 26.2637 33.4717 27.605C33.2959 28.9597 33.0925 30.5123 32.9323 31.7321C32.772 32.952 31.7324 33.8635 30.502 33.8635C29.3724 33.8635 28.3957 33.0897 28.121 31.994C27.6143 29.972 26.9324 28.2012 26.3539 26.8954C25.8921 25.8529 24.4763 25.7017 23.8077 26.6254C22.9056 27.8716 21.751 29.3361 20.7535 30.3516C20.0297 31.0886 18.9209 31.29 17.9842 30.8547C16.6749 30.2461 16.1764 28.6397 16.9141 27.3985C17.7727 25.9537 18.7914 23.9832 19.3547 21.9832C20.2042 18.8271 23.0659 16.6338 26.3343 16.6338H34.8305C38.0991 16.6339 40.9608 18.8271 41.8103 21.9832Z" fill="#F27281"/>
<path d="M22.9561 24.1952C22.8214 24.1952 22.6848 24.1647 22.5561 24.1004C22.1135 23.879 21.9342 23.3409 22.1554 22.8982C22.2567 22.6957 22.4389 22.4158 22.6695 22.0614C22.971 21.5982 23.3461 21.0217 23.5392 20.6093C23.7491 20.1612 24.2826 19.9684 24.7306 20.1779C25.1787 20.3877 25.372 20.9211 25.1621 21.3693C24.9161 21.8947 24.5032 22.5291 24.1715 23.0389C24.004 23.2962 23.8142 23.5881 23.7583 23.6998C23.6012 24.0136 23.2847 24.1952 22.9561 24.1952Z" fill="#EA6376"/>
<path d="M30.928 28.9763C30.4504 28.9763 30.0537 28.5995 30.0335 28.118C30.0003 27.3289 30.1125 25.6883 30.1835 25.1346C30.2465 24.6439 30.6954 24.297 31.1862 24.3599C31.6769 24.4229 32.0238 24.8718 31.9609 25.3627C31.8973 25.8581 31.7959 27.3786 31.8237 28.043C31.8445 28.5374 31.4606 28.9549 30.9661 28.9757C30.9534 28.9761 30.9407 28.9763 30.928 28.9763Z" fill="#EA6376"/>
<path d="M40.3125 26.1444C40.0737 26.1444 39.8354 26.0496 39.6591 25.8618C38.9207 25.0754 38.1228 23.2488 38.0206 22.8737C37.8903 22.3963 38.1719 21.9037 38.6493 21.7736C39.1254 21.6434 39.6161 21.9232 39.7482 22.3978C39.8397 22.694 40.5123 24.1525 40.9656 24.6353C41.3042 24.996 41.2864 25.5631 40.9255 25.9018C40.7527 26.064 40.5324 26.1444 40.3125 26.1444Z" fill="#EA6376"/>
<path d="M52.2253 8.30655C52.9889 10.3134 51.9475 12.6409 49.2559 13.1233C46.9458 13.5374 44.224 14.0267 42.0127 14.4246C40.6397 14.6717 39.7468 13.0252 40.7022 12.0087C43.0087 9.55482 46.034 6.50254 47.2088 6.05551C49.2158 5.2919 51.4617 6.29969 52.2253 8.30655Z" fill="#EA6376"/>
<path d="M36.2185 0.350569C38.1727 1.24045 39.0689 3.62756 37.4944 5.86331C36.143 7.78212 34.5519 10.0439 33.2594 11.8819C32.457 13.023 30.6643 12.4802 30.6289 11.0856C30.5432 7.71905 30.548 3.42149 31.069 2.27751C31.9588 0.323332 34.2644 -0.539311 36.2185 0.350569Z" fill="#EA6376"/>
<path d="M12.7449 9.09496C12.285 11.1924 13.6575 13.3413 16.3908 13.4223C18.7366 13.4918 21.5008 13.5753 23.7466 13.6434C25.141 13.6857 25.7819 11.9258 24.6872 11.0608C22.0448 8.97311 18.6032 6.3994 17.3753 6.13013C15.278 5.67019 13.2048 6.99755 12.7449 9.09496Z" fill="#EA6376"/>
</svg>
