<svg width="15" height="15" viewBox="0 0 15 15" fill="none" xmlns="http://www.w3.org/2000/svg">
<path d="M5.35762 7.94666L6.44471 7.37382L5.35762 6.80095L6.01299 5.76058L4.78549 5.80869L4.83353 4.57961L3.79449 5.23582L3.22236 4.14734L2.65022 5.23582L1.61118 4.57961L1.65922 5.80869L0.431718 5.76058L1.08709 6.80095L0 7.37382L1.08709 7.94669L0.431718 8.98706L1.65922 8.93895L1.61118 10.168L2.65022 9.51179L3.22236 10.6003L3.79449 9.51182L4.83353 10.168L4.78549 8.93892L6.01299 8.98703L5.35762 7.94666ZM3.22236 8.98706C2.33252 8.98706 1.61118 8.26476 1.61118 7.37382C1.61118 6.48288 2.33252 5.76058 3.22236 5.76058C4.11219 5.76058 4.83353 6.48288 4.83353 7.37382C4.83353 8.26476 4.11219 8.98706 3.22236 8.98706Z" fill="#00A651"/>
<path d="M13.4959 13.7602C13.1991 13.9691 12.9847 14.1201 12.4987 14.1201C12.0127 14.1201 11.7983 13.9691 11.5015 13.7602C11.1724 13.5285 10.7628 13.2401 9.99885 13.2401C9.23488 13.2401 8.82531 13.5285 8.49622 13.7602C8.19944 13.9691 7.98502 14.1201 7.4991 14.1201C7.01319 14.1201 6.79876 13.9691 6.50199 13.7602C6.17289 13.5285 5.76333 13.2401 4.99941 13.2401C4.23544 13.2401 3.8259 13.5285 3.49681 13.7602C3.20003 13.9691 2.98561 14.1201 2.49969 14.1201C2.01377 14.1201 1.79938 13.9691 1.5026 13.7602C1.17351 13.5285 0.763973 13.2401 0 13.2401V14.1201C0.485887 14.1201 0.70034 14.271 0.997117 14.48C1.32621 14.7116 1.73578 15 2.49969 15C3.26366 15 3.6732 14.7116 4.00229 14.48C4.29907 14.271 4.51349 14.1201 4.99941 14.1201C5.48533 14.1201 5.69972 14.271 5.9965 14.48C6.32559 14.7116 6.73516 15 7.49907 15C8.26299 15 8.67259 14.7117 9.00168 14.48C9.29845 14.271 9.51288 14.1201 9.99882 14.1201C10.4848 14.1201 10.6992 14.271 10.996 14.48C11.3251 14.7117 11.7347 15 12.4987 15C13.2627 15 13.6722 14.7117 14.0013 14.48C14.2982 14.2711 14.5126 14.1201 14.9986 14.1201V13.2401C14.2346 13.2401 13.825 13.5284 13.4959 13.7602Z" fill="#00A651"/>
<path d="M14.5446 3.20424C14.0613 2.1666 13.2461 1.35111 12.2232 0.870964L12.4304 0.301028L11.6045 0L11.3972 0.570229C9.00939 -0.06257 6.48275 1.226 5.62186 3.5943L5.44447 4.08234L5.95441 4.17732C6.7785 4.33083 7.56635 4.61795 8.2961 5.03074L8.3987 5.08877L8.5165 5.08762C8.53132 5.08747 8.54615 5.08742 8.56094 5.08742C8.94883 5.08742 9.33212 5.13708 9.70235 5.23283L7.65468 10.8659C7.60288 10.8652 7.55114 10.8643 7.49929 10.8643C6.14153 10.8643 4.80808 11.0869 3.53599 11.526C2.73457 11.8026 1.96749 12.1619 1.24304 12.5983C1.57776 12.7377 1.82438 12.9111 2.00798 13.0404C2.26494 13.2213 2.29181 13.2402 2.49967 13.2402C2.70756 13.2402 2.7344 13.2213 2.99127 13.0404C3.35273 12.7859 3.95748 12.3602 4.99939 12.3602C6.0413 12.3602 6.64605 12.786 7.00736 13.0404C7.26433 13.2213 7.29119 13.2402 7.49905 13.2402C7.70694 13.2402 7.73378 13.2213 7.99062 13.0404C8.35212 12.786 8.95686 12.3602 9.9988 12.3602C11.0409 12.3602 11.6456 12.786 12.007 13.0404C12.2639 13.2213 12.2907 13.2402 12.4987 13.2402C12.7066 13.2402 12.7335 13.2213 12.9903 13.0404C13.174 12.9111 13.4207 12.7377 13.7554 12.5982C13.031 12.1619 12.2639 11.8025 11.4625 11.5259C10.5277 11.2033 9.55964 10.998 8.57325 10.9116L10.5282 5.53371C10.8864 5.70496 11.2236 5.92344 11.5298 6.18584L11.6193 6.26255L11.7352 6.28411C12.5593 6.43761 13.3471 6.72474 14.0769 7.13753L14.5285 7.39297L14.7059 6.90491C15.1475 5.69012 15.0902 4.37585 14.5446 3.20424Z" fill="#00A651"/>
</svg>
