<svg width="30" height="30" viewBox="0 0 30 30" fill="none" xmlns="http://www.w3.org/2000/svg">
<path d="M15 30C23.2843 30 30 23.2843 30 15C30 6.71573 23.2843 0 15 0C6.71573 0 0 6.71573 0 15C0 23.2843 6.71573 30 15 30Z" fill="#4E598F"/>
<path d="M16.8023 29.8886C23.2711 29.1137 28.4735 24.2249 29.7154 17.9114L22.6008 10.7955C22.5967 10.7915 22.5946 10.7893 22.5921 10.7872L22.408 10.6029C21.5014 9.74772 20.1492 9.20532 18.6363 9.20532C17.6805 9.20532 16.7894 9.42177 16.0329 9.79917C15.1244 9.41983 14.0934 9.20532 12.9986 9.20532C9.3707 9.20532 6.42859 11.5501 6.42859 14.4401C6.42859 15.6723 6.96859 16.7636 7.85166 17.6957C8.20925 18.0728 8.38298 18.6085 8.38298 19.1657C8.38298 19.8024 8.12587 20.3785 7.70816 20.794L16.8023 29.8886Z" fill="#364270"/>
<path d="M18.6365 9.20581C21.362 9.20581 23.5713 10.9662 23.5713 13.1382C23.5713 14.0616 23.1645 14.8818 22.5015 15.5835C22.2344 15.865 22.103 16.2672 22.103 16.6868C22.103 17.1642 22.2972 17.597 22.6104 17.9097C21.8397 17.7891 21.1833 17.3204 20.8091 16.6698C20.1537 16.9262 19.4168 17.0697 18.6365 17.0697C15.9123 17.0697 13.7026 15.3093 13.7026 13.1381C13.7029 10.9662 15.9124 9.20581 18.6365 9.20581Z" fill="white"/>
<path d="M12.9982 9.20581C9.37006 9.20581 6.42871 11.5497 6.42871 14.441C6.42871 15.6719 6.96988 16.7633 7.85254 17.6962C8.2085 18.0736 8.38387 18.608 8.38387 19.1662C8.38387 19.8023 8.12494 20.3776 7.70811 20.7941C8.73443 20.6333 9.60771 20.0095 10.1068 19.144C10.9796 19.4855 11.9606 19.6773 12.9983 19.6773C16.6268 19.6773 19.5686 17.3333 19.5686 14.4412C19.5685 11.5499 16.6267 9.20581 12.9982 9.20581Z" fill="#C1D354"/>
<path d="M7.44477 14.9355C7.30033 14.9355 7.17928 14.8257 7.16785 14.6799C7.16199 14.5881 7.15918 14.5117 7.15918 14.4408C7.15918 14.1186 7.20389 13.796 7.29301 13.4808C7.33455 13.3335 7.48725 13.2492 7.63455 13.2907C7.78215 13.3318 7.86752 13.485 7.82551 13.6323C7.75068 13.8974 7.71283 14.1697 7.71283 14.4409C7.71283 14.4985 7.71541 14.5615 7.72063 14.6385C7.73217 14.7924 7.61727 14.925 7.46504 14.9352C7.45842 14.9355 7.45092 14.9355 7.44477 14.9355Z" fill="#DBEBA0"/>
<path d="M7.94406 12.9583C7.89502 12.9583 7.84569 12.9451 7.80039 12.9184C7.66944 12.8386 7.62807 12.6686 7.7074 12.5381C7.98309 12.0859 8.35299 11.673 8.8078 11.3102C9.0202 11.1414 9.24971 10.9838 9.49328 10.8423C9.62559 10.7645 9.79492 10.809 9.87233 10.9406C9.94944 11.0727 9.90491 11.2432 9.7733 11.3192C9.55223 11.448 9.34369 11.5908 9.15321 11.744C8.74879 12.0649 8.42178 12.4294 8.18108 12.8262C8.12828 12.911 8.03705 12.9583 7.94406 12.9583Z" fill="#DBEBA0"/>
</svg>
