<svg width="13" height="13" viewBox="0 0 13 13" fill="none" xmlns="http://www.w3.org/2000/svg">
<path d="M10.1038 10.4748C11.2716 10.4748 12.2182 9.55658 12.2182 8.42394C12.2182 7.2913 11.2716 6.37311 10.1038 6.37311C8.93604 6.37311 7.98938 7.2913 7.98938 8.42394C7.98938 9.55658 8.93604 10.4748 10.1038 10.4748Z" fill="#00A651"/>
<path d="M5.54922 8.80672L2.90165 10.6463C3.01626 10.6235 3.14227 10.6095 3.28287 10.6095C3.91742 10.6095 4.26913 10.8826 4.50189 11.0633C4.67242 11.1958 4.72987 11.2404 4.90774 11.2404C5.08563 11.2404 5.14309 11.1958 5.31364 11.0633C5.54637 10.8826 5.89811 10.6095 6.53269 10.6095C7.16721 10.6095 7.51895 10.8826 7.75174 11.0633C7.92229 11.1958 7.97979 11.2404 8.15769 11.2404C8.33556 11.2404 8.39303 11.1958 8.56358 11.0633C8.64113 11.0031 8.73236 10.9327 8.84248 10.8654L6.99117 7.83121L4.46169 6L1.57188 6.79506L1.20837 8.41227L4.21357 7.83975L5.54922 8.80672Z" fill="#00A651"/>
<path d="M11.7808 11.5611C11.6103 11.6936 11.5527 11.7382 11.3748 11.7382C11.1968 11.7382 11.1393 11.6935 10.9687 11.5611C10.736 11.3804 10.3842 11.1073 9.74963 11.1073C9.11506 11.1073 8.76334 11.3804 8.53058 11.5611C8.36009 11.6936 8.30258 11.7382 8.12469 11.7382C7.94671 11.7382 7.88934 11.6935 7.71874 11.5611C7.486 11.3804 7.13426 11.1073 6.49969 11.1073C5.86513 11.1073 5.51342 11.3804 5.28066 11.5611C5.11014 11.6936 5.05269 11.7382 4.87476 11.7382C4.69687 11.7382 4.63944 11.6935 4.46892 11.5611C4.23616 11.3804 3.88445 11.1073 3.2499 11.1073C2.61534 11.1073 2.2636 11.3804 2.03084 11.5611C1.86029 11.6936 1.80284 11.7382 1.62492 11.7382C1.44703 11.7382 1.38958 11.6935 1.21902 11.5611C0.986292 11.3804 0.634552 11.1073 0 11.1073V12.3691C0.177895 12.3691 0.235347 12.4137 0.405897 12.5461C0.63863 12.7269 0.990369 13 1.62492 13C2.2595 13 2.61121 12.7269 2.84397 12.5461C3.0145 12.4137 3.07197 12.3691 3.2499 12.3691C3.42779 12.3691 3.48524 12.4137 3.65577 12.5461C3.8885 12.7269 4.24024 13 4.87479 13C5.50934 13 5.86106 12.7269 6.09382 12.5461C6.26437 12.4137 6.32182 12.3691 6.49971 12.3691C6.67766 12.3691 6.73509 12.4137 6.90564 12.5461C7.13837 12.7269 7.49011 13 8.12474 13C8.75924 13 9.11098 12.7269 9.34374 12.5461C9.51429 12.4137 9.57174 12.3691 9.74969 12.3691C9.92763 12.3691 9.98514 12.4137 10.1557 12.5461C10.3884 12.7269 10.7402 13 11.3748 13C12.0095 13 12.3612 12.7269 12.5939 12.5461C12.7645 12.4137 12.8221 12.3691 13 12.3691V11.1073C12.3654 11.1072 12.0136 11.3804 11.7808 11.5611Z" fill="#00A651"/>
<path d="M6.75916 0.0771155L12.8917 4.54228C13.0361 4.64741 13.0361 4.81602 12.8917 4.92115C12.7473 5.02628 12.5157 5.02628 12.3714 4.92115L6.50034 0.646418L0.629329 4.92115C0.484937 5.02628 0.253366 5.02628 0.108975 4.92115C0.0381413 4.86958 0 4.80015 0 4.73271C0 4.66526 0.0354166 4.59583 0.108975 4.54426L6.24153 0.0790987C6.38319 -0.0260339 6.61749 -0.0260334 6.75916 0.0771155Z" fill="#00A651"/>
</svg>
