<svg width="15" height="15" viewBox="0 0 15 15" fill="none" xmlns="http://www.w3.org/2000/svg">
<path d="M7.36427 4.89011C6.97506 4.89011 6.71837 4.92667 6.5705 4.96356V7.40534C6.7394 7.44223 6.93768 7.45431 7.21373 7.45431C8.23015 7.45431 8.85736 6.95093 8.85736 6.1048C8.8577 5.34386 8.31761 4.89011 7.36427 4.89011Z" fill="#00A651"/>
<path d="M13.1835 0H1.81688C0.813138 0 0 0.795539 0 1.77682V13.2235C0 14.2048 0.813472 15 1.81688 15H13.1835C14.1872 15 15 14.2045 15 13.2235V1.77682C15.0003 0.795212 14.1872 0 13.1835 0ZM13.8808 12.9385C13.8808 13.4729 13.4381 13.9051 12.8924 13.9051H2.08726C1.54116 13.9051 1.09854 13.4723 1.09854 12.9385V2.08237C1.09854 1.54864 1.54116 1.11578 2.08726 1.11578H12.892C13.4381 1.11578 13.8804 1.54864 13.8804 2.08237L13.8808 12.9385Z" fill="#00A651"/>
<path d="M12.8921 1.7977H2.08727C1.92638 1.7977 1.79553 1.92501 1.79553 2.08268V12.9388C1.79553 13.0955 1.92605 13.2238 2.08727 13.2238H12.8921C13.0526 13.2238 13.1835 13.0958 13.1835 12.9388V2.08236C13.1835 1.92501 13.053 1.7977 12.8921 1.7977ZM9.97699 8.01935C9.32507 8.62033 8.35572 8.8903 7.22613 8.8903C6.97545 8.8903 6.76082 8.8779 6.57055 8.85341V11.8182H4.69025V3.65058C5.28175 3.55232 6.10423 3.47855 7.2712 3.47855C8.45085 3.47855 9.28936 3.69955 9.85448 4.14155C10.3936 4.55842 10.7567 5.2459 10.7567 6.05548C10.7567 6.86603 10.4797 7.55352 9.97699 8.01935Z" fill="#00A651"/>
</svg>
