<svg width="14" height="15" viewBox="0 0 14 15" fill="none" xmlns="http://www.w3.org/2000/svg">
<path d="M13.6861 11.8643L11.5241 9.54225C11.0934 9.08166 10.3803 9.09565 9.93461 9.57439L8.84534 10.7438C8.77652 10.7031 8.70529 10.6606 8.6304 10.6154C7.94254 10.2062 7.00109 9.64518 6.0104 8.58055C5.01678 7.51367 4.49391 6.50113 4.11161 5.76199C4.07127 5.68369 4.03261 5.60819 3.99445 5.53649L4.7255 4.75261L5.08492 4.36617C5.53125 3.88674 5.54356 3.12113 5.11392 2.6592L2.95184 0.336912C2.52219 -0.124374 1.80871 -0.11038 1.36238 0.369047L0.753032 1.02716L0.769684 1.04491C0.565361 1.32488 0.394623 1.64778 0.267564 1.99599C0.150441 2.32744 0.0775199 2.64373 0.0441767 2.96067C-0.241312 5.50224 0.840231 7.82504 3.7754 10.977C7.8327 15.3337 11.1023 15.0046 11.2434 14.9885C11.5506 14.9491 11.845 14.8702 12.1442 14.7455C12.4657 14.6106 12.7662 14.4275 13.0267 14.2086L13.04 14.2213L13.6573 13.5722C14.1028 13.0928 14.1156 12.3269 13.6861 11.8643Z" fill="#F9A030"/>
</svg>
