<svg width="13" height="14" viewBox="0 0 13 14" fill="none" xmlns="http://www.w3.org/2000/svg">
<path d="M11.9879 3.53263L13 3L11.9879 2.46734L12.5981 1.5L11.4553 1.54473L11.5 0.401928L10.5327 1.01207L10 0L9.46734 1.01207L8.5 0.401928L8.54473 1.54473L7.40193 1.5L8.01207 2.46734L7 3L8.01207 3.53266L7.40193 4.5L8.54473 4.45527L8.5 5.59804L9.46734 4.9879L10 6L10.5327 4.98793L11.5 5.59804L11.4553 4.45524L12.5981 4.49997L11.9879 3.53263ZM10 4.5C9.17157 4.5 8.5 3.8284 8.5 3C8.5 2.1716 9.17157 1.5 10 1.5C10.8284 1.5 11.5 2.1716 11.5 3C11.5 3.8284 10.8284 4.5 10 4.5Z" fill="#00A651"/>
<path d="M10.1039 11.4748C11.2716 11.4748 12.2183 10.5566 12.2183 9.42394C12.2183 8.2913 11.2716 7.37311 10.1039 7.37311C8.93611 7.37311 7.98944 8.2913 7.98944 9.42394C7.98944 10.5566 8.93611 11.4748 10.1039 11.4748Z" fill="#00A651"/>
<path d="M5.54922 9.80672L2.90165 11.6463C3.01626 11.6235 3.14227 11.6095 3.28287 11.6095C3.91742 11.6095 4.26913 11.8826 4.50189 12.0633C4.67242 12.1958 4.72987 12.2404 4.90774 12.2404C5.08563 12.2404 5.14309 12.1958 5.31364 12.0633C5.54637 11.8826 5.89811 11.6095 6.53269 11.6095C7.16721 11.6095 7.51895 11.8826 7.75174 12.0633C7.92229 12.1958 7.97979 12.2404 8.15769 12.2404C8.33556 12.2404 8.39303 12.1958 8.56358 12.0633C8.64113 12.0031 8.73236 11.9327 8.84248 11.8654L6.99117 8.83121L4.46169 7L1.57188 7.79506L1.20837 9.41227L4.21357 8.83975L5.54922 9.80672Z" fill="#00A651"/>
<path d="M11.7808 12.5611C11.6103 12.6936 11.5527 12.7382 11.3748 12.7382C11.1968 12.7382 11.1393 12.6935 10.9687 12.5611C10.736 12.3804 10.3842 12.1073 9.74963 12.1073C9.11506 12.1073 8.76334 12.3804 8.53058 12.5611C8.36009 12.6936 8.30258 12.7382 8.12469 12.7382C7.94671 12.7382 7.88934 12.6935 7.71874 12.5611C7.486 12.3804 7.13426 12.1073 6.49969 12.1073C5.86513 12.1073 5.51342 12.3804 5.28066 12.5611C5.11014 12.6936 5.05269 12.7382 4.87476 12.7382C4.69687 12.7382 4.63944 12.6935 4.46892 12.5611C4.23616 12.3804 3.88445 12.1073 3.2499 12.1073C2.61534 12.1073 2.2636 12.3804 2.03084 12.5611C1.86029 12.6936 1.80284 12.7382 1.62492 12.7382C1.44703 12.7382 1.38958 12.6935 1.21902 12.5611C0.986292 12.3804 0.634552 12.1073 0 12.1073V13.3691C0.177895 13.3691 0.235347 13.4137 0.405897 13.5461C0.63863 13.7269 0.990369 14 1.62492 14C2.2595 14 2.61121 13.7269 2.84397 13.5461C3.0145 13.4137 3.07197 13.3691 3.2499 13.3691C3.42779 13.3691 3.48524 13.4137 3.65577 13.5461C3.8885 13.7269 4.24024 14 4.87479 14C5.50934 14 5.86106 13.7269 6.09382 13.5461C6.26437 13.4137 6.32182 13.3691 6.49971 13.3691C6.67766 13.3691 6.73509 13.4137 6.90564 13.5461C7.13837 13.7269 7.49011 14 8.12474 14C8.75924 14 9.11098 13.7269 9.34374 13.5461C9.51429 13.4137 9.57174 13.3691 9.74969 13.3691C9.92763 13.3691 9.98514 13.4137 10.1557 13.5461C10.3884 13.7269 10.7402 14 11.3748 14C12.0095 14 12.3612 13.7269 12.5939 13.5461C12.7645 13.4137 12.8221 13.3691 13 13.3691V12.1073C12.3654 12.1072 12.0136 12.3804 11.7808 12.5611Z" fill="#00A651"/>
</svg>
