<svg width="20" height="15" viewBox="0 0 20 15" fill="none" xmlns="http://www.w3.org/2000/svg">
<path d="M3.25166 6.89267C2.83473 7.30635 2.83473 7.97959 3.25166 8.39733C3.66858 8.81101 4.3471 8.81101 4.76811 8.39733C7.65386 5.53401 12.3504 5.53401 15.2361 8.39733C15.4446 8.60417 15.7184 8.70962 15.9923 8.70962C16.2662 8.70962 16.54 8.60417 16.7485 8.39733C17.1654 7.98365 17.1654 7.31041 16.7485 6.89267C13.0289 3.19793 6.97126 3.19793 3.25166 6.89267Z" fill="#00A651"/>
<path d="M6.14546 9.76411C5.72853 10.1778 5.72853 10.851 6.14546 11.2688C6.56238 11.6825 7.2409 11.6825 7.66191 11.2688C8.94946 9.98717 11.0504 9.98717 12.338 11.2688C12.5464 11.4756 12.8203 11.5811 13.0942 11.5811C13.368 11.5811 13.6419 11.4756 13.8503 11.2688C14.2673 10.8551 14.2673 10.1818 13.8503 9.76816C11.7289 7.65514 8.27094 7.65514 6.14546 9.76411Z" fill="#00A651"/>
<path d="M10 15C10.7879 15 11.4265 14.3663 11.4265 13.5846C11.4265 12.8028 10.7879 12.1691 10 12.1691C9.21216 12.1691 8.57349 12.8028 8.57349 13.5846C8.57349 14.3663 9.21216 15 10 15Z" fill="#00A651"/>
<path d="M19.6873 3.97256C14.345 -1.32419 5.65502 -1.32419 0.312692 3.97256C-0.104231 4.38624 -0.104231 5.05948 0.312692 5.47722C0.729614 5.8909 1.40813 5.8909 1.82914 5.47722C6.33354 1.00378 13.6665 1.00378 18.1749 5.47722C18.3834 5.68406 18.6573 5.78951 18.9311 5.78951C19.205 5.78951 19.4788 5.68406 19.6873 5.47722C20.1042 5.06354 20.1042 4.39029 19.6873 3.97256Z" fill="#00A651"/>
</svg>
