<svg width="12" height="15" viewBox="0 0 12 15" fill="none" xmlns="http://www.w3.org/2000/svg">
<path d="M11.9996 5.23489C12.0095 5.08122 11.8324 4.69208 11.5245 4.19436C11.653 3.71335 11.767 3.13584 11.7168 2.74013C11.6159 1.94263 11.0694 0.41582 9.85777 0.20418C9.31929 0.110442 8.60644 0.301972 7.99215 0.53583C7.43091 0.209451 6.85637 0 6.30082 0C5.56457 0 4.92824 0.388736 4.4719 0.78177C4.12989 0.667923 3.83597 0.630784 3.61297 0.695006C3.14195 0.830829 2.7772 1.48416 2.58969 1.89657C2.35875 1.80624 2.16956 1.77486 2.0367 1.81986C1.33924 2.05688 0.844105 4.02846 0.783445 4.37592C0.776073 4.41622 0.875596 4.53647 1.05221 4.71365C0.814456 5.56078 0.79835 6.19635 0.838576 6.36023C0.901318 6.61209 1.1704 6.75131 1.16471 7.08329C1.15309 7.75064 0 8.85498 0 9.32902C0 9.68362 0.930246 9.81304 0.930246 9.81304C0.930246 9.81304 1.00741 10.0316 0.851797 10.4553C0.696503 10.88 1.14075 11.3723 1.27425 11.5443C1.40567 11.7154 1.30029 12.7291 1.40807 13.0278C1.51673 13.3254 1.81826 13.497 2.38046 13.3024C2.99147 13.0914 3.7443 12.7813 4.01643 12.8629C4.61012 14.2769 3.1793 15 3.1793 15H10.7057C10.7057 15 8.52174 13.2238 8.56765 11.2768C8.57094 11.1332 8.61269 10.9849 8.67896 10.8283C9.14933 10.8192 10.2415 10.429 10.3429 9.65208C10.3528 9.57342 10.3149 9.45317 10.2444 9.3051C10.8796 8.94945 11.9997 8.21812 11.9997 7.48427C11.9997 7.31796 11.8391 7.02385 11.5616 6.64833C11.749 6.20324 11.9764 5.60051 11.9996 5.23489ZM6.59474 6.91836C6.52054 5.90484 5.80897 5.48074 5.80897 5.48074C5.80897 5.48074 5.45062 6.69147 5.98798 7.19162C5.5257 7.44202 4.20618 6.98598 4.19929 6.49662C4.19336 6.00798 5.42338 5.32619 5.42338 5.32619C5.42338 5.32619 3.70408 5.39082 3.72203 5.85861C3.2297 5.59954 3.08618 4.78185 3.78269 4.29013C4.29464 3.92831 5.37626 4.88345 5.37626 4.88345C5.37626 4.88345 4.57863 3.60088 4.0242 3.90334C4.27141 3.14006 5.42874 2.54957 6.34833 3.05905C5.20662 3.3418 5.78613 4.7636 5.78613 4.7636C5.78613 4.7636 6.01322 3.50065 6.5098 3.33629C7.24749 3.09132 7.98927 4.09503 7.6298 4.70084C7.07609 4.47606 6.01939 5.14634 6.01939 5.14634C6.01939 5.14634 7.47106 5.2348 7.73108 5.68192C7.99031 6.12921 7.13955 6.87757 6.59474 6.91836Z" fill="#00A651"/>
</svg>
