<svg width="25" height="25" viewBox="0 0 25 25" fill="none" xmlns="http://www.w3.org/2000/svg">
<path d="M25 12.5C25 19.4036 19.4036 25 12.5 25C5.59644 25 0 19.4036 0 12.5C0 5.59644 5.59644 0 12.5 0C19.4036 0 25 5.59644 25 12.5Z" fill="#3AAAFF"/>
<path d="M7.06216 2.46072C7.25577 2.82274 7.11924 3.27317 6.75718 3.46678C6.39512 3.66038 5.94473 3.52381 5.75113 3.1618L5.07066 1.88934C4.87706 1.52728 5.01358 1.07689 5.37564 0.883282C5.7377 0.689679 6.18809 0.826202 6.38169 1.18826L7.06216 2.46072ZM19.6248 0.883282C19.2627 0.689679 18.8123 0.826202 18.6187 1.18826L17.9382 2.46072C17.7446 2.82274 17.8812 3.27317 18.2432 3.46678C18.6053 3.66038 19.0557 3.52381 19.2493 3.1618L19.9297 1.88934C20.1233 1.52733 19.9868 1.07689 19.6248 0.883282Z" fill="#465A61"/>
<path d="M8.82277 2.14788C9.33146 3.0991 8.7799 4.38568 7.59089 5.02152C6.40187 5.65736 5.02561 5.40169 4.51696 4.45047C4.00832 3.49925 4.55983 2.21268 5.74885 1.57684C6.93786 0.940999 8.31413 1.19666 8.82277 2.14788ZM19.2512 1.57684C20.4402 2.21268 20.9917 3.49925 20.4831 4.45047C19.9744 5.40169 18.5982 5.65736 17.4091 5.02152C16.2201 4.38568 15.6686 3.0991 16.1773 2.14788C16.6859 1.19666 18.0622 0.940999 19.2512 1.57684Z" fill="#7A8C98"/>
<path d="M8.4511 4.16132C8.52649 4.12098 8.59929 4.07801 8.66946 4.0327C8.42473 4.42264 8.0571 4.7722 7.59089 5.02152C6.40188 5.65736 5.02561 5.4017 4.51696 4.45048C4.04055 3.55956 4.49421 2.37455 5.53049 1.70546C5.1511 2.31005 5.06794 3.012 5.37717 3.59027C5.88586 4.54149 7.26208 4.79716 8.4511 4.16132ZM19.2018 1.55175C18.0243 0.948865 16.6789 1.2098 16.1773 2.14789C15.6686 3.09911 16.2201 4.38568 17.4092 5.02152C17.7896 5.22499 18.1892 5.33671 18.5734 5.36405C18.557 5.3556 18.5405 5.34769 18.524 5.3389C17.335 4.70306 16.7835 3.41649 17.2922 2.46527C17.6381 1.81844 18.3852 1.49369 19.2018 1.55175Z" fill="#596C76"/>
<path d="M20.7487 21.8913C20.3241 22.2646 19.874 22.6094 19.4013 22.9229C19.1633 22.8716 18.9401 22.7433 18.7738 22.5395L16.6506 19.9378L19.2681 18.6219L20.632 21.335C20.7209 21.512 20.7582 21.7036 20.7487 21.8913ZM4.36839 21.335C4.27943 21.512 4.24217 21.7036 4.25169 21.8913C4.6763 22.2646 5.1264 22.6094 5.59906 22.9229C5.83704 22.8716 6.06029 22.7433 6.22655 22.5395L8.34979 19.9378L5.73221 18.6219L4.36839 21.335Z" fill="#465A61"/>
<path d="M22.5586 12.5C22.5586 18.0552 18.0552 22.5586 12.5 22.5586C6.94478 22.5586 2.44141 18.0552 2.44141 12.5C2.44141 6.94478 6.94478 2.44141 12.5 2.44141C18.0552 2.44141 22.5586 6.94478 22.5586 12.5Z" fill="#596C76"/>
<path d="M14.0869 22.4335C13.5699 22.5155 13.04 22.5586 12.5 22.5586C6.94478 22.5586 2.44141 18.0552 2.44141 12.5C2.44141 6.94478 6.94478 2.44141 12.5 2.44141C13.04 2.44141 13.5699 2.48447 14.0869 2.56646C9.28579 3.32744 5.61523 7.48481 5.61523 12.5C5.61523 17.5152 9.28579 21.6726 14.0869 22.4335Z" fill="#465A61"/>
<path d="M21.0938 12.5C21.0938 17.2462 17.2462 21.0938 12.5 21.0938C7.75381 21.0938 3.90625 17.2462 3.90625 12.5C3.90625 7.75381 7.75381 3.90625 12.5 3.90625C17.2462 3.90625 21.0938 7.75381 21.0938 12.5Z" fill="#FFF5F5"/>
<path d="M9.9231 20.7004C6.43594 19.6057 3.90625 16.3484 3.90625 12.5C3.90625 8.65161 6.43594 5.39429 9.9231 4.29956C7.42939 5.97476 5.76172 9.02036 5.76172 12.5C5.76172 15.9796 7.42939 19.0252 9.9231 20.7004Z" fill="#FFE7BF"/>
<path d="M13.2812 19.336C13.2812 19.7674 12.9315 20.1172 12.5 20.1172C12.0685 20.1172 11.7188 19.7674 11.7188 19.336C11.7188 18.9045 12.0685 18.5547 12.5 18.5547C12.9315 18.5547 13.2812 18.9045 13.2812 19.336ZM5.61523 11.67C5.18374 11.67 4.83398 12.0197 4.83398 12.4512C4.83398 12.8827 5.18374 13.2325 5.61523 13.2325C6.04673 13.2325 6.39648 12.8827 6.39648 12.4512C6.39648 12.0197 6.04673 11.67 5.61523 11.67ZM19.3848 11.67C18.9533 11.67 18.6035 12.0197 18.6035 12.4512C18.6035 12.8827 18.9533 13.2325 19.3848 13.2325C19.8163 13.2325 20.166 12.8827 20.166 12.4512C20.166 12.0197 19.8163 11.67 19.3848 11.67ZM7.0793 7.03051C6.77422 7.33563 6.77422 7.83026 7.0793 8.13534C7.38437 8.44047 7.87905 8.44047 8.18413 8.13534C8.48926 7.83026 8.48926 7.33558 8.18413 7.03051C7.87905 6.72543 7.38442 6.72543 7.0793 7.03051ZM16.8158 16.767C16.5107 17.0722 16.5107 17.5668 16.8158 17.8719C17.1209 18.177 17.6156 18.177 17.9207 17.8719C18.2257 17.5668 18.2257 17.0721 17.9207 16.767C17.6156 16.462 17.1209 16.462 16.8158 16.767ZM7.0793 16.767C6.77422 17.0722 6.77422 17.5668 7.0793 17.8719C7.38437 18.177 7.87905 18.177 8.18413 17.8719C8.48926 17.5668 8.48926 17.0721 8.18413 16.767C7.87905 16.462 7.38442 16.462 7.0793 16.767ZM16.8158 7.03051C16.5107 7.33563 16.5107 7.83026 16.8158 8.13534C17.1209 8.44047 17.6156 8.44047 17.9207 8.13534C18.2257 7.83026 18.2257 7.33558 17.9207 7.03051C17.6156 6.72543 17.1209 6.72543 16.8158 7.03051Z" fill="#F8BB5E"/>
<path d="M13.6719 12.4512C13.6719 12.8557 13.3439 13.1836 12.9395 13.1836H8.05664C7.65215 13.1836 7.32422 12.8557 7.32422 12.4512C7.32422 12.0467 7.65215 11.7188 8.05664 11.7188H11.7188V5.61523C11.7188 5.21074 12.0467 4.88281 12.4512 4.88281C12.8557 4.88281 13.1836 5.21074 13.1836 5.61523V11.7613C13.4679 11.862 13.6719 12.1324 13.6719 12.4512Z" fill="#EA4444"/>
<path d="M14.2578 12.5C14.2578 13.4708 13.4708 14.2578 12.5 14.2578C11.5292 14.2578 10.7422 13.4708 10.7422 12.5C10.7422 11.5292 11.5292 10.7422 12.5 10.7422C13.4708 10.7422 14.2578 11.5292 14.2578 12.5Z" fill="#9FACBA"/>
</svg>
