<svg width="25" height="25" viewBox="0 0 25 25" fill="none" xmlns="http://www.w3.org/2000/svg">
<path d="M12.5 25C19.4036 25 25 19.4036 25 12.5C25 5.59644 19.4036 0 12.5 0C5.59644 0 0 5.59644 0 12.5C0 19.4036 5.59644 25 12.5 25Z" fill="#3AAAFF"/>
<path d="M8.60447 24.3801C9.83049 24.7819 11.1397 25 12.5 25C19.4035 25 25 19.4035 25 12.5C25 10.9716 24.7252 9.50759 24.2232 8.15388L22.6204 6.5511L21.8922 11.1285L17.7067 6.94304L8.63396 10.436L4.57434 6.37634L4.52986 7.39871L3.5075 6.37634L3.4344 7.42312L2.38767 6.37639L2.19983 10.6925L3.46677 11.9594L2.63318 18.6849L8.60447 24.3801Z" fill="#1889DF"/>
<path d="M12.5005 20.1147C16.706 20.1147 20.1152 16.7055 20.1152 12.5C20.1152 8.29449 16.706 4.88525 12.5005 4.88525C8.29498 4.88525 4.88574 8.29449 4.88574 12.5C4.88574 16.7055 8.29498 20.1147 12.5005 20.1147Z" fill="white"/>
<path d="M12.5005 4.88519C12.4949 4.88519 12.4893 4.88539 12.4838 4.88539V20.1145C12.4893 20.1145 12.4949 20.1147 12.5005 20.1147C16.706 20.1147 20.1153 16.7055 20.1153 12.4999C20.1153 8.29442 16.706 4.88519 12.5005 4.88519Z" fill="#E0E0E0"/>
<path d="M12.5005 16.9297C14.9469 16.9297 16.9302 14.9464 16.9302 12.5C16.9302 10.0536 14.9469 8.07031 12.5005 8.07031C10.054 8.07031 8.0708 10.0536 8.0708 12.5C8.0708 14.9464 10.054 16.9297 12.5005 16.9297Z" fill="#E0E0E0"/>
<path d="M12.5005 8.0705C12.4949 8.0705 12.4893 8.07069 12.4838 8.07069V16.9293C12.4893 16.9293 12.4949 16.9295 12.5005 16.9295C14.9468 16.9295 16.93 14.9463 16.93 12.5C16.93 10.0537 14.9468 8.0705 12.5005 8.0705Z" fill="#C0C0C0"/>
<path d="M21.7457 6.17687C21.141 6.19836 20.6704 6.71374 20.6704 7.31886V18.8239H22.0311V13.6356C22.5123 13.6356 22.9023 13.2455 22.9023 12.7643V7.2921C22.9023 6.66227 22.3806 6.15431 21.7457 6.17687Z" fill="#FFD863"/>
<path d="M3.9939 18.6849V10.9204C4.31914 10.8919 4.57437 10.6192 4.57437 10.2866V6.3764H4.2394V9.22767C4.2394 9.40428 4.09624 9.54745 3.91963 9.54745H3.8273C3.65068 9.54745 3.50752 9.40428 3.50752 9.22767V6.3764H3.11958V9.22767C3.11958 9.40428 2.97642 9.54745 2.7998 9.54745H2.70747C2.53086 9.54745 2.3877 9.40428 2.3877 9.22767V6.3764H2.05273V10.2866C2.05273 10.6192 2.30796 10.8919 2.6332 10.9204V18.6848L3.9939 18.6849Z" fill="#FFECB3"/>
</svg>
