<svg width="25" height="18" viewBox="0 0 25 18" fill="none" xmlns="http://www.w3.org/2000/svg">
<path d="M0.356477 5.32922C0.316857 5.36884 0.237618 5.44808 0.197998 5.52732C0.237618 5.60656 0.277237 5.64618 0.356477 5.72542C0.831912 6.20086 1.58469 6.20086 2.0205 5.72542C7.80497 -0.0590481 17.1552 -0.0590481 22.9397 5.72542C23.1774 5.96314 23.4944 6.082 23.7717 6.082C24.049 6.082 24.366 5.96314 24.6037 5.72542C24.6433 5.6858 24.7226 5.60656 24.7622 5.52732C24.7226 5.44808 24.6829 5.40846 24.6037 5.32922C17.908 -1.3665 7.0522 -1.3665 0.356477 5.32922Z" fill="#0093F7"/>
<path d="M4.51663 9.52893C4.47701 9.56855 4.39777 9.64779 4.35815 9.72703C4.39777 9.80626 4.43739 9.84588 4.51663 9.92512C4.99207 10.4006 5.74484 10.4006 6.18066 9.92512C9.66719 6.43859 15.2932 6.43859 18.7797 9.92512C19.0174 10.1628 19.3344 10.2817 19.6117 10.2817C19.8891 10.2817 20.206 10.1628 20.4437 9.92512C20.4834 9.8855 20.5626 9.80626 20.6022 9.72703C20.5626 9.64779 20.523 9.60817 20.4437 9.52893C16.046 5.13115 8.91441 5.13115 4.51663 9.52893Z" fill="#0093F7"/>
<path d="M8.79556 13.5305C8.75594 13.5701 8.6767 13.6493 8.63708 13.7286C8.6767 13.8078 8.71632 13.8474 8.79556 13.9267C9.271 14.4021 10.0238 14.4021 10.4596 13.9267C11.5689 12.8173 13.3914 12.8173 14.5008 13.9267C14.7385 14.1644 15.0555 14.2832 15.3328 14.2832C15.6101 14.2832 15.9271 14.1644 16.1648 13.9267C16.2044 13.887 16.2837 13.8078 16.3233 13.7286C16.2837 13.6493 16.2441 13.6097 16.1648 13.5305C14.1442 11.4702 10.8162 11.4702 8.79556 13.5305Z" fill="#0093F7"/>
<path d="M12.48 16.8586C12.0838 16.8586 11.6876 17.0567 11.4895 17.3736C11.6876 17.6906 12.0838 17.8887 12.48 17.8887C12.8762 17.8887 13.2724 17.6906 13.4705 17.3736C13.2724 17.0963 12.8762 16.8586 12.48 16.8586Z" fill="#0093F7"/>
</svg>
