<svg width="25" height="25" viewBox="0 0 25 25" fill="none" xmlns="http://www.w3.org/2000/svg">
<path d="M12.5 0C5.62992 0 0 5.62992 0 12.5C0 19.3701 5.62992 25 12.5 25C19.3701 25 25 19.3701 25 12.5C25 5.62992 19.3701 0 12.5 0Z" fill="#E2E2E7"/>
<path d="M23.5352 12.5C23.5352 18.5644 18.5644 23.5352 12.5 23.5352C6.43559 23.5352 1.46484 18.5644 1.46484 12.5C1.46484 6.43559 6.43559 1.46484 12.5 1.46484C18.5644 1.46484 23.5352 6.43559 23.5352 12.5Z" fill="#3AAAFF"/>
<path d="M25 12.5C25 19.3701 19.3701 25 12.5 25V0C19.3701 0 25 5.62992 25 12.5Z" fill="#D3D3D8"/>
<path d="M23.5352 12.5C23.5352 18.5644 18.5644 23.5352 12.5 23.5352V1.46484C18.5644 1.46484 23.5352 6.43559 23.5352 12.5Z" fill="#0095FF"/>
<path d="M18.2714 9.35059C17.832 6.93359 15.6055 5.17578 12.9835 5.17578H8.10547V20.5566H11.0352V15.4297H13.2324C14.7558 15.4297 16.1915 14.7558 17.1728 13.5839C18.1396 12.4121 18.5497 10.874 18.2714 9.35059ZM13.2324 12.5H11.0352V8.10547H13.2324C14.4484 8.10547 15.4297 9.0868 15.4297 10.3027C15.4297 11.5187 14.4484 12.5 13.2324 12.5Z" fill="#E2E2E7"/>
<path d="M17.1728 13.5839C16.1915 14.7558 14.7558 15.4297 13.2324 15.4297H12.5V12.5H13.2324C14.4484 12.5 15.4297 11.5187 15.4297 10.3027C15.4297 9.0868 14.4484 8.10547 13.2324 8.10547H12.5V5.17578H12.9835C15.6055 5.17578 17.832 6.93359 18.2714 9.35059C18.5497 10.874 18.1396 12.4121 17.1728 13.5839Z" fill="#D3D3D8"/>
</svg>
