<svg width="25" height="25" viewBox="0 0 25 25" fill="none" xmlns="http://www.w3.org/2000/svg">
<path d="M25 12.5C25 13.2574 24.9327 13.999 24.8032 14.7192C24.7114 15.2325 24.5884 15.7343 24.436 16.2237C22.851 21.3085 18.1065 25 12.5 25C6.89354 25 2.14901 21.3085 0.564003 16.2237C0.411606 15.7343 0.288582 15.2325 0.196838 14.7192C0.0673294 13.999 0 13.2574 0 12.5C0 5.59673 5.59673 0 12.5 0C19.4033 0 25 5.59673 25 12.5Z" fill="#65B2FF"/>
<path d="M25 12.5C25 13.2578 24.9327 13.9999 24.8032 14.7207C24.7154 15.2094 24.5996 15.6885 24.4566 16.1558C24.4068 16.3183 24.354 16.4795 24.2979 16.6388C24.1978 16.9239 24.0879 17.2041 23.9683 17.4789C23.9502 17.5209 23.9321 17.5621 23.9136 17.6035C23.7837 17.894 23.6425 18.1791 23.4917 18.4576C23.3154 18.7817 23.1255 19.0971 22.9223 19.4033C22.7016 19.7359 22.4653 20.0571 22.2143 20.3663C21.9107 20.7417 21.5849 21.0987 21.2397 21.4361C20.8393 21.8281 20.4121 22.1933 19.9619 22.5288C19.3365 22.9952 18.6655 23.4043 17.9575 23.7486C16.3086 24.5502 14.4566 25 12.5 25C12.1191 25 11.7422 24.9828 11.3701 24.9496C6.75297 24.5356 2.85892 21.6114 1.06297 17.5512C1.05228 17.5274 1.04198 17.5034 1.03168 17.4789C0.912094 17.2041 0.801849 16.9239 0.701714 16.6388C0.477982 16.0009 0.304604 15.3393 0.185967 14.6591C0.0635147 13.9576 0 13.2362 0 12.5C0 10.2432 0.598145 8.12645 1.64452 6.29883C3.79887 10.062 7.85351 12.5977 12.5 12.5977C17.1465 12.5977 21.2017 10.062 23.3555 6.29883C24.4019 8.12645 25 10.2432 25 12.5Z" fill="#0F9BE8"/>
<path d="M24.2979 16.6387C24.1977 16.9239 24.0879 17.2041 23.9683 17.4789C23.9501 17.5209 23.932 17.5621 23.9135 17.6035C23.7836 17.894 23.6425 18.1791 23.4916 18.4576C23.3154 18.7816 23.1254 19.0971 22.9223 19.4033C22.7016 19.7359 22.4653 20.0571 22.2143 20.3663C21.9106 20.7416 21.5848 21.0987 21.2396 21.4361C20.8393 21.8281 20.412 22.1933 19.9619 22.5288C19.3365 22.9952 18.6655 23.4043 17.9574 23.7486C16.3085 24.5502 14.4565 25 12.4999 25C12.119 25 11.7422 24.9828 11.37 24.9496C6.75291 24.5355 2.85887 21.6114 1.06291 17.5512C1.05223 17.5274 1.04193 17.5033 1.03163 17.4789C0.912041 17.2041 0.801796 16.9239 0.70166 16.6387C1.9052 16.5233 2.01163 15.7642 3.41105 15.7642C4.92567 15.7642 4.92567 16.6532 6.4403 16.6532C7.9555 16.6532 7.9555 15.7642 9.47012 15.7642C10.9847 15.7642 10.9847 16.6532 12.4994 16.6532C14.0142 16.6532 14.0142 15.7642 15.5292 15.7642C17.0438 15.7642 17.0438 16.6532 18.5584 16.6532C20.0736 16.6532 20.0736 15.7642 21.5883 15.7642C22.9883 15.7642 23.0941 16.5233 24.2979 16.6387Z" fill="white"/>
<path d="M23.9684 17.4789C23.9502 17.5209 23.9321 17.5621 23.9136 17.6035C23.7837 17.894 23.6426 18.1791 23.4917 18.4576C23.3155 18.7816 23.1255 19.0971 22.9224 19.4032C22.7017 19.7359 22.4654 20.0571 22.2144 20.3663C21.9107 20.7416 21.5849 21.0987 21.2397 21.4361C20.8394 21.828 20.4121 22.1933 19.962 22.5288C19.3366 22.9952 18.6656 23.4043 17.9576 23.7486C16.3086 24.5502 14.4566 25 12.5001 25C12.1192 25 11.7423 24.9828 11.3701 24.9496C6.75302 24.5355 2.85898 21.6114 1.06302 17.5512C1.05234 17.5274 1.04204 17.5033 1.03174 17.4789C1.93945 17.272 2.15135 16.6572 3.41116 16.6572C4.92578 16.6572 4.92578 17.5459 6.44041 17.5459C7.9556 17.5459 7.9556 16.6572 9.47023 16.6572C10.9849 16.6572 10.9849 17.5459 12.4995 17.5459C14.0143 17.5459 14.0143 16.6572 15.5293 16.6572C17.0439 16.6572 17.0439 17.5459 18.5586 17.5459C20.0738 17.5459 20.0738 16.6572 21.5884 16.6572C22.8488 16.6572 23.0601 17.2723 23.9684 17.4789Z" fill="#68FCDF"/>
<path d="M1.50122 18.4425C1.85065 19.088 2.25462 19.6993 2.70819 20.2699C4.99815 23.1517 8.53342 25 12.5001 25C16.4669 25 20.0021 23.1517 22.2921 20.2699C22.7457 19.6993 23.1496 19.088 23.4991 18.4425H1.50122Z" fill="#FFA87A"/>
<path d="M2.78271 20.3613C4.85219 22.9158 7.90738 24.6395 11.3704 24.9496C11.7425 24.9828 12.1194 25 12.5003 25C12.7478 25 12.9945 24.9928 13.2386 24.9784C13.3563 24.9718 13.473 24.9634 13.5892 24.9531C13.6248 24.9502 13.6609 24.9468 13.696 24.9434C13.7259 24.9409 13.7557 24.938 13.7854 24.9346C13.8392 24.9292 13.8928 24.9233 13.9466 24.917C13.9861 24.9126 14.0256 24.9077 14.0653 24.9029C14.1663 24.8901 14.2669 24.8764 14.367 24.8613C14.4124 24.8545 14.4578 24.8476 14.5032 24.8404C14.5539 24.832 14.6052 24.8238 14.656 24.815C14.7132 24.8047 14.7698 24.7944 14.8265 24.7837C14.869 24.7759 14.911 24.7675 14.9529 24.7593C15.0262 24.7446 15.0994 24.7295 15.1727 24.7133C15.2165 24.7042 15.26 24.6943 15.3035 24.6841C15.3787 24.667 15.4538 24.6489 15.5291 24.6304C15.5799 24.6178 15.6306 24.605 15.681 24.5913C15.6825 24.5913 15.6844 24.5909 15.6863 24.5899C15.7248 24.58 15.7634 24.5699 15.8021 24.559C15.845 24.5474 15.8875 24.5356 15.9299 24.5234C15.9758 24.5108 16.0218 24.497 16.0672 24.4835C16.1116 24.4701 16.1561 24.457 16.2005 24.4434C16.2497 24.4278 16.2986 24.4125 16.347 24.3969C16.3514 24.3956 16.3558 24.394 16.3602 24.3925C16.4021 24.379 16.4437 24.3652 16.4847 24.3511C16.5017 24.3458 16.5183 24.3399 16.5349 24.3345C16.5789 24.3193 16.6228 24.3042 16.6663 24.2886C16.6757 24.2857 16.6848 24.2823 16.6936 24.2788C16.7333 24.2651 16.7722 24.251 16.8113 24.2363C16.8294 24.23 16.8475 24.2231 16.8651 24.2163C16.9104 24.1997 16.9553 24.1827 17.0009 24.165C17.0047 24.1636 17.0091 24.1621 17.0131 24.1602C17.0657 24.1402 17.118 24.1192 17.1702 24.0982C17.2156 24.0801 17.2604 24.0616 17.3055 24.0425C17.3743 24.0141 17.4426 23.9849 17.5105 23.9552C17.5559 23.9351 17.6013 23.9151 17.6463 23.8945C17.6967 23.872 17.7468 23.8487 17.7966 23.8256C17.8 23.8237 17.8031 23.8222 17.8059 23.8213C17.8567 23.7974 17.9074 23.773 17.9578 23.7486C19.616 22.9425 21.0683 21.78 22.2176 20.3613H2.78271Z" fill="#ED771B"/>
<path d="M7.05713 7.87376L7.06495 15.1497L7.07239 20.3667L7.80481 20.3657L7.79737 15.1497L7.78955 7.8728L7.05713 7.87376Z" fill="#535E89"/>
<path d="M7.05713 7.87376L7.06495 15.1497H7.79737L7.78955 7.8728L7.05713 7.87376Z" fill="#323B5A"/>
<path d="M1.4917 13.8184C1.80222 13.3263 2.35058 12.9992 2.97543 12.9986C3.59436 12.9978 4.13891 13.3177 4.4521 13.8012C4.45496 13.8058 4.45801 13.8106 4.46087 13.8151C4.77139 13.323 5.31975 12.9959 5.9446 12.9952C6.56964 12.9946 7.11857 13.3204 7.43023 13.8117C7.74075 13.3198 8.28911 12.9927 8.91396 12.9919C9.53881 12.9912 10.0877 13.3171 10.3994 13.8083C10.3994 13.8085 10.3994 13.8085 10.3994 13.8085C10.7101 13.3164 11.2583 12.9893 11.8831 12.9887C12.5082 12.9879 13.0571 13.3139 13.3688 13.8052C13.3653 10.6505 10.9026 8.07307 7.79625 7.88424C7.67304 7.8768 7.54887 7.87298 7.42375 7.87318C7.29519 7.87337 7.16759 7.87756 7.04113 7.88576C3.93979 8.08642 1.48827 10.6671 1.4917 13.8184Z" fill="#FF3445"/>
<path d="M4.45215 13.8013C4.45501 13.8058 4.45806 13.8106 4.46092 13.8152C4.77144 13.3231 5.3198 12.996 5.94465 12.9952C6.56969 12.9946 7.11862 13.3206 7.43028 13.8119L7.42361 7.87341C7.29524 7.87341 7.16764 7.8778 7.04118 7.886C5.50043 9.4012 4.52329 11.4875 4.45215 13.8013Z" fill="#DD1265"/>
<path d="M1.4917 13.8183C1.80222 13.3262 2.35058 12.9991 2.97543 12.9985C3.59436 12.9977 4.13891 13.3176 4.4521 13.8011C4.52324 11.4873 5.50038 9.40106 7.04113 7.88586C3.93979 8.08633 1.48827 10.667 1.4917 13.8183Z" fill="#FF3445"/>
<path d="M7.7959 7.8844C9.34352 9.39922 10.3262 11.4889 10.3992 13.8084C10.7099 13.3165 11.2581 12.9892 11.883 12.9887C12.508 12.9879 13.0569 13.3139 13.3686 13.8052C13.365 10.6506 10.9024 8.07323 7.7959 7.8844Z" fill="#DD1265"/>
<path d="M23.4917 18.4576C23.3155 18.7817 23.1255 19.0972 22.9224 19.4033C22.7017 19.7359 22.4654 20.0571 22.2143 20.3663C21.9107 20.7417 21.5849 21.0987 21.2397 21.4362C20.8393 21.8281 20.4121 22.1934 19.962 22.5289C19.3365 22.9952 18.6655 23.4044 17.9575 23.7486C17.9072 23.773 17.8564 23.7975 17.8057 23.8213C17.8028 23.8223 17.7998 23.8238 17.7964 23.8257C17.7466 23.8488 17.6964 23.872 17.6461 23.8945C17.601 23.9151 17.5556 23.9352 17.5103 23.9552C17.4942 23.9619 17.4786 23.9693 17.4624 23.9762C17.4311 23.9893 17.4 24.0029 17.3687 24.0162C17.3477 24.025 17.3262 24.0338 17.3052 24.0425C17.2602 24.0616 17.2154 24.0801 17.17 24.0982C17.1177 24.1192 17.0655 24.1402 17.0128 24.1602C17.0088 24.1621 17.0044 24.1637 17.0006 24.165C16.955 24.1827 16.9102 24.1997 16.8648 24.2163C16.8473 24.2232 16.8291 24.23 16.811 24.2363C16.7719 24.251 16.733 24.2651 16.6933 24.2789C16.6846 24.2823 16.6754 24.2857 16.6661 24.2886C16.6226 24.3042 16.5787 24.3193 16.5346 24.3346C16.5181 24.3399 16.5015 24.3458 16.4845 24.3512C16.4435 24.3653 16.4019 24.379 16.3599 24.3925C16.3555 24.3941 16.3512 24.3956 16.3468 24.3969C16.2983 24.4126 16.2495 24.4278 16.2003 24.4435C16.1558 24.457 16.1114 24.4702 16.067 24.4835C16.0216 24.4971 15.9756 24.5108 15.9296 24.5234C15.9258 24.5245 15.9214 24.5259 15.9174 24.5268C15.8829 24.5367 15.8486 24.5465 15.8135 24.5556C15.8097 24.5572 15.8057 24.5581 15.8018 24.5591C15.7631 24.5699 15.7246 24.58 15.6861 24.59C15.6842 24.5909 15.6823 24.5913 15.6807 24.5913C15.6754 24.5928 15.6695 24.5943 15.6641 24.5957C15.6191 24.6079 15.5737 24.6191 15.5289 24.6304C15.4839 24.6416 15.4391 24.6523 15.3941 24.6632C15.3662 24.6699 15.3389 24.6764 15.3111 24.6821C15.3086 24.6832 15.3057 24.6836 15.3033 24.6842C15.2598 24.6943 15.2163 24.7042 15.1724 24.7134C15.1318 24.7221 15.0914 24.7309 15.0507 24.7393C15.021 24.7456 14.9918 24.7515 14.962 24.7574C14.959 24.7578 14.9556 24.7588 14.9527 24.7593C14.9107 24.7675 14.8688 24.7759 14.8262 24.7837C14.7696 24.7944 14.7129 24.8047 14.6557 24.815C14.605 24.8238 14.5537 24.832 14.5029 24.8404C14.4644 24.8467 14.4263 24.8526 14.3877 24.8579C14.3809 24.8595 14.3736 24.8604 14.3668 24.8614C14.3618 24.8619 14.3574 24.8629 14.3526 24.8633C14.3105 24.8696 14.2691 24.8755 14.2271 24.8814C14.2203 24.8824 14.214 24.8833 14.2075 24.8839C14.1655 24.8902 14.123 24.8955 14.081 24.9009C14.0757 24.9014 14.0704 24.9024 14.065 24.903C14.0253 24.9077 13.9859 24.9127 13.9464 24.9171C13.8926 24.9234 13.839 24.9293 13.7852 24.9346C13.7636 24.9371 13.7423 24.9396 13.7207 24.9409C13.7123 24.9419 13.7041 24.9428 13.6957 24.9434C13.6607 24.9468 13.6246 24.9503 13.5889 24.9531C13.4728 24.9634 13.3555 24.9718 13.2384 24.9785C12.9942 24.9928 12.7476 25 12.5 25C12.1191 25 11.7422 24.9829 11.3701 24.9497L11.607 23.7486L11.8471 22.5289L12.0625 21.4362L12.2731 20.3663L12.4628 19.4033L12.649 18.4576H23.4917Z" fill="#9E69E2"/>
<path d="M22.9222 19.4032C22.7016 19.7358 22.4652 20.057 22.2142 20.3662H12.2729L12.4627 19.4032H22.9222Z" fill="#FFE955"/>
<path d="M21.2397 21.4362C20.8394 21.8281 20.4121 22.1934 19.962 22.5289H11.8472L12.0625 21.4362H21.2397Z" fill="#FFE955"/>
<path d="M17.9575 23.7487C17.9072 23.7731 17.8564 23.7975 17.8057 23.8213C17.8028 23.8223 17.7998 23.8238 17.7964 23.8257C17.7466 23.8488 17.6964 23.8721 17.6461 23.8946C17.601 23.9152 17.5556 23.9352 17.5103 23.9552C17.4942 23.9619 17.4786 23.9693 17.4624 23.9762C17.4311 23.9894 17.4 24.0029 17.3687 24.0163C17.3477 24.025 17.3262 24.0338 17.3052 24.0426C17.2602 24.0617 17.2154 24.0802 17.17 24.0983C17.1177 24.1193 17.0655 24.1402 17.0128 24.1603C17.0088 24.1622 17.0044 24.1637 17.0006 24.165C16.955 24.1828 16.9102 24.1997 16.8648 24.2163C16.8473 24.2232 16.8291 24.2301 16.811 24.2364C16.7719 24.2511 16.733 24.2652 16.6933 24.2789C16.6846 24.2823 16.6754 24.2858 16.6661 24.2886C16.6226 24.3043 16.5787 24.3193 16.5346 24.3346C16.5181 24.3399 16.5015 24.3458 16.4845 24.3512C16.4435 24.3653 16.4019 24.379 16.3599 24.3926C16.3555 24.3941 16.3512 24.3956 16.3468 24.397C16.2983 24.4126 16.2495 24.4279 16.2003 24.4435C16.1558 24.457 16.1114 24.4702 16.067 24.4836C16.0216 24.4971 15.9756 24.5108 15.9296 24.5234C15.9258 24.5246 15.9214 24.5259 15.9174 24.5269C15.8829 24.5368 15.8486 24.5465 15.8135 24.5557C15.8097 24.5572 15.8057 24.5581 15.8018 24.5591C15.7631 24.57 15.7246 24.5801 15.6861 24.59C15.6842 24.5909 15.6823 24.5913 15.6807 24.5913C15.6754 24.5928 15.6695 24.5944 15.6641 24.5957C15.6191 24.6079 15.5737 24.6192 15.5289 24.6304C15.4839 24.6417 15.4391 24.6524 15.3941 24.6632C15.3662 24.6695 15.3389 24.6758 15.3111 24.6821C15.3086 24.6833 15.3057 24.6836 15.3033 24.6842C15.2598 24.6943 15.2163 24.7042 15.1724 24.7134C15.1318 24.7222 15.0914 24.7309 15.0507 24.7393C15.021 24.7456 14.9918 24.7515 14.962 24.7575C14.959 24.7578 14.9556 24.7588 14.9527 24.7594C14.9107 24.7676 14.8688 24.776 14.8262 24.7838C14.7696 24.7945 14.7129 24.8048 14.6557 24.8151C14.605 24.8238 14.5537 24.832 14.5029 24.8404C14.4644 24.8467 14.4263 24.8526 14.3877 24.858C14.3809 24.8595 14.3736 24.8605 14.3668 24.8614C14.3618 24.862 14.3574 24.8629 14.3526 24.8633C14.3105 24.8696 14.2691 24.8755 14.2271 24.8814C14.2203 24.8824 14.214 24.8833 14.2075 24.8839C14.1655 24.8902 14.123 24.8955 14.081 24.9009C14.0757 24.9015 14.0704 24.9024 14.065 24.903C14.0253 24.9078 13.9859 24.9127 13.9464 24.9171C13.8926 24.9234 13.839 24.9293 13.7852 24.9346C13.7636 24.9371 13.7423 24.9396 13.7207 24.9409C13.7123 24.9419 13.7041 24.9428 13.6957 24.9434C13.6607 24.9469 13.6246 24.9503 13.5889 24.9531C13.4728 24.9634 13.3555 24.9718 13.2384 24.9785C12.9942 24.9928 12.7476 25.0001 12.5 25.0001C12.1191 25.0001 11.7422 24.9829 11.3701 24.9497L11.607 23.7487H17.9575Z" fill="#FFE955"/>
<path d="M10.9815 3.94971C10.9815 3.94685 10.9817 3.94398 10.9817 3.94112C10.9817 3.41126 10.5523 2.98192 10.0226 2.98192C9.89675 2.98192 9.77678 3.00633 9.66653 3.05058C9.45387 2.66949 9.04703 2.41162 8.57973 2.41162C7.97281 2.41162 7.46755 2.84631 7.35788 3.42118C7.32507 3.4166 7.29169 3.41393 7.25774 3.41393C6.92777 3.41393 6.65121 3.64243 6.57739 3.94971H10.9815Z" fill="white"/>
<path d="M10.0458 3.94975C10.0458 3.94803 10.046 3.94631 10.046 3.94479C10.046 3.64018 9.79895 3.39318 9.49435 3.39318C9.42206 3.39318 9.35301 3.4073 9.28969 3.43266C9.16743 3.21351 8.9334 3.06531 8.66465 3.06531C8.3158 3.06531 8.02531 3.31517 7.96217 3.64571C7.94329 3.64304 7.92403 3.64171 7.90457 3.64171C7.71479 3.64171 7.55572 3.77293 7.51318 3.94975H10.0458Z" fill="#D0F6FF"/>
<path d="M21.9785 11.228C21.9785 11.2251 21.9787 11.2222 21.9787 11.2194C21.9787 10.6897 21.5491 10.2604 21.0195 10.2604C20.8938 10.2604 20.7736 10.2848 20.6636 10.3288C20.4509 9.94775 20.0439 9.69006 19.5766 9.69006C18.9696 9.69006 18.4646 10.1246 18.3547 10.6996C18.3221 10.6949 18.2885 10.6924 18.2546 10.6924C17.9246 10.6924 17.6482 10.9207 17.5742 11.228H21.9785Z" fill="white"/>
<path d="M21.0426 11.228C21.0426 11.2263 21.0428 11.2248 21.0428 11.223C21.0428 10.9184 20.796 10.6716 20.4914 10.6716C20.4189 10.6716 20.3499 10.6856 20.2868 10.7109C20.1643 10.4918 19.9305 10.3436 19.6615 10.3436C19.3127 10.3436 19.0222 10.5934 18.9591 10.9242C18.9402 10.9215 18.9209 10.92 18.9015 10.92C18.7117 10.92 18.5528 11.0514 18.5103 11.228H21.0426Z" fill="#D0F6FF"/>
<path d="M20.2744 5.72742C20.2744 5.72456 20.2746 5.72169 20.2746 5.71864C20.2746 5.18897 19.8453 4.75963 19.3156 4.75963C19.1897 4.75963 19.0697 4.78404 18.9595 4.82829C18.7468 4.4472 18.34 4.18933 17.8727 4.18933C17.2658 4.18933 16.7607 4.62402 16.6508 5.19889C16.618 5.19431 16.5847 5.19164 16.5507 5.19164C16.2207 5.19164 15.9442 5.42014 15.8704 5.72742H20.2744Z" fill="white"/>
<path d="M19.3387 5.72746C19.3387 5.72574 19.3389 5.72402 19.3389 5.7225C19.3389 5.41789 19.0919 5.17089 18.7873 5.17089C18.715 5.17089 18.646 5.18501 18.5827 5.21037C18.4604 4.99122 18.2264 4.84302 17.9576 4.84302C17.6086 4.84302 17.3183 5.09288 17.2551 5.42342C17.2363 5.42075 17.217 5.41942 17.1973 5.41942C17.0078 5.41942 16.8487 5.55064 16.8062 5.72746H19.3387Z" fill="#D0F6FF"/>
</svg>
