<svg width="25" height="25" viewBox="0 0 25 25" fill="none" xmlns="http://www.w3.org/2000/svg">
<path d="M25 12.4999C25 19.3596 19.4494 24.9998 12.5 24.9998C5.5687 24.9998 0 19.3766 0 12.4999C0 5.59639 5.59643 0 12.5 0C19.4165 0 25 5.6082 25 12.4999Z" fill="#87DCFA"/>
<path d="M25 12.5001C25 19.3594 19.4494 25 12.5 25C5.56865 25 0 19.3769 0 12.5001C0 12.0526 0.0236818 11.6107 0.0694341 11.1755C0.886335 11.1698 1.70426 11.4003 2.32673 11.8674C2.9425 12.3304 3.74964 12.5619 4.55677 12.5619C5.36288 12.5619 6.16797 12.3309 6.78423 11.8694L6.78785 11.8668C8.0194 10.9434 10.0164 10.944 11.2454 11.8674C11.8611 12.3304 12.6683 12.5619 13.4759 12.5619C14.2815 12.5619 15.0876 12.3309 15.7029 11.8694L15.7065 11.8668C16.938 10.9434 18.934 10.944 20.164 11.8674C20.7802 12.3304 21.5869 12.5619 22.395 12.5619C23.2001 12.5619 24.0062 12.3309 24.6215 11.8694L24.6276 11.8653C24.7362 11.784 24.8509 11.7095 24.9708 11.6426C24.9902 11.926 25 12.212 25 12.5001Z" fill="#46A5CD"/>
<path d="M24.9591 13.5191C24.4416 19.9093 19.1023 25 12.5002 25C6.21289 25 1.04703 20.3733 0.141113 14.3813C0.28672 14.4024 0.434328 14.4132 0.581986 14.4132C1.25074 14.4132 1.92052 14.1945 2.43034 13.7562L2.43342 13.7542C3.45559 12.8771 5.11254 12.8781 6.13266 13.7547C6.64351 14.194 7.31329 14.4132 7.98356 14.4132C8.65231 14.4132 9.32107 14.1945 9.83191 13.7562L9.8345 13.7542C10.8567 12.8771 12.5136 12.8781 13.5342 13.7547C14.0451 14.194 14.7149 14.4132 15.3851 14.4132C16.0539 14.4132 16.7221 14.1945 17.2335 13.7562L17.2361 13.7542C18.2582 12.8771 19.9142 12.8781 20.9353 13.7547C21.4467 14.194 22.1159 14.4132 22.7868 14.4132C23.455 14.4132 24.1237 14.1945 24.6351 13.7562L24.6397 13.7521C24.7404 13.6657 24.8474 13.5881 24.9591 13.5191Z" fill="#6CD0F5"/>
<path d="M19.8025 16.0165C19.3882 16.7853 18.3467 16.9306 17.7377 16.3048L13.519 11.9685C13.0598 11.5094 13.0949 10.7298 13.5974 10.2273C14.0999 9.72478 14.8795 9.68967 15.3387 10.1488L19.5892 14.4997C19.9843 14.9043 20.0708 15.5187 19.8025 16.0165Z" fill="#FA875A"/>
<path d="M15.8584 10.0098L17.4934 8.04224L15.8097 6.52222L13.7845 8.34067C12.8475 8.10273 11.7663 8.30806 11.0595 9.06943C2.07821 17.4765 2.40629 17.0047 2.5039 17.144C3.19443 17.9569 4.09024 20.0812 6.67805 21.1787C8.35776 21.851 8.63217 22.1285 8.80205 21.888C15.4339 12.439 16.4052 11.6037 15.8137 10.7213C15.6673 10.5029 15.6904 10.212 15.8584 10.0098Z" fill="#FFAF82"/>
<path d="M15.8585 10.0098L17.4931 8.04263L16.5416 7.18335L15.2456 9.69141C15.0523 9.92358 15.0253 10.2573 15.1935 10.5086C15.8385 11.4692 14.1595 12.2113 7.56396 21.5548L8.46695 21.9373C8.60499 21.9868 8.72394 21.9974 8.80172 21.8879C15.4338 12.4392 16.4049 11.6036 15.8134 10.7216C15.6666 10.5033 15.6899 10.2115 15.8585 10.0098Z" fill="#FF9B69"/>
<path d="M20.0808 7.49934C19.6267 7.49934 19.6596 7.6196 19.6596 7.82429C19.6596 8.43371 18.4395 7.87956 18.4395 8.5634C18.7462 9.21579 19.1928 9.02072 19.1268 9.32326L18.7821 10.0563V10.0574C18.7103 10.1948 18.5824 10.2938 18.5007 10.3142C18.4713 10.3242 18.2327 10.3497 17.782 10.2126C16.4419 9.77634 15.0416 8.59861 14.6145 8.14621C14.6147 8.14602 14.6145 8.14587 14.6143 8.14587C14.4874 8.00827 14.3706 7.86487 14.257 7.70237C14.257 7.70217 14.257 7.70217 14.2566 7.70202C14.2018 7.62356 14.15 7.54319 14.1011 7.46106C14.1011 7.43723 13.3433 6.36291 13.6353 4.93547C13.841 3.61223 14.9562 2.48352 16.5758 2.49831C16.601 2.49851 16.6261 2.49909 16.6508 2.49963C18.2338 2.54089 19.4911 3.83362 19.5231 5.41677C19.5347 5.98591 19.4911 5.78679 20.3196 7.20056C20.3926 7.34226 20.2667 7.49934 20.0808 7.49934Z" fill="#FFAF82"/>
<path d="M18.7821 10.0574C18.7103 10.1949 18.5825 10.2939 18.5007 10.3143C18.4713 10.3242 18.2327 10.3498 17.7821 10.2126C16.5547 9.83918 15.0793 8.63865 14.6146 8.14627C14.6148 8.14607 14.6146 8.14592 14.6144 8.14592C14.4763 7.99622 14.3621 7.85271 14.257 7.70242C14.257 7.70222 14.257 7.70222 14.2566 7.70208C14.2022 7.62361 14.1501 7.54324 14.1011 7.46111C14.1011 7.45129 13.8995 7.16472 13.7295 6.63318C15.0122 8.23489 16.7695 9.44666 18.7821 10.0574Z" fill="#FF9B69"/>
<path d="M18.5548 6.35615C18.7551 6.35615 18.9174 6.19379 18.9174 5.99351C18.9174 5.79322 18.7551 5.63086 18.5548 5.63086C18.3545 5.63086 18.1921 5.79322 18.1921 5.99351C18.1921 6.19379 18.3545 6.35615 18.5548 6.35615Z" fill="#BA6746"/>
<path d="M7.40555 5.12673C7.89281 4.62429 8.69154 4.6012 9.20703 5.07468L13.0918 8.64265C13.5761 9.07532 13.5848 9.85564 13.1114 10.3856C12.6379 10.9155 11.8615 10.9944 11.3772 10.5617L7.46102 6.97961C6.92356 6.48806 6.89851 5.64958 7.40555 5.12673Z" fill="#FF9B69"/>
<path d="M19.4088 4.80657L13.8109 6.76917C13.7319 6.79691 13.645 6.75701 13.614 6.67913C13.237 5.73363 13.2613 4.65833 13.8626 3.81087C14.8744 2.38275 17.1341 2.14261 18.5622 3.1534C18.9233 3.40975 19.33 3.95872 19.508 4.61917C19.5292 4.69788 19.4856 4.77967 19.4088 4.80657Z" fill="#FF3C2D"/>
<path d="M19.4089 4.80676L13.8111 6.76936C13.7323 6.797 13.6455 6.75759 13.6145 6.68C13.5816 6.59788 13.5519 6.51467 13.5251 6.43074C15.0758 5.92707 18.1202 4.78289 18.8136 3.37268C19.0971 3.66643 19.3708 4.10935 19.5081 4.61912C19.5293 4.69783 19.4858 4.77976 19.4089 4.80676Z" fill="#CD2D23"/>
<path d="M23.8215 17.8022C23.534 18.416 23.1976 19.0029 22.8179 19.5575L18.1331 16.6386C17.5497 16.2322 17.4067 15.4297 17.8131 14.8464C18.0631 14.4873 18.4638 14.2949 18.8708 14.2949C19.1249 14.2949 19.3816 14.37 19.6059 14.5264L23.8215 17.8022Z" fill="#FF9B69"/>
<path d="M24.5021 16.0007C23.9579 17.8681 22.9892 19.559 21.7041 20.9577C21.5827 21.0904 21.4582 21.2201 21.3306 21.3471C20.5379 22.1398 19.6377 22.8271 18.6536 23.3847C16.8413 24.412 14.7435 25 12.5 25C10.2597 25 8.16188 24.4125 6.34805 23.3847C5.36396 22.8276 4.46371 22.1403 3.66995 21.3471C3.5429 21.2201 3.41838 21.0904 3.29646 20.9577C1.83497 19.3682 0.781937 17.4 0.297852 15.2219C0.966607 15.2219 1.63585 15.4416 2.14513 15.8793C2.65646 16.3186 3.32576 16.5383 3.99656 16.5383C4.66478 16.5383 5.33456 16.3192 5.84492 15.8809L5.84751 15.8789C6.86968 15.0023 8.52663 15.0028 9.54675 15.8794C10.0581 16.3187 10.7274 16.5384 11.3982 16.5384C12.0664 16.5384 12.7352 16.3192 13.246 15.881L13.2491 15.8789C14.2713 15.0023 15.9282 15.0028 16.9483 15.8794C17.4597 16.3187 18.129 16.5384 18.7992 16.5384C19.468 16.5384 20.1367 16.3193 20.6476 15.881L20.6507 15.8789C21.6728 15.0024 23.3287 15.0029 24.3499 15.8795C24.3992 15.9215 24.4501 15.9621 24.5021 16.0007Z" fill="#B4EBFF"/>
<path d="M4.48633 13.7183C3.97402 13.4724 3.75044 12.8634 3.98183 12.3444L7.05847 5.4435C7.41892 4.7355 8.28514 4.45371 8.9931 4.81416C9.70112 5.17461 9.98291 6.04082 9.62245 6.74878L5.85026 13.2959C5.57613 13.7719 4.98145 13.956 4.48633 13.7183Z" fill="#FFAF82"/>
<path d="M4.68367 14.2443L2.07036 14.4631C1.82109 14.484 1.63535 14.2375 1.72422 14.0036L2.00132 13.274C2.10747 12.9945 2.35298 12.7916 2.64742 12.7398L6.52724 12.0583L6.36683 12.7763C6.187 13.5809 5.5053 14.1755 4.68367 14.2443Z" fill="#FF9B69"/>
</svg>
