<svg xmlns="http://www.w3.org/2000/svg" xmlns:xlink="http://www.w3.org/1999/xlink" width="39" height="38" viewBox="0 0 39 38"><defs><path id="qrxpa" d="M933.31 1004.06a19 19 0 1 0 0 38 19 19 0 0 0 0-38z"/><path id="qrxpc" d="M934.77 1029c.3 0 .61-.12.85-.34.49-.47.5-1.26.04-1.75l-2.74-2.92 2.74-2.9c.47-.49.45-1.27-.04-1.74a1.21 1.21 0 0 0-1.73.03l-3.55 3.75a1.25 1.25 0 0 0 0 1.71l3.55 3.77c.24.26.56.39.88.39z"/><clipPath id="qrxpb"><use fill="#fff" xlink:href="#qrxpa"/></clipPath></defs><g><g transform="translate(-914 -1004)"><use fill="#f1f1f1" xlink:href="#qrxpa"/><use fill="#fff" fill-opacity="0" stroke="#d7d7d7" stroke-miterlimit="50" stroke-width="2" clip-path="url(&quot;#qrxpb&quot;)" xlink:href="#qrxpa"/></g><g transform="translate(-914 -1004)"><use fill="#51b5ca" xlink:href="#qrxpc"/></g></g></svg>