<svg xmlns="http://www.w3.org/2000/svg" xmlns:xlink="http://www.w3.org/1999/xlink" width="39" height="38" viewBox="0 0 39 38"><defs><path id="k6xna" d="M1038.69 1004.06a19 19 0 1 1 0 38 19 19 0 0 1 0-38z"/><path id="k6xnc" d="M1037.23 1029c-.3 0-.61-.12-.85-.34a1.25 1.25 0 0 1-.04-1.75l2.74-2.92-2.74-2.9c-.47-.49-.45-1.27.04-1.74a1.22 1.22 0 0 1 1.73.03l3.54 3.75c.46.48.46 1.23 0 1.71l-3.54 3.77c-.24.26-.56.39-.88.39z"/><clipPath id="k6xnb"><use fill="#fff" xlink:href="#k6xna"/></clipPath></defs><g><g transform="translate(-1019 -1004)"><use fill="#f1f1f1" xlink:href="#k6xna"/><use fill="#fff" fill-opacity="0" stroke="#d7d7d7" stroke-miterlimit="50" stroke-width="2" clip-path="url(&quot;#k6xnb&quot;)" xlink:href="#k6xna"/></g><g transform="translate(-1019 -1004)"><use fill="#51b5ca" xlink:href="#k6xnc"/></g></g></svg>