<?xml version="1.0" encoding="utf-8"?>
<svg xmlns="http://www.w3.org/2000/svg"
	xmlns:xlink="http://www.w3.org/1999/xlink"
	width="9px" height="27px" viewBox="0 0 9 27">
<path fillRule="evenodd" d="M 9.01 22.71C 9.01 22.71 4.71 27.01 4.71 27.01 4.71 27.01 3.99 26.29 3.99 26.29 3.99 26.29 4.04 26.24 4.04 26.24 4.04 26.24 0.02 22.23 0.02 22.23 0.02 22.23 0.73 21.52 0.73 21.52 0.73 21.52 4 24.79 4 24.79 4 24.79 4-0 4-0 4-0 5-0 5-0 5-0 5 25.28 5 25.28 5 25.28 8.29 21.99 8.29 21.99 8.29 21.99 9.01 22.71 9.01 22.71Z" fill="rgb(238,188,106)"/></svg>