<?xml version="1.0" encoding="utf-8"?>
<svg xmlns="http://www.w3.org/2000/svg"
	xmlns:xlink="http://www.w3.org/1999/xlink"
	width="9px" height="30px" viewBox="0 0 9 30">
<path fillRule="evenodd" d="M 8.29 5C 8.29 5 5 1.72 5 1.72 5 1.72 5 30 5 30 5 30 4 30 4 30 4 30 4 2.21 4 2.21 4 2.21 0.73 5.47 0.73 5.47 0.73 5.47 0.02 4.77 0.02 4.77 0.02 4.77 4.04 0.75 4.04 0.75 4.04 0.75 3.99 0.71 3.99 0.71 3.99 0.71 4.71-0.01 4.71-0.01 4.71-0.01 9.01 4.29 9.01 4.29 9.01 4.29 8.29 5 8.29 5Z" fill="rgb(203,203,203)"/></svg>