<?xml version="1.0" encoding="utf-8"?>
<svg xmlns="http://www.w3.org/2000/svg"
	xmlns:xlink="http://www.w3.org/1999/xlink"
	width="22px" height="22px" viewBox="0 0 22 22">
<path fillRule="evenodd" d="M 11 0C 4.92 0 0 4.93 0 11 0 17.07 4.92 22 11 22 17.07 22 22 17.07 22 11 22 4.93 17.07 0 11 0ZM 17.74 5.7C 18.81 7.07 19.48 8.75 19.57 10.6 18.33 10.33 17.15 10.2 16.06 10.2 16.06 10.2 16.06 10.2 16.06 10.2 16.06 10.2 16.05 10.2 16.05 10.2 15.17 10.2 14.34 10.28 13.57 10.42 13.38 9.96 13.18 9.51 12.99 9.09 14.73 8.33 16.39 7.24 17.74 5.7ZM 11 2.42C 13.02 2.42 14.88 3.13 16.35 4.31 15.23 5.65 13.74 6.63 12.14 7.32 11.01 5.14 9.92 3.58 9.18 2.62 9.77 2.49 10.37 2.42 11 2.42ZM 7.21 3.31C 7.8 4.02 9 5.56 10.27 7.98 7.68 8.75 5.07 8.93 3.49 8.93 3.45 8.93 3.4 8.93 3.36 8.93 3.36 8.93 3.36 8.93 3.36 8.93 3.09 8.93 2.87 8.93 2.67 8.92 3.29 6.46 4.98 4.42 7.21 3.31ZM 2.42 11C 2.42 10.96 2.42 10.92 2.42 10.88 2.67 10.89 2.98 10.89 3.36 10.89 3.36 10.89 3.36 10.89 3.36 10.89 5.09 10.88 8.1 10.74 11.15 9.77 11.32 10.14 11.48 10.52 11.64 10.91 9.61 11.59 8 12.68 6.81 13.76 5.67 14.8 4.9 15.83 4.45 16.52 3.18 15.02 2.42 13.1 2.42 11ZM 11 19.58C 9.09 19.58 7.33 18.95 5.9 17.89 6.21 17.39 6.86 16.43 7.89 15.44 8.96 14.42 10.43 13.37 12.35 12.74 13 14.57 13.6 16.66 14.05 19.02 13.1 19.38 12.07 19.58 11 19.58ZM 15.86 18.06C 15.42 15.93 14.87 14.01 14.27 12.29 14.83 12.21 15.41 12.17 16.03 12.17 16.03 12.17 16.05 12.17 16.05 12.17 16.05 12.17 16.06 12.17 16.06 12.17 16.06 12.17 16.06 12.17 16.06 12.17 17.08 12.17 18.21 12.29 19.42 12.57 19 14.84 17.69 16.79 15.86 18.06Z" fill="rgb(65,67,69)"/></svg>