<?xml version="1.0" encoding="utf-8"?>
<svg xmlns="http://www.w3.org/2000/svg"
	xmlns:xlink="http://www.w3.org/1999/xlink"
	width="32px" height="21px" viewBox="0 0 32 21">
<path fillRule="evenodd" d="M 29 4C 29 4 21 4 21 4 21 4 20.98 1.87 20.98 1.87 20.98 1.87 28.93 1.87 28.93 1.87 28.93 1.87 28.93 3.75 28.93 3.75 28.93 3.75 29 4 29 4ZM 15.68 11.47C 16.19 12.23 16.45 13.15 16.45 14.23 16.45 15.35 16.16 16.35 15.57 17.23 15.2 17.82 14.73 18.31 14.18 18.71 13.55 19.17 10.58 20.5 10.58 20.5 10.58 20.5 9 21 9 21 9 21-0 21-0 21-0 21-0 0-0 0-0 0 9 0 9 0 11.4 0.04 13.91 1.79 14.92 3.09 15.52 3.89 15.82 4.85 15.82 5.97 15.82 7.12 15.52 8.04 14.91 8.74 14.57 9.13 14.07 9.49 13.4 9.81 14.41 10.16 15.17 10.71 15.68 11.47ZM 4 9C 4 9 9.4 8.74 9.4 8.74 10.26 8.74 10.55 8.35 11.08 8.04 11.62 7.73 11.89 7.18 11.89 6.39 11.89 5.51 11.53 4.93 10.82 4.65 10.22 4.46 9.17 4.03 8.23 4.03 8.23 4.03 4 4 4 4 4 4 4 9 4 9ZM 12.29 13.96C 12.29 12.98 11.87 12.31 11.03 11.94 10.56 11.74 10.25 11.1 9.4 11.09 9.4 11.09 4 11 4 11 4 11 4 17 4 17 4 17 9.4 16.97 9.4 16.97 10.26 16.97 10.51 16.54 10.99 16.31 11.85 15.9 12.29 15.12 12.29 13.96ZM 31.88 10.9C 31.98 11.51 32.02 12.41 32.01 13.58 32.01 13.58 21.7 13.58 21.7 13.58 21.76 14.93 22.25 15.88 23.18 16.42 23.74 16.76 24.42 16.93 25.22 16.93 26.06 16.93 26.75 16.73 27.28 16.31 27.56 16.09 27.82 15.78 28.04 15.38 28.04 15.38 31.81 15.38 31.81 15.38 31.71 16.18 31.26 17 30.44 17.82 29.17 19.13 27.4 19.79 25.12 19.79 23.23 19.79 21.57 19.23 20.13 18.13 18.7 17.02 17.98 15.22 17.98 12.73 17.98 10.39 18.62 8.6 19.92 7.35 21.23 6.1 22.91 5.48 24.99 5.48 26.22 5.48 27.32 5.69 28.31 6.11 29.3 6.53 30.11 7.2 30.76 8.11 31.34 8.91 31.71 9.84 31.88 10.9ZM 28.17 11.25C 28.1 10.31 27.77 9.6 27.18 9.12 26.59 8.63 25.86 8.39 24.99 8.39 24.03 8.39 23.3 8.65 22.78 9.16 22.25 9.67 21.93 10.37 21.79 11.25 21.79 11.25 28.17 11.25 28.17 11.25 28.17 11.25 28.17 11.25 28.17 11.25Z" fill="rgb(65,67,69)"/></svg>