<?xml version="1.0" encoding="utf-8"?>
<svg xmlns="http://www.w3.org/2000/svg"
	xmlns:xlink="http://www.w3.org/1999/xlink"
	width="28px" height="17px" viewBox="0 0 28 17">
<path fillRule="evenodd" d="M 24.61 2.76C 24.61 2.76 17.84 2.76 17.84 2.76 17.84 2.76 17.84 1.16 17.84 1.16 17.84 1.16 24.61 1.16 24.61 1.16 24.61 1.16 24.61 2.76 24.61 2.76 24.61 2.76 24.61 2.76 24.61 2.76ZM 13.34 9.33C 13.77 9.97 13.99 10.75 13.99 11.67 13.99 12.62 13.75 13.47 13.25 14.22 12.93 14.72 12.53 15.14 12.06 15.48 11.52 15.87 9 17 9 17 9 17 8 17 8 17 8 17-0 17-0 17-0 17-0-0-0-0-0-0 8-0 8-0 10.05 0.03 11.83 1.09 12.69 2.2 13.2 2.88 13.46 3.7 13.46 4.65 13.46 5.62 13.2 6.41 12.68 7 12.39 7.34 11.97 7.64 11.4 7.91 12.26 8.21 12.9 8.68 13.34 9.33ZM 4 7C 4 7 8 7 8 7 8.73 7 8.97 6.68 9.43 6.41 9.88 6.15 10.11 5.68 10.11 5 10.11 4.26 9.81 3.77 9.21 3.53 8.69 3.36 7.8 3 7 3 7 3 4 3 4 3 4 3 4 7 4 7ZM 10.45 11.44C 10.45 10.61 10.1 10.04 9.38 9.73 8.99 9.55 8.72 9.01 8 9 8 9 4 9 4 9 4 9 4 14 4 14 4 14 8 14 8 14 8.73 14 8.94 13.63 9.35 13.44 10.08 13.09 10.45 12.43 10.45 11.44ZM 27.12 8.84C 27.2 9.36 27.24 10.12 27.22 11.12 27.22 11.12 18.46 11.12 18.46 11.12 18.51 12.27 18.93 13.07 19.72 13.53 20.2 13.82 20.77 13.96 21.45 13.96 22.17 13.96 22.75 13.79 23.2 13.44 23.44 13.25 23.66 12.99 23.84 12.65 23.84 12.65 27.06 12.65 27.06 12.65 26.97 13.33 26.59 14.02 25.89 14.72 24.81 15.84 23.3 16.4 21.36 16.4 19.76 16.4 18.35 15.93 17.12 14.99 15.9 14.04 15.29 12.51 15.29 10.39 15.29 8.41 15.84 6.88 16.95 5.82 18.05 4.76 19.49 4.23 21.25 4.23 22.3 4.23 23.24 4.41 24.08 4.77 24.92 5.13 25.61 5.69 26.16 6.47 26.65 7.15 26.97 7.94 27.12 8.84ZM 23.96 9.14C 23.9 8.34 23.62 7.74 23.12 7.33 22.62 6.91 21.99 6.71 21.25 6.71 20.44 6.71 19.82 6.93 19.37 7.36 18.93 7.8 18.65 8.39 18.53 9.14 18.53 9.14 23.96 9.14 23.96 9.14 23.96 9.14 23.96 9.14 23.96 9.14Z" fill="rgb(211,211,211)"/></svg>