<?xml version="1.0" encoding="utf-8"?>
<svg xmlns="http://www.w3.org/2000/svg"
	xmlns:xlink="http://www.w3.org/1999/xlink"
	width="24px" height="24px" viewBox="0 0 24 24">
<path fillRule="evenodd" d="M 22.89 0.87C 22.29 0.26 21.84-0 21-0 21-0 3-0 3-0 2.16-0 1.33 0.26 0.73 0.87 0.12 1.47-0 2.16-0 3-0 3-0 21-0 21-0 21.84 0.12 22.45 0.73 23.06 1.33 23.66 2.16 24 3 24 3 24 21 24 21 24 21.84 24 22.29 23.66 22.89 23.06 23.49 22.45 24 21.84 24 21 24 21 24 3 24 3 24 2.16 23.49 1.47 22.89 0.87ZM 8.43 8.61C 9.37 7.7 10.5 7.24 11.82 7.24 13.16 7.24 14.29 7.7 15.23 8.61 16.18 9.52 16.65 10.62 16.65 11.92 16.65 13.21 16.18 14.31 15.23 15.22 14.29 16.13 13.16 16.59 11.82 16.59 10.5 16.59 9.37 16.13 8.43 15.22 7.49 14.31 7.02 13.21 7.02 11.92 7.02 10.62 7.49 9.52 8.43 8.61ZM 20 22C 20 22 4 22 4 22 2.18 21.94 2 19.8 2 20 2 20 2 10 2 10 2 10 5 10 5 10 4.79 10.66 4.38 11.46 4.38 12.16 4.38 14.17 5.11 15.87 6.56 17.28 8.02 18.69 9.77 19.4 11.82 19.4 13.18 19.4 14.43 19.08 15.57 18.43 16.71 17.79 17.62 16.91 18.29 15.8 18.95 14.69 19.28 13.48 19.28 12.16 19.28 11.46 19.21 10.66 19 10 19 10 22 10 22 10 22 10 22 20 22 20 22 20 21.87 22.06 20 22ZM 21.6 6C 21.6 6.3 21.21 6.99 21 7.2 20.79 7.41 21.58 6.93 20.4 7.2 20.4 7.2 17.4 7.2 17.4 7.2 17.1 7.2 16.73 7.26 16.52 7.06 16.31 6.85 16.21 6.59 16.21 6.29 16.21 6.29 16.21 3.71 16.21 3.71 16.21 3.42 16.31 3.17 16.52 2.95 16.73 2.74 17.1 2.4 17.4 2.4 17.4 2.4 20.4 2.4 20.4 2.4 20.4 2.4 21.57 2.57 21.6 3.6 21.6 3.6 21.6 6 21.6 6Z" fill="rgb(211,211,211)"/></svg>