<?xml version="1.0" encoding="utf-8"?>
<svg xmlns="http://www.w3.org/2000/svg"
	xmlns:xlink="http://www.w3.org/1999/xlink"
	width="11px" height="24px" viewBox="0 0 11 24">
<path fillRule="evenodd" d="M 3 5C 3 5.6 3 8 3 8 3 8-0 7.95-0 7.95-0 7.95-0 11.99-0 11.99-0 11.99 3 12 3 12 3 12 3 24 3 24 3 24 7 24 7 24 7 24 7 12 7 12 7 12 10 12 10 12 10 12 10.85 10.12 11 8 10.57 8 7 8 7 8 7 8 7 5.41 7 5 7 4.59 7.47 4 8 4 8.53 4 9.97 4 11 4 11 3.45 11 1.76 11-0 9.63-0 8.07-0 7.38-0 2.26-0 3 4.4 3 5Z" fill="rgb(211,211,211)"/></svg>