<?xml version="1.0" encoding="utf-8"?>
<svg xmlns="http://www.w3.org/2000/svg"
	xmlns:xlink="http://www.w3.org/1999/xlink"
	width="22px" height="22px" viewBox="0 0 22 22">
<path fillRule="evenodd" d="M 20.98 0.79C 20.43 0.24 20.02-0 19.25-0 19.25-0 2.75-0 2.75-0 1.98-0 1.22 0.24 0.67 0.79 0.11 1.35-0 1.98-0 2.75-0 2.75-0 19.25-0 19.25-0 20.02 0.11 20.58 0.67 21.14 1.22 21.69 1.98 22 2.75 22 2.75 22 19.25 22 19.25 22 20.02 22 20.43 21.69 20.98 21.14 21.54 20.58 22 20.02 22 19.25 22 19.25 22 2.75 22 2.75 22 1.98 21.54 1.35 20.98 0.79ZM 7.73 7.89C 8.59 7.06 9.63 6.64 10.84 6.64 12.06 6.64 13.1 7.06 13.97 7.89 14.83 8.73 15.26 9.74 15.26 10.92 15.26 12.11 14.83 13.12 13.97 13.95 13.1 14.79 12.06 15.21 10.84 15.21 9.63 15.21 8.59 14.79 7.73 13.95 6.86 13.12 6.43 12.11 6.43 10.92 6.43 9.74 6.86 8.73 7.73 7.89ZM 18.33 20.17C 18.33 20.17 3.67 20.17 3.67 20.17 2 20.11 1.83 18.15 1.83 18.33 1.83 18.33 1.83 9.17 1.83 9.17 1.83 9.17 4.58 9.17 4.58 9.17 4.39 9.77 4.01 10.5 4.01 11.15 4.01 12.99 4.68 14.55 6.02 15.84 7.35 17.14 8.96 17.78 10.84 17.78 12.08 17.78 13.22 17.49 14.27 16.9 15.32 16.3 16.15 15.5 16.76 14.48 17.37 13.46 17.68 12.35 17.68 11.15 17.68 10.5 17.61 9.77 17.42 9.17 17.42 9.17 20.17 9.17 20.17 9.17 20.17 9.17 20.17 18.33 20.17 18.33 20.17 18.33 20.05 20.22 18.33 20.17ZM 19.8 5.5C 19.8 5.78 19.44 6.41 19.25 6.6 19.06 6.79 19.78 6.35 18.7 6.6 18.7 6.6 15.95 6.6 15.95 6.6 15.67 6.6 15.34 6.66 15.15 6.47 14.95 6.28 14.86 6.04 14.86 5.77 14.86 5.77 14.86 3.4 14.86 3.4 14.86 3.13 14.95 2.9 15.15 2.71 15.34 2.51 15.67 2.2 15.95 2.2 15.95 2.2 18.7 2.2 18.7 2.2 18.7 2.2 19.77 2.35 19.8 3.3 19.8 3.3 19.8 5.5 19.8 5.5Z" fill="rgb(65,67,69)"/></svg>