<?xml version="1.0" encoding="utf-8"?>
<svg xmlns="http://www.w3.org/2000/svg"
	xmlns:xlink="http://www.w3.org/1999/xlink"
	width="23px" height="23px" viewBox="0 0 23 23">
<filter filterUnits="objectBoundingBox" x="-447.83" y="-447.83" width="995.65" height="995.65" id="filter0">
<feGaussianBlur in="SourceAlpha" stdDeviation="51.50" result="dsBlurOut1"/>
<feFlood flood-color="rgb(0,0,0)" flood-opacity="0.09" result="dsFloodOut1"/>
<feComposite in="dsFloodOut1" in2="dsBlurOut1" operator="in" result="dsShadow1"/>
<feOffset in="dsShadow1" dx="-0.00" dy="44.00" result="dsOffset1"/>
<feComposite in="dsOffset1" in2="SourceAlpha" operator="out" result="dropShadow1"/>
<feBlend in="dropShadow1" in2="SourceGraphic" mode="normal" result="sourceGraphic"/>
</filter>
<filter filterUnits="objectBoundingBox" x="-468.18" y="-490.48" width="1036.36" height="1080.95" id="filter1">
<feGaussianBlur in="SourceAlpha" stdDeviation="51.50" result="dsBlurOut1"/>
<feFlood flood-color="rgb(0,0,0)" flood-opacity="0.09" result="dsFloodOut1"/>
<feComposite in="dsFloodOut1" in2="dsBlurOut1" operator="in" result="dsShadow1"/>
<feOffset in="dsShadow1" dx="-0.00" dy="44.00" result="dsOffset1"/>
<feComposite in="dsOffset1" in2="SourceAlpha" operator="out" result="dropShadow1"/>
<feBlend in="dropShadow1" in2="SourceGraphic" mode="normal" result="sourceGraphic"/>
</filter>
<path fillRule="evenodd" d="M 20 20C 20 20 20 3 20 3 20 3 3 3 3 3 3 3 3 20 3 20 3 20 20 20 20 20M 23 23C 23 23-0 23-0 23-0 23-0-0-0-0-0-0 23-0 23-0 23-0 23 23 23 23 23 23 23 23 23 23Z" fill="rgb(220,181,127)" filter="url(#filter0)"/><path fillRule="evenodd" d="M 19.42 21.8C 19.42 21.8 0.63 3 0.63 3 0.63 3 2.44 1.2 2.44 1.2 2.44 1.2 21.23 19.99 21.23 19.99 21.23 19.99 19.42 21.8 19.42 21.8 19.42 21.8 19.42 21.8 19.42 21.8Z" fill="rgb(221,181,127)" filter="url(#filter1)"/></svg>