<?xml version="1.0" encoding="utf-8"?>
<svg xmlns="http://www.w3.org/2000/svg"
	xmlns:xlink="http://www.w3.org/1999/xlink"
	width="22px" height="17px" viewBox="0 0 22 17">
<path fillRule="evenodd" d="M-0 17C-0 17-0 1.83-0 1.83-0 1.83-0.01 1.83-0.01 1.83-0.01 1.83-0 1.81-0 1.81-0 1.81-0-0-0-0-0-0 22-0 22-0 22-0 22 17 22 17 22 17-0 17-0 17ZM 21 1C 21 1 1 1 1 1 1 1 1 1.32 1 1.32 1 1.32 11.01 8.46 11.01 8.46 11.01 8.46 21 1.3 21 1.3 21 1.3 21 1 21 1ZM 21 2.53C 21 2.53 11.87 9.08 11.87 9.08 11.87 9.08 12.01 9.17 12.01 9.17 12.01 9.17 11.42 9.99 11.42 9.99 11.42 9.99 11.01 9.69 11.01 9.69 11.01 9.69 10.6 9.99 10.6 9.99 10.6 9.99 10.02 9.17 10.02 9.17 10.02 9.17 10.15 9.08 10.15 9.08 10.15 9.08 1 2.55 1 2.55 1 2.55 1 16 1 16 1 16 21 16 21 16 21 16 21 2.53 21 2.53Z" fill="rgb(1,1,1)"/></svg>