<?xml version="1.0" encoding="utf-8"?>
<svg xmlns="http://www.w3.org/2000/svg"
	xmlns:xlink="http://www.w3.org/1999/xlink"
	width="149px" height="30px" viewBox="0 0 149 30">
<style type="text/css"><![CDATA[
.style0 {
  font-size: 15.6863px;
  font-family: "Cabin-Regular";
  fill: rgb(77,77,77);
  text-transform: uppercase;
}
]]></style>
<path fillRule="evenodd" d="M 149.01 25.71C 149.01 25.71 144.71 30.01 144.71 30.01 144.71 30.01 143.99 29.29 143.99 29.29 143.99 29.29 144.04 29.24 144.04 29.24 144.04 29.24 140.02 25.23 140.02 25.23 140.02 25.23 140.73 24.52 140.73 24.52 140.73 24.52 144 27.79 144 27.79 144 27.79 144-0 144-0 144-0 145-0 145-0 145-0 145 28.28 145 28.28 145 28.28 148.29 24.99 148.29 24.99 148.29 24.99 149.01 25.71 149.01 25.71Z" fill="rgb(192,192,192)"/><text transform="matrix(0.85,0.00,0.00,0.85,113.01,20.52)" opacity="0.50" class="style0"><tspan x="-123.87 -111.20 -101.13 -89.82 -79.67 -73.99 -63.29 -52.50 -39.34 -27.89 -17.82 -7.73" fill="rgb(76,76,76)">next process</tspan></text></svg>