<?xml version="1.0" encoding="utf-8"?>
<svg xmlns="http://www.w3.org/2000/svg"
	xmlns:xlink="http://www.w3.org/1999/xlink"
	width="19px" height="22px" viewBox="0 0 19 22">
<path fillRule="evenodd" d="M 3.95 12.72C 5.03 10.84 3.6 10.43 3.38 9.07 2.46 3.5 9.91-0.3 13.81 3.59 16.51 6.28 14.73 14.57 10.38 13.7 6.21 12.88 12.42 6.29 9.09 5 6.39 3.94 4.96 8.21 6.24 10.33 5.49 13.98 3.87 17.42 4.52 21.99 6.65 20.48 7.36 17.57 7.95 14.55 9.02 15.19 9.59 15.85 10.95 15.95 15.97 16.33 18.78 11.02 18.09 6.12 17.48 1.77 13.08-0.44 8.38 0.08 4.66 0.49 0.96 3.44 0.8 7.67 0.71 10.24 1.45 12.18 3.95 12.72Z" fill="rgb(65,67,69)"/></svg>