<?xml version="1.0" encoding="utf-8"?>
<svg xmlns="http://www.w3.org/2000/svg"
	xmlns:xlink="http://www.w3.org/1999/xlink"
	width="188px" height="30px" viewBox="0 0 188 30">
<style type="text/css"><![CDATA[
.style0 {
  font-size: 15.6863px;
  font-family: "Cabin-Regular";
  fill: rgb(77,77,77);
  text-transform: uppercase;
}
]]></style>
<path fillRule="evenodd" d="M 187.29 5.01C 187.29 5.01 184 1.72 184 1.72 184 1.72 184 30 184 30 184 30 183 30 183 30 183 30 183 2.21 183 2.21 183 2.21 179.73 5.47 179.73 5.47 179.73 5.47 179.02 4.77 179.02 4.77 179.02 4.77 183.04 0.75 183.04 0.75 183.04 0.75 182.99 0.71 182.99 0.71 182.99 0.71 183.71-0.01 183.71-0.01 183.71-0.01 188.01 4.29 188.01 4.29 188.01 4.29 187.29 5.01 187.29 5.01Z" fill="rgb(192,192,192)"/><text transform="matrix(0.85,0.00,0.00,0.85,152.01,20.52)" opacity="0.50" class="style0"><tspan x="-164.19 -153.49 -142.70 -132.63 -121.52 -115.42 -102.26 -89.76 -79.67 -73.99 -63.29 -52.50 -39.34 -27.89 -17.82 -7.73" fill="rgb(76,76,76)">previous process</tspan></text></svg>