<svg xmlns="http://www.w3.org/2000/svg" width="187" height="203" viewBox="0 0 187 203">
  <defs>
    <style>
      .cls-1 {
        fill: #fff;
        fill-rule: evenodd;
        opacity: 0.1;
      }
    </style>
  </defs>
  <path id="logo_menu.svg" class="cls-1" d="M1848.88,822.079a8.223,8.223,0,0,0,4.15-7.09V776.3l23.53,13.429v76.058a16.339,16.339,0,0,1-8.25,14.18C1848.78,891.086,1801.56,918,1801.56,918V895.922a8.222,8.222,0,0,1,4.15-7.09c9.64-5.491,33.53-19.1,43.17-24.6a8.164,8.164,0,0,0,4.15-7.09V846.491l-51.47,29.32V853.773a8.165,8.165,0,0,1,4.15-7.091c9.64-5.5,33.53-19.112,43.17-24.6h0Zm-33.34-107.073h-1.11a16.923,16.923,0,0,0-7.75,2.191c-19.48,11.111-66.7,38.024-66.7,38.024V782.08s24.07-13.741,33.93-19.361a8.357,8.357,0,0,1,8.3,0c9.64,5.492,33.52,19.113,43.17,24.6a8.338,8.338,0,0,0,8.29,0c6.73-3.837,19.36-11.023,19.36-11.023l-51.47-29.352s5.38-3.061,9.37-5.307a8.3,8.3,0,0,1,8.25,0c9.65,5.5,33.53,19.112,43.18,24.6a8.4,8.4,0,0,0,8.32,0c6.74-3.836,19.32-11.023,19.32-11.023s-47.22-26.913-66.71-38.024a16.754,16.754,0,0,0-7.75-2.191h0ZM1763.48,849.4a8.15,8.15,0,0,0,4.14,7.082c9.87,5.628,33.94,19.361,33.94,19.361l-23.57,13.428s-47.22-26.913-66.7-38.032a16.3,16.3,0,0,1-8.3-14.173V761l19.33,11.023a8.162,8.162,0,0,1,4.15,7.09v49.208a8.164,8.164,0,0,0,4.15,7.09c3.98,2.278,9.36,5.339,9.36,5.339V782.08s12.61,7.178,19.36,11.022a8.153,8.153,0,0,1,4.14,7.083V849.4Zm0,0" transform="translate(-1703 -715)"/>
</svg>
