<?xml version="1.0" encoding="utf-8"?>
<!-- Generator: Adobe Illustrator 19.0.0, SVG Export Plug-In . SVG Version: 6.00 Build 0)  -->
<svg version="1.1" id="Слой_1" xmlns="http://www.w3.org/2000/svg" xmlns:xlink="http://www.w3.org/1999/xlink" x="0px" y="0px"
	 viewBox="49 -4.4 113.2 25.4" style="enable-background:new 49 -4.4 113.2 25.4;" xml:space="preserve">
<style type="text/css">
	.st0{fill:url(#SVGID_1_);}
</style>
<title>FH_logo_horiz</title>
<g id="Слой_2">
	<g id="Слой_1-2">
		
			<linearGradient id="SVGID_1_" gradientUnits="userSpaceOnUse" x1="48.9996" y1="8.9" x2="162.1601" y2="8.9" gradientTransform="matrix(1 0 0 -1 0 17.2)">
			<stop  offset="0" style="stop-color:#C21500"/>
			<stop  offset="0.46" style="stop-color:#D75100"/>
			<stop  offset="0.55" style="stop-color:#DA5B00"/>
			<stop  offset="0.69" style="stop-color:#E47600"/>
			<stop  offset="0.87" style="stop-color:#F2A100"/>
			<stop  offset="1" style="stop-color:#FFC500"/>
		</linearGradient>
		<path class="st0" d="M67,9c0.3-0.2,0.5-0.5,0.5-0.9V3.3L70.4,5v9.5c0,0.7-0.4,1.4-1,1.8L61.2,21v-2.8c0-0.4,0.2-0.7,0.5-0.9
			l5.3-3.1c0.3-0.2,0.5-0.5,0.5-0.9v-1.3l-6.4,3.7V13c0-0.4,0.2-0.7,0.5-0.9L67,9z M62.9-4.4h-0.1c-0.4,0-0.7,0.1-1,0.3l-8.2,4.7V4
			l4.2-2.4c0.3-0.2,0.7-0.2,1,0l5.3,3c0.3,0.2,0.7,0.2,1,0l2.4-1.4l-6.3-3.6l1.2-0.7c0.3-0.2,0.7-0.2,1,0L68.7,2
			c0.3,0.2,0.7,0.2,1,0l2.4-1.4l-8.2-4.7C63.6-4.3,63.2-4.4,62.9-4.4L62.9-4.4z M56.5,12.4c0,0.4,0.2,0.7,0.5,0.9l4.2,2.4l-2.9,1.7
			L50,12.6c-0.6-0.4-1-1-1-1.8V1.4l2.4,1.4c0.3,0.2,0.5,0.5,0.5,0.9v6.2c0,0.4,0.2,0.7,0.5,0.9l1.2,0.7V4L56,5.4
			c0.3,0.2,0.5,0.5,0.5,0.9L56.5,12.4z M150.6,13.6c-0.2,0.4-0.6,0.7-1,0.9c-0.5,0.2-1,0.3-1.5,0.3c-0.8,0.1-1.6-0.2-2.2-0.8
			c-0.5-0.6-0.8-1.4-0.7-2.3V6.3h2.3v4.9c0,0.5,0.1,0.9,0.3,1.4c0.2,0.3,0.6,0.5,1,0.5c0.5,0,1.1-0.2,1.4-0.6
			c0.3-0.7,0.5-1.4,0.4-2.1V6.3h2.3v8.3H151L150.6,13.6L150.6,13.6z M156.1,14.7h-1.7V3.3h2.3v2.5c0,0.3,0,0.9-0.1,1.6h0.1
			c0.5-0.8,1.4-1.3,2.3-1.2c0.9,0,1.8,0.4,2.3,1.1c0.6,0.9,0.9,2,0.8,3.2c0.1,1.1-0.2,2.3-0.9,3.2c-1,1.3-2.9,1.5-4.2,0.5
			c-0.2-0.1-0.3-0.3-0.4-0.4h-0.2L156.1,14.7z M123.1,11.1c0,0.6,0.2,1.1,0.6,1.5c0.4,0.4,0.9,0.6,1.5,0.5c0.5,0,1-0.1,1.4-0.2
			c0.5-0.1,1-0.3,1.4-0.5v1.8c-0.4,0.2-0.8,0.4-1.3,0.5c-0.5,0.1-1.1,0.1-1.7,0.1c-1.2,0.1-2.3-0.4-3.1-1.1c-0.8-0.8-1.2-2-1.1-3.1
			c-0.1-1.2,0.3-2.3,1-3.2c0.8-0.8,1.8-1.2,2.9-1.1c1-0.1,2,0.3,2.8,1c0.7,0.8,1.1,1.8,1,2.8v1.1L123.1,11.1z M119.2,8.4
			c-0.3-0.1-0.7-0.3-0.9-0.4c-0.4-0.1-0.7-0.2-1.1-0.2c-0.7,0-1,0.2-1,0.5c0,0.2,0.1,0.4,0.3,0.5c0.5,0.3,0.9,0.5,1.4,0.7
			c0.5,0.2,1,0.4,1.4,0.7c0.3,0.2,0.5,0.5,0.7,0.8c0.2,0.3,0.2,0.7,0.2,1.1c0.1,0.8-0.3,1.5-0.9,2c-0.8,0.5-1.7,0.7-2.7,0.7
			c-0.5,0-1,0-1.6-0.1c-0.4-0.1-0.8-0.2-1.2-0.4v-1.9c0.5,0.2,0.9,0.4,1.4,0.5c0.5,0.1,0.9,0.2,1.4,0.2c0.8,0,1.2-0.2,1.2-0.7
			c0-0.2,0-0.3-0.2-0.4c-0.2-0.2-0.4-0.3-0.6-0.4c-0.3-0.1-0.6-0.3-1.1-0.5c-0.5-0.2-1-0.4-1.4-0.8c-0.3-0.2-0.5-0.5-0.7-0.8
			c-0.1-0.3-0.2-0.7-0.2-1.1c0-0.7,0.3-1.3,0.9-1.7c0.7-0.4,1.6-0.7,2.4-0.6c1,0,2,0.2,2.9,0.6L119.2,8.4z M91.2,14.7H89V6.3h1.7
			L91,7.4h0.1c0.2-0.4,0.6-0.7,1-0.9c0.5-0.2,1-0.3,1.5-0.3c0.8-0.1,1.6,0.2,2.2,0.8c0.5,0.6,0.8,1.4,0.8,2.3v5.4h-2.2V9.8
			c0-0.5-0.1-0.9-0.3-1.4c-0.2-0.3-0.6-0.5-1-0.4c-0.5,0-1.1,0.2-1.4,0.6c-0.3,0.7-0.5,1.4-0.4,2.1L91.2,14.7z M101.7,14.7h-2.4
			L97,6.3h2.3l1,3.7c0.2,0.7,0.3,1.6,0.5,2.7l0,0c0.1-0.6,0.1-1.2,0.3-1.8l0.1-0.6l1-4h2.5l1,4c0,0.1,0,0.3,0.1,0.5
			c0,0.2,0.1,0.4,0.1,0.7c0,0.2,0.1,0.5,0.1,0.7s0.1,0.4,0.1,0.6l0,0c0-0.4,0.1-0.9,0.2-1.5s0.2-1,0.3-1.3l1-3.7h2.2l-2.4,8.3h-2.5
			l-0.6-2.9L103.4,8h-0.1L101.7,14.7z M87.1,14.7h-2.2V6.3h2.3L87.1,14.7z M112.6,14.7h-2.2V6.3h2.3L112.6,14.7z M84,5.3h-4.6v2.8
			h3.9V10h-3.9v4.7h-2.3V3.4H84V5.3z M136.7,14.7h-2.4V3.3h2.4v4.4h4.4V3.3h2.4v11.3h-2.4V9.8h-4.5L136.7,14.7z M158.4,8
			c-0.5,0-0.9,0.2-1.2,0.5c-0.3,0.5-0.4,1.1-0.4,1.7v0.3c-0.1,0.7,0.1,1.3,0.4,1.9c0.3,0.4,0.8,0.6,1.3,0.6c0.5,0,0.9-0.2,1.1-0.6
			c0.3-0.6,0.5-1.2,0.4-1.9c0-0.6-0.1-1.3-0.4-1.9C159.3,8.2,158.8,8,158.4,8L158.4,8z M124.9,7.8c-0.4,0-0.8,0.1-1.1,0.5
			c-0.3,0.4-0.5,0.8-0.5,1.3h3.2c0-0.5-0.1-0.9-0.4-1.3C125.7,7.9,125.3,7.8,124.9,7.8z M111.5,3.4c0.6,0,1.1,0.5,1.1,1.1
			s-0.5,1.1-1.1,1.1c-0.6,0-1.1-0.5-1.1-1.1v0C110.3,3.9,110.8,3.4,111.5,3.4z M86,3.4c0.6,0,1.2,0.5,1.2,1.1c0,0.6-0.5,1.2-1.1,1.2
			c-0.6,0-1.2-0.5-1.2-1.1c0,0,0,0,0,0C84.9,3.9,85.4,3.4,86,3.4z"/>
	</g>
</g>
</svg>
