<?xml version="1.0" encoding="utf-8"?>
<!-- Generator: Adobe Illustrator 21.1.0, SVG Export Plug-In . SVG Version: 6.00 Build 0)  -->
<svg version="1.1" id="_x3F__x3F__x3F__x3F__1" xmlns="http://www.w3.org/2000/svg" xmlns:xlink="http://www.w3.org/1999/xlink"
	 x="0px" y="0px" viewBox="0 0 498.1 155" style="enable-background:new 0 0 498.1 155;" xml:space="preserve">
<style type="text/css">
	.st0{fill:#E2CBA2;}
</style>
<g>
	<path class="st0" d="M180.3,36c1.3-3.5,2.4-6.6,4.3-9.9c-7.4-4.5-16.9-4.7-24.5-0.5c1.4,3.9,3.3,7.7,5.5,11.2
		C170.5,36.5,175.4,36.2,180.3,36L180.3,36z M142,98.2C94,100.3,45.9,104,0,109c44.1-6.8,89.9-11.8,137.1-14.8
		C138.5,95.6,140.4,97.1,142,98.2L142,98.2z M239.2,91.1c83.5,0,163.9,6.3,239.2,18c-76.8-8.5-156.9-13-239.2-13
		c-12.5,0-26.3,0.5-38.7,0.7l4.8-5.3C216.6,91.2,227.9,91.1,239.2,91.1L239.2,91.1z M180.8,38.6c8.4,30,19.3,36.8,17.6,68.6
		c-4,9.5-16.4,11.5-18.2,22.6l-20.1-23.4c3.2-20.1,5.6-45.4,6.1-67.2l0,0C171.1,39.1,176,38.9,180.8,38.6z"/>
	<path class="st0" d="M438.1,15.6c2.8,0,5.6,0,8.5,0h9.2l0,0h4.5v12.9l-9.6-2.7v-3.7c-0.1-2.2-1.1-3-4-3L438,19
		c-13,0.5-22.9,12.1-23.4,27.1l0,0c0,0.1,0,0.2,0,0.3l0,0c0,0.1,0,0.2,0,0.3l0,0v0.1l0,0l0,0l0,0l0,0l0,0l0,0l0,0l0,0l0,0v0.1l0,0
		l0,0l0,0l0,0l0,0l0,0l0,0l0,0l0,0c0,0,0,0,0,0.1c0,0.2,0,0.5,0,0.7c0,0,0,0,0,0.1c0.3,15.3,10.8,26.5,23.4,27.7
		c9.1,0.8,18.4-5.7,20.4-8.4l4,1.5c-6,6.5-14.5,10.2-24.5,10.2c-11.5,0-22-5.9-27.8-14.8c-0.1-0.1-0.1-0.2-0.2-0.2l0,0
		c-4.7-7.3-6.1-16-4-24.2C409.6,26,422.7,15.6,438.1,15.6L438.1,15.6z M30.9,74.8c-3.3,0-4.2-1.1-4.1-3.9V54v-5.1v-0.7
		c0.1-2.3,1.1-3.2,4.1-3.2H37c1.8,0,3.5,0.4,5.3,1.1c5.6,2.3,9.5,7.6,9.5,13.8c0,6-3.6,11.1-8.9,13.5c-2.2,1-4.1,1.4-6.4,1.4
		L30.9,74.8L30.9,74.8z M13.6,19.1L13.6,19.1c0.1,0,0.1,0,0.1,0c2,0,3.4,0.9,3.6,3.2v0.1l0,0l0,0v48.4c0,3.2-1.8,3.9-3.7,3.9l0,0
		v3.6h0.1c9.4,0,18.8,0,28.2,0l0,0l0,0c0.1,0,0.1,0,0.2,0l0,0C52.5,78.2,61,69.9,61,59.8s-8.5-18.4-18.9-18.5l0,0c0,0-0.1,0-0.2,0
		c0,0,0,0-0.1,0c0,0,0,0-0.1,0l0,0l0,0l0,0c-6.4,0-10.2,0-15.1,0V22.2c0.1-2.2,1.2-3.1,4.1-3.2h9.7h1.8c3,0,4,0.9,4.1,3.2v3.9
		l9.9,2.8V15.5h-4.7l0,0H22.8v2.6l-9.3-2.6l0,0L13.6,19.1L13.6,19.1z M85.6,22.3c0.1-2.2,1.1-3.1,4-3.2l0,0l0,0l0,0l0,0l0,0l0,0l0,0
		l0,0l0,0l0,0l0,0l0,0l0,0l0,0l0,0l0,0l0,0l0,0l0,0l0,0l0,0l0,0l0,0l0,0l0,0l0,0l0,0l0,0l0,0l0,0l0,0h5.6h0.1c2.2,0,4.2,0.4,6.3,1.4
		c5.2,2.4,8.9,7.6,8.9,13.5c0,6.2-3.9,11.5-9.5,13.8c-1.7,0.7-3.4,1.1-5.3,1.1h-6.1c-3,0-4.1-0.9-4.1-3.2v-0.6V22.3H85.6z
		 M72.5,19.1L72.5,19.1c0.1,0,0.1,0,0.1,0c2,0,3.4,0.9,3.6,3.2v0.1l0,0l0,0v48.7c-0.1,2.9-1.9,3.6-3.7,3.6l0,0v3.6h0.1h16.6h0.1
		v-3.6l0,0c-1.8,0-3.6-0.6-3.7-3.5V57.3l0,0v-4.8c4.9,0,8.7,0,15.1,0l0,0l0,0l0,0c0,0,0,0,0.1,0c0,0,0,0,0.1,0s0.1,0,0.2,0l0,0
		C111.5,52.4,120,44.1,120,34s-8.5-18.4-18.9-18.5l0,0c-0.1,0-0.1,0-0.2,0l0,0l0,0H82v2.6l-9.3-2.6l0,0v3.6H72.5z M174.1,20.5
		c8.8,0.8,16.2,5.9,21.5,13.4c5.2,7.4,8.3,17.2,8.1,27.9c-0.2,8-2.1,15.5-5.5,21.9c0.8,3.7,1.4,7.6,1.6,11.9c1.1-0.9,2.1-1.9,3-3
		c7.5-8,12.1-18.8,12.3-30.5c0.2-11.7-4-22.5-11.2-30.8c-7.3-8.4-17.5-14.3-29.9-15.5s-24.7,2.9-33.9,10.8
		c-9.5,8.1-15.7,20-16.1,33.6c-0.3,9.8,2.5,18.9,7.5,26.5c4.9,7.5,11.9,13.4,20.1,16.9c2.1,0.9,4.3,1.7,6.6,2.2l1.1-6.3
		c-4-2-7.6-5-10.7-8.7c-6.2-7.7-9.9-18.5-9.6-30.4s4.6-22.4,11.2-29.7C156.7,23.7,165.3,19.8,174.1,20.5L174.1,20.5z M226.6,19.1
		L226.6,19.1c0.1,0,0.1,0,0.1,0c2,0,3.4,0.9,3.6,3.2v0.1l0,0l0,0v2.7l0,0v1l0,0v35.2l0,0v9.9c-0.1,2.9-1.9,3.6-3.7,3.6l0,0v3.6h0.1
		h16.6h0.1v-3.6l0,0c-1.8,0-3.6-0.6-3.7-3.5V49.6c0-1.4,1.3-1.3,1.8-0.9l31.6,29.7H285h0.1v-3.6l0,0c-2.1-0.2-3.4-0.9-4.3-1.9
		L248.9,43l22.8-22c2.4-2.2,6.5-1.8,6.8-1.8l0,0v-3.6h-0.1h-12.3v3.6c1.2-0.1,2.3,0.3,1.5,1.2l-27.9,26.4V26.1l0,0v-1v-0.9v-1.9
		c0.1-2.2,1.1-3.1,4-3.2l0,0l0,0l0,0l0,0l0,0l0,0l0,0l0,0l0,0l0,0l0,0l0,0l0,0l0,0l0,0l0,0l0,0l0,0l0,0l0,0l0,0l0,0l0,0l0,0l0,0l0,0
		l0,0l0,0l0,0l0,0l0,0h0.6v-3.6h-0.1H244h-0.2h-0.2h-0.2h-7.7v2.6l-9.3-2.6l0,0v3.6H226.6z M294.7,19.1L294.7,19.1
		c0.1,0,0.1,0,0.1,0c2,0,3.4,0.9,3.6,3.2v0.1l0,0l0,0v28.9l0,0v20.1l0,0l0,0v0.1c-0.2,2.2-1.6,3.2-3.6,3.2h-0.1l0,0v3.6l0,0h38l0,0
		h4.7V59.4l-9.9,2.8v9.5c-0.1,2.2-1.2,3.1-4.1,3.2H312c-3,0-4-0.9-4.1-3.2V55.8v-1.7v-2.6V49v-0.7c0.1-2.3,1.1-3.2,4.1-3.2h8.3
		c2.4,0,3.2,2,3.3,4v1.1h3.7v-1.6l0,0V38l0,0v-1.6h-3.7v1.1c0,1.9-0.5,3.5-2.7,4c0,0,0,0-0.1,0c-3.2,0-10.5,0-13,0V22.4
		c0.1-2.2,1.2-3.1,4.1-3.2h11.4c3,0,4,0.9,4.1,3.2v3.9l9.9,2.8V15.7h-4.7l0,0h-28.7v2.6l-9.3-2.6l0,0v3.4H294.7z M364,22.3
		c0.1-2.2,1.1-3.1,4-3.2l0,0l0,0l0,0l0,0l0,0l0,0l0,0l0,0l0,0l0,0l0,0l0,0l0,0l0,0l0,0l0,0l0,0l0,0l0,0l0,0l0,0l0,0l0,0l0,0l0,0l0,0
		l0,0l0,0l0,0l0,0l0,0h5.6h0.1c2.2,0,4.2,0.4,6.3,1.4c5.2,2.4,8.9,7.6,8.9,13.5c0,6.2-3.9,11.5-9.5,13.8c-1.7,0.7-3.4,1.1-5.3,1.1
		H368c-3,0-4.1-0.9-4.1-3.2v-0.6L364,22.3L364,22.3z M351,19.1L351,19.1C351.1,19.1,351.1,19.1,351,19.1c2.1,0,3.5,0.9,3.7,3.2v0.1
		l0,0l0,0c0,16.3,0,32.5,0,48.7c-0.1,2.9-1.9,3.6-3.7,3.6l0,0v3.6h0.1h16.6h0.1v-3.6l0,0c-1.8,0-3.6-0.6-3.7-3.5V57.3l0,0v-4.8
		c4.9,0,8.7,0,15.1,0l0,0l0,0l0,0c0,0,0,0,0.1,0c0,0,0,0,0.1,0c0,0,0.1,0,0.2,0l0,0c10.4-0.1,18.9-8.4,18.9-18.5
		s-8.5-18.4-18.9-18.5l0,0c-0.1,0-0.1,0-0.2,0l0,0l0,0c-6.3,0-12.6,0-18.9,0v2.6l-9.3-2.6l0,0L351,19.1z"/>
	<path class="st0" d="M473.5,15.7h2.1v-14h4.8V0h-11.7v1.7h4.8L473.5,15.7L473.5,15.7z M496.1,15.7h2l-1-15.7h-2.6l-2.8,7.6
		c-0.7,2-1.3,3.7-1.7,5.3h-0.1c-0.4-1.6-0.9-3.4-1.6-5.3L485.6,0h-2.5L482,15.7h1.9l0.4-6.8c0.1-2.4,0.3-5,0.3-7l0,0
		c0.4,1.9,1.1,3.9,1.8,6.1l2.5,7.5h1.5l2.8-7.6c0.8-2.2,1.4-4.1,2-6h0.1c0,2,0.1,4.6,0.2,6.8L496.1,15.7z"/>
</g>
</svg>
