<svg 
 xmlns="http://www.w3.org/2000/svg"
 xmlns:xlink="http://www.w3.org/1999/xlink"
 width="150px" height="68px">
<defs>
<linearGradient id="PSgrad_0" x1="0%" x2="64.279%" y1="0%" y2="76.604%">
  <stop offset="0%" stop-color="rgb(194,21,0)" stop-opacity="1" />
  <stop offset="73%" stop-color="rgb(225,109,0)" stop-opacity="1" />
  <stop offset="100%" stop-color="rgb(255,197,0)" stop-opacity="1" />
</linearGradient>

</defs>
<path fill-rule="evenodd"  fill="rgb(255, 255, 255)"
 d="M148.479,66.038 C147.464,67.351 146.087,68.013 144.344,68.013 C142.614,68.013 141.264,67.394 140.278,66.152 L140.003,66.152 L139.327,67.754 L136.269,67.754 L136.269,47.888 L140.278,47.888 L140.278,52.211 C140.278,52.809 140.223,53.766 140.119,55.089 L140.278,55.089 C141.215,53.649 142.606,52.925 144.446,52.925 C146.184,52.925 147.547,53.596 148.526,54.936 C149.512,56.275 150.001,58.112 150.001,60.446 C150.001,62.852 149.498,64.715 148.479,66.038 ZM145.171,57.172 C144.681,56.459 144.012,56.104 143.159,56.104 C142.166,56.104 141.442,56.404 140.989,57.004 C140.534,57.609 140.299,58.606 140.278,59.997 L140.278,60.427 C140.278,61.986 140.513,63.106 140.982,63.780 C141.449,64.454 142.194,64.797 143.213,64.797 C144.033,64.797 144.688,64.421 145.176,63.669 C145.667,62.921 145.909,61.829 145.909,60.398 C145.909,58.968 145.667,57.890 145.171,57.172 ZM129.818,65.887 L129.605,65.887 C129.178,66.568 128.566,67.086 127.779,67.460 C126.987,67.830 126.091,68.013 125.086,68.013 C123.355,68.013 122.053,67.558 121.171,66.637 C120.296,65.724 119.863,64.407 119.863,62.690 L119.863,53.199 L123.872,53.199 L123.872,61.701 C123.872,62.752 124.059,63.536 124.438,64.061 C124.817,64.584 125.415,64.849 126.236,64.849 C127.366,64.849 128.172,64.476 128.675,63.731 C129.171,62.996 129.427,61.762 129.427,60.044 L129.427,53.199 L133.436,53.199 L133.436,67.754 L130.356,67.754 L129.818,65.887 ZM112.800,59.225 L104.897,59.225 L104.897,67.754 L100.666,67.754 L100.666,48.004 L104.897,48.004 L104.897,55.742 L112.800,55.742 L112.800,48.004 L117.017,48.004 L117.017,67.754 L112.800,67.754 L112.800,59.225 ZM89.345,12.165 C87.244,10.966 82.042,7.993 79.940,6.792 C79.382,6.475 78.693,6.475 78.142,6.792 C77.273,7.283 76.102,7.951 76.102,7.951 L87.313,14.361 C87.313,14.361 84.563,15.929 83.095,16.765 C82.538,17.087 81.848,17.087 81.291,16.765 C79.188,15.568 73.987,12.593 71.886,11.396 C71.327,11.074 70.639,11.074 70.080,11.396 C67.931,12.623 62.687,15.621 62.687,15.621 L62.687,9.758 C62.687,9.758 72.974,3.883 77.218,1.455 C77.749,1.156 78.321,0.998 78.906,0.978 L79.148,0.978 C79.734,0.998 80.312,1.156 80.836,1.455 C85.080,3.883 95.367,9.758 95.367,9.758 C95.367,9.758 92.626,11.327 91.158,12.165 C90.592,12.487 89.910,12.487 89.345,12.165 ZM92.439,33.898 C92.439,35.174 91.756,36.355 90.642,36.994 C86.389,39.422 76.102,45.297 76.102,45.297 L76.102,40.478 C76.102,39.843 76.447,39.250 77.005,38.930 C79.105,37.731 84.309,34.758 86.410,33.558 C86.967,33.238 87.313,32.652 87.313,32.011 L87.313,29.686 L76.102,36.087 L76.102,31.274 C76.102,30.633 76.447,30.046 77.005,29.728 C79.105,28.527 84.309,25.554 86.410,24.355 C86.967,24.035 87.313,23.442 87.313,22.808 L87.313,14.361 L92.439,17.294 L92.439,33.898 ZM67.806,19.576 L67.806,30.321 C67.806,30.961 68.152,31.548 68.709,31.866 C70.859,33.095 76.102,36.094 76.102,36.094 L70.969,39.026 C70.969,39.026 60.681,33.149 56.437,30.723 C55.314,30.081 54.631,28.902 54.631,27.628 L54.631,11.019 C54.631,11.019 57.374,12.588 58.842,13.426 C59.401,13.748 59.745,14.333 59.745,14.974 L59.745,25.718 C59.745,26.359 60.089,26.946 60.648,27.268 C61.516,27.763 62.687,28.431 62.687,28.431 L62.687,15.621 C62.687,15.621 65.435,17.190 66.904,18.030 C67.462,18.347 67.806,18.935 67.806,19.576 ZM53.247,67.754 L48.879,67.754 L47.748,62.662 L46.219,56.232 L46.129,56.232 L43.443,67.754 L39.128,67.754 L34.946,53.199 L38.943,53.199 L40.645,59.641 C40.913,60.795 41.188,62.387 41.472,64.421 L41.546,64.421 C41.589,63.760 41.741,62.710 42.009,61.286 L42.222,60.173 L44.035,53.199 L48.458,53.199 L50.181,60.173 C50.216,60.366 50.271,60.652 50.347,61.018 C50.422,61.394 50.491,61.790 50.560,62.213 C50.636,62.634 50.698,63.044 50.752,63.445 C50.807,63.855 50.842,64.175 50.849,64.421 L50.932,64.421 C51.008,63.792 51.153,62.934 51.352,61.850 C51.551,60.759 51.696,60.023 51.786,59.641 L53.550,53.199 L57.485,53.199 L53.247,67.754 ZM30.441,59.254 C30.441,58.202 30.254,57.412 29.875,56.887 C29.495,56.364 28.897,56.096 28.077,56.096 C26.954,56.096 26.140,56.472 25.638,57.214 C25.142,57.957 24.886,59.186 24.886,60.902 L24.886,67.754 L20.877,67.754 L20.877,53.199 L23.943,53.199 L24.481,55.060 L24.708,55.060 C25.156,54.358 25.768,53.826 26.553,53.466 C27.340,53.102 28.236,52.925 29.234,52.925 C30.944,52.925 32.238,53.385 33.127,54.295 C34.009,55.209 34.457,56.532 34.457,58.256 L34.457,67.754 L30.441,67.754 L30.441,59.254 ZM13.684,53.199 L17.693,53.199 L17.693,67.754 L13.684,67.754 L13.684,53.199 ZM15.687,52.019 C14.578,52.019 13.684,51.131 13.684,50.038 C13.684,48.938 14.578,48.053 15.687,48.053 C16.797,48.053 17.693,48.938 17.693,50.038 C17.693,51.131 16.797,52.019 15.687,52.019 ZM4.009,56.268 L10.905,56.268 L10.905,59.559 L4.009,59.559 L4.009,67.754 L-0.001,67.754 L-0.001,48.053 L12.001,48.053 L12.001,51.357 L4.009,51.357 L4.009,56.268 ZM60.537,48.053 C61.639,48.053 62.542,48.938 62.542,50.038 C62.542,51.131 61.639,52.019 60.537,52.019 C59.427,52.019 58.526,51.131 58.526,50.038 C58.526,48.938 59.427,48.053 60.537,48.053 ZM62.542,67.754 L58.526,67.754 L58.526,53.199 L62.542,53.199 L62.542,67.754 ZM70.762,62.430 C70.286,62.183 69.660,61.898 68.868,61.572 C67.737,61.100 66.904,60.663 66.374,60.270 C65.843,59.867 65.456,59.411 65.215,58.893 C64.975,58.374 64.857,57.741 64.857,56.982 C64.857,55.695 65.359,54.692 66.374,53.982 C67.386,53.283 68.825,52.925 70.686,52.925 C72.450,52.925 74.167,53.303 75.840,54.057 L74.255,56.771 C73.664,56.532 73.105,56.328 72.581,56.164 C71.940,55.968 71.286,55.865 70.618,55.865 C69.432,55.865 68.840,56.180 68.840,56.812 C68.840,57.172 69.034,57.482 69.411,57.741 C69.797,57.998 70.632,58.388 71.919,58.900 C73.071,59.361 73.911,59.790 74.449,60.187 C74.980,60.589 75.378,61.046 75.634,61.572 C75.881,62.090 76.013,62.710 76.013,63.431 C76.013,64.925 75.489,66.057 74.442,66.840 C73.394,67.618 71.824,68.013 69.736,68.013 C68.668,68.013 67.758,67.938 67.000,67.794 C66.248,67.651 65.539,67.440 64.878,67.162 L64.878,63.883 C65.629,64.229 66.469,64.522 67.400,64.755 C68.337,64.993 69.157,65.109 69.866,65.109 C71.327,65.109 72.050,64.693 72.050,63.861 C72.050,63.549 71.955,63.288 71.761,63.099 C71.568,62.901 71.238,62.683 70.762,62.430 ZM84.067,52.925 C86.142,52.925 87.761,53.514 88.918,54.680 C90.075,55.851 90.654,57.474 90.654,59.541 L90.654,61.461 L81.173,61.461 C81.215,62.594 81.552,63.474 82.187,64.108 C82.813,64.742 83.702,65.055 84.838,65.055 C85.727,65.055 86.569,64.965 87.354,64.781 C88.146,64.598 88.966,64.311 89.828,63.909 L89.828,66.985 C89.125,67.332 88.373,67.591 87.574,67.761 C86.782,67.926 85.803,68.013 84.660,68.013 C82.289,68.013 80.436,67.365 79.105,66.070 C77.770,64.781 77.109,62.948 77.109,60.576 C77.109,58.142 77.721,56.253 78.956,54.924 C80.189,53.589 81.891,52.925 84.067,52.925 ZM86.893,58.824 C86.879,57.841 86.616,57.087 86.114,56.553 C85.618,56.015 84.942,55.749 84.096,55.749 C83.240,55.749 82.572,56.015 82.090,56.553 C81.607,57.087 81.332,57.841 81.263,58.824 L86.893,58.824 Z"/>
<path fill="url(#PSgrad_0)"
 d="M148.479,66.038 C147.464,67.351 146.087,68.013 144.344,68.013 C142.614,68.013 141.264,67.394 140.278,66.152 L140.003,66.152 L139.327,67.754 L136.269,67.754 L136.269,47.888 L140.278,47.888 L140.278,52.211 C140.278,52.809 140.223,53.766 140.119,55.089 L140.278,55.089 C141.215,53.649 142.606,52.925 144.446,52.925 C146.184,52.925 147.547,53.596 148.526,54.936 C149.512,56.275 150.001,58.112 150.001,60.446 C150.001,62.852 149.498,64.715 148.479,66.038 ZM145.171,57.172 C144.681,56.459 144.012,56.104 143.159,56.104 C142.166,56.104 141.442,56.404 140.989,57.004 C140.534,57.609 140.299,58.606 140.278,59.997 L140.278,60.427 C140.278,61.986 140.513,63.106 140.982,63.780 C141.449,64.454 142.194,64.797 143.213,64.797 C144.033,64.797 144.688,64.421 145.176,63.669 C145.667,62.921 145.909,61.829 145.909,60.398 C145.909,58.968 145.667,57.890 145.171,57.172 ZM129.818,65.887 L129.605,65.887 C129.178,66.568 128.566,67.086 127.779,67.460 C126.987,67.830 126.091,68.013 125.086,68.013 C123.355,68.013 122.053,67.558 121.171,66.637 C120.296,65.724 119.863,64.407 119.863,62.690 L119.863,53.199 L123.872,53.199 L123.872,61.701 C123.872,62.752 124.059,63.536 124.438,64.061 C124.817,64.584 125.415,64.849 126.236,64.849 C127.366,64.849 128.172,64.476 128.675,63.731 C129.171,62.996 129.427,61.762 129.427,60.044 L129.427,53.199 L133.436,53.199 L133.436,67.754 L130.356,67.754 L129.818,65.887 ZM112.800,59.225 L104.897,59.225 L104.897,67.754 L100.666,67.754 L100.666,48.004 L104.897,48.004 L104.897,55.742 L112.800,55.742 L112.800,48.004 L117.017,48.004 L117.017,67.754 L112.800,67.754 L112.800,59.225 ZM89.345,12.165 C87.244,10.966 82.042,7.993 79.940,6.792 C79.382,6.475 78.693,6.475 78.142,6.792 C77.273,7.283 76.102,7.951 76.102,7.951 L87.313,14.361 C87.313,14.361 84.563,15.929 83.095,16.765 C82.538,17.087 81.848,17.087 81.291,16.765 C79.188,15.568 73.987,12.593 71.886,11.396 C71.327,11.074 70.639,11.074 70.080,11.396 C67.931,12.623 62.687,15.621 62.687,15.621 L62.687,9.758 C62.687,9.758 72.974,3.883 77.218,1.455 C77.749,1.156 78.321,0.998 78.906,0.978 L79.148,0.978 C79.734,0.998 80.312,1.156 80.836,1.455 C85.080,3.883 95.367,9.758 95.367,9.758 C95.367,9.758 92.626,11.327 91.158,12.165 C90.592,12.487 89.910,12.487 89.345,12.165 ZM92.439,33.898 C92.439,35.174 91.756,36.355 90.642,36.994 C86.389,39.422 76.102,45.297 76.102,45.297 L76.102,40.478 C76.102,39.843 76.447,39.250 77.005,38.930 C79.105,37.731 84.309,34.758 86.410,33.558 C86.967,33.238 87.313,32.652 87.313,32.011 L87.313,29.686 L76.102,36.087 L76.102,31.274 C76.102,30.633 76.447,30.046 77.005,29.728 C79.105,28.527 84.309,25.554 86.410,24.355 C86.967,24.035 87.313,23.442 87.313,22.808 L87.313,14.361 L92.439,17.294 L92.439,33.898 ZM67.806,19.576 L67.806,30.321 C67.806,30.961 68.152,31.548 68.709,31.866 C70.859,33.095 76.102,36.094 76.102,36.094 L70.969,39.026 C70.969,39.026 60.681,33.149 56.437,30.723 C55.314,30.081 54.631,28.902 54.631,27.628 L54.631,11.019 C54.631,11.019 57.374,12.588 58.842,13.426 C59.401,13.748 59.745,14.333 59.745,14.974 L59.745,25.718 C59.745,26.359 60.089,26.946 60.648,27.268 C61.516,27.763 62.687,28.431 62.687,28.431 L62.687,15.621 C62.687,15.621 65.435,17.190 66.904,18.030 C67.462,18.347 67.806,18.935 67.806,19.576 ZM53.247,67.754 L48.879,67.754 L47.748,62.662 L46.219,56.232 L46.129,56.232 L43.443,67.754 L39.128,67.754 L34.946,53.199 L38.943,53.199 L40.645,59.641 C40.913,60.795 41.188,62.387 41.472,64.421 L41.546,64.421 C41.589,63.760 41.741,62.710 42.009,61.286 L42.222,60.173 L44.035,53.199 L48.458,53.199 L50.181,60.173 C50.216,60.366 50.271,60.652 50.347,61.018 C50.422,61.394 50.491,61.790 50.560,62.213 C50.636,62.634 50.698,63.044 50.752,63.445 C50.807,63.855 50.842,64.175 50.849,64.421 L50.932,64.421 C51.008,63.792 51.153,62.934 51.352,61.850 C51.551,60.759 51.696,60.023 51.786,59.641 L53.550,53.199 L57.485,53.199 L53.247,67.754 ZM30.441,59.254 C30.441,58.202 30.254,57.412 29.875,56.887 C29.495,56.364 28.897,56.096 28.077,56.096 C26.954,56.096 26.140,56.472 25.638,57.214 C25.142,57.957 24.886,59.186 24.886,60.902 L24.886,67.754 L20.877,67.754 L20.877,53.199 L23.943,53.199 L24.481,55.060 L24.708,55.060 C25.156,54.358 25.768,53.826 26.553,53.466 C27.340,53.102 28.236,52.925 29.234,52.925 C30.944,52.925 32.238,53.385 33.127,54.295 C34.009,55.209 34.457,56.532 34.457,58.256 L34.457,67.754 L30.441,67.754 L30.441,59.254 ZM13.684,53.199 L17.693,53.199 L17.693,67.754 L13.684,67.754 L13.684,53.199 ZM15.687,52.019 C14.578,52.019 13.684,51.131 13.684,50.038 C13.684,48.938 14.578,48.053 15.687,48.053 C16.797,48.053 17.693,48.938 17.693,50.038 C17.693,51.131 16.797,52.019 15.687,52.019 ZM4.009,56.268 L10.905,56.268 L10.905,59.559 L4.009,59.559 L4.009,67.754 L-0.001,67.754 L-0.001,48.053 L12.001,48.053 L12.001,51.357 L4.009,51.357 L4.009,56.268 ZM60.537,48.053 C61.639,48.053 62.542,48.938 62.542,50.038 C62.542,51.131 61.639,52.019 60.537,52.019 C59.427,52.019 58.526,51.131 58.526,50.038 C58.526,48.938 59.427,48.053 60.537,48.053 ZM62.542,67.754 L58.526,67.754 L58.526,53.199 L62.542,53.199 L62.542,67.754 ZM70.762,62.430 C70.286,62.183 69.660,61.898 68.868,61.572 C67.737,61.100 66.904,60.663 66.374,60.270 C65.843,59.867 65.456,59.411 65.215,58.893 C64.975,58.374 64.857,57.741 64.857,56.982 C64.857,55.695 65.359,54.692 66.374,53.982 C67.386,53.283 68.825,52.925 70.686,52.925 C72.450,52.925 74.167,53.303 75.840,54.057 L74.255,56.771 C73.664,56.532 73.105,56.328 72.581,56.164 C71.940,55.968 71.286,55.865 70.618,55.865 C69.432,55.865 68.840,56.180 68.840,56.812 C68.840,57.172 69.034,57.482 69.411,57.741 C69.797,57.998 70.632,58.388 71.919,58.900 C73.071,59.361 73.911,59.790 74.449,60.187 C74.980,60.589 75.378,61.046 75.634,61.572 C75.881,62.090 76.013,62.710 76.013,63.431 C76.013,64.925 75.489,66.057 74.442,66.840 C73.394,67.618 71.824,68.013 69.736,68.013 C68.668,68.013 67.758,67.938 67.000,67.794 C66.248,67.651 65.539,67.440 64.878,67.162 L64.878,63.883 C65.629,64.229 66.469,64.522 67.400,64.755 C68.337,64.993 69.157,65.109 69.866,65.109 C71.327,65.109 72.050,64.693 72.050,63.861 C72.050,63.549 71.955,63.288 71.761,63.099 C71.568,62.901 71.238,62.683 70.762,62.430 ZM84.067,52.925 C86.142,52.925 87.761,53.514 88.918,54.680 C90.075,55.851 90.654,57.474 90.654,59.541 L90.654,61.461 L81.173,61.461 C81.215,62.594 81.552,63.474 82.187,64.108 C82.813,64.742 83.702,65.055 84.838,65.055 C85.727,65.055 86.569,64.965 87.354,64.781 C88.146,64.598 88.966,64.311 89.828,63.909 L89.828,66.985 C89.125,67.332 88.373,67.591 87.574,67.761 C86.782,67.926 85.803,68.013 84.660,68.013 C82.289,68.013 80.436,67.365 79.105,66.070 C77.770,64.781 77.109,62.948 77.109,60.576 C77.109,58.142 77.721,56.253 78.956,54.924 C80.189,53.589 81.891,52.925 84.067,52.925 ZM86.893,58.824 C86.879,57.841 86.616,57.087 86.114,56.553 C85.618,56.015 84.942,55.749 84.096,55.749 C83.240,55.749 82.572,56.015 82.090,56.553 C81.607,57.087 81.332,57.841 81.263,58.824 L86.893,58.824 Z"/>
</svg>
