<?xml version="1.0" encoding="UTF-8"?>
<svg width="13px" height="16px" viewBox="0 0 13 16" version="1.1" xmlns="http://www.w3.org/2000/svg" xmlns:xlink="http://www.w3.org/1999/xlink">
    <!-- Generator: Sketch 52.3 (67297) - http://www.bohemiancoding.com/sketch -->
    <title>Shape</title>
    <desc>Created with Sketch.</desc>
    <g id="UI" stroke="none" stroke-width="1" fill="none" fill-rule="evenodd">
        <g id="main_1920" transform="translate(-340.000000, -5714.000000)" fill="#D3B464" fill-rule="nonzero">
            <g id="contacts" transform="translate(0.000000, 5302.000000)">
                <g transform="translate(339.000000, 189.000000)" id="adress">
                    <g transform="translate(1.000000, 83.000000)">
                        <g transform="translate(0.000000, 134.000000)">
                            <path d="M6.30941798,6.00256752 L6.30941798,6 C6.29221561,6 6.27539837,6.00102701 6.25858113,6.00102701 C6.24176388,6.00102701 6.22494664,6 6.20774428,6 L6.20774428,6.00256752 C2.77022321,6.05725564 0,8.85880257 0,12.309418 C0,16.9593209 5.45931287,21.3728838 6.25858113,22 C7.05797776,21.3730122 12.5171623,16.9591925 12.5171623,12.309418 C12.5171623,8.85880257 9.74706741,6.05725564 6.30941798,6.00256752 Z M6.30941798,15.0234126 C4.51074346,15.0234126 3.05290691,13.5658328 3.05290691,11.767415 C3.05290691,9.96848372 4.51074346,8.51064717 6.30941798,8.51064717 C8.10809249,8.51064717 9.56605742,9.96848372 9.56605742,11.767415 C9.56605742,13.5658328 8.10809249,15.0234126 6.30941798,15.0234126 Z" id="Shape"></path>
                        </g>
                    </g>
                </g>
            </g>
        </g>
    </g>
</svg>