<svg id="Слой_1" data-name="Слой 1" xmlns="http://www.w3.org/2000/svg" xmlns:xlink="http://www.w3.org/1999/xlink" viewBox="0 0 687.36 306.03"><defs><style>.cls-1{fill:#fff;}.cls-2{fill:none;stroke:#d3b464;}.cls-3{mask:url(#mask);}.cls-4{opacity:0.27;}.cls-10,.cls-11,.cls-12,.cls-5,.cls-6,.cls-7,.cls-8,.cls-9{fill-rule:evenodd;}.cls-5{fill:url(#Безымянный_градиент);}.cls-6{fill:url(#Безымянный_градиент_2);}.cls-7{fill:url(#Безымянный_градиент_3);}.cls-8{fill:url(#Безымянный_градиент_4);}.cls-9{fill:url(#Безымянный_градиент_5);}.cls-10{fill:url(#Безымянный_градиент_6);}.cls-11{fill:url(#Безымянный_градиент_7);}.cls-12{fill:url(#Безымянный_градиент_8);}</style><mask id="mask" x="-0.58" y="-34.04" width="788" height="479" maskUnits="userSpaceOnUse"><g id="mask-2"><rect id="path-1" class="cls-1" x="-0.58" y="-0.04" width="688" height="445"/></g></mask><linearGradient id="Безымянный_градиент" x1="41.68" y1="610.96" x2="36.57" y2="613.87" gradientTransform="matrix(132, 0, 0, -31.46, -4244.47, 19357.17)" gradientUnits="userSpaceOnUse"><stop offset="0" stop-color="#fff"/><stop offset="1" stop-color="#d3b464"/></linearGradient><linearGradient id="Безымянный_градиент_2" x1="41.45" y1="614.28" x2="36.34" y2="617.2" gradientTransform="matrix(132, 0, 0, -99, -4244.47, 61070.79)" xlink:href="#Безымянный_градиент"/><linearGradient id="Безымянный_градиент_3" x1="40.38" y1="614.57" x2="35.27" y2="617.48" gradientTransform="matrix(25.44, 0, 0, -99, -269.16, 61070.79)" xlink:href="#Безымянный_градиент"/><linearGradient id="Безымянный_градиент_4" x1="41.61" y1="613.62" x2="36.5" y2="616.54" gradientTransform="matrix(221, 0, 0, -70, -7663.47, 43220.01)" xlink:href="#Безымянный_градиент"/><linearGradient id="Безымянный_градиент_5" x1="41.66" y1="615.45" x2="36.55" y2="618.36" gradientTransform="matrix(130.55, 0, 0, -182.66, -4480.84, 113010.53)" xlink:href="#Безымянный_градиент"/><linearGradient id="Безымянный_градиент_6" x1="41.52" y1="613.09" x2="36.41" y2="616" gradientTransform="matrix(99.02, 0, 0, -53.31, -3145.51, 32810.95)" xlink:href="#Безымянный_градиент"/><linearGradient id="Безымянный_градиент_7" x1="41.57" y1="615.16" x2="36.46" y2="618.07" gradientTransform="matrix(229, 0, 0, -203, -8014.8, 125611.41)" xlink:href="#Безымянный_градиент"/><linearGradient id="Безымянный_градиент_8" x1="41.8" y1="615.25" x2="36.69" y2="618.17" gradientTransform="matrix(221, 0, 0, -147, -7663.47, 90920.77)" xlink:href="#Безымянный_градиент"/></defs><title>back-4</title><g id="UI"><g id="companies_768" data-name="companies 768"><g id="Group"><g id="services"><g id="back-4"><rect class="cls-2" x="-1.08" y="-0.54" width="689" height="446"/><g class="cls-3"><g id="Group-27" class="cls-4"><polygon id="Fill-18" class="cls-5" points="787.42 90.69 787.42 59.23 655.42 65.82 787.42 90.69"/><polygon id="Fill-67" class="cls-6" points="655.42 64.96 787.42 58.32 787.42 24.64 669.61 -34.04 655.42 64.96"/><polygon id="Fill-68" class="cls-7" points="655.02 64.96 669.14 -34.04 643.7 4.18 655.02 64.96"/><polygon id="Fill-92" class="cls-8" points="566.42 134.96 787.42 104.77 787.42 89.81 655.47 64.96 566.42 134.96"/><polygon id="Fill-97" class="cls-9" points="364.86 156.18 495.42 306.62 473.64 123.96 364.86 156.18"/><polygon id="Fill-248" class="cls-10" points="619.42 38.27 567.57 -15.04 520.4 -14.26 619.42 38.27"/><polygon id="Fill-265" class="cls-11" points="514.42 337.96 743.42 292.45 743.42 250.38 523.85 134.96 514.42 337.96"/><polygon id="Fill-266" class="cls-12" points="787.42 252.96 787.42 105.96 566.42 136.32 787.42 252.96"/></g></g></g></g></g></g></g></svg>