<?xml version="1.0" encoding="utf-8"?>
<!-- Generator: Adobe Illustrator 21.0.0, SVG Export Plug-In . SVG Version: 6.00 Build 0)  -->
<svg version="1.1" id="Layer_1" xmlns="http://www.w3.org/2000/svg" xmlns:xlink="http://www.w3.org/1999/xlink" x="0px" y="0px"
	 viewBox="0 0 1696.6 147.2" style="enable-background:new 0 0 1696.6 147.2;" xml:space="preserve">
<style type="text/css">
	.st0{fill:none;stroke:#D3B464;stroke-linecap:square;}
</style>
<title>development_pic</title>
<desc>Created with Sketch.</desc>
<g id="UI">
	<g id="investors_1440" transform="translate(0.000000, -971.000000)">
		<g id="development_pic" transform="translate(-211.000000, 972.000000)">
			<path id="Rectangle_2_" class="st0" d="M1585.6,83.4l0-1l-665-69.9l-0.2,0l-664,132.7l0.1,1"/>
			<path id="Rectangle_1_" class="st0" d="M256.6,238.7"/>
			<polyline id="Stroke-1" class="st0" points="1647.4,24.3 1647.4,12.2 1647.4,12.2 1686.3,12.2 1686.3,93 1668,93 1668,72.9 
				1659.2,72.9 1659.2,93 1654.2,93 1654.2,32.1 1645.4,32.1 1645.4,93 1640.4,93 1640.4,0 1631.5,0 1631.5,88 1626.5,88 
				1626.5,52.6 1617.7,52.6 1617.7,87 1612.7,86 1612.7,43.1 1603.9,43.1 1603.9,85 1585.6,83 1585.6,12.2 1624.5,12.2 1624.5,24.3 
							"/>
		</g>
	</g>
</g>
<line class="st0" x1="709.6" y1="13.5" x2="709.5" y2="13.5"/>
<line class="st0" x1="1475.3" y1="94" x2="1696.6" y2="119.7"/>
</svg>
