<?xml version="1.0" encoding="utf-8"?>
<!-- Generator: Adobe Illustrator 21.0.0, SVG Export Plug-In . SVG Version: 6.00 Build 0)  -->
<svg version="1.1" id="Layer_1" xmlns="http://www.w3.org/2000/svg" xmlns:xlink="http://www.w3.org/1999/xlink" x="0px" y="0px"
	 viewBox="0 0 26 26" style="enable-background:new 0 0 26 26;" xml:space="preserve">
<style type="text/css">
	.st0{fill:none;stroke:#000000;stroke-linecap:square;stroke-opacity:0.67;}
	.st1{fill-opacity:0.67;}
</style>
<title>expand</title>
<desc>Created with Sketch.</desc>
<g id="UI">
	<g id="hoverlist" transform="translate(-125.000000, -2647.000000)">
		<g id="person_hover" transform="translate(90.000000, 2116.000000)">
			
				<g id="expand" transform="translate(48.500000, 543.500000) scale(-1, 1) translate(-48.500000, -543.500000) translate(36.000000, 531.000000)">
				<path id="Rectangle" class="st0" d="M15.5,14.5h9c0.6,0,1,0.4,1,1v9c0,0.6-0.4,1-1,1h-9c-0.6,0-1-0.4-1-1v-9
					C14.5,14.9,14.9,14.5,15.5,14.5z"/>
				<path id="Path" class="st1" d="M24.5,12c-0.1,0-0.3,0.1-0.4,0.1c-0.1,0.1-0.1,0.2-0.1,0.4s0.1,0.3,0.1,0.4
					c0.1,0.1,0.2,0.1,0.4,0.1c0.1,0,0.3-0.1,0.4-0.1c0.1-0.1,0.1-0.2,0.1-0.4s-0.1-0.3-0.1-0.4C24.8,12.1,24.6,12,24.5,12z"/>
				<path id="Path_1_" class="st1" d="M12.5,24c-0.3,0-0.5,0.2-0.5,0.5s0.2,0.5,0.5,0.5s0.5-0.2,0.5-0.5C13,24.2,12.8,24,12.5,24z"
					/>
				<path id="Path_2_" class="st1" d="M10.5,24c-0.3,0-0.5,0.2-0.5,0.5s0.2,0.5,0.5,0.5s0.5-0.2,0.5-0.5C11,24.2,10.8,24,10.5,24z"
					/>
				<path id="Path_3_" class="st1" d="M8.5,24C8.2,24,8,24.2,8,24.5S8.2,25,8.5,25S9,24.8,9,24.5C9,24.2,8.8,24,8.5,24z"/>
				<path id="Path_4_" class="st1" d="M6.5,24c-0.1,0-0.3,0.1-0.4,0.1C6.1,24.2,6,24.4,6,24.5s0.1,0.3,0.1,0.4
					C6.2,24.9,6.4,25,6.5,25s0.3-0.1,0.4-0.1C6.9,24.8,7,24.6,7,24.5s-0.1-0.3-0.1-0.4C6.8,24.1,6.6,24,6.5,24z"/>
				<path id="Path-Copy-3" class="st1" d="M4.5,24c-0.1,0-0.3,0.1-0.4,0.1C4.1,24.2,4,24.4,4,24.5s0.1,0.3,0.1,0.4
					C4.2,24.9,4.4,25,4.5,25s0.3-0.1,0.4-0.1C4.9,24.8,5,24.6,5,24.5s-0.1-0.3-0.1-0.4C4.8,24.1,4.6,24,4.5,24z"/>
				<path id="Path-Copy-4" class="st1" d="M2.5,24c-0.1,0-0.3,0.1-0.4,0.1C2.1,24.2,2,24.4,2,24.5s0.1,0.3,0.1,0.4
					C2.2,24.9,2.4,25,2.5,25s0.3-0.1,0.4-0.1C2.9,24.8,3,24.6,3,24.5s-0.1-0.3-0.1-0.4C2.8,24.1,2.6,24,2.5,24z"/>
				<path id="Path-Copy-5" class="st1" d="M0.5,24c-0.1,0-0.3,0.1-0.4,0.1C0.1,24.2,0,24.4,0,24.5s0.1,0.3,0.1,0.4
					C0.2,24.9,0.4,25,0.5,25s0.3-0.1,0.4-0.1C0.9,24.8,1,24.6,1,24.5s-0.1-0.3-0.1-0.4C0.8,24.1,0.6,24,0.5,24z"/>
				<path id="Path_5_" class="st1" d="M0.5,22C0.2,22,0,22.2,0,22.5S0.2,23,0.5,23S1,22.8,1,22.5S0.8,22,0.5,22z"/>
				<path id="Path-Copy-6" class="st1" d="M0.5,16C0.2,16,0,16.2,0,16.5S0.2,17,0.5,17S1,16.8,1,16.5S0.8,16,0.5,16z"/>
				<path id="Path-Copy-9" class="st1" d="M0.5,10C0.2,10,0,10.2,0,10.5S0.2,11,0.5,11S1,10.8,1,10.5S0.8,10,0.5,10z"/>
				<path id="Path-Copy-12" class="st1" d="M0.5,4C0.2,4,0,4.2,0,4.5S0.2,5,0.5,5S1,4.8,1,4.5S0.8,4,0.5,4z"/>
				<path id="Path_6_" class="st1" d="M0.5,20C0.2,20,0,20.2,0,20.5S0.2,21,0.5,21S1,20.8,1,20.5S0.8,20,0.5,20z"/>
				<path id="Path-Copy-7" class="st1" d="M0.5,14C0.2,14,0,14.2,0,14.5S0.2,15,0.5,15S1,14.8,1,14.5S0.8,14,0.5,14z"/>
				<path id="Path-Copy-10" class="st1" d="M0.5,8C0.2,8,0,8.2,0,8.5S0.2,9,0.5,9S1,8.8,1,8.5S0.8,8,0.5,8z"/>
				<path id="Path-Copy-13" class="st1" d="M0.5,2C0.2,2,0,2.2,0,2.5S0.2,3,0.5,3S1,2.8,1,2.5S0.8,2,0.5,2z"/>
				<path id="Path_7_" class="st1" d="M0.5,18C0.2,18,0,18.2,0,18.5S0.2,19,0.5,19S1,18.8,1,18.5S0.8,18,0.5,18z"/>
				<path id="Path-Copy-8" class="st1" d="M0.5,12C0.2,12,0,12.2,0,12.5S0.2,13,0.5,13S1,12.8,1,12.5S0.8,12,0.5,12z"/>
				<path id="Path-Copy-11" class="st1" d="M0.5,6C0.2,6,0,6.2,0,6.5S0.2,7,0.5,7S1,6.8,1,6.5S0.8,6,0.5,6z"/>
				<path id="Path-Copy-14" class="st1" d="M0.5,0C0.2,0,0,0.2,0,0.5S0.2,1,0.5,1S1,0.8,1,0.5S0.8,0,0.5,0z"/>
				<path id="Path_8_" class="st1" d="M16.5,0c-0.1,0-0.3,0.1-0.4,0.1C16.1,0.2,16,0.4,16,0.5s0.1,0.3,0.1,0.4
					C16.2,0.9,16.4,1,16.5,1s0.3-0.1,0.4-0.1C16.9,0.8,17,0.6,17,0.5s-0.1-0.3-0.1-0.4C16.8,0.1,16.6,0,16.5,0z"/>
				<path id="Path-Copy-15" class="st1" d="M6.5,0C6.4,0,6.2,0.1,6.1,0.1S6,0.4,6,0.5s0.1,0.3,0.1,0.4S6.4,1,6.5,1s0.3-0.1,0.4-0.1
					S7,0.6,7,0.5S6.9,0.2,6.9,0.1C6.8,0.1,6.6,0,6.5,0z"/>
				<path id="Path-Copy-15_1_" class="st1" d="M4.5,0C4.4,0,4.2,0.1,4.1,0.1S4,0.4,4,0.5s0.1,0.3,0.1,0.4S4.4,1,4.5,1
					s0.3-0.1,0.4-0.1S5,0.6,5,0.5S4.9,0.2,4.9,0.1C4.8,0.1,4.6,0,4.5,0z"/>
				<path id="Path-Copy-19" class="st1" d="M2.5,0C2.4,0,2.2,0.1,2.1,0.1S2,0.4,2,0.5s0.1,0.3,0.1,0.4S2.4,1,2.5,1s0.3-0.1,0.4-0.1
					S3,0.6,3,0.5S2.9,0.2,2.9,0.1C2.8,0.1,2.6,0,2.5,0z"/>
				<path id="Path_9_" class="st1" d="M22.5,0C22.2,0,22,0.2,22,0.5S22.2,1,22.5,1S23,0.8,23,0.5S22.8,0,22.5,0z"/>
				<path id="Path-Copy-16" class="st1" d="M12.5,0C12.2,0,12,0.2,12,0.5S12.2,1,12.5,1S13,0.8,13,0.5S12.8,0,12.5,0z"/>
				<path id="Path_10_" class="st1" d="M20.5,0C20.2,0,20,0.2,20,0.5S20.2,1,20.5,1S21,0.8,21,0.5S20.8,0,20.5,0z"/>
				<path id="Path_16_" class="st1" d="M18.5,0C18.2,0,18,0.2,18,0.5S18.2,1,18.5,1S19,0.8,19,0.5S18.8,0,18.5,0z"/>
				<path id="Path-Copy-17" class="st1" d="M10.5,0C10.2,0,10,0.2,10,0.5S10.2,1,10.5,1S11,0.8,11,0.5S10.8,0,10.5,0z"/>
				<path id="Path-Copy-17_1_" class="st1" d="M8.5,0C8.2,0,8,0.2,8,0.5S8.2,1,8.5,1S9,0.8,9,0.5S8.8,0,8.5,0z"/>
				<path id="Path_11_" class="st1" d="M24.9,4.1C24.8,4.1,24.6,4,24.5,4s-0.3,0.1-0.4,0.1C24.1,4.2,24,4.4,24,4.5s0.1,0.3,0.1,0.4
					C24.2,4.9,24.4,5,24.5,5c0.1,0,0.3-0.1,0.4-0.1C24.9,4.8,25,4.6,25,4.5S25,4.2,24.9,4.1z"/>
				<path id="Path-Copy" class="st1" d="M24.9,2.1C24.8,2.1,24.6,2,24.5,2s-0.3,0.1-0.4,0.1C24.1,2.2,24,2.4,24,2.5s0.1,0.3,0.1,0.4
					C24.2,2.9,24.4,3,24.5,3c0.1,0,0.3-0.1,0.4-0.1C24.9,2.8,25,2.6,25,2.5S25,2.2,24.9,2.1z"/>
				<path id="Path-Copy-2" class="st1" d="M24.9,0.1C24.8,0.1,24.6,0,24.5,0s-0.3,0.1-0.4,0.1C24.1,0.2,24,0.4,24,0.5
					s0.1,0.3,0.1,0.4C24.2,0.9,24.4,1,24.5,1c0.1,0,0.3-0.1,0.4-0.1C24.9,0.8,25,0.6,25,0.5S25,0.2,24.9,0.1z"/>
				<path id="Path-Copy-18" class="st1" d="M14.9,0.1C14.8,0.1,14.6,0,14.5,0s-0.3,0.1-0.4,0.1C14.1,0.2,14,0.4,14,0.5
					s0.1,0.3,0.1,0.4C14.2,0.9,14.4,1,14.5,1c0.1,0,0.3-0.1,0.4-0.1C14.9,0.8,15,0.6,15,0.5S14.9,0.2,14.9,0.1z"/>
				<path id="Path_12_" class="st1" d="M24.5,10c-0.3,0-0.5,0.2-0.5,0.5s0.2,0.5,0.5,0.5s0.5-0.2,0.5-0.5S24.8,10,24.5,10z"/>
				<path id="Path_13_" class="st1" d="M24.5,6C24.2,6,24,6.2,24,6.5S24.2,7,24.5,7S25,6.8,25,6.5S24.8,6,24.5,6z"/>
				<path id="Path_14_" class="st1" d="M24.5,8C24.2,8,24,8.2,24,8.5S24.2,9,24.5,9S25,8.8,25,8.5S24.8,8,24.5,8z"/>
				<path id="Path_15_" class="st1" d="M12.1,13H8.3c-0.3,0-0.6,0.3-0.6,0.6c0,0.3,0.3,0.6,0.6,0.6h5.4c0.3,0,0.6-0.3,0.6-0.6V8.3
					c0-0.3-0.3-0.6-0.6-0.6c-0.3,0-0.6,0.3-0.6,0.6v3.9L6.3,5.4C6.1,5.3,6,5.2,5.8,5.2c-0.2,0-0.3,0.1-0.4,0.2
					C5.1,5.6,5.1,6,5.4,6.3L12.1,13z"/>
			</g>
		</g>
	</g>
</g>
</svg>
