<?xml version="1.0" encoding="utf-8"?>
<!-- Generator: Adobe Illustrator 21.0.0, SVG Export Plug-In . SVG Version: 6.00 Build 0)  -->
<svg version="1.1" id="Layer_1" xmlns="http://www.w3.org/2000/svg" xmlns:xlink="http://www.w3.org/1999/xlink" x="0px" y="0px"
	 viewBox="0 0 1679.1 133.2" style="enable-background:new 0 0 1679.1 133.2;" xml:space="preserve">
<style type="text/css">
	.st0{fill:none;stroke:#D3B464;stroke-linecap:square;}
	.st1{fill:#FFFFFF;stroke:#D3B464;stroke-linecap:square;}
</style>
<title>hydro_pic</title>
<desc>Created with Sketch.</desc>
<g id="UI">
	<g id="investors_1440" transform="translate(0.000000, -3496.000000)">
		<g id="hydro_pic" transform="translate(-239.000000, 3497.000000)">
			<path id="Rectangle_3_" class="st0" d="M1596.1,73l0-1l-28-2.6l-665-69.9l-0.2,0L239,132.2"/>
			<path id="Rectangle_2_" class="st0" d="M239,132.2"/>
			<path id="Rectangle_1_" class="st0" d="M239.1,215.6"/>
			<g id="Group-40" transform="translate(1357.000000, 19.000000)">
				<polyline id="Stroke-1" class="st0" points="266.1,3.5 266.1,0 247.8,0 239.1,53 				"/>
				<polyline id="Stroke-3" class="st0" points="305.9,64 312.1,64 322.1,4 263.1,4 258.1,34 				"/>
				<polygon id="Fill-4" class="st0" points="303.1,11 303.1,22 314.1,15.2 314.1,11 				"/>
				<polygon id="Stroke-5" class="st0" points="303.1,11 303.1,22 314.1,15.2 314.1,11 				"/>
				<polygon id="Fill-6" class="st0" points="284.1,11 284.1,22 295.1,15.2 295.1,11 				"/>
				<polygon id="Stroke-7" class="st0" points="284.1,11 284.1,22 295.1,15.2 295.1,11 				"/>
				<polygon id="Fill-8" class="st0" points="266.1,11 266.1,22 277.1,15.2 277.1,11 				"/>
				<polygon id="Stroke-9" class="st0" points="266.1,11 266.1,22 277.1,15.2 277.1,11 				"/>
				<path id="Fill-10" class="st0" d="M270.1,64c-2.6-26.4,6-50,6-50h-7.6c0,0-13.6,13.8-16.4,50"/>
				<path id="Stroke-12" class="st1" d="M270.6,64c-2.6-26.4,5.5-50,5.5-50h-7.6c0,0-13.6,13.8-16.4,50"/>
				<path id="Fill-14" class="st0" d="M289.1,63.2c-2.6-26.4,5-49.2,5-49.2h-7.6c0,0-13.6,13.8-16.4,50"/>
				<path id="Stroke-16" class="st1" d="M289.1,64c-2.6-26.4,5-50,5-50h-7.6c0,0-13.6,13.8-16.4,50"/>
				<path id="Fill-18" class="st0" d="M305.7,64c-2.6-26.4,7.4-50,7.4-50h-7.6c0,0-13.6,13.8-16.4,50"/>
				<path id="Stroke-20" class="st1" d="M305.7,64c-2.6-26.4,7.4-50,7.4-50h-7.6c0,0-13.6,13.8-16.4,50"/>
				<polyline id="Stroke-22" class="st0" points="339.1,64 339.1,0 322.5,0 321.9,3.5 312.1,64 				"/>
			</g>
		</g>
	</g>
</g>
<line class="st0" x1="1457.1" y1="84" x2="1677.4" y2="107.4"/>
</svg>
