<?xml version="1.0" encoding="UTF-8"?>
<svg width="147px" height="57px" viewBox="0 0 147 57" version="1.1" xmlns="http://www.w3.org/2000/svg" xmlns:xlink="http://www.w3.org/1999/xlink">
    <!-- Generator: Sketch 52.3 (67297) - http://www.bohemiancoding.com/sketch -->
    <title>logo_footer</title>
    <desc>Created with Sketch.</desc>
    <defs>
        <polygon id="path-1" points="0 0.431202439 29.0245092 0.431202439 29.0245092 28.5557634 0 28.5557634"></polygon>
        <polygon id="path-3" points="0.687206154 0.155302439 6.26792923 0.155302439 6.26792923 6.80487805 0.687206154 6.80487805"></polygon>
    </defs>
    <g id="Symbols" stroke="none" stroke-width="1" fill="none" fill-rule="evenodd">
        <g id="footer_1440" transform="translate(0.000000, -76.000000)">
            <g id="logo_footer">
                <g transform="translate(0.000000, 76.000000)">
                    <g id="Group-3" transform="translate(0.000000, 1.042732)">
                        <mask id="mask-2" fill="white">
                            <use xlink:href="#path-1"></use>
                        </mask>
                        <g id="Clip-2"></g>
                        <path d="M15.3316477,23.5882024 C17.4439246,18.6939829 22.3235708,5.94693415 23.1249092,3.31647073 C23.30734,2.7690561 23.4528323,2.25717805 23.4528323,1.92903171 C23.4528323,1.63642195 23.3435246,1.27122683 22.9801708,1.08825122 C22.5421862,0.943080488 21.9964015,0.943080488 21.5961092,0.943080488 C21.3774938,0.943080488 21.1950631,0.906031707 21.1950631,0.723812195 C21.1950631,0.504543902 21.4129246,0.431202439 21.9964015,0.431202439 C23.4528323,0.431202439 25.1278785,0.540836585 25.5651092,0.540836585 C25.7837246,0.540836585 27.3494631,0.431202439 28.4056015,0.431202439 C28.8066477,0.431202439 29.0245092,0.504543902 29.0245092,0.686763415 C29.0245092,0.869739024 28.8797708,0.943080488 28.5880323,0.943080488 C28.3324785,0.943080488 27.5318938,0.943080488 26.8398631,1.38086098 C26.3664477,1.70900732 25.8199092,2.33051951 24.8368938,4.8143 C24.4358477,5.8357878 22.6153092,10.2203976 20.7578323,14.7131293 C18.5362477,20.0451293 16.8973862,23.9896902 16.0606169,25.7793732 C15.0399092,27.9713 14.8951708,28.5557634 14.5310631,28.5557634 C14.0930785,28.5557634 13.9114015,28.0453976 13.2193708,26.2920073 L4.29684769,3.90169024 C3.49626308,1.85569024 2.94972462,1.45420244 1.67497077,1.08825122 C1.12843231,0.943080488 0.509524615,0.943080488 0.291663077,0.943080488 C0.0730476923,0.943080488 -7.53846154e-05,0.832690244 -7.53846154e-05,0.686763415 C-7.53846154e-05,0.46825122 0.364032308,0.431202439 0.946755385,0.431202439 C2.69417077,0.431202439 4.77026308,0.540836585 5.20749385,0.540836585 C5.57235538,0.540836585 7.21121692,0.431202439 8.59377077,0.431202439 C9.25037077,0.431202439 9.57754,0.504543902 9.57754,0.686763415 C9.57754,0.869739024 9.46898615,0.943080488 9.21343231,0.943080488 C8.81314,0.943080488 8.15729385,0.979373171 7.83012462,1.1253 C7.42907846,1.30751951 7.35595538,1.60012927 7.35595538,1.85569024 C7.35595538,2.33051951 7.79318615,3.46315366 8.33972462,4.88688537 L15.3316477,23.5882024 Z" id="Fill-1" fill="#231F20" mask="url(#mask-2)"></path>
                    </g>
                    <path d="M42.4001523,18.4950512 C42.4001523,22.0010756 42.4001523,24.8878561 42.5818292,26.4204659 C42.6918908,27.4812707 42.9097523,28.2842463 44.0020754,28.4309293 C44.5124292,28.5027585 45.3130138,28.5768561 45.6416908,28.5768561 C45.8595523,28.5768561 45.9326754,28.6864902 45.9326754,28.7953683 C45.9326754,28.9783439 45.7502446,29.087978 45.3499523,29.087978 C43.3469831,29.087978 41.0522754,28.9783439 40.8705985,28.9783439 C40.6881677,28.9783439 38.3942138,29.087978 37.3011369,29.087978 C36.9008446,29.087978 36.7191677,29.0138805 36.7191677,28.7953683 C36.7191677,28.6864902 36.7922908,28.5768561 37.0101523,28.5768561 C37.3380754,28.5768561 37.7745523,28.5027585 38.1032292,28.4309293 C38.8314446,28.2842463 39.0131215,27.4812707 39.1586138,26.4204659 C39.3402908,24.8878561 39.3402908,22.0010756 39.3402908,18.4950512 L39.3402908,12.0667098 C39.3402908,6.36800244 39.3402908,5.34575854 39.2679215,4.17683171 C39.1955523,2.93531951 38.8314446,2.31456341 38.0301062,2.13083171 C37.62906,2.02195366 37.1556446,1.98566098 36.9008446,1.98566098 C36.7553523,1.98566098 36.6091062,1.91231951 36.6091062,1.76639268 C36.6091062,1.54712439 36.7922908,1.47378293 37.1925831,1.47378293 C38.3942138,1.47378293 40.6881677,1.58341707 40.8705985,1.58341707 C41.0522754,1.58341707 43.3469831,1.47378293 44.4393062,1.47378293 C44.8395985,1.47378293 45.0227831,1.54712439 45.0227831,1.76639268 C45.0227831,1.91231951 44.8765369,1.98566098 44.7310446,1.98566098 C44.4762446,1.98566098 44.2576292,2.02195366 43.8203985,2.09529512 C42.8366292,2.27751463 42.5456446,2.89827073 42.4732754,4.17683171 C42.4001523,5.34575854 42.4001523,6.36800244 42.4001523,12.0667098 L42.4001523,18.4950512 Z" id="Fill-4" fill="#231F20"></path>
                    <path d="M55.7603415,28.6122415 C55.2507415,28.3566805 55.2138031,28.2107537 55.2138031,27.2255585 C55.2138031,25.3988268 55.3600492,23.9365341 55.3969877,23.3535829 C55.4324185,22.9520951 55.5055415,22.7683634 55.6872185,22.7683634 C55.9058338,22.7683634 55.9427723,22.8779976 55.9427723,23.1706073 C55.9427723,23.4995098 55.9427723,24.0106317 56.05208,24.5217537 C56.5978646,27.2255585 59.00188,28.2478024 61.44208,28.2478024 C64.9384185,28.2478024 66.6496492,25.7269732 66.6496492,23.3891195 C66.6496492,20.8698024 65.5935108,19.4075098 62.4620338,16.8140951 L60.8231723,15.4629488 C56.9627262,12.2850707 56.0890185,10.0213146 56.0890185,7.53753415 C56.0890185,3.62926585 59.00188,0.962509756 63.62748,0.962509756 C65.0469723,0.962509756 66.1038646,1.10843659 67.0137569,1.32770488 C67.7057877,1.47363171 67.9967723,1.51068049 68.2885108,1.51068049 C68.5794954,1.51068049 68.6526185,1.58326585 68.6526185,1.76624146 C68.6526185,1.94846098 68.5071262,3.15443659 68.5071262,5.63670488 C68.5071262,6.22192439 68.4340031,6.47748537 68.2515723,6.47748537 C68.0329569,6.47748537 67.9967723,6.29526585 67.9605877,6.0034122 C67.9244031,5.56487561 67.7057877,4.57816829 67.4871723,4.17743659 C67.2693108,3.77519268 66.2855415,2.24107073 62.9354492,2.24107073 C60.4221262,2.24107073 58.4553415,3.81148537 58.4553415,6.47748537 C58.4553415,8.55977805 59.4021723,9.8753878 62.8985108,12.6147293 L63.9177108,13.4177049 C68.2153877,16.8140951 69.2353415,19.0801195 69.2353415,22.0009244 C69.2353415,23.4995098 68.6526185,26.2743878 66.1400492,28.0640707 C64.5735569,29.1604122 62.6075262,29.5989488 60.6407415,29.5989488 C58.9287569,29.5989488 57.2537108,29.3433878 55.7603415,28.6122415" id="Fill-6" fill="#231F20"></path>
                    <path d="M80.4112615,12.0667098 C80.4112615,6.36800244 80.4112615,5.34575854 80.3381385,4.17683171 C80.2657692,2.93531951 79.9747846,2.3501 78.7724,2.09529512 C78.4806615,2.02195366 77.8617538,1.98566098 77.5345846,1.98566098 C77.3883385,1.98566098 77.2428462,1.91231951 77.2428462,1.76639268 C77.2428462,1.54712439 77.4252769,1.47378293 77.8255692,1.47378293 C79.4644308,1.47378293 81.6860154,1.58341707 82.0139385,1.58341707 C82.3418615,1.58341707 84.5265077,1.47378293 85.6188308,1.47378293 C86.0191231,1.47378293 86.2023077,1.54712439 86.2023077,1.76639268 C86.2023077,1.91231951 86.0560615,1.98566098 85.9105692,1.98566098 C85.6557692,1.98566098 85.4371538,2.02195366 84.9999231,2.09529512 C84.0169077,2.24122195 83.7251692,2.89827073 83.6528,4.17683171 C83.5796769,5.34575854 83.5796769,6.36800244 83.5796769,12.0667098 L83.5796769,17.1809537 C83.5796769,22.4396122 84.7451231,24.7048805 86.3108615,26.2019537 C88.0952154,27.8827585 89.7340769,28.2109049 91.8101692,28.2109049 C94.0317538,28.2109049 96.2171538,27.1516122 97.5280923,25.5804415 C99.2031385,23.499661 99.6403692,20.3943683 99.6403692,16.6327829 L99.6403692,12.0667098 C99.6403692,6.36800244 99.6403692,5.34575854 99.5672462,4.17683171 C99.4941231,2.93531951 99.2031385,2.3501 98.0015077,2.09529512 C97.7097692,2.02195366 97.0908615,1.98566098 96.7629385,1.98566098 C96.6174462,1.98566098 96.4719538,1.91231951 96.4719538,1.76639268 C96.4719538,1.54712439 96.6536308,1.47378293 97.0539231,1.47378293 C98.6935385,1.47378293 100.695754,1.58341707 100.914369,1.58341707 C101.169169,1.58341707 102.881154,1.47378293 103.974231,1.47378293 C104.374523,1.47378293 104.5562,1.54712439 104.5562,1.76639268 C104.5562,1.91231951 104.410708,1.98566098 104.265215,1.98566098 C104.010415,1.98566098 103.7918,2.02195366 103.355323,2.09529512 C102.371554,2.31456341 102.079815,2.89827073 102.006692,4.17683171 C101.934323,5.34575854 101.934323,6.36800244 101.934323,12.0667098 L101.934323,15.974222 C101.934323,19.9202951 101.497846,24.3033927 98.5834769,26.8960512 C95.9616,29.2339049 93.2304154,29.5983439 91.0819538,29.5983439 C89.8441385,29.5983439 86.1653692,29.4524171 83.5796769,27.0056854 C81.7953231,25.2893439 80.4112615,22.7314659 80.4112615,17.3994659 L80.4112615,12.0667098 Z" id="Fill-8" fill="#231F20"></path>
                    <path d="M142.065398,24.3754488 C142.210891,25.6910585 142.465691,27.7363024 144.031429,28.2474244 C145.088322,28.5770829 146.035152,28.5770829 146.39926,28.5770829 C146.580937,28.5770829 146.690998,28.6126195 146.690998,28.7585463 C146.690998,28.9785707 146.362322,29.0874488 145.925845,29.0874488 C145.12526,29.0874488 141.191691,28.9785707 139.844568,28.8689366 C139.006291,28.7955951 138.82386,28.685961 138.82386,28.5029854 C138.82386,28.3570585 138.896983,28.2844732 139.079414,28.2474244 C139.261091,28.2103756 139.298029,27.5903756 139.224906,26.9333268 L137.476737,8.08532683 L137.368183,8.08532683 L128.44566,27.0792537 C127.680506,28.685961 127.571198,29.0141073 127.243275,29.0141073 C126.988475,29.0141073 126.806798,28.6489122 126.114768,27.3348146 C125.167937,25.5451317 122.035706,19.2256683 121.853275,18.8597171 C121.526106,18.2026683 117.447045,9.43647317 117.046752,8.45052195 L116.900506,8.45052195 L115.444829,25.3992049 C115.407891,25.9836683 115.407891,26.6407171 115.407891,27.2607171 C115.407891,27.8088878 115.808183,28.2844732 116.354722,28.3933512 C116.973629,28.5400341 117.519414,28.5770829 117.738029,28.5770829 C117.884275,28.5770829 118.029768,28.6489122 118.029768,28.7585463 C118.029768,29.0141073 117.811152,29.0874488 117.373922,29.0874488 C116.026798,29.0874488 114.279383,28.9785707 113.987645,28.9785707 C113.659722,28.9785707 111.911552,29.0874488 110.927783,29.0874488 C110.564429,29.0874488 110.308875,29.0141073 110.308875,28.7585463 C110.308875,28.6489122 110.491306,28.5770829 110.672983,28.5770829 C110.964722,28.5770829 111.219522,28.5770829 111.76606,28.4659366 C112.967691,28.2474244 113.076998,26.8221805 113.222491,25.4354976 L115.845122,1.61993659 C115.881306,1.21844878 116.026798,0.962131707 116.245414,0.962131707 C116.464029,0.962131707 116.609522,1.10881463 116.791952,1.51105854 L127.935306,24.4850829 L138.642183,1.54735122 C138.787675,1.21844878 138.933922,0.962131707 139.188722,0.962131707 C139.442768,0.962131707 139.552829,1.25474146 139.625952,1.94883902 L142.065398,24.3754488 Z" id="Fill-10" fill="#231F20"></path>
                    <g id="Group-14" transform="translate(42.215385, 50.189073)">
                        <mask id="mask-4" fill="white">
                            <use xlink:href="#path-3"></use>
                        </mask>
                        <g id="Clip-13"></g>
                        <path d="M5.38291385,2.22700976 C5.32562154,1.94800976 5.22988308,1.72344878 5.09720615,1.55181463 C4.96302154,1.38093659 4.81300615,1.24635122 4.64489846,1.15183902 C4.47754462,1.05581463 4.30189846,0.990790244 4.11946769,0.959790244 C3.93854462,0.927278049 3.77194462,0.9114 3.62042154,0.9114 C3.33772923,0.9114 3.07162154,0.964326829 2.82285231,1.06942439 C2.57332923,1.17225366 2.35546769,1.32952195 2.16700615,1.53896098 C1.97854462,1.7468878 1.83154462,2.00849756 1.72374462,2.32152195 C1.61820615,2.63605854 1.56392923,3.00049756 1.56392923,3.41861951 C1.56392923,3.79061951 1.59860615,4.1361561 1.66796,4.45825366 C1.73731385,4.78186341 1.85491385,5.05935122 2.02000615,5.29449756 C2.18509846,5.5304 2.39843692,5.71337561 2.66228308,5.84796098 C2.92537538,5.98103415 3.25405231,6.04757073 3.64680615,6.04757073 C3.78551385,6.04757073 3.94306769,6.0264 4.11946769,5.98254634 C4.29662154,5.93944878 4.47151385,5.85552195 4.64489846,5.73000976 C4.81903692,5.60600976 4.97809846,5.42983902 5.12208308,5.20300976 C5.26682154,4.97693659 5.37386769,4.68130244 5.44322154,4.31535122 L6.26792923,4.31535122 C6.21063692,4.71079024 6.11339077,5.04649756 5.97769846,5.32549756 C5.84049846,5.60449756 5.68445231,5.83586341 5.50956,6.02261951 C5.33316,6.20710732 5.14469846,6.35303415 4.94417538,6.45661951 C4.74516,6.56096098 4.55217538,6.63959512 4.36672923,6.69100976 C4.18279077,6.74469268 4.01543692,6.77569268 3.86316,6.78703415 C3.71314462,6.79913171 3.59856,6.80518049 3.51714462,6.80518049 C3.15831385,6.80518049 2.80928308,6.74469268 2.47080615,6.62144878 C2.13232923,6.50047317 1.83003692,6.3046439 1.56392923,6.03396098 C1.29857538,5.76554634 1.08523692,5.41849756 0.926175385,4.99432683 C0.767113846,4.5709122 0.687206154,4.05374146 0.687206154,3.44508293 C0.687206154,2.9581561 0.753544615,2.51205854 0.887729231,2.10905854 C1.02040615,1.70605854 1.21339077,1.35900976 1.46517538,1.06942439 C1.71696,0.778326829 2.02452923,0.553765854 2.38788308,0.394229268 C2.75349846,0.234692683 3.16434462,0.155302439 3.62042154,0.155302439 C4.02523692,0.155302439 4.38331385,0.212765854 4.69239077,0.327692683 C5.00297538,0.444887805 5.26380615,0.59837561 5.47865231,0.79042439 C5.69199077,0.982473171 5.86009846,1.20249756 5.98222154,1.45200976 C6.10283692,1.70152195 6.17822154,1.95935122 6.20762154,2.22700976 L5.38291385,2.22700976 Z" id="Fill-12" fill="#989A9D" mask="url(#mask-4)"></path>
                    </g>
                    <path d="M56.8682692,54.2354049 L55.9395308,51.4484293 L55.9214385,51.4484293 L54.9143,54.2354049 L56.8682692,54.2354049 Z M54.6549769,54.9824293 L53.9953615,56.8288195 L53.1178846,56.8288195 L55.4887308,50.5093561 L56.4513923,50.5093561 L58.7249923,56.8288195 L57.7970077,56.8288195 L57.1713154,54.9824293 L54.6549769,54.9824293 Z" id="Fill-15" fill="#989A9D"></path>
                    <path d="M64.6791708,53.4335634 L66.3708015,53.4335634 C66.5622785,53.4335634 66.7364169,53.414661 66.8924631,53.3776122 C67.0485092,53.3390512 67.18194,53.275539 67.2957708,53.1855634 C67.4088477,53.0955878 67.49554,52.9783927 67.5603708,52.8324659 C67.6236938,52.6880512 67.6561092,52.5073439 67.6561092,52.2933683 C67.6561092,52.0952707 67.6236938,51.9304415 67.5603708,51.7973683 C67.49554,51.6642951 67.4088477,51.5554171 67.2957708,51.4707341 C67.18194,51.3868073 67.0500169,51.3278317 66.8962323,51.2922951 C66.7432015,51.2582707 66.5796169,51.2408805 66.4062323,51.2408805 L64.6791708,51.2408805 L64.6791708,53.4335634 Z M64.6791708,56.8284415 L63.8280785,56.8284415 L63.8280785,50.5097341 L66.6670631,50.5097341 C66.9557862,50.5097341 67.2158631,50.5535878 67.4472938,50.6443195 C67.6787246,50.7342951 67.8739708,50.8567829 68.0330323,51.0132951 C68.1920938,51.1713195 68.3157246,51.3573195 68.4009092,51.5758317 C68.4883554,51.7928317 68.5320785,52.0294902 68.5320785,52.2842951 C68.5320785,52.5043195 68.4981554,52.7273683 68.4325708,52.9504171 C68.3662323,53.1734659 68.2584323,53.3761 68.1114323,53.5560512 C67.9636785,53.7360024 67.7714477,53.8826854 67.5339862,53.9945878 C67.2972785,54.1087585 67.0070477,54.1647098 66.6670631,54.1647098 L64.6791708,54.1647098 L64.6791708,56.8284415 Z" id="Fill-17" fill="#989A9D"></path>
                    <polygon id="Fill-19" fill="#989A9D" points="73.9048154 56.8283659 74.7559077 56.8283659 74.7559077 50.5096585 73.9048154 50.5096585"></polygon>
                    <polygon id="Fill-21" fill="#989A9D" points="82.8450538 56.8285927 81.9939615 56.8285927 81.9939615 51.2659829 79.8590692 51.2659829 79.8590692 50.5098854 84.9799462 50.5098854 84.9799462 51.2659829 82.8450538 51.2659829"></polygon>
                    <path d="M92.7908477,54.2354049 L91.8621092,51.4484293 L91.8440169,51.4484293 L90.8368785,54.2354049 L92.7908477,54.2354049 Z M90.5775554,54.9824293 L89.91794,56.8288195 L89.0404631,56.8288195 L91.4113092,50.5093561 L92.3739708,50.5093561 L94.6475708,56.8288195 L93.7195862,56.8288195 L93.0938938,54.9824293 L90.5775554,54.9824293 Z" id="Fill-22" fill="#989A9D"></path>
                    <polygon id="Fill-23" fill="#989A9D" points="100.601674 56.0709829 103.788182 56.0709829 103.788182 56.8285927 99.7505815 56.8285927 99.7505815 50.5098854 100.601674 50.5098854"></polygon>
                    <path d="M5.87615538,37.1981073 L146.845386,37.1981073" id="Stroke-24" stroke="#231F20"></path>
                </g>
            </g>
        </g>
    </g>
</svg>