<?xml version="1.0" encoding="UTF-8"?>
<svg width="121px" height="98px" viewBox="0 0 121 98" version="1.1" xmlns="http://www.w3.org/2000/svg" xmlns:xlink="http://www.w3.org/1999/xlink">
    <!-- Generator: Sketch 52.3 (67297) - http://www.bohemiancoding.com/sketch -->
    <title>placeholder</title>
    <desc>Created with Sketch.</desc>
    <defs>
        <path d="M50.1220441,79.3300173 L95.1220441,79.3300173 C85.9642618,91.4496735 75.1802337,100.29 72.6220441,102.330017 C70.0638545,100.289243 59.2798264,91.4496735 50.1220441,79.3300173 Z M109.122044,45.3300173 L36.1220441,45.3300173 C36.2036594,25.628393 42.0762937,17.8106378 62.0757809,17.4980421 C93.3860454,22.9182761 109.068133,32.1956011 109.122044,45.3300173 Z M97.4233354,75.3300173 L46.8207528,75.3300173 C41.4420656,67.4912426 37.0933713,58.5483624 36.1220441,49.3300173 L108.122044,49.3300173 C107.149974,58.5483624 102.80128,67.4912426 97.4233354,75.3300173 Z" id="path-1"></path>
        <filter x="-10.3%" y="-5.3%" width="120.5%" height="117.7%" filterUnits="objectBoundingBox" id="filter-2">
            <feOffset dx="0" dy="3" in="SourceAlpha" result="shadowOffsetOuter1"></feOffset>
            <feGaussianBlur stdDeviation="2" in="shadowOffsetOuter1" result="shadowBlurOuter1"></feGaussianBlur>
            <feColorMatrix values="0 0 0 0 0   0 0 0 0 0   0 0 0 0 0  0 0 0 0.2 0" type="matrix" in="shadowBlurOuter1"></feColorMatrix>
        </filter>
        <linearGradient x1="9.45010857%" y1="0%" x2="80.5849169%" y2="100%" id="linearGradient-3">
            <stop stop-color="#F5EEB8" offset="0%"></stop>
            <stop stop-color="#E9DFA6" offset="52.7682442%"></stop>
            <stop stop-color="#817958" offset="100%"></stop>
        </linearGradient>
    </defs>
    <g id="UI" stroke="none" stroke-width="1" fill="none" fill-rule="evenodd">
        <g id="main_1920" transform="translate(-899.000000, -6008.000000)">
            <g id="contacts" transform="translate(0.000000, 5307.000000)">
                <g id="map" transform="translate(249.000000, 635.000000)">
                    <g id="placeholder" transform="translate(650.000000, 66.000000)">
                        <g id="Combined-Shape" opacity="0.490513393" transform="translate(72.622044, 59.914030) scale(-1, 1) rotate(-43.000000) translate(-72.622044, -59.914030) " fill="black" fill-opacity="1">
                            <use filter="url(#filter-2)" xlink:href="#path-1"></use>
                        </g>
                        <path d="M14,70 L59,70 C49.8422177,82.1196561 39.0581896,90.9599829 36.5,93 C33.9418104,90.9592253 23.1577823,82.1196561 14,70 Z M73,36 L0,36 C0.0816152789,16.2983757 16.2040023,0.32730616 36.2034894,0.0147103892 L36.2034894,0 C36.3038238,0 36.4019119,0.00514863622 36.5,0.00514863622 C36.5980881,0.00514863622 36.6961762,0 36.7965106,0 L36.7965106,0.0147103892 C56.7959977,0.32730616 72.9191335,16.2983757 73,36 Z M61.3012913,66 L10.6987087,66 C5.32002145,58.1612253 0.9713272,49.2183451 0,40 L72,40 C71.0279302,49.2183451 66.6792359,58.1612253 61.3012913,66 Z" id="Combined-Shape" fill="url(#linearGradient-3)"></path>
                    </g>
                </g>
            </g>
        </g>
    </g>
</svg>