<svg xmlns="http://www.w3.org/2000/svg" width="1922.002" height="666.011" viewBox="0 0 1922.002 666.011">
  <defs>
    <style>
      .cls-1 {
        fill: #fff;
        stroke-linecap: square;
        stroke-miterlimit: 10;
      }

      .cls-2, .cls-3 {
        stroke: none;
      }

      .cls-3 {
        fill: #d3b464;
      }
    </style>
  </defs>
  <g id="Rectangle" class="cls-1" transform="translate(1921.002 1)">
    <path class="cls-2" d="M -815.9769287109375 664.5052490234375 L -816.0526123046875 664.4971313476563 L -1919.052612304688 547.5809326171875 L -1919.499267578125 547.5338134765625 L -1919.5 547.0847778320313 L -1920.5 0.0009523809421807528 L -1920.5009765625 -0.5 L -1920 -0.5 L 0 -0.5 L 0.5 -0.5 L 0.5 0 L 0.5 500.7852478027344 L 0.5 501.1952514648438 L 0.09809523820877075 501.2754821777344 L -815.9019165039063 664.490234375 L -815.9769287109375 664.5052490234375 Z"/>
    <path class="cls-3" d="M -816 664 L 0 500.7852478027344 L 0 0 L -1920 0 L -1919 547.0838012695313 L -816 664 M -815.9535522460938 665.010498046875 L -816.10546875 664.9945068359375 L -1919.10546875 548.0783081054688 L -1919.998291015625 547.9835815429688 L -1920 547.085693359375 L -1921 0.001904761884361506 L -1921.001953125 -1 L -1920 -1 L 0 -1 L 1 -1 L 1 0 L 1 500.7852478027344 L 1 501.6050109863281 L 0.1961904764175415 501.7657165527344 L -815.8038330078125 664.98046875 L -815.9535522460938 665.010498046875 Z"/>
  </g>
</svg>
