<?xml version="1.0" encoding="utf-8"?>
<svg xmlns="http://www.w3.org/2000/svg"
	xmlns:xlink="http://www.w3.org/1999/xlink"
	width="161px" height="23px" viewBox="0 0 161 23">
<style type="text/css"><![CDATA[
.style0 {
  font-size: 12px;
  font-family: "Circe-Bold";
  fill: rgb(111,111,111);
  text-transform: uppercase;
}
]]></style>
<filter filterUnits="objectBoundingBox" x="-447.83" y="-447.83" width="995.65" height="995.65" id="filter0">
<feGaussianBlur in="SourceAlpha" stdDeviation="51.50" result="dsBlurOut1"/>
<feFlood flood-color="rgb(0,0,0)" flood-opacity="0.09" result="dsFloodOut1"/>
<feComposite in="dsFloodOut1" in2="dsBlurOut1" operator="in" result="dsShadow1"/>
<feOffset in="dsShadow1" dx="-0.00" dy="44.00" result="dsOffset1"/>
<feComposite in="dsOffset1" in2="SourceAlpha" operator="out" result="dropShadow1"/>
<feBlend in="dropShadow1" in2="SourceGraphic" mode="normal" result="sourceGraphic"/>
</filter>
<text transform="translate(-1.35,17.48)" class="style0"><tspan x="0.00 10.13 18.07 26.66 33.17 36.31 43.24 50.33 53.47 61.97 68.47 76.02 82.58 88.56 96.32 104.67" fill="rgb(110,110,110)">Made by NEXTPAGE</tspan></text><path fillRule="evenodd" d="M 158 20C 158 20 158 3 158 3 158 3 141 3 141 3 141 3 141 20 141 20 141 20 158 20 158 20M 161 23C 161 23 138 23 138 23 138 23 138-0 138-0 138-0 161-0 161-0 161-0 161 23 161 23 161 23 161 23 161 23Z" fill="rgb(220,181,127)" filter="url(#filter0)"/></svg>