<svg width="1280" height="150" viewBox="0 0 1280 150" fill="none" xmlns="http://www.w3.org/2000/svg">
<path d="M400 -185H399.441L380.042 -165.601L360.642 -185H359.525L340.125 -165.601L320.726 -185H319.608L300.208 -165.601L280.809 -185H279.691L260.292 -165.601L240.892 -185H239.775L220.375 -165.601L200.976 -185H199.858L180.458 -165.601L161.059 -185H159.941L140.542 -165.601L121.142 -185H120.025L100.625 -165.601L81.2255 -185H80.1078L60.7083 -165.601L41.3088 -185H40.1912L20.7917 -165.601L1.39217 -185H0.274506L-19.125 -165.601L-38.5245 -185H-39.6422L-59.0417 -165.601L-78.4412 -185H-79V-184.441L-59.6005 -165.042L-79 -145.642V-104.608L-59.6005 -85.2083L-79 -65.8088V-24.7745L-59.6005 -5.375L-79 14.0245V55.0589L-59.6005 74.4583L-79 93.8578V134.892L-59.6005 154.292L-79 173.691V214.726L-59.6005 234.125L-79 253.525V294H-78.4412L-78.6008 293.84V255.041L-39.6422 294H-38.5245L0.434166 255.041V293.84L0.274506 294H1.39217L1.2325 293.84V255.041L40.1912 294H41.3088L80.2675 255.041V293.84L80.1078 294H81.2255L81.0658 293.84V255.041L120.025 294H121.142L160.101 255.041V293.84L159.941 294H161.059L160.899 293.84V255.041L199.858 294H200.976L239.934 255.041V293.84L239.775 294H240.892L240.733 293.84V255.041L279.691 294H280.809L319.768 255.041V293.84L319.608 294H320.726L320.566 293.84V255.041L359.525 294H360.642L399.601 255.041V293.84L399.441 294H400V253.525L380.601 234.125L400 214.726V173.691L380.601 154.292L400 134.892V93.8578L380.601 74.4583L400 55.0589V14.0245L380.601 -5.375L400 -24.7745V-65.8088L380.601 -85.2083L400 -104.608V-145.642L380.601 -165.042L400 -184.441V-185ZM340.125 153.733L320.566 134.174V95.3747L359.525 134.333L340.125 153.733ZM359.684 135.291V174.09L340.125 193.65L320.726 174.25L359.684 135.291ZM-38.5245 134.333L0.434166 95.3747V134.174L-19.125 153.733L-38.5245 134.333ZM0.274506 174.25L-19.125 193.65L-38.6842 174.09V135.291L0.274506 174.25ZM280.809 54.5L319.768 15.5413V54.3403L300.208 73.8995L280.809 54.5ZM319.608 94.4167L300.208 113.816L280.649 94.257V55.458L319.608 94.4167ZM319.768 -25.493L300.208 -5.93382L280.809 -25.3333L319.768 -64.292V-25.493ZM320.167 -24.7745L339.566 -5.375L320.167 14.0245L300.767 -5.375L320.167 -24.7745ZM319.608 14.5833L300.208 33.9828L280.649 14.4237V-24.3753L319.608 14.5833ZM299.65 34.5417L280.25 53.9412L260.851 34.5417L280.25 15.1422L299.65 34.5417ZM279.851 55.458V94.257L260.292 113.816L240.892 94.4167L279.851 55.458ZM260.292 73.8995L240.733 54.3403V15.5413L279.691 54.5L260.292 73.8995ZM279.851 14.4237L260.292 33.9828L240.892 14.5833L279.851 -24.3753V14.4237ZM260.292 -5.93382L240.733 -25.493V-64.292L279.691 -25.3333L260.292 -5.93382ZM259.733 -5.375L240.333 14.0245L220.934 -5.375L240.333 -24.7745L259.733 -5.375ZM200.976 54.5L239.934 15.5413V54.3403L220.375 73.8995L200.976 54.5ZM239.775 94.4167L220.375 113.816L200.816 94.257V55.458L239.775 94.4167ZM239.934 -25.493L220.375 -5.93382L200.976 -25.3333L239.934 -64.292V-25.493ZM239.775 14.5833L220.375 33.9828L200.816 14.4237V-24.3753L239.775 14.5833ZM219.816 34.5417L200.417 53.9412L181.017 34.5417L200.417 15.1422L219.816 34.5417ZM200.018 55.458V94.257L180.458 113.816L161.059 94.4167L200.018 55.458ZM180.458 73.8995L160.899 54.3403V15.5413L199.858 54.5L180.458 73.8995ZM200.018 14.4237L180.458 33.9828L161.059 14.5833L200.018 -24.3753V14.4237ZM180.458 -5.93382L160.899 -25.493V-64.292L199.858 -25.3333L180.458 -5.93382ZM179.9 -5.375L160.5 14.0245L141.101 -5.375L160.5 -24.7745L179.9 -5.375ZM121.142 54.5L160.101 15.5413V54.3403L140.542 73.8995L121.142 54.5ZM159.941 94.4167L140.542 113.816L120.982 94.257V55.458L159.941 94.4167ZM160.101 -25.493L140.542 -5.93382L121.142 -25.3333L160.101 -64.292V-25.493ZM159.941 14.5833L140.542 33.9828L120.982 14.4237V-24.3753L159.941 14.5833ZM139.983 34.5417L120.583 53.9412L101.184 34.5417L120.583 15.1422L139.983 34.5417ZM120.184 55.458V94.257L100.625 113.816L81.2255 94.4167L120.184 55.458ZM100.625 73.8995L81.0658 54.3403V15.5413L120.025 54.5L100.625 73.8995ZM120.184 14.4237L100.625 33.9828L81.2255 14.5833L120.184 -24.3753V14.4237ZM100.625 -5.93382L81.0658 -25.493V-64.292L120.025 -25.3333L100.625 -5.93382ZM100.066 -5.375L80.6667 14.0245L61.2672 -5.375L80.6667 -24.7745L100.066 -5.375ZM41.3088 54.5L80.2675 15.5413V54.3403L60.7083 73.8995L41.3088 54.5ZM80.1078 94.4167L60.7083 113.816L41.1492 94.257V55.458L80.1078 94.4167ZM80.2675 -25.493L60.7083 -5.93382L41.3088 -25.3333L80.2675 -64.292V-25.493ZM80.1078 14.5833L60.7083 33.9828L41.1492 14.4237V-24.3753L80.1078 14.5833ZM60.1495 34.5417L40.75 53.9412L21.3505 34.5417L40.75 15.1422L60.1495 34.5417ZM40.3508 55.458V94.257L20.7917 113.816L1.39217 94.4167L40.3508 55.458ZM20.7917 73.8995L1.2325 54.3403V15.5413L40.1912 54.5L20.7917 73.8995ZM40.3508 14.4237L20.7917 33.9828L1.39217 14.5833L40.3508 -24.3753V14.4237ZM20.7917 -5.93382L1.2325 -25.493V-64.292L40.1912 -25.3333L20.7917 -5.93382ZM20.2328 -5.375L0.833336 14.0245L-18.5662 -5.375L0.833336 -24.7745L20.2328 -5.375ZM0.434166 -25.493L-19.125 -5.93382L-38.5245 -25.3333L0.434166 -64.292V-25.493ZM0.274506 14.5833L-19.125 33.9828L-38.6842 14.4237V-24.3753L0.274506 14.5833ZM0.434166 15.5413V54.3403L-19.125 73.8995L-38.5245 54.5L0.434166 15.5413ZM0.274506 94.4167L-19.125 113.816L-38.6842 94.257V55.458L0.274506 94.4167ZM-18.5662 74.4583L0.833336 55.0589L20.2328 74.4583L0.833336 93.8578L-18.5662 74.4583ZM1.2325 95.3747L40.1912 134.333L20.7917 153.733L1.2325 134.174V95.3747ZM40.3508 135.291V174.09L20.7917 193.65L1.39217 174.25L40.3508 135.291ZM21.3505 114.375L40.75 94.9755L60.1495 114.375L40.75 133.775L21.3505 114.375ZM41.1492 135.291L80.1078 174.25L60.7083 193.65L41.1492 174.09V135.291ZM41.3088 134.333L80.2675 95.3747V134.174L60.7083 153.733L41.3088 134.333ZM61.2672 74.4583L80.6667 55.0589L100.066 74.4583L80.6667 93.8578L61.2672 74.4583ZM81.0658 95.3747L120.025 134.333L100.625 153.733L81.0658 134.174V95.3747ZM120.184 135.291V174.09L100.625 193.65L81.2255 174.25L120.184 135.291ZM101.184 114.375L120.583 94.9755L139.983 114.375L120.583 133.775L101.184 114.375ZM120.982 135.291L159.941 174.25L140.542 193.65L120.982 174.09V135.291ZM121.142 134.333L160.101 95.3747V134.174L140.542 153.733L121.142 134.333ZM141.101 74.4583L160.5 55.0589L179.9 74.4583L160.5 93.8578L141.101 74.4583ZM160.899 95.3747L199.858 134.333L180.458 153.733L160.899 134.174V95.3747ZM200.018 135.291V174.09L180.458 193.65L161.059 174.25L200.018 135.291ZM181.017 114.375L200.417 94.9755L219.816 114.375L200.417 133.775L181.017 114.375ZM200.816 135.291L239.775 174.25L220.375 193.65L200.816 174.09V135.291ZM200.976 134.333L239.934 95.3747V134.174L220.375 153.733L200.976 134.333ZM220.934 74.4583L240.333 55.0589L259.733 74.4583L240.333 93.8578L220.934 74.4583ZM240.733 95.3747L279.691 134.333L260.292 153.733L240.733 134.174V95.3747ZM279.851 135.291V174.09L260.292 193.65L240.892 174.25L279.851 135.291ZM260.851 114.375L280.25 94.9755L299.65 114.375L280.25 133.775L260.851 114.375ZM280.649 135.291L319.608 174.25L300.208 193.65L280.649 174.09V135.291ZM280.809 134.333L319.768 95.3747V134.174L300.208 153.733L280.809 134.333ZM300.767 74.4583L320.167 55.0589L339.566 74.4583L320.167 93.8578L300.767 74.4583ZM320.726 94.4167L359.684 55.458V94.257L340.125 113.816L320.726 94.4167ZM340.125 73.8995L320.566 54.3403V15.5413L359.525 54.5L340.125 73.8995ZM320.726 14.5833L359.684 -24.3753V14.4237L340.125 33.9828L320.726 14.5833ZM340.125 -5.93382L320.566 -25.493V-64.292L359.525 -25.3333L340.125 -5.93382ZM320.726 -65.25L359.684 -104.209V-65.4097L340.125 -45.8505L320.726 -65.25ZM340.125 -85.7672L320.566 -105.326V-144.125L359.525 -105.167L340.125 -85.7672ZM339.566 -85.2083L320.167 -65.8088L300.767 -85.2083L320.167 -104.608L339.566 -85.2083ZM319.768 -105.326L300.208 -85.7672L280.809 -105.167L319.768 -144.125V-105.326ZM319.608 -65.25L300.208 -45.8505L280.649 -65.4097V-104.209L319.608 -65.25ZM299.65 -45.2917L280.25 -25.8922L260.851 -45.2917L280.25 -64.6912L299.65 -45.2917ZM279.851 -65.4097L260.292 -45.8505L240.892 -65.25L279.851 -104.209V-65.4097ZM260.292 -85.7672L240.733 -105.326V-144.125L279.691 -105.167L260.292 -85.7672ZM259.733 -85.2083L240.333 -65.8088L220.934 -85.2083L240.333 -104.608L259.733 -85.2083ZM239.934 -105.326L220.375 -85.7672L200.976 -105.167L239.934 -144.125V-105.326ZM239.775 -65.25L220.375 -45.8505L200.816 -65.4097V-104.209L239.775 -65.25ZM219.816 -45.2917L200.417 -25.8922L181.017 -45.2917L200.417 -64.6912L219.816 -45.2917ZM200.018 -65.4097L180.458 -45.8505L161.059 -65.25L200.018 -104.209V-65.4097ZM180.458 -85.7672L160.899 -105.326V-144.125L199.858 -105.167L180.458 -85.7672ZM179.9 -85.2083L160.5 -65.8088L141.101 -85.2083L160.5 -104.608L179.9 -85.2083ZM160.101 -105.326L140.542 -85.7672L121.142 -105.167L160.101 -144.125V-105.326ZM159.941 -65.25L140.542 -45.8505L120.982 -65.4097V-104.209L159.941 -65.25ZM139.983 -45.2917L120.583 -25.8922L101.184 -45.2917L120.583 -64.6912L139.983 -45.2917ZM120.184 -65.4097L100.625 -45.8505L81.2255 -65.25L120.184 -104.209V-65.4097ZM100.625 -85.7672L81.0658 -105.326V-144.125L120.025 -105.167L100.625 -85.7672ZM100.066 -85.2083L80.6667 -65.8088L61.2672 -85.2083L80.6667 -104.608L100.066 -85.2083ZM80.2675 -105.326L60.7083 -85.7672L41.3088 -105.167L80.2675 -144.125V-105.326ZM80.1078 -65.25L60.7083 -45.8505L41.1492 -65.4097V-104.209L80.1078 -65.25ZM60.1495 -45.2917L40.75 -25.8922L21.3505 -45.2917L40.75 -64.6912L60.1495 -45.2917ZM40.3508 -65.4097L20.7917 -45.8505L1.39217 -65.25L40.3508 -104.209V-65.4097ZM20.7917 -85.7672L1.2325 -105.326V-144.125L40.1912 -105.167L20.7917 -85.7672ZM20.2328 -85.2083L0.833336 -65.8088L-18.5662 -85.2083L0.833336 -104.608L20.2328 -85.2083ZM0.434166 -105.326L-19.125 -85.7672L-38.5245 -105.167L0.434166 -144.125V-105.326ZM0.274506 -65.25L-19.125 -45.8505L-38.6842 -65.4097V-104.209L0.274506 -65.25ZM-19.6838 -45.2917L-39.0833 -25.8922L-58.4828 -45.2917L-39.0833 -64.6912L-19.6838 -45.2917ZM-19.6838 34.5417L-39.0833 53.9412L-58.4828 34.5417L-39.0833 15.1422L-19.6838 34.5417ZM-19.6838 114.375L-39.0833 133.775L-58.4828 114.375L-39.0833 94.9755L-19.6838 114.375ZM-19.6838 194.208L-39.0833 213.608L-58.4828 194.208L-39.0833 174.809L-19.6838 194.208ZM0.434166 175.208V214.007L-19.125 233.566L-38.5245 214.167L0.434166 175.208ZM-18.5662 154.292L0.833336 134.892L20.2328 154.292L0.833336 173.691L-18.5662 154.292ZM1.2325 175.208L40.1912 214.167L20.7917 233.566L1.2325 214.007V175.208ZM21.3505 194.208L40.75 174.809L60.1495 194.208L40.75 213.608L21.3505 194.208ZM80.2675 175.208V214.007L60.7083 233.566L41.3088 214.167L80.2675 175.208ZM61.2672 154.292L80.6667 134.892L100.066 154.292L80.6667 173.691L61.2672 154.292ZM81.0658 175.208L120.025 214.167L100.625 233.566L81.0658 214.007V175.208ZM101.184 194.208L120.583 174.809L139.983 194.208L120.583 213.608L101.184 194.208ZM160.101 175.208V214.007L140.542 233.566L121.142 214.167L160.101 175.208ZM141.101 154.292L160.5 134.892L179.9 154.292L160.5 173.691L141.101 154.292ZM160.899 175.208L199.858 214.167L180.458 233.566L160.899 214.007V175.208ZM181.017 194.208L200.417 174.809L219.816 194.208L200.417 213.608L181.017 194.208ZM239.934 175.208V214.007L220.375 233.566L200.976 214.167L239.934 175.208ZM220.934 154.292L240.333 134.892L259.733 154.292L240.333 173.691L220.934 154.292ZM240.733 175.208L279.691 214.167L260.292 233.566L240.733 214.007V175.208ZM260.851 194.208L280.25 174.809L299.65 194.208L280.25 213.608L260.851 194.208ZM319.768 175.208V214.007L300.208 233.566L280.809 214.167L319.768 175.208ZM300.767 154.292L320.167 134.892L339.566 154.292L320.167 173.691L300.767 154.292ZM320.566 175.208L359.525 214.167L340.125 233.566L320.566 214.007V175.208ZM340.684 194.208L360.083 174.809L379.483 194.208L360.083 213.608L340.684 194.208ZM340.684 114.375L360.083 94.9755L379.483 114.375L360.083 133.775L340.684 114.375ZM340.684 34.5417L360.083 15.1422L379.483 34.5417L360.083 53.9412L340.684 34.5417ZM340.684 -45.2917L360.083 -64.6912L379.483 -45.2917L360.083 -25.8922L340.684 -45.2917ZM340.684 -125.125L360.083 -144.524L379.483 -125.125L360.083 -105.725L340.684 -125.125ZM359.684 -184.042V-145.243L340.125 -125.684L320.726 -145.083L359.684 -184.042ZM320.167 -184.441L339.566 -165.042L320.167 -145.642L300.767 -165.042L320.167 -184.441ZM280.649 -184.042L319.608 -145.083L300.208 -125.684L280.649 -145.243V-184.042ZM299.65 -125.125L280.25 -105.725L260.851 -125.125L280.25 -144.524L299.65 -125.125ZM279.851 -184.042V-145.243L260.292 -125.684L240.892 -145.083L279.851 -184.042ZM240.333 -184.441L259.733 -165.042L240.333 -145.642L220.934 -165.042L240.333 -184.441ZM200.816 -184.042L239.775 -145.083L220.375 -125.684L200.816 -145.243V-184.042ZM219.816 -125.125L200.417 -105.725L181.017 -125.125L200.417 -144.524L219.816 -125.125ZM200.018 -184.042V-145.243L180.458 -125.684L161.059 -145.083L200.018 -184.042ZM160.5 -184.441L179.9 -165.042L160.5 -145.642L141.101 -165.042L160.5 -184.441ZM120.982 -184.042L159.941 -145.083L140.542 -125.684L120.982 -145.243V-184.042ZM139.983 -125.125L120.583 -105.725L101.184 -125.125L120.583 -144.524L139.983 -125.125ZM120.184 -184.042V-145.243L100.625 -125.684L81.2255 -145.083L120.184 -184.042ZM80.6667 -184.441L100.066 -165.042L80.6667 -145.642L61.2672 -165.042L80.6667 -184.441ZM41.1492 -184.042L80.1078 -145.083L60.7083 -125.684L41.1492 -145.243V-184.042ZM60.1495 -125.125L40.75 -105.725L21.3505 -125.125L40.75 -144.524L60.1495 -125.125ZM40.3508 -184.042V-145.243L20.7917 -125.684L1.39217 -145.083L40.3508 -184.042ZM0.833336 -184.441L20.2328 -165.042L0.833336 -145.642L-18.5662 -165.042L0.833336 -184.441ZM-38.6842 -184.042L0.274506 -145.083L-19.125 -125.684L-38.6842 -145.243V-184.042ZM-19.6838 -125.125L-39.0833 -105.725L-58.4828 -125.125L-39.0833 -144.524L-19.6838 -125.125ZM-39.4825 -184.042V-145.243L-59.0417 -125.684L-78.4412 -145.083L-39.4825 -184.042ZM-78.6008 -105.326V-144.125L-39.6422 -105.167L-59.0417 -85.7672L-78.6008 -105.326ZM-39.4825 -104.209V-65.4097L-59.0417 -45.8505L-78.4412 -65.25L-39.4825 -104.209ZM-78.6008 -25.493V-64.292L-39.6422 -25.3333L-59.0417 -5.93382L-78.6008 -25.493ZM-39.4825 -24.3753V14.4237L-59.0417 33.9828L-78.4412 14.5833L-39.4825 -24.3753ZM-78.6008 54.3403V15.5413L-39.6422 54.5L-59.0417 73.8995L-78.6008 54.3403ZM-39.4825 55.458V94.257L-59.0417 113.816L-78.4412 94.4167L-39.4825 55.458ZM-78.6008 134.174V95.3747L-39.6422 134.333L-59.0417 153.733L-78.6008 134.174ZM-39.4825 135.291V174.09L-59.0417 193.65L-78.4412 174.25L-39.4825 135.291ZM-78.6008 214.007V175.208L-39.6422 214.167L-59.0417 233.566L-78.6008 214.007ZM-78.4412 254.083L-39.4825 215.125V253.924L-59.0417 273.483L-78.4412 254.083ZM-39.0833 293.441L-58.4828 274.042L-39.0833 254.642L-19.6838 274.042L-39.0833 293.441ZM-19.125 273.483L-38.6842 253.924V215.125L0.274506 254.083L-19.125 273.483ZM0.833336 253.525L-18.5662 234.125L0.833336 214.726L20.2328 234.125L0.833336 253.525ZM1.39217 254.083L40.3508 215.125V253.924L20.7917 273.483L1.39217 254.083ZM40.75 293.441L21.3505 274.042L40.75 254.642L60.1495 274.042L40.75 293.441ZM60.7083 273.483L41.1492 253.924V215.125L80.1078 254.083L60.7083 273.483ZM80.6667 253.525L61.2672 234.125L80.6667 214.726L100.066 234.125L80.6667 253.525ZM81.2255 254.083L120.184 215.125V253.924L100.625 273.483L81.2255 254.083ZM120.583 293.441L101.184 274.042L120.583 254.642L139.983 274.042L120.583 293.441ZM140.542 273.483L120.982 253.924V215.125L159.941 254.083L140.542 273.483ZM160.5 253.525L141.101 234.125L160.5 214.726L179.9 234.125L160.5 253.525ZM161.059 254.083L200.018 215.125V253.924L180.458 273.483L161.059 254.083ZM200.417 293.441L181.017 274.042L200.417 254.642L219.816 274.042L200.417 293.441ZM220.375 273.483L200.816 253.924V215.125L239.775 254.083L220.375 273.483ZM240.333 253.525L220.934 234.125L240.333 214.726L259.733 234.125L240.333 253.525ZM240.892 254.083L279.851 215.125V253.924L260.292 273.483L240.892 254.083ZM280.25 293.441L260.851 274.042L280.25 254.642L299.65 274.042L280.25 293.441ZM300.208 273.483L280.649 253.924V215.125L319.608 254.083L300.208 273.483ZM320.167 253.525L300.767 234.125L320.167 214.726L339.566 234.125L320.167 253.525ZM320.726 254.083L359.684 215.125V253.924L340.125 273.483L320.726 254.083ZM360.083 293.441L340.684 274.042L360.083 254.642L379.483 274.042L360.083 293.441ZM399.441 254.083L380.042 273.483L360.483 253.924V215.125L399.441 254.083ZM399.601 214.007L380.042 233.566L360.642 214.167L399.601 175.208V214.007ZM399.441 174.25L380.042 193.65L360.483 174.09V135.291L399.441 174.25ZM399.601 134.174L380.042 153.733L360.642 134.333L399.601 95.3747V134.174ZM399.441 94.4167L380.042 113.816L360.483 94.257V55.458L399.441 94.4167ZM399.601 54.3403L380.042 73.8995L360.642 54.5L399.601 15.5413V54.3403ZM399.441 14.5833L380.042 33.9828L360.483 14.4237V-24.3753L399.441 14.5833ZM399.601 -25.493L380.042 -5.93382L360.642 -25.3333L399.601 -64.292V-25.493ZM399.441 -65.25L380.042 -45.8505L360.483 -65.4097V-104.209L399.441 -65.25ZM399.601 -105.326L380.042 -85.7672L360.642 -105.167L399.601 -144.125V-105.326ZM399.441 -145.083L380.042 -125.684L360.483 -145.243V-184.042L399.441 -145.083Z" fill="url(#paint0_linear)"/>
<path d="M879 -185H878.441L859.042 -165.601L839.642 -185H838.524L819.125 -165.601L799.726 -185H798.608L779.208 -165.601L759.809 -185H758.691L739.292 -165.601L719.892 -185H718.774L699.375 -165.601L679.976 -185H678.858L659.458 -165.601L640.059 -185H638.941L619.542 -165.601L600.142 -185H599.025L579.625 -165.601L560.226 -185H559.108L539.708 -165.601L520.309 -185H519.191L499.792 -165.601L480.392 -185H479.274L459.875 -165.601L440.476 -185H439.358L419.958 -165.601L400.559 -185H400V-184.441L419.4 -165.042L400 -145.642V-104.608L419.4 -85.2083L400 -65.8088V-24.7745L419.4 -5.375L400 14.0245V55.0589L419.4 74.4583L400 93.8578V134.892L419.4 154.292L400 173.691V214.726L419.4 234.125L400 253.525V294H400.559L400.399 293.84V255.041L439.358 294H440.476L479.434 255.041V293.84L479.274 294H480.392L480.232 293.84V255.041L519.191 294H520.309L559.268 255.041V293.84L559.108 294H560.226L560.066 293.84V255.041L599.025 294H600.142L639.101 255.041V293.84L638.941 294H640.059L639.899 293.84V255.041L678.858 294H679.976L718.934 255.041V293.84L718.774 294H719.892L719.732 293.84V255.041L758.691 294H759.809L798.768 255.041V293.84L798.608 294H799.726L799.566 293.84V255.041L838.524 294H839.642L878.601 255.041V293.84L878.441 294H879V253.525L859.601 234.125L879 214.726V173.691L859.601 154.292L879 134.892V93.8578L859.601 74.4583L879 55.0589V14.0245L859.601 -5.375L879 -24.7745V-65.8088L859.601 -85.2083L879 -104.608V-145.642L859.601 -165.042L879 -184.441V-185ZM819.125 153.733L799.566 134.174V95.3747L838.524 134.333L819.125 153.733ZM838.684 135.291V174.09L819.125 193.65L799.726 174.25L838.684 135.291ZM440.476 134.333L479.434 95.3747V134.174L459.875 153.733L440.476 134.333ZM479.274 174.25L459.875 193.65L440.316 174.09V135.291L479.274 174.25ZM759.809 54.5L798.768 15.5413V54.3403L779.208 73.8995L759.809 54.5ZM798.608 94.4167L779.208 113.816L759.649 94.257V55.458L798.608 94.4167ZM798.768 -25.493L779.208 -5.93382L759.809 -25.3333L798.768 -64.292V-25.493ZM799.167 -24.7745L818.566 -5.375L799.167 14.0245L779.767 -5.375L799.167 -24.7745ZM798.608 14.5833L779.208 33.9828L759.649 14.4237V-24.3753L798.608 14.5833ZM778.649 34.5417L759.25 53.9412L739.851 34.5417L759.25 15.1422L778.649 34.5417ZM758.851 55.458V94.257L739.292 113.816L719.892 94.4167L758.851 55.458ZM739.292 73.8995L719.732 54.3403V15.5413L758.691 54.5L739.292 73.8995ZM758.851 14.4237L739.292 33.9828L719.892 14.5833L758.851 -24.3753V14.4237ZM739.292 -5.93382L719.732 -25.493V-64.292L758.691 -25.3333L739.292 -5.93382ZM738.733 -5.375L719.333 14.0245L699.934 -5.375L719.333 -24.7745L738.733 -5.375ZM679.976 54.5L718.934 15.5413V54.3403L699.375 73.8995L679.976 54.5ZM718.774 94.4167L699.375 113.816L679.816 94.257V55.458L718.774 94.4167ZM718.934 -25.493L699.375 -5.93382L679.976 -25.3333L718.934 -64.292V-25.493ZM718.774 14.5833L699.375 33.9828L679.816 14.4237V-24.3753L718.774 14.5833ZM698.816 34.5417L679.417 53.9412L660.017 34.5417L679.417 15.1422L698.816 34.5417ZM679.018 55.458V94.257L659.458 113.816L640.059 94.4167L679.018 55.458ZM659.458 73.8995L639.899 54.3403V15.5413L678.858 54.5L659.458 73.8995ZM679.018 14.4237L659.458 33.9828L640.059 14.5833L679.018 -24.3753V14.4237ZM659.458 -5.93382L639.899 -25.493V-64.292L678.858 -25.3333L659.458 -5.93382ZM658.899 -5.375L639.5 14.0245L620.101 -5.375L639.5 -24.7745L658.899 -5.375ZM600.142 54.5L639.101 15.5413V54.3403L619.542 73.8995L600.142 54.5ZM638.941 94.4167L619.542 113.816L599.982 94.257V55.458L638.941 94.4167ZM639.101 -25.493L619.542 -5.93382L600.142 -25.3333L639.101 -64.292V-25.493ZM638.941 14.5833L619.542 33.9828L599.982 14.4237V-24.3753L638.941 14.5833ZM618.983 34.5417L599.583 53.9412L580.184 34.5417L599.583 15.1422L618.983 34.5417ZM599.184 55.458V94.257L579.625 113.816L560.226 94.4167L599.184 55.458ZM579.625 73.8995L560.066 54.3403V15.5413L599.025 54.5L579.625 73.8995ZM599.184 14.4237L579.625 33.9828L560.226 14.5833L599.184 -24.3753V14.4237ZM579.625 -5.93382L560.066 -25.493V-64.292L599.025 -25.3333L579.625 -5.93382ZM579.066 -5.375L559.667 14.0245L540.267 -5.375L559.667 -24.7745L579.066 -5.375ZM520.309 54.5L559.268 15.5413V54.3403L539.708 73.8995L520.309 54.5ZM559.108 94.4167L539.708 113.816L520.149 94.257V55.458L559.108 94.4167ZM559.268 -25.493L539.708 -5.93382L520.309 -25.3333L559.268 -64.292V-25.493ZM559.108 14.5833L539.708 33.9828L520.149 14.4237V-24.3753L559.108 14.5833ZM539.149 34.5417L519.75 53.9412L500.351 34.5417L519.75 15.1422L539.149 34.5417ZM519.351 55.458V94.257L499.792 113.816L480.392 94.4167L519.351 55.458ZM499.792 73.8995L480.232 54.3403V15.5413L519.191 54.5L499.792 73.8995ZM519.351 14.4237L499.792 33.9828L480.392 14.5833L519.351 -24.3753V14.4237ZM499.792 -5.93382L480.232 -25.493V-64.292L519.191 -25.3333L499.792 -5.93382ZM499.233 -5.375L479.833 14.0245L460.434 -5.375L479.833 -24.7745L499.233 -5.375ZM479.434 -25.493L459.875 -5.93382L440.476 -25.3333L479.434 -64.292V-25.493ZM479.274 14.5833L459.875 33.9828L440.316 14.4237V-24.3753L479.274 14.5833ZM479.434 15.5413V54.3403L459.875 73.8995L440.476 54.5L479.434 15.5413ZM479.274 94.4167L459.875 113.816L440.316 94.257V55.458L479.274 94.4167ZM460.434 74.4583L479.833 55.0589L499.233 74.4583L479.833 93.8578L460.434 74.4583ZM480.232 95.3747L519.191 134.333L499.792 153.733L480.232 134.174V95.3747ZM519.351 135.291V174.09L499.792 193.65L480.392 174.25L519.351 135.291ZM500.351 114.375L519.75 94.9755L539.149 114.375L519.75 133.775L500.351 114.375ZM520.149 135.291L559.108 174.25L539.708 193.65L520.149 174.09V135.291ZM520.309 134.333L559.268 95.3747V134.174L539.708 153.733L520.309 134.333ZM540.267 74.4583L559.667 55.0589L579.066 74.4583L559.667 93.8578L540.267 74.4583ZM560.066 95.3747L599.025 134.333L579.625 153.733L560.066 134.174V95.3747ZM599.184 135.291V174.09L579.625 193.65L560.226 174.25L599.184 135.291ZM580.184 114.375L599.583 94.9755L618.983 114.375L599.583 133.775L580.184 114.375ZM599.982 135.291L638.941 174.25L619.542 193.65L599.982 174.09V135.291ZM600.142 134.333L639.101 95.3747V134.174L619.542 153.733L600.142 134.333ZM620.101 74.4583L639.5 55.0589L658.899 74.4583L639.5 93.8578L620.101 74.4583ZM639.899 95.3747L678.858 134.333L659.458 153.733L639.899 134.174V95.3747ZM679.018 135.291V174.09L659.458 193.65L640.059 174.25L679.018 135.291ZM660.017 114.375L679.417 94.9755L698.816 114.375L679.417 133.775L660.017 114.375ZM679.816 135.291L718.774 174.25L699.375 193.65L679.816 174.09V135.291ZM679.976 134.333L718.934 95.3747V134.174L699.375 153.733L679.976 134.333ZM699.934 74.4583L719.333 55.0589L738.733 74.4583L719.333 93.8578L699.934 74.4583ZM719.732 95.3747L758.691 134.333L739.292 153.733L719.732 134.174V95.3747ZM758.851 135.291V174.09L739.292 193.65L719.892 174.25L758.851 135.291ZM739.851 114.375L759.25 94.9755L778.649 114.375L759.25 133.775L739.851 114.375ZM759.649 135.291L798.608 174.25L779.208 193.65L759.649 174.09V135.291ZM759.809 134.333L798.768 95.3747V134.174L779.208 153.733L759.809 134.333ZM779.767 74.4583L799.167 55.0589L818.566 74.4583L799.167 93.8578L779.767 74.4583ZM799.726 94.4167L838.684 55.458V94.257L819.125 113.816L799.726 94.4167ZM819.125 73.8995L799.566 54.3403V15.5413L838.524 54.5L819.125 73.8995ZM799.726 14.5833L838.684 -24.3753V14.4237L819.125 33.9828L799.726 14.5833ZM819.125 -5.93382L799.566 -25.493V-64.292L838.524 -25.3333L819.125 -5.93382ZM799.726 -65.25L838.684 -104.209V-65.4097L819.125 -45.8505L799.726 -65.25ZM819.125 -85.7672L799.566 -105.326V-144.125L838.524 -105.167L819.125 -85.7672ZM818.566 -85.2083L799.167 -65.8088L779.767 -85.2083L799.167 -104.608L818.566 -85.2083ZM798.768 -105.326L779.208 -85.7672L759.809 -105.167L798.768 -144.125V-105.326ZM798.608 -65.25L779.208 -45.8505L759.649 -65.4097V-104.209L798.608 -65.25ZM778.649 -45.2917L759.25 -25.8922L739.851 -45.2917L759.25 -64.6912L778.649 -45.2917ZM758.851 -65.4097L739.292 -45.8505L719.892 -65.25L758.851 -104.209V-65.4097ZM739.292 -85.7672L719.732 -105.326V-144.125L758.691 -105.167L739.292 -85.7672ZM738.733 -85.2083L719.333 -65.8088L699.934 -85.2083L719.333 -104.608L738.733 -85.2083ZM718.934 -105.326L699.375 -85.7672L679.976 -105.167L718.934 -144.125V-105.326ZM718.774 -65.25L699.375 -45.8505L679.816 -65.4097V-104.209L718.774 -65.25ZM698.816 -45.2917L679.417 -25.8922L660.017 -45.2917L679.417 -64.6912L698.816 -45.2917ZM679.018 -65.4097L659.458 -45.8505L640.059 -65.25L679.018 -104.209V-65.4097ZM659.458 -85.7672L639.899 -105.326V-144.125L678.858 -105.167L659.458 -85.7672ZM658.899 -85.2083L639.5 -65.8088L620.101 -85.2083L639.5 -104.608L658.899 -85.2083ZM639.101 -105.326L619.542 -85.7672L600.142 -105.167L639.101 -144.125V-105.326ZM638.941 -65.25L619.542 -45.8505L599.982 -65.4097V-104.209L638.941 -65.25ZM618.983 -45.2917L599.583 -25.8922L580.184 -45.2917L599.583 -64.6912L618.983 -45.2917ZM599.184 -65.4097L579.625 -45.8505L560.226 -65.25L599.184 -104.209V-65.4097ZM579.625 -85.7672L560.066 -105.326V-144.125L599.025 -105.167L579.625 -85.7672ZM579.066 -85.2083L559.667 -65.8088L540.267 -85.2083L559.667 -104.608L579.066 -85.2083ZM559.268 -105.326L539.708 -85.7672L520.309 -105.167L559.268 -144.125V-105.326ZM559.108 -65.25L539.708 -45.8505L520.149 -65.4097V-104.209L559.108 -65.25ZM539.149 -45.2917L519.75 -25.8922L500.351 -45.2917L519.75 -64.6912L539.149 -45.2917ZM519.351 -65.4097L499.792 -45.8505L480.392 -65.25L519.351 -104.209V-65.4097ZM499.792 -85.7672L480.232 -105.326V-144.125L519.191 -105.167L499.792 -85.7672ZM499.233 -85.2083L479.833 -65.8088L460.434 -85.2083L479.833 -104.608L499.233 -85.2083ZM479.434 -105.326L459.875 -85.7672L440.476 -105.167L479.434 -144.125V-105.326ZM479.274 -65.25L459.875 -45.8505L440.316 -65.4097V-104.209L479.274 -65.25ZM459.316 -45.2917L439.917 -25.8922L420.517 -45.2917L439.917 -64.6912L459.316 -45.2917ZM459.316 34.5417L439.917 53.9412L420.517 34.5417L439.917 15.1422L459.316 34.5417ZM459.316 114.375L439.917 133.775L420.517 114.375L439.917 94.9755L459.316 114.375ZM459.316 194.208L439.917 213.608L420.517 194.208L439.917 174.809L459.316 194.208ZM479.434 175.208V214.007L459.875 233.566L440.476 214.167L479.434 175.208ZM460.434 154.292L479.833 134.892L499.233 154.292L479.833 173.691L460.434 154.292ZM480.232 175.208L519.191 214.167L499.792 233.566L480.232 214.007V175.208ZM500.351 194.208L519.75 174.809L539.149 194.208L519.75 213.608L500.351 194.208ZM559.268 175.208V214.007L539.708 233.566L520.309 214.167L559.268 175.208ZM540.267 154.292L559.667 134.892L579.066 154.292L559.667 173.691L540.267 154.292ZM560.066 175.208L599.025 214.167L579.625 233.566L560.066 214.007V175.208ZM580.184 194.208L599.583 174.809L618.983 194.208L599.583 213.608L580.184 194.208ZM639.101 175.208V214.007L619.542 233.566L600.142 214.167L639.101 175.208ZM620.101 154.292L639.5 134.892L658.899 154.292L639.5 173.691L620.101 154.292ZM639.899 175.208L678.858 214.167L659.458 233.566L639.899 214.007V175.208ZM660.017 194.208L679.417 174.809L698.816 194.208L679.417 213.608L660.017 194.208ZM718.934 175.208V214.007L699.375 233.566L679.976 214.167L718.934 175.208ZM699.934 154.292L719.333 134.892L738.733 154.292L719.333 173.691L699.934 154.292ZM719.732 175.208L758.691 214.167L739.292 233.566L719.732 214.007V175.208ZM739.851 194.208L759.25 174.809L778.649 194.208L759.25 213.608L739.851 194.208ZM798.768 175.208V214.007L779.208 233.566L759.809 214.167L798.768 175.208ZM779.767 154.292L799.167 134.892L818.566 154.292L799.167 173.691L779.767 154.292ZM799.566 175.208L838.524 214.167L819.125 233.566L799.566 214.007V175.208ZM819.684 194.208L839.083 174.809L858.483 194.208L839.083 213.608L819.684 194.208ZM819.684 114.375L839.083 94.9755L858.483 114.375L839.083 133.775L819.684 114.375ZM819.684 34.5417L839.083 15.1422L858.483 34.5417L839.083 53.9412L819.684 34.5417ZM819.684 -45.2917L839.083 -64.6912L858.483 -45.2917L839.083 -25.8922L819.684 -45.2917ZM819.684 -125.125L839.083 -144.524L858.483 -125.125L839.083 -105.725L819.684 -125.125ZM838.684 -184.042V-145.243L819.125 -125.684L799.726 -145.083L838.684 -184.042ZM799.167 -184.441L818.566 -165.042L799.167 -145.642L779.767 -165.042L799.167 -184.441ZM759.649 -184.042L798.608 -145.083L779.208 -125.684L759.649 -145.243V-184.042ZM778.649 -125.125L759.25 -105.725L739.851 -125.125L759.25 -144.524L778.649 -125.125ZM758.851 -184.042V-145.243L739.292 -125.684L719.892 -145.083L758.851 -184.042ZM719.333 -184.441L738.733 -165.042L719.333 -145.642L699.934 -165.042L719.333 -184.441ZM679.816 -184.042L718.774 -145.083L699.375 -125.684L679.816 -145.243V-184.042ZM698.816 -125.125L679.417 -105.725L660.017 -125.125L679.417 -144.524L698.816 -125.125ZM679.018 -184.042V-145.243L659.458 -125.684L640.059 -145.083L679.018 -184.042ZM639.5 -184.441L658.899 -165.042L639.5 -145.642L620.101 -165.042L639.5 -184.441ZM599.982 -184.042L638.941 -145.083L619.542 -125.684L599.982 -145.243V-184.042ZM618.983 -125.125L599.583 -105.725L580.184 -125.125L599.583 -144.524L618.983 -125.125ZM599.184 -184.042V-145.243L579.625 -125.684L560.226 -145.083L599.184 -184.042ZM559.667 -184.441L579.066 -165.042L559.667 -145.642L540.267 -165.042L559.667 -184.441ZM520.149 -184.042L559.108 -145.083L539.708 -125.684L520.149 -145.243V-184.042ZM539.149 -125.125L519.75 -105.725L500.351 -125.125L519.75 -144.524L539.149 -125.125ZM519.351 -184.042V-145.243L499.792 -125.684L480.392 -145.083L519.351 -184.042ZM479.833 -184.441L499.233 -165.042L479.833 -145.642L460.434 -165.042L479.833 -184.441ZM440.316 -184.042L479.274 -145.083L459.875 -125.684L440.316 -145.243V-184.042ZM459.316 -125.125L439.917 -105.725L420.517 -125.125L439.917 -144.524L459.316 -125.125ZM439.518 -184.042V-145.243L419.958 -125.684L400.559 -145.083L439.518 -184.042ZM400.399 -105.326V-144.125L439.358 -105.167L419.958 -85.7672L400.399 -105.326ZM439.518 -104.209V-65.4097L419.958 -45.8505L400.559 -65.25L439.518 -104.209ZM400.399 -25.493V-64.292L439.358 -25.3333L419.958 -5.93382L400.399 -25.493ZM439.518 -24.3753V14.4237L419.958 33.9828L400.559 14.5833L439.518 -24.3753ZM400.399 54.3403V15.5413L439.358 54.5L419.958 73.8995L400.399 54.3403ZM439.518 55.458V94.257L419.958 113.816L400.559 94.4167L439.518 55.458ZM400.399 134.174V95.3747L439.358 134.333L419.958 153.733L400.399 134.174ZM439.518 135.291V174.09L419.958 193.65L400.559 174.25L439.518 135.291ZM400.399 214.007V175.208L439.358 214.167L419.958 233.566L400.399 214.007ZM400.559 254.083L439.518 215.125V253.924L419.958 273.483L400.559 254.083ZM439.917 293.441L420.517 274.042L439.917 254.642L459.316 274.042L439.917 293.441ZM459.875 273.483L440.316 253.924V215.125L479.274 254.083L459.875 273.483ZM479.833 253.525L460.434 234.125L479.833 214.726L499.233 234.125L479.833 253.525ZM480.392 254.083L519.351 215.125V253.924L499.792 273.483L480.392 254.083ZM519.75 293.441L500.351 274.042L519.75 254.642L539.149 274.042L519.75 293.441ZM539.708 273.483L520.149 253.924V215.125L559.108 254.083L539.708 273.483ZM559.667 253.525L540.267 234.125L559.667 214.726L579.066 234.125L559.667 253.525ZM560.226 254.083L599.184 215.125V253.924L579.625 273.483L560.226 254.083ZM599.583 293.441L580.184 274.042L599.583 254.642L618.983 274.042L599.583 293.441ZM619.542 273.483L599.982 253.924V215.125L638.941 254.083L619.542 273.483ZM639.5 253.525L620.101 234.125L639.5 214.726L658.899 234.125L639.5 253.525ZM640.059 254.083L679.018 215.125V253.924L659.458 273.483L640.059 254.083ZM679.417 293.441L660.017 274.042L679.417 254.642L698.816 274.042L679.417 293.441ZM699.375 273.483L679.816 253.924V215.125L718.774 254.083L699.375 273.483ZM719.333 253.525L699.934 234.125L719.333 214.726L738.733 234.125L719.333 253.525ZM719.892 254.083L758.851 215.125V253.924L739.292 273.483L719.892 254.083ZM759.25 293.441L739.851 274.042L759.25 254.642L778.649 274.042L759.25 293.441ZM779.208 273.483L759.649 253.924V215.125L798.608 254.083L779.208 273.483ZM799.167 253.525L779.767 234.125L799.167 214.726L818.566 234.125L799.167 253.525ZM799.726 254.083L838.684 215.125V253.924L819.125 273.483L799.726 254.083ZM839.083 293.441L819.684 274.042L839.083 254.642L858.483 274.042L839.083 293.441ZM878.441 254.083L859.042 273.483L839.482 253.924V215.125L878.441 254.083ZM878.601 214.007L859.042 233.566L839.642 214.167L878.601 175.208V214.007ZM878.441 174.25L859.042 193.65L839.482 174.09V135.291L878.441 174.25ZM878.601 134.174L859.042 153.733L839.642 134.333L878.601 95.3747V134.174ZM878.441 94.4167L859.042 113.816L839.482 94.257V55.458L878.441 94.4167ZM878.601 54.3403L859.042 73.8995L839.642 54.5L878.601 15.5413V54.3403ZM878.441 14.5833L859.042 33.9828L839.482 14.4237V-24.3753L878.441 14.5833ZM878.601 -25.493L859.042 -5.93382L839.642 -25.3333L878.601 -64.292V-25.493ZM878.441 -65.25L859.042 -45.8505L839.482 -65.4097V-104.209L878.441 -65.25ZM878.601 -105.326L859.042 -85.7672L839.642 -105.167L878.601 -144.125V-105.326ZM878.441 -145.083L859.042 -125.684L839.482 -145.243V-184.042L878.441 -145.083Z" fill="url(#paint1_linear)"/>
<path d="M1358 -185H1357.44L1338.04 -165.601L1318.64 -185H1317.52L1298.12 -165.601L1278.73 -185H1277.61L1258.21 -165.601L1238.81 -185H1237.69L1218.29 -165.601L1198.89 -185H1197.77L1178.38 -165.601L1158.98 -185H1157.86L1138.46 -165.601L1119.06 -185H1117.94L1098.54 -165.601L1079.14 -185H1078.02L1058.62 -165.601L1039.23 -185H1038.11L1018.71 -165.601L999.309 -185H998.191L978.792 -165.601L959.392 -185H958.275L938.875 -165.601L919.476 -185H918.358L898.958 -165.601L879.559 -185H879V-184.441L898.399 -165.042L879 -145.642V-104.608L898.399 -85.2083L879 -65.8088V-24.7745L898.399 -5.375L879 14.0245V55.0589L898.399 74.4583L879 93.8578V134.892L898.399 154.292L879 173.691V214.726L898.399 234.125L879 253.525V294H879.559L879.399 293.84V255.041L918.358 294H919.476L958.434 255.041V293.84L958.275 294H959.392L959.233 293.84V255.041L998.191 294H999.309L1038.27 255.041V293.84L1038.11 294H1039.23L1039.07 293.84V255.041L1078.02 294H1079.14L1118.1 255.041V293.84L1117.94 294H1119.06L1118.9 293.84V255.041L1157.86 294H1158.98L1197.93 255.041V293.84L1197.77 294H1198.89L1198.73 293.84V255.041L1237.69 294H1238.81L1277.77 255.041V293.84L1277.61 294H1278.73L1278.57 293.84V255.041L1317.52 294H1318.64L1357.6 255.041V293.84L1357.44 294H1358V253.525L1338.6 234.125L1358 214.726V173.691L1338.6 154.292L1358 134.892V93.8578L1338.6 74.4583L1358 55.0589V14.0245L1338.6 -5.375L1358 -24.7745V-65.8088L1338.6 -85.2083L1358 -104.608V-145.642L1338.6 -165.042L1358 -184.441V-185ZM1298.12 153.733L1278.57 134.174V95.3747L1317.52 134.333L1298.12 153.733ZM1317.68 135.291V174.09L1298.12 193.65L1278.73 174.25L1317.68 135.291ZM919.476 134.333L958.434 95.3747V134.174L938.875 153.733L919.476 134.333ZM958.275 174.25L938.875 193.65L919.316 174.09V135.291L958.275 174.25ZM1238.81 54.5L1277.77 15.5413V54.3403L1258.21 73.8995L1238.81 54.5ZM1277.61 94.4167L1258.21 113.816L1238.65 94.257V55.458L1277.61 94.4167ZM1277.77 -25.493L1258.21 -5.93382L1238.81 -25.3333L1277.77 -64.292V-25.493ZM1278.17 -24.7745L1297.57 -5.375L1278.17 14.0245L1258.77 -5.375L1278.17 -24.7745ZM1277.61 14.5833L1258.21 33.9828L1238.65 14.4237V-24.3753L1277.61 14.5833ZM1257.65 34.5417L1238.25 53.9412L1218.85 34.5417L1238.25 15.1422L1257.65 34.5417ZM1237.85 55.458V94.257L1218.29 113.816L1198.89 94.4167L1237.85 55.458ZM1218.29 73.8995L1198.73 54.3403V15.5413L1237.69 54.5L1218.29 73.8995ZM1237.85 14.4237L1218.29 33.9828L1198.89 14.5833L1237.85 -24.3753V14.4237ZM1218.29 -5.93382L1198.73 -25.493V-64.292L1237.69 -25.3333L1218.29 -5.93382ZM1217.73 -5.375L1198.33 14.0245L1178.93 -5.375L1198.33 -24.7745L1217.73 -5.375ZM1158.98 54.5L1197.93 15.5413V54.3403L1178.38 73.8995L1158.98 54.5ZM1197.77 94.4167L1178.38 113.816L1158.82 94.257V55.458L1197.77 94.4167ZM1197.93 -25.493L1178.38 -5.93382L1158.98 -25.3333L1197.93 -64.292V-25.493ZM1197.77 14.5833L1178.38 33.9828L1158.82 14.4237V-24.3753L1197.77 14.5833ZM1177.82 34.5417L1158.42 53.9412L1139.02 34.5417L1158.42 15.1422L1177.82 34.5417ZM1158.02 55.458V94.257L1138.46 113.816L1119.06 94.4167L1158.02 55.458ZM1138.46 73.8995L1118.9 54.3403V15.5413L1157.86 54.5L1138.46 73.8995ZM1158.02 14.4237L1138.46 33.9828L1119.06 14.5833L1158.02 -24.3753V14.4237ZM1138.46 -5.93382L1118.9 -25.493V-64.292L1157.86 -25.3333L1138.46 -5.93382ZM1137.9 -5.375L1118.5 14.0245L1099.1 -5.375L1118.5 -24.7745L1137.9 -5.375ZM1079.14 54.5L1118.1 15.5413V54.3403L1098.54 73.8995L1079.14 54.5ZM1117.94 94.4167L1098.54 113.816L1078.98 94.257V55.458L1117.94 94.4167ZM1118.1 -25.493L1098.54 -5.93382L1079.14 -25.3333L1118.1 -64.292V-25.493ZM1117.94 14.5833L1098.54 33.9828L1078.98 14.4237V-24.3753L1117.94 14.5833ZM1097.98 34.5417L1078.58 53.9412L1059.18 34.5417L1078.58 15.1422L1097.98 34.5417ZM1078.18 55.458V94.257L1058.62 113.816L1039.23 94.4167L1078.18 55.458ZM1058.62 73.8995L1039.07 54.3403V15.5413L1078.02 54.5L1058.62 73.8995ZM1078.18 14.4237L1058.62 33.9828L1039.23 14.5833L1078.18 -24.3753V14.4237ZM1058.62 -5.93382L1039.07 -25.493V-64.292L1078.02 -25.3333L1058.62 -5.93382ZM1058.07 -5.375L1038.67 14.0245L1019.27 -5.375L1038.67 -24.7745L1058.07 -5.375ZM999.309 54.5L1038.27 15.5413V54.3403L1018.71 73.8995L999.309 54.5ZM1038.11 94.4167L1018.71 113.816L999.149 94.257V55.458L1038.11 94.4167ZM1038.27 -25.493L1018.71 -5.93382L999.309 -25.3333L1038.27 -64.292V-25.493ZM1038.11 14.5833L1018.71 33.9828L999.149 14.4237V-24.3753L1038.11 14.5833ZM1018.15 34.5417L998.75 53.9412L979.35 34.5417L998.75 15.1422L1018.15 34.5417ZM998.351 55.458V94.257L978.792 113.816L959.392 94.4167L998.351 55.458ZM978.792 73.8995L959.233 54.3403V15.5413L998.191 54.5L978.792 73.8995ZM998.351 14.4237L978.792 33.9828L959.392 14.5833L998.351 -24.3753V14.4237ZM978.792 -5.93382L959.233 -25.493V-64.292L998.191 -25.3333L978.792 -5.93382ZM978.233 -5.375L958.833 14.0245L939.434 -5.375L958.833 -24.7745L978.233 -5.375ZM958.434 -25.493L938.875 -5.93382L919.476 -25.3333L958.434 -64.292V-25.493ZM958.275 14.5833L938.875 33.9828L919.316 14.4237V-24.3753L958.275 14.5833ZM958.434 15.5413V54.3403L938.875 73.8995L919.476 54.5L958.434 15.5413ZM958.275 94.4167L938.875 113.816L919.316 94.257V55.458L958.275 94.4167ZM939.434 74.4583L958.833 55.0589L978.233 74.4583L958.833 93.8578L939.434 74.4583ZM959.233 95.3747L998.191 134.333L978.792 153.733L959.233 134.174V95.3747ZM998.351 135.291V174.09L978.792 193.65L959.392 174.25L998.351 135.291ZM979.35 114.375L998.75 94.9755L1018.15 114.375L998.75 133.775L979.35 114.375ZM999.149 135.291L1038.11 174.25L1018.71 193.65L999.149 174.09V135.291ZM999.309 134.333L1038.27 95.3747V134.174L1018.71 153.733L999.309 134.333ZM1019.27 74.4583L1038.67 55.0589L1058.07 74.4583L1038.67 93.8578L1019.27 74.4583ZM1039.07 95.3747L1078.02 134.333L1058.62 153.733L1039.07 134.174V95.3747ZM1078.18 135.291V174.09L1058.62 193.65L1039.23 174.25L1078.18 135.291ZM1059.18 114.375L1078.58 94.9755L1097.98 114.375L1078.58 133.775L1059.18 114.375ZM1078.98 135.291L1117.94 174.25L1098.54 193.65L1078.98 174.09V135.291ZM1079.14 134.333L1118.1 95.3747V134.174L1098.54 153.733L1079.14 134.333ZM1099.1 74.4583L1118.5 55.0589L1137.9 74.4583L1118.5 93.8578L1099.1 74.4583ZM1118.9 95.3747L1157.86 134.333L1138.46 153.733L1118.9 134.174V95.3747ZM1158.02 135.291V174.09L1138.46 193.65L1119.06 174.25L1158.02 135.291ZM1139.02 114.375L1158.42 94.9755L1177.82 114.375L1158.42 133.775L1139.02 114.375ZM1158.82 135.291L1197.77 174.25L1178.38 193.65L1158.82 174.09V135.291ZM1158.98 134.333L1197.93 95.3747V134.174L1178.38 153.733L1158.98 134.333ZM1178.93 74.4583L1198.33 55.0589L1217.73 74.4583L1198.33 93.8578L1178.93 74.4583ZM1198.73 95.3747L1237.69 134.333L1218.29 153.733L1198.73 134.174V95.3747ZM1237.85 135.291V174.09L1218.29 193.65L1198.89 174.25L1237.85 135.291ZM1218.85 114.375L1238.25 94.9755L1257.65 114.375L1238.25 133.775L1218.85 114.375ZM1238.65 135.291L1277.61 174.25L1258.21 193.65L1238.65 174.09V135.291ZM1238.81 134.333L1277.77 95.3747V134.174L1258.21 153.733L1238.81 134.333ZM1258.77 74.4583L1278.17 55.0589L1297.57 74.4583L1278.17 93.8578L1258.77 74.4583ZM1278.73 94.4167L1317.68 55.458V94.257L1298.12 113.816L1278.73 94.4167ZM1298.12 73.8995L1278.57 54.3403V15.5413L1317.52 54.5L1298.12 73.8995ZM1278.73 14.5833L1317.68 -24.3753V14.4237L1298.12 33.9828L1278.73 14.5833ZM1298.12 -5.93382L1278.57 -25.493V-64.292L1317.52 -25.3333L1298.12 -5.93382ZM1278.73 -65.25L1317.68 -104.209V-65.4097L1298.12 -45.8505L1278.73 -65.25ZM1298.12 -85.7672L1278.57 -105.326V-144.125L1317.52 -105.167L1298.12 -85.7672ZM1297.57 -85.2083L1278.17 -65.8088L1258.77 -85.2083L1278.17 -104.608L1297.57 -85.2083ZM1277.77 -105.326L1258.21 -85.7672L1238.81 -105.167L1277.77 -144.125V-105.326ZM1277.61 -65.25L1258.21 -45.8505L1238.65 -65.4097V-104.209L1277.61 -65.25ZM1257.65 -45.2917L1238.25 -25.8922L1218.85 -45.2917L1238.25 -64.6912L1257.65 -45.2917ZM1237.85 -65.4097L1218.29 -45.8505L1198.89 -65.25L1237.85 -104.209V-65.4097ZM1218.29 -85.7672L1198.73 -105.326V-144.125L1237.69 -105.167L1218.29 -85.7672ZM1217.73 -85.2083L1198.33 -65.8088L1178.93 -85.2083L1198.33 -104.608L1217.73 -85.2083ZM1197.93 -105.326L1178.38 -85.7672L1158.98 -105.167L1197.93 -144.125V-105.326ZM1197.77 -65.25L1178.38 -45.8505L1158.82 -65.4097V-104.209L1197.77 -65.25ZM1177.82 -45.2917L1158.42 -25.8922L1139.02 -45.2917L1158.42 -64.6912L1177.82 -45.2917ZM1158.02 -65.4097L1138.46 -45.8505L1119.06 -65.25L1158.02 -104.209V-65.4097ZM1138.46 -85.7672L1118.9 -105.326V-144.125L1157.86 -105.167L1138.46 -85.7672ZM1137.9 -85.2083L1118.5 -65.8088L1099.1 -85.2083L1118.5 -104.608L1137.9 -85.2083ZM1118.1 -105.326L1098.54 -85.7672L1079.14 -105.167L1118.1 -144.125V-105.326ZM1117.94 -65.25L1098.54 -45.8505L1078.98 -65.4097V-104.209L1117.94 -65.25ZM1097.98 -45.2917L1078.58 -25.8922L1059.18 -45.2917L1078.58 -64.6912L1097.98 -45.2917ZM1078.18 -65.4097L1058.62 -45.8505L1039.23 -65.25L1078.18 -104.209V-65.4097ZM1058.62 -85.7672L1039.07 -105.326V-144.125L1078.02 -105.167L1058.62 -85.7672ZM1058.07 -85.2083L1038.67 -65.8088L1019.27 -85.2083L1038.67 -104.608L1058.07 -85.2083ZM1038.27 -105.326L1018.71 -85.7672L999.309 -105.167L1038.27 -144.125V-105.326ZM1038.11 -65.25L1018.71 -45.8505L999.149 -65.4097V-104.209L1038.11 -65.25ZM1018.15 -45.2917L998.75 -25.8922L979.35 -45.2917L998.75 -64.6912L1018.15 -45.2917ZM998.351 -65.4097L978.792 -45.8505L959.392 -65.25L998.351 -104.209V-65.4097ZM978.792 -85.7672L959.233 -105.326V-144.125L998.191 -105.167L978.792 -85.7672ZM978.233 -85.2083L958.833 -65.8088L939.434 -85.2083L958.833 -104.608L978.233 -85.2083ZM958.434 -105.326L938.875 -85.7672L919.476 -105.167L958.434 -144.125V-105.326ZM958.275 -65.25L938.875 -45.8505L919.316 -65.4097V-104.209L958.275 -65.25ZM938.316 -45.2917L918.917 -25.8922L899.517 -45.2917L918.917 -64.6912L938.316 -45.2917ZM938.316 34.5417L918.917 53.9412L899.517 34.5417L918.917 15.1422L938.316 34.5417ZM938.316 114.375L918.917 133.775L899.517 114.375L918.917 94.9755L938.316 114.375ZM938.316 194.208L918.917 213.608L899.517 194.208L918.917 174.809L938.316 194.208ZM958.434 175.208V214.007L938.875 233.566L919.476 214.167L958.434 175.208ZM939.434 154.292L958.833 134.892L978.233 154.292L958.833 173.691L939.434 154.292ZM959.233 175.208L998.191 214.167L978.792 233.566L959.233 214.007V175.208ZM979.35 194.208L998.75 174.809L1018.15 194.208L998.75 213.608L979.35 194.208ZM1038.27 175.208V214.007L1018.71 233.566L999.309 214.167L1038.27 175.208ZM1019.27 154.292L1038.67 134.892L1058.07 154.292L1038.67 173.691L1019.27 154.292ZM1039.07 175.208L1078.02 214.167L1058.62 233.566L1039.07 214.007V175.208ZM1059.18 194.208L1078.58 174.809L1097.98 194.208L1078.58 213.608L1059.18 194.208ZM1118.1 175.208V214.007L1098.54 233.566L1079.14 214.167L1118.1 175.208ZM1099.1 154.292L1118.5 134.892L1137.9 154.292L1118.5 173.691L1099.1 154.292ZM1118.9 175.208L1157.86 214.167L1138.46 233.566L1118.9 214.007V175.208ZM1139.02 194.208L1158.42 174.809L1177.82 194.208L1158.42 213.608L1139.02 194.208ZM1197.93 175.208V214.007L1178.38 233.566L1158.98 214.167L1197.93 175.208ZM1178.93 154.292L1198.33 134.892L1217.73 154.292L1198.33 173.691L1178.93 154.292ZM1198.73 175.208L1237.69 214.167L1218.29 233.566L1198.73 214.007V175.208ZM1218.85 194.208L1238.25 174.809L1257.65 194.208L1238.25 213.608L1218.85 194.208ZM1277.77 175.208V214.007L1258.21 233.566L1238.81 214.167L1277.77 175.208ZM1258.77 154.292L1278.17 134.892L1297.57 154.292L1278.17 173.691L1258.77 154.292ZM1278.57 175.208L1317.52 214.167L1298.12 233.566L1278.57 214.007V175.208ZM1298.68 194.208L1318.08 174.809L1337.48 194.208L1318.08 213.608L1298.68 194.208ZM1298.68 114.375L1318.08 94.9755L1337.48 114.375L1318.08 133.775L1298.68 114.375ZM1298.68 34.5417L1318.08 15.1422L1337.48 34.5417L1318.08 53.9412L1298.68 34.5417ZM1298.68 -45.2917L1318.08 -64.6912L1337.48 -45.2917L1318.08 -25.8922L1298.68 -45.2917ZM1298.68 -125.125L1318.08 -144.524L1337.48 -125.125L1318.08 -105.725L1298.68 -125.125ZM1317.68 -184.042V-145.243L1298.12 -125.684L1278.73 -145.083L1317.68 -184.042ZM1278.17 -184.441L1297.57 -165.042L1278.17 -145.642L1258.77 -165.042L1278.17 -184.441ZM1238.65 -184.042L1277.61 -145.083L1258.21 -125.684L1238.65 -145.243V-184.042ZM1257.65 -125.125L1238.25 -105.725L1218.85 -125.125L1238.25 -144.524L1257.65 -125.125ZM1237.85 -184.042V-145.243L1218.29 -125.684L1198.89 -145.083L1237.85 -184.042ZM1198.33 -184.441L1217.73 -165.042L1198.33 -145.642L1178.93 -165.042L1198.33 -184.441ZM1158.82 -184.042L1197.77 -145.083L1178.38 -125.684L1158.82 -145.243V-184.042ZM1177.82 -125.125L1158.42 -105.725L1139.02 -125.125L1158.42 -144.524L1177.82 -125.125ZM1158.02 -184.042V-145.243L1138.46 -125.684L1119.06 -145.083L1158.02 -184.042ZM1118.5 -184.441L1137.9 -165.042L1118.5 -145.642L1099.1 -165.042L1118.5 -184.441ZM1078.98 -184.042L1117.94 -145.083L1098.54 -125.684L1078.98 -145.243V-184.042ZM1097.98 -125.125L1078.58 -105.725L1059.18 -125.125L1078.58 -144.524L1097.98 -125.125ZM1078.18 -184.042V-145.243L1058.62 -125.684L1039.23 -145.083L1078.18 -184.042ZM1038.67 -184.441L1058.07 -165.042L1038.67 -145.642L1019.27 -165.042L1038.67 -184.441ZM999.149 -184.042L1038.11 -145.083L1018.71 -125.684L999.149 -145.243V-184.042ZM1018.15 -125.125L998.75 -105.725L979.35 -125.125L998.75 -144.524L1018.15 -125.125ZM998.351 -184.042V-145.243L978.792 -125.684L959.392 -145.083L998.351 -184.042ZM958.833 -184.441L978.233 -165.042L958.833 -145.642L939.434 -165.042L958.833 -184.441ZM919.316 -184.042L958.275 -145.083L938.875 -125.684L919.316 -145.243V-184.042ZM938.316 -125.125L918.917 -105.725L899.517 -125.125L918.917 -144.524L938.316 -125.125ZM918.518 -184.042V-145.243L898.958 -125.684L879.559 -145.083L918.518 -184.042ZM879.399 -105.326V-144.125L918.358 -105.167L898.958 -85.7672L879.399 -105.326ZM918.518 -104.209V-65.4097L898.958 -45.8505L879.559 -65.25L918.518 -104.209ZM879.399 -25.493V-64.292L918.358 -25.3333L898.958 -5.93382L879.399 -25.493ZM918.518 -24.3753V14.4237L898.958 33.9828L879.559 14.5833L918.518 -24.3753ZM879.399 54.3403V15.5413L918.358 54.5L898.958 73.8995L879.399 54.3403ZM918.518 55.458V94.257L898.958 113.816L879.559 94.4167L918.518 55.458ZM879.399 134.174V95.3747L918.358 134.333L898.958 153.733L879.399 134.174ZM918.518 135.291V174.09L898.958 193.65L879.559 174.25L918.518 135.291ZM879.399 214.007V175.208L918.358 214.167L898.958 233.566L879.399 214.007ZM879.559 254.083L918.518 215.125V253.924L898.958 273.483L879.559 254.083ZM918.917 293.441L899.517 274.042L918.917 254.642L938.316 274.042L918.917 293.441ZM938.875 273.483L919.316 253.924V215.125L958.275 254.083L938.875 273.483ZM958.833 253.525L939.434 234.125L958.833 214.726L978.233 234.125L958.833 253.525ZM959.392 254.083L998.351 215.125V253.924L978.792 273.483L959.392 254.083ZM998.75 293.441L979.35 274.042L998.75 254.642L1018.15 274.042L998.75 293.441ZM1018.71 273.483L999.149 253.924V215.125L1038.11 254.083L1018.71 273.483ZM1038.67 253.525L1019.27 234.125L1038.67 214.726L1058.07 234.125L1038.67 253.525ZM1039.23 254.083L1078.18 215.125V253.924L1058.62 273.483L1039.23 254.083ZM1078.58 293.441L1059.18 274.042L1078.58 254.642L1097.98 274.042L1078.58 293.441ZM1098.54 273.483L1078.98 253.924V215.125L1117.94 254.083L1098.54 273.483ZM1118.5 253.525L1099.1 234.125L1118.5 214.726L1137.9 234.125L1118.5 253.525ZM1119.06 254.083L1158.02 215.125V253.924L1138.46 273.483L1119.06 254.083ZM1158.42 293.441L1139.02 274.042L1158.42 254.642L1177.82 274.042L1158.42 293.441ZM1178.38 273.483L1158.82 253.924V215.125L1197.77 254.083L1178.38 273.483ZM1198.33 253.525L1178.93 234.125L1198.33 214.726L1217.73 234.125L1198.33 253.525ZM1198.89 254.083L1237.85 215.125V253.924L1218.29 273.483L1198.89 254.083ZM1238.25 293.441L1218.85 274.042L1238.25 254.642L1257.65 274.042L1238.25 293.441ZM1258.21 273.483L1238.65 253.924V215.125L1277.61 254.083L1258.21 273.483ZM1278.17 253.525L1258.77 234.125L1278.17 214.726L1297.57 234.125L1278.17 253.525ZM1278.73 254.083L1317.68 215.125V253.924L1298.12 273.483L1278.73 254.083ZM1318.08 293.441L1298.68 274.042L1318.08 254.642L1337.48 274.042L1318.08 293.441ZM1357.44 254.083L1338.04 273.483L1318.48 253.924V215.125L1357.44 254.083ZM1357.6 214.007L1338.04 233.566L1318.64 214.167L1357.6 175.208V214.007ZM1357.44 174.25L1338.04 193.65L1318.48 174.09V135.291L1357.44 174.25ZM1357.6 134.174L1338.04 153.733L1318.64 134.333L1357.6 95.3747V134.174ZM1357.44 94.4167L1338.04 113.816L1318.48 94.257V55.458L1357.44 94.4167ZM1357.6 54.3403L1338.04 73.8995L1318.64 54.5L1357.6 15.5413V54.3403ZM1357.44 14.5833L1338.04 33.9828L1318.48 14.4237V-24.3753L1357.44 14.5833ZM1357.6 -25.493L1338.04 -5.93382L1318.64 -25.3333L1357.6 -64.292V-25.493ZM1357.44 -65.25L1338.04 -45.8505L1318.48 -65.4097V-104.209L1357.44 -65.25ZM1357.6 -105.326L1338.04 -85.7672L1318.64 -105.167L1357.6 -144.125V-105.326ZM1357.44 -145.083L1338.04 -125.684L1318.48 -145.243V-184.042L1357.44 -145.083Z" fill="url(#paint2_linear)"/>
<defs>
<linearGradient id="paint0_linear" x1="1118.5" y1="-185" x2="1118.5" y2="294" gradientUnits="userSpaceOnUse">
<stop stop-color="white"/>
<stop offset="1" stop-color="white" stop-opacity="0"/>
</linearGradient>
<linearGradient id="paint1_linear" x1="1118.5" y1="-185" x2="1118.5" y2="294" gradientUnits="userSpaceOnUse">
<stop stop-color="white"/>
<stop offset="1" stop-color="white" stop-opacity="0"/>
</linearGradient>
<linearGradient id="paint2_linear" x1="1118.5" y1="-185" x2="1118.5" y2="294" gradientUnits="userSpaceOnUse">
<stop stop-color="white"/>
<stop offset="1" stop-color="white" stop-opacity="0"/>
</linearGradient>
</defs>
</svg>
