<svg width="15" height="15" viewBox="0 0 15 15" fill="none" xmlns="http://www.w3.org/2000/svg">
<path d="M8.22419 0.470891L9.916 4.05545C10.0336 4.30476 10.2611 4.47751 10.5243 4.51743L14.3074 5.09228C14.9702 5.19305 15.2345 6.04437 14.7552 6.53285L12.0177 9.32302C11.8275 9.51704 11.7405 9.79678 11.7855 10.0706L12.4317 14.0105C12.5449 14.7005 11.8522 15.2266 11.2596 14.9011L7.87594 13.0411C7.64065 12.9118 7.35935 12.9118 7.12406 13.0411L3.74044 14.9011C3.14782 15.227 2.45508 14.7005 2.56834 14.0105L3.21447 10.0706C3.25952 9.79678 3.17254 9.51704 2.9823 9.32302L0.244804 6.53285C-0.234547 6.04404 0.029847 5.19273 0.692553 5.09228L4.47574 4.51743C4.73888 4.47751 4.96635 4.30476 5.084 4.05545L6.77581 0.470891C7.07181 -0.156964 7.92788 -0.156964 8.22419 0.470891Z" fill="#F9A030"/>
</svg>
