<svg xmlns="http://www.w3.org/2000/svg" width="40" height="40" viewBox="0 0 40 40">
  <metadata><?xpacket begin="﻿" id="W5M0MpCehiHzreSzNTczkc9d"?>
<x:xmpmeta xmlns:x="adobe:ns:meta/" x:xmptk="Adobe XMP Core 5.6-c138 79.159824, 2016/09/14-01:09:01        ">
   <rdf:RDF xmlns:rdf="http://www.w3.org/1999/02/22-rdf-syntax-ns#">
      <rdf:Description rdf:about=""/>
   </rdf:RDF>
</x:xmpmeta>
                                                                                                    
                                                                                                    
                                                                                                    
                                                                                                    
                                                                                                    
                                                                                                    
                                                                                                    
                                                                                                    
                                                                                                    
                                                                                                    
                                                                                                    
                                                                                                    
                                                                                                    
                                                                                                    
                                                                                                    
                                                                                                    
                                                                                                    
                                                                                                    
                                                                                                    
                                                                                                    
                           
<?xpacket end="w"?></metadata>
<defs>
    <style>
      .cls-1 {
        fill: #d1d5d8;
        fill-rule: evenodd;
      }
    </style>
  </defs>
  <path id="Vimeo" class="cls-1" d="M19.99,0a20,20,0,1,1-20,20A20,20,0,0,1,19.99,0Zm0,1a19,19,0,1,1-19,19A19,19,0,0,1,19.99,1ZM15.519,13.423s1.663-.986,2.23.065c0.454,0.311,1.625,6.79,1.852,8.076s0.832,1.752,1.21,1.207a15.957,15.957,0,0,0,2.457-3.856c0.832-2.026-.264-2.286-0.6-2.169s-2.116.156-1.474-.623a12.979,12.979,0,0,1,2.646-2.337c0.794-.546,1.965-1.26,2.948-0.091a3.6,3.6,0,0,1,.642,4.713c-1.361,2.531-6.69,9-6.69,9s-1.928,1.325-2.721,0a62.357,62.357,0,0,1-3.44-9.114c-0.076-.857-0.3-1.091-0.718-0.857s-1.247,1.519-1.323,1.13-0.832-.858-0.378-1.637A29.254,29.254,0,0,1,15.519,13.423Z"/>
</svg>
