<?xml version="1.0" encoding="utf-8"?>
<svg xmlns="http://www.w3.org/2000/svg"
	xmlns:xlink="http://www.w3.org/1999/xlink"
	width="40px" height="40px" viewBox="0 0 40 40">
<path fillRule="evenodd" d="M 19.84 40C 8.88 40-0 31.04-0 20-0 8.95 8.88-0 19.84-0 30.8-0 40 8.95 40 20 40 31.04 30.8 40 19.84 40ZM 20 1C 9.37 1 0.99 9.37 0.99 20 0.99 30.62 9.37 38.99 20 38.99 30.62 38.99 39 30.62 39 20 39 9.37 30.62 1 20 1ZM 23.47 17.41C 23.47 17.41 22.83 19.57 22.83 19.57 22.83 19.57 19.83 19.57 19.83 19.57 19.83 19.57 19.83 29.08 19.83 29.08 19.83 29.08 17.12 29.08 17.12 29.08 17.12 29.08 17.11 19.57 17.11 19.57 17.11 19.57 14.41 19.57 14.41 19.57 14.41 19.57 14.4 17.41 14.4 17.41 14.4 17.41 17.12 17.41 17.12 17.41 17.12 17.41 17.12 15.51 17.12 14.65 17.12 10.64 21.11 10.92 21.11 10.92 21.11 10.92 23.03 10.92 23.03 10.92 23.03 10.92 23.01 13.52 23.01 13.52 23.01 13.52 21.11 13.52 21.11 13.52 19.82 13.52 19.85 14.57 19.85 14.57 19.85 14.57 19.85 17.41 19.85 17.41 19.85 17.41 23.47 17.41 23.47 17.41Z" fill="rgb(209,213,215)"/></svg>