<?xml version="1.0" encoding="utf-8"?>
<svg xmlns="http://www.w3.org/2000/svg"
	xmlns:xlink="http://www.w3.org/1999/xlink"
	width="40px" height="40px" viewBox="0 0 40 40">
<path fillRule="evenodd" d="M 19.99 40C 8.95 40-0.01 31.04-0.01 20-0.01 8.95 8.95-0 19.99-0 31.03-0 39.99 8.95 39.99 20 39.99 31.04 31.03 40 19.99 40ZM 19.99 1C 9.5 1 0.99 9.5 0.99 20 0.99 30.49 9.5 39 19.99 39 30.48 39 38.99 30.49 38.99 20 38.99 9.5 30.48 1 19.99 1ZM 27.26 16.36C 27.26 16.36 25.44 16.36 25.44 16.36 25.44 16.36 25.44 14.54 25.44 14.54 25.44 14.54 23.63 14.54 23.63 14.54 23.63 14.54 23.63 12.73 23.63 12.73 23.63 12.73 25.44 12.73 25.44 12.73 25.44 12.73 25.44 10.91 25.44 10.91 25.44 10.91 27.26 10.91 27.26 10.91 27.26 10.91 27.26 12.73 27.26 12.73 27.26 12.73 29.08 12.73 29.08 12.73 29.08 12.73 29.08 14.54 29.08 14.54 29.08 14.54 27.26 14.54 27.26 14.54 27.26 14.54 27.26 16.36 27.26 16.36ZM 19.88 12.13C 20.88 12.69 21.41 13.87 21.41 15.16 21.41 16.35 20.75 17.31 19.82 18.03 18.9 18.74 18.73 19.04 18.73 19.64 18.73 20.16 19.82 20.92 20.32 21.29 22.07 22.6 22.39 23.41 22.42 25.04 22.45 27.2 20.22 29.09 16.64 29.09 13.51 29.09 10.88 27.67 10.88 25.64 10.88 22.57 13.06 21.58 16.19 21.58 16.53 21.58 16.85 21.57 17.17 21.57 16.74 21.16 16.4 20.8 16.4 20.17 16.4 19.8 16.51 19.44 16.68 19.13 16.51 19.14 16.34 19.15 16.16 19.15 13.58 19.15 12.08 17.35 12.08 15.09 12.08 12.87 14.37 10.89 17.1 10.89 18.52 10.89 22.5 10.89 22.5 10.89 22.5 10.89 21.3 12.13 21.3 12.13 21.3 12.13 19.88 12.13 19.88 12.13ZM 16.72 23.01C 14.72 23.01 13.07 23.75 13.07 25.16 13.07 26.59 14.32 27.27 16.36 27.27 19.22 27.27 20.45 26.67 20.45 25.23 20.45 25.06 20.44 24.88 20.38 24.73 19.69 23.01 17.46 23.01 16.72 23.01ZM 19.14 15.38C 18.9 13.59 18 12.23 16.62 12.19 15.24 12.15 14.03 13.4 14.27 15.2 14.51 17 15.82 18.2 17.2 18.25 18.58 18.28 19.38 17.18 19.14 15.38Z" fill="rgb(209,213,215)"/></svg>