<?xml version="1.0" encoding="utf-8"?>
<svg xmlns="http://www.w3.org/2000/svg"
	xmlns:xlink="http://www.w3.org/1999/xlink"
	width="40px" height="40px" viewBox="0 0 40 40">
<path fillRule="evenodd" d="M 20 40C 8.96 40 0.01 31.04 0.01 20 0.01 8.95 8.96-0 20-0 31.05-0 40 8.95 40 20 40 31.04 31.05 40 20 40ZM 20 1C 9.39 1 1.01 9.37 1.01 20 1.01 30.62 9.39 38.99 20 38.99 30.62 38.99 38.99 30.62 38.99 20 38.99 9.37 30.62 1 20 1ZM 21.43 23.86C 20.26 23.86 19.17 23.41 18.79 22.72 18.79 22.72 18.16 25.12 18.03 25.59 17.56 27.23 16.19 28.87 16.08 29 16.01 29.09 15.84 29.06 15.83 28.94 15.8 28.73 15.45 26.66 15.86 24.98 16.07 24.13 17.24 19.12 17.24 19.12 17.24 19.12 16.9 18.63 16.9 17.65 16.9 16.1 17.83 15.05 18.99 15.05 19.97 15.05 20.44 15.66 20.44 16.52 20.44 17.47 19.81 18.9 19.49 20.22 19.22 21.32 20.06 22.13 21.19 22.13 23.23 22.13 24.61 19.69 24.61 16.68 24.61 14.4 23.02 12.63 20.12 12.63 16.85 12.63 14.93 14.79 14.93 17.8 14.93 18.71 15.2 19.23 15.63 19.72 15.83 19.95 15.86 20.04 15.79 20.3 15.73 20.49 15.51 20.96 15.46 21.14 15.38 21.41 15.16 21.5 14.92 21.4 13.41 20.81 12.71 19.21 12.71 17.42 12.71 14.46 15.29 10.91 20.42 10.91 24.54 10.91 27.25 13.79 27.25 16.88 27.25 20.97 24.9 23.86 21.43 23.86Z" fill="rgb(209,213,215)"/></svg>