<?xml version="1.0" encoding="utf-8"?>
<svg xmlns="http://www.w3.org/2000/svg"
	xmlns:xlink="http://www.w3.org/1999/xlink"
	width="40px" height="40px" viewBox="0 0 40 40">
<path fillRule="evenodd" d="M 20.01 40C 8.97 40 0.01 31.04 0.01 20 0.01 8.95 8.97-0 20.01-0 31.05-0 40 8.95 40 20 40 31.04 31.05 40 20.01 40ZM 20.01 1C 9.52 1 1.01 9.5 1.01 20 1.01 30.49 9.52 39 20.01 39 30.5 39 39.01 30.49 39.01 20 39.01 9.5 30.5 1 20.01 1ZM 26.57 17.01C 26.58 17.16 26.58 17.31 26.58 17.46 26.58 21.99 23.11 27.22 16.77 27.22 14.82 27.22 13 26.65 11.48 25.68 11.75 25.71 12.02 25.73 12.3 25.73 13.92 25.73 15.4 25.18 16.58 24.26 15.07 24.23 13.8 23.24 13.36 21.87 13.57 21.91 13.79 21.93 14.01 21.93 14.33 21.93 14.63 21.89 14.92 21.82 13.34 21.5 12.15 20.11 12.15 18.45 12.15 18.44 12.15 18.42 12.15 18.41 12.62 18.66 13.15 18.82 13.72 18.84 12.79 18.22 12.18 17.17 12.18 15.98 12.18 15.35 12.35 14.76 12.65 14.26 14.35 16.33 16.89 17.7 19.76 17.84 19.7 17.59 19.67 17.33 19.67 17.06 19.67 15.16 21.22 13.63 23.12 13.63 24.11 13.63 25.01 14.04 25.64 14.71 26.42 14.56 27.16 14.27 27.83 13.88 27.57 14.68 27.03 15.35 26.31 15.78 27.01 15.69 27.68 15.51 28.3 15.24 27.83 15.92 27.25 16.53 26.57 17.01Z" fill="rgb(209,213,215)"/></svg>