<svg 
 xmlns="http://www.w3.org/2000/svg"
 xmlns:xlink="http://www.w3.org/1999/xlink"
 width="23px" height="39px">
<path 
 d="M22.454,13.272 L21.347,14.433 C20.963,14.810 20.516,15.000 20.004,15.000 C19.483,15.000 19.039,14.810 18.676,14.433 L11.501,7.009 L4.342,14.433 C3.958,14.810 3.511,15.000 2.998,15.000 C2.477,15.000 2.034,14.810 1.670,14.433 L0.563,13.272 C0.189,12.905 0.002,12.446 0.002,11.896 C0.002,11.348 0.189,10.887 0.563,10.524 L10.172,0.564 C10.537,0.187 10.980,-0.003 11.501,-0.003 C12.013,-0.003 12.461,0.187 12.845,0.564 L22.454,10.524 C22.819,10.898 23.000,11.358 23.000,11.897 C23.000,12.437 22.819,12.894 22.454,13.272 ZM11.000,19.999 C13.209,19.999 15.000,21.790 15.000,23.999 C15.000,26.208 13.209,27.998 11.000,27.998 C8.791,27.998 7.000,26.208 7.000,23.999 C7.000,21.790 8.791,19.999 11.000,19.999 ZM11.000,34.998 C12.104,34.998 13.000,35.895 13.000,36.998 C13.000,38.103 12.104,39.000 11.000,39.000 C9.895,39.000 9.000,38.103 9.000,36.998 C9.000,35.895 9.895,34.998 11.000,34.998 Z"/>
</svg>