<svg 
 xmlns="http://www.w3.org/2000/svg"
 xmlns:xlink="http://www.w3.org/1999/xlink"
 width="39px" height="25px">
<path fill-rule="evenodd" 
 d="M36.969,14.030 C35.864,14.030 34.969,13.135 34.969,12.031 C34.969,10.927 35.864,10.031 36.969,10.031 C38.073,10.031 38.969,10.927 38.969,12.031 C38.969,13.135 38.073,14.030 36.969,14.030 ZM23.984,16.062 C21.784,16.062 20.000,14.257 20.000,12.031 C20.000,9.805 21.784,8.000 23.984,8.000 C26.185,8.000 27.969,9.805 27.969,12.031 C27.969,14.257 26.185,16.062 23.984,16.062 ZM14.990,21.079 C14.990,21.596 14.802,22.045 14.426,22.432 L13.265,23.544 C12.889,23.909 12.430,24.093 11.892,24.093 C11.352,24.093 10.894,23.909 10.517,23.544 L0.565,13.879 C0.188,13.492 -0.000,13.042 -0.000,12.528 C-0.000,12.004 0.188,11.558 0.565,11.190 L10.517,1.526 C10.883,1.149 11.342,0.961 11.891,0.961 C12.440,0.961 12.899,1.150 13.265,1.526 L14.425,2.640 C14.802,3.006 14.990,3.451 14.990,3.977 C14.990,4.493 14.802,4.941 14.425,5.329 L7.006,12.528 L14.426,19.743 C14.802,20.108 14.990,20.556 14.990,21.079 Z"/>
</svg>