<svg xmlns="http://www.w3.org/2000/svg" width="23" height="39" viewBox="0 0 23 39">
  <path id="arrow_sroll_down.svg" class="cls-1" d="M82.828,16481.4l9.609-9.9a2.042,2.042,0,0,0,.561-1.4,1.879,1.879,0,0,0-.561-1.4l-1.108-1.1A1.729,1.729,0,0,0,90,16467a1.807,1.807,0,0,0-1.344.6L81.5,16475l-7.175-7.4A1.729,1.729,0,0,0,73,16467a1.806,1.806,0,0,0-1.344.6l-1.107,1.1a2.069,2.069,0,0,0,0,2.8l9.609,9.9a1.807,1.807,0,0,0,1.344.6,1.732,1.732,0,0,0,1.329-.6h0Zm0,0M82,16454a4,4,0,1,1-4,4A4.006,4.006,0,0,1,82,16454Zm0-11a2,2,0,1,1-2,2A2,2,0,0,1,82,16443Z" transform="translate(-70 -16443)"/>
</svg>
