<svg xmlns="http://www.w3.org/2000/svg" width="15" height="23.1" viewBox="0 0 15 23.1">
  <path id="arrow_left.svg" class="cls-1" d="M194.565,14422.2l9.952-9.7a1.707,1.707,0,0,1,1.374-.5,2.131,2.131,0,0,1,1.374.5l1.16,1.1a2.035,2.035,0,0,1,.565,1.4,1.808,1.808,0,0,1-.565,1.3l-7.419,7.2,7.42,7.2a2.038,2.038,0,0,1,.564,1.4,1.81,1.81,0,0,1-.564,1.3l-1.161,1.1a1.873,1.873,0,0,1-2.748,0l-9.952-9.6a2.035,2.035,0,0,1-.565-1.4,1.808,1.808,0,0,1,.565-1.3h0Zm0,0" transform="translate(-194 -14412)"/>
</svg>
