<svg 
 xmlns="http://www.w3.org/2000/svg"
 xmlns:xlink="http://www.w3.org/1999/xlink"
 width="39px" height="25px">
<path fill-rule="evenodd"
 d="M38.435,13.879 L28.482,23.544 C28.106,23.909 27.648,24.093 27.108,24.093 C26.569,24.093 26.111,23.909 25.735,23.544 L24.574,22.432 C24.198,22.045 24.010,21.596 24.010,21.079 C24.010,20.556 24.198,20.108 24.574,19.743 L31.993,12.528 L24.575,5.329 C24.198,4.941 24.010,4.493 24.010,3.977 C24.010,3.451 24.198,3.006 24.575,2.640 L25.735,1.526 C26.101,1.150 26.559,0.961 27.109,0.961 C27.658,0.961 28.116,1.149 28.482,1.526 L38.435,11.190 C38.811,11.558 39.000,12.004 39.000,12.528 C39.000,13.042 38.811,13.492 38.435,13.879 ZM15.016,16.062 C12.815,16.062 11.031,14.257 11.031,12.031 C11.031,9.805 12.815,8.000 15.016,8.000 C17.216,8.000 19.000,9.805 19.000,12.031 C19.000,14.257 17.216,16.062 15.016,16.062 ZM2.031,14.030 C0.927,14.030 0.031,13.135 0.031,12.031 C0.031,10.927 0.927,10.031 2.031,10.031 C3.136,10.031 4.031,10.927 4.031,12.031 C4.031,13.135 3.136,14.030 2.031,14.030 Z"/>
</svg>