<svg 
 xmlns="http://www.w3.org/2000/svg"
 xmlns:xlink="http://www.w3.org/1999/xlink"
 width="215px" height="206px">
<path fill-rule="evenodd"
 d="M195.572,129.779 C185.909,129.779 177.960,122.768 176.485,113.618 L152.375,111.280 C153.003,108.344 153.335,105.302 153.335,102.190 C153.335,102.017 153.312,101.842 153.312,101.666 L177.445,104.025 C180.194,96.726 187.246,91.476 195.572,91.476 C206.288,91.476 214.974,100.058 214.974,110.641 C214.974,121.204 206.288,129.779 195.572,129.779 ZM158.404,39.279 C156.529,39.279 154.763,38.924 153.049,38.444 L135.682,67.309 C133.087,65.366 130.298,63.712 127.310,62.368 L144.631,33.590 C141.174,30.129 139.025,25.364 139.025,20.115 C139.025,9.530 147.689,0.978 158.404,0.978 C169.119,0.978 177.805,9.552 177.805,20.115 C177.805,30.699 169.119,39.279 158.404,39.279 ZM142.265,102.190 C142.265,120.341 127.395,135.029 109.023,135.029 C90.678,135.029 75.785,120.341 75.785,102.190 C75.785,84.069 90.678,69.357 109.023,69.357 C127.395,69.357 142.265,84.069 142.265,102.190 ZM73.711,75.861 L60.653,63.668 C57.681,65.519 54.178,66.626 50.406,66.626 C39.691,66.626 31.005,58.044 31.005,47.483 C31.005,36.897 39.691,28.323 50.406,28.323 C61.121,28.323 69.802,36.897 69.802,47.483 C69.802,50.813 68.842,53.902 67.328,56.634 L80.409,68.850 C77.906,70.921 75.694,73.281 73.711,75.861 ZM35.691,121.379 L65.716,111.432 C66.430,114.633 67.505,117.676 68.865,120.583 L38.731,130.552 C38.777,130.970 38.862,131.388 38.862,131.829 C38.862,142.413 30.182,150.994 19.467,150.994 C8.751,150.994 0.088,142.413 0.088,131.829 C0.088,121.243 8.751,112.691 19.467,112.691 C26.250,112.691 32.233,116.151 35.691,121.379 ZM119.498,168.970 L114.091,145.660 C117.395,145.281 120.566,144.530 123.601,143.498 L129.007,166.783 C139.431,167.094 147.803,175.495 147.803,185.882 C147.803,196.445 139.116,205.020 128.424,205.020 C117.686,205.020 109.023,196.445 109.023,185.882 C109.023,178.491 113.291,172.164 119.498,168.970 Z"/>
</svg>