<svg 
 xmlns="http://www.w3.org/2000/svg"
 xmlns:xlink="http://www.w3.org/1999/xlink"
 width="16px" height="16px">
<path fill-rule="evenodd" 
 d="M15.793,1.183 L1.182,15.797 C1.047,15.932 0.870,16.000 0.692,16.000 C0.515,16.000 0.338,15.932 0.202,15.797 C-0.069,15.527 -0.069,15.088 0.202,14.817 L14.813,0.202 C15.083,-0.068 15.523,-0.068 15.793,0.202 C16.063,0.473 16.063,0.912 15.793,1.183 ZM5.918,6.613 C5.741,6.613 5.563,6.545 5.428,6.410 L0.202,1.183 C-0.069,0.912 -0.069,0.473 0.202,0.202 C0.473,-0.068 0.912,-0.068 1.182,0.202 L6.408,5.429 C6.679,5.700 6.679,6.139 6.408,6.410 C6.273,6.545 6.096,6.613 5.918,6.613 ZM10.331,9.469 L15.788,14.811 C16.061,15.079 16.066,15.518 15.798,15.792 C15.662,15.931 15.483,16.000 15.303,16.000 C15.128,16.000 14.953,15.935 14.818,15.803 L9.361,10.460 C9.087,10.192 9.083,9.753 9.351,9.479 C9.618,9.206 10.057,9.201 10.331,9.469 Z"/>
</svg>