<svg 
 xmlns="http://www.w3.org/2000/svg"
 xmlns:xlink="http://www.w3.org/1999/xlink"
 width="178px" height="178px">
<path fill-rule="evenodd" 
 d="M170.554,80.105 L160.196,80.105 L160.196,58.533 C160.196,54.071 156.562,50.439 152.101,50.439 L142.392,50.439 L142.392,43.266 L96.157,-0.002 L23.726,-0.002 L23.726,29.664 L8.114,29.664 C3.634,29.664 -0.000,33.298 -0.000,37.777 L-0.000,171.957 L0.174,171.957 C0.404,173.042 0.868,174.085 1.565,175.012 C3.011,176.911 5.214,177.996 7.606,177.996 L140.394,177.996 C143.828,177.996 146.843,175.679 147.666,172.624 L178.000,89.446 L178.000,88.913 C178.000,83.814 174.870,80.105 170.554,80.105 L170.554,80.105 ZM91.970,6.790 C91.970,6.472 92.345,6.313 92.579,6.532 L135.862,46.860 C136.077,47.088 135.933,47.467 135.614,47.467 L91.970,47.467 L91.970,6.790 ZM47.470,14.830 L77.137,14.830 C78.772,14.830 80.107,16.161 80.107,17.801 C80.107,19.437 78.772,20.771 77.137,20.771 L47.470,20.771 C45.831,20.771 44.500,19.437 44.500,17.801 C44.500,16.161 45.831,14.830 47.470,14.830 L47.470,14.830 ZM47.470,35.606 L77.137,35.606 C78.772,35.606 80.107,36.922 80.107,38.556 C80.107,40.210 78.772,41.527 77.137,41.527 L47.470,41.527 C45.831,41.527 44.500,40.210 44.500,38.556 C44.500,36.922 45.831,35.606 47.470,35.606 L47.470,35.606 ZM47.470,56.359 L118.667,56.359 C120.302,56.359 121.637,57.696 121.637,59.330 C121.637,60.966 120.302,62.302 118.667,62.302 L47.470,62.302 C45.831,62.302 44.500,60.966 44.500,59.330 C44.500,57.696 45.831,56.359 47.470,56.359 L47.470,56.359 ZM30.508,85.479 L5.941,152.866 L5.941,37.777 C5.941,36.571 6.909,35.606 8.114,35.606 L23.726,35.606 L23.726,91.967 L28.680,79.612 C29.277,78.116 30.724,77.134 32.333,77.134 L142.392,77.134 L142.392,56.359 L152.101,56.359 C153.288,56.359 154.274,57.331 154.274,58.533 L154.274,80.105 L37.766,80.105 C34.347,80.105 31.317,82.408 30.508,85.479 L30.508,85.479 Z"/>
</svg>