<svg xmlns="http://www.w3.org/2000/svg" width="93" height="93" viewBox="0 0 93 93">
  <path id="excellence_3.svg" class="cls-1" d="M1152.53,5338.91l-29.45-29.45a8.474,8.474,0,0,0-11.94,0l-46.68,46.68a8.474,8.474,0,0,0,0,11.94l3.64,3.63v0.01h0l24.4,24.4h-3.38a1.94,1.94,0,0,0,0,3.88h38.75a1.94,1.94,0,0,0,0-3.88h-20.61l45.27-45.27A8.456,8.456,0,0,0,1152.53,5338.91Zm-2.74,9.2-46.68,46.68a4.5,4.5,0,0,1-3.22,1.33h-0.02a4.514,4.514,0,0,1-3.22-1.33l-24.44-24.44,44.82-44.84a1.934,1.934,0,0,0-2.74-2.73l-44.82,44.83-2.27-2.27a4.587,4.587,0,0,1,0-6.46l46.68-46.68a4.587,4.587,0,0,1,6.46,0l10.48,10.49L1086,5367.52a1.93,1.93,0,0,0,1.37,3.3,1.972,1.972,0,0,0,1.37-.56l44.82-44.83,16.23,16.22A4.575,4.575,0,0,1,1149.79,5348.11Zm-40.06,14.85a1.931,1.931,0,0,0-2.74,0l-15.24,15.24a1.937,1.937,0,1,0,2.74,2.74l15.24-15.24A1.931,1.931,0,0,0,1109.73,5362.96Zm-6.25,14.47-6.25,6.25a1.937,1.937,0,1,0,2.74,2.74l6.25-6.25A1.937,1.937,0,0,0,1103.48,5377.43Zm5.76-5.75-0.83.82a1.94,1.94,0,0,0,1.37,3.31,1.906,1.906,0,0,0,1.37-.57l0.83-.82A1.937,1.937,0,1,0,1109.24,5371.68Zm26.7-34.93a1.931,1.931,0,0,0-2.74,0l-8.22,8.22a1.931,1.931,0,0,0,0,2.74l5.48,5.48a1.931,1.931,0,0,0,2.74,0l8.22-8.22a1.931,1.931,0,0,0,0-2.74Zm-4.11,12.33-2.74-2.74,5.48-5.48,2.74,2.74Zm-11.64-27.52a1.94,1.94,0,0,0,1.37-.57l0.82-.82a1.937,1.937,0,1,0-2.74-2.74l-0.82.82a1.931,1.931,0,0,0,0,2.74A1.906,1.906,0,0,0,1120.19,5321.56Zm-38.72,50.48-0.82.82a1.94,1.94,0,0,0,1.37,3.31,1.923,1.923,0,0,0,1.37-.57l0.82-.82A1.937,1.937,0,1,0,1081.47,5372.04Z" transform="translate(-1062 -5307)"/>
</svg>
