<svg xmlns="http://www.w3.org/2000/svg" width="110" height="93" viewBox="0 0 110 93">

  <path id="excellence_2.svg" class="cls-1" d="M859.847,5198.82a2.155,2.155,0,1,1-2.154,2.16A2.158,2.158,0,0,1,859.847,5198.82Zm-42.2,66.91H809.31a2.155,2.155,0,0,0,0,4.31h8.335a2.325,2.325,0,1,1,0,4.65H795.208a11.257,11.257,0,0,1-8.7-4.08l-5.365-6.45a15.568,15.568,0,0,0-11.552-5.61v-12.68h7.9a14.886,14.886,0,0,1,10.395,4.2l11.581,11.18a2.1,2.1,0,0,1-2.884,3.06l-9.092-8.33a2.152,2.152,0,1,0-2.91,3.17l9.092,8.34a6.412,6.412,0,0,0,8.785-9.34l-11.58-11.18a19.17,19.17,0,0,0-13.387-5.41h-8.292a5.346,5.346,0,0,0-4.941-3.34H754.153a2.158,2.158,0,0,0-2.153,2.16v15.71a2.153,2.153,0,0,0,4.306,0v-13.56h7.959a1.024,1.024,0,0,1,1.023,1.02v17.22a1.018,1.018,0,0,1-1.023,1.02h-2.231a2.155,2.155,0,0,0,0,4.31h2.231a5.343,5.343,0,0,0,4.91-3.26,11.288,11.288,0,0,1,8.66,4.08l5.365,6.45a15.572,15.572,0,0,0,12.008,5.63h22.437A6.635,6.635,0,0,0,817.645,5265.73Zm13.5-14.92a2.162,2.162,0,0,0-3.041.16,0.073,0.073,0,0,1-.027.03,2.155,2.155,0,0,0,3.224,2.86l-1.6-1.45,1.6,1.44A2.152,2.152,0,0,0,831.144,5250.81Zm-7.516,4.22a2.149,2.149,0,0,0,1.268,3.89,2.129,2.129,0,0,0,1.265-.41l0.018-.01A2.153,2.153,0,0,0,823.628,5255.03Zm-4.338,7.12a2.175,2.175,0,0,0,.821-0.17c0.021-.01.062-0.02,0.084-0.03A2.149,2.149,0,1,0,819.29,5262.15Zm-6.574-2.32a2.155,2.155,0,0,0,.4,4.27,2.528,2.528,0,0,0,.383-0.04c0.027,0,.054-0.01.081-0.01A2.154,2.154,0,0,0,812.716,5259.83Zm24.569-31.43,2.114-.41a2.153,2.153,0,0,0-4.228.82l0.011,0.05a2.158,2.158,0,0,0,2.109,1.72,2.2,2.2,0,0,0,.44-0.04A2.152,2.152,0,0,0,839.4,5228Zm0.147,4.32a2.148,2.148,0,0,0-2.334,1.95c0,0.01,0,.04,0,0.05a2.166,2.166,0,0,0,1.989,2.32h0.161a2.143,2.143,0,0,0,2.144-1.99l-2.145-.19,2.145,0.19A2.149,2.149,0,0,0,837.432,5232.72Zm-2.908,12.57a2.163,2.163,0,1,0,.8,2.95s0.012-.02.013-0.02A2.149,2.149,0,0,0,834.524,5245.29Zm2.121-6.14a2.166,2.166,0,0,0-1.272,4.14,2.4,2.4,0,0,0,.643.1,2.15,2.15,0,0,0,2.054-1.52l0.012-.03A2.159,2.159,0,0,0,836.645,5239.15Zm-59.354-1.94a2.153,2.153,0,0,0-1.638,2.57l0.015,0.06a2.14,2.14,0,0,0,2.089,1.64,2.237,2.237,0,0,0,.509-0.06A2.161,2.161,0,0,0,777.291,5237.21Zm1.3-14.94a2.121,2.121,0,0,0,.847.18,2.16,2.16,0,1,0-1.952-3.06l-0.026.06A2.147,2.147,0,0,0,778.589,5222.27Zm-1.488,6.32a1.958,1.958,0,0,0,.415.04,2.167,2.167,0,1,0-2.107-2.62l-0.01.05A2.154,2.154,0,0,0,777.1,5228.59Zm4.271-12.17a2.154,2.154,0,0,0,3.008-.48l0.024-.03a2.152,2.152,0,0,0-3.5-2.5l1.738,1.27-1.741-1.27A2.156,2.156,0,0,0,781.372,5216.42Zm5.6-4.41a2.178,2.178,0,0,0,1.451-.56,2.153,2.153,0,1,0-2.881-3.2s-0.018.02-.018,0.02A2.15,2.15,0,0,0,786.967,5212.01Zm5.235-3.77a2.193,2.193,0,0,0,1.071-.29,2.154,2.154,0,0,0-2.1-3.76c-0.008,0-.035.02-0.043,0.02A2.159,2.159,0,0,0,792.2,5208.24Zm3.873-4.11a2.148,2.148,0,0,0,2.057,1.52,2.317,2.317,0,0,0,.634-0.09,0.106,0.106,0,0,1,.049-0.02,2.152,2.152,0,1,0-1.312-4.1l0.63,2.06-0.633-2.06A2.15,2.15,0,0,0,796.075,5204.13Zm8.421,0.27a1.236,1.236,0,0,0,.192-0.01,2.153,2.153,0,0,0-.378-4.29h-0.022A2.155,2.155,0,0,0,804.5,5204.4Zm-27.547,30.67h0.033a2.159,2.159,0,0,0,2.121-2.19c0-.01,0-0.04,0-0.05a2.153,2.153,0,0,0-4.3.11l2.153-.02-2.153.03A2.151,2.151,0,0,0,776.949,5235.07Zm20.255-10.74v2.58a7.588,7.588,0,0,0,7.58,7.58h4.432a3.277,3.277,0,0,1,3.273,3.27v2.58a3.279,3.279,0,0,1-3.273,3.28h-4.911a2.8,2.8,0,0,1-2.795-2.8,2.153,2.153,0,0,0-4.306,0,7.106,7.106,0,0,0,7.1,7.1h0.541v3.21a2.154,2.154,0,0,0,4.307,0v-3.21h0.063a7.589,7.589,0,0,0,7.58-7.58v-2.58a7.6,7.6,0,0,0-7.58-7.58h-4.432a3.271,3.271,0,0,1-3.274-3.27v-2.58a3.278,3.278,0,0,1,3.274-3.27h4.91a2.8,2.8,0,0,1,2.8,2.8,2.154,2.154,0,0,0,4.307,0,7.114,7.114,0,0,0-7.1-7.11h-0.541v-3.2a2.154,2.154,0,1,0-4.307,0v3.2h-0.062A7.588,7.588,0,0,0,797.2,5224.33Zm62.642-18.48a2.15,2.15,0,0,0-2.153,2.15v14.39h-7.958a1.024,1.024,0,0,1-1.023-1.02v-17.22a1.024,1.024,0,0,1,1.023-1.02h2.073a2.155,2.155,0,0,0,0-4.31h-2.073a5.337,5.337,0,0,0-4.939,3.33,11.26,11.26,0,0,1-8.631-4.07l-5.366-6.45a15.569,15.569,0,0,0-12.008-5.63H796.355a6.635,6.635,0,0,0,0,13.27h9.174a2.155,2.155,0,0,0,0-4.31h-9.174a2.325,2.325,0,1,1,0-4.65h22.436a11.28,11.28,0,0,1,8.7,4.07l5.365,6.45a15.576,15.576,0,0,0,11.552,5.62v12.68h-7.9a14.887,14.887,0,0,1-10.4-4.2l-11.58-11.18a2.106,2.106,0,0,1,2.884-3.07l9.092,8.34a2.152,2.152,0,1,0,2.91-3.17l-9.092-8.34a6.412,6.412,0,0,0-8.785,9.34l11.58,11.18a19.214,19.214,0,0,0,13.387,5.41h8.32a5.344,5.344,0,0,0,4.913,3.26h10.111a2.156,2.156,0,0,0,2.153-2.15V5208A2.149,2.149,0,0,0,859.846,5205.85ZM754.153,5261.8a2.15,2.15,0,1,1-2.153,2.15A2.15,2.15,0,0,1,754.153,5261.8Z" transform="translate(-752 -5186)"/>
</svg>
