<svg xmlns="http://www.w3.org/2000/svg" width="91" height="92" viewBox="0 0 91 92">
  <path id="excellence_4.svg" class="cls-1" d="M1419.94,5219.82a2.3,2.3,0,0,0-3.26-3.25l-27.62,27.6a2.3,2.3,0,1,0,3.26,3.25ZM1397.6,5209a9.2,9.2,0,1,0,9.2,9.2A9.21,9.21,0,0,0,1397.6,5209Zm0,13.8a4.6,4.6,0,1,1,4.6-4.6A4.616,4.616,0,0,1,1397.6,5222.8Zm13.8,13.8a9.2,9.2,0,1,0,9.21,9.2A9.214,9.214,0,0,0,1411.4,5236.6Zm0,13.8a4.6,4.6,0,1,1,4.61-4.6A4.614,4.614,0,0,1,1411.4,5250.4Zm36.92-18.4a885.446,885.446,0,0,1-3.96-23,21.877,21.877,0,0,1-10.28-12.24,21.962,21.962,0,0,1-13.84-7.99,21.932,21.932,0,0,1-15.74-2.77,11.536,11.536,0,0,1-11.81,2.08,50.27,50.27,0,0,1-17.77,8.68,21.877,21.877,0,0,1-10.28,12.24,21.867,21.867,0,0,1-5.46,15.01,22,22,0,0,1,0,15.97,21.915,21.915,0,0,1,5.46,15.02,21.877,21.877,0,0,1,10.28,12.24,11.537,11.537,0,0,0,7.67,2.68,11.418,11.418,0,0,0,6.17,5.3,11.272,11.272,0,0,0,3.93.7,11.536,11.536,0,0,1,11.81,2.08,11.536,11.536,0,0,1,11.81-2.08,11.272,11.272,0,0,0,3.93-.7,11.418,11.418,0,0,0,6.17-5.3,1027.729,1027.729,0,0,1,17.95-14.92,21.86,21.86,0,0,1,5.47-15.02A11.463,11.463,0,0,0,1448.32,5232Zm-3.03,7.19a6.869,6.869,0,0,1-3.41,4.81,2.307,2.307,0,0,0-1.03,2.82,6.9,6.9,0,0,1-5.33,9.24,2.294,2.294,0,0,0-1.93,2.29,6.9,6.9,0,0,1-8.18,6.86,2.3,2.3,0,0,0-2.59,1.49,6.9,6.9,0,0,1-10.03,3.65,2.318,2.318,0,0,0-2.95.52,6.9,6.9,0,0,1-10.68,0,2.327,2.327,0,0,0-1.78-.84,2.369,2.369,0,0,0-1.17.32,6.9,6.9,0,0,1-10.03-3.65,2.3,2.3,0,0,0-2.59-1.49,6.914,6.914,0,0,1-8.18-6.86,2.294,2.294,0,0,0-1.93-2.29,6.9,6.9,0,0,1-5.33-9.24,2.307,2.307,0,0,0-1.03-2.82,6.9,6.9,0,0,1-1.85-10.51,2.291,2.291,0,0,0,0-2.99,6.9,6.9,0,0,1,1.85-10.51,2.294,2.294,0,0,0,1.03-2.81,6.9,6.9,0,0,1,5.33-9.24,2.31,2.31,0,0,0,1.93-2.29,6.9,6.9,0,0,1,8.18-6.86,2.3,2.3,0,0,0,2.59-1.5,6.88,6.88,0,0,1,4.15-4.2,6.974,6.974,0,0,1,5.88.55,2.3,2.3,0,0,0,2.95-.52,6.918,6.918,0,0,1,10.68,0,2.3,2.3,0,0,0,2.95.52,6.974,6.974,0,0,1,5.88-.55,6.88,6.88,0,0,1,4.15,4.2,2.3,2.3,0,0,0,2.59,1.5,6.889,6.889,0,0,1,8.18,6.86,2.31,2.31,0,0,0,1.93,2.29,6.9,6.9,0,0,1,5.33,9.24,2.294,2.294,0,0,0,1.03,2.81,6.9,6.9,0,0,1,1.85,10.51,2.291,2.291,0,0,0,0,2.99A6.906,6.906,0,0,1,1445.29,5239.19Zm-31.49-35.61a2.3,2.3,0,1,0,1.43-4.37,34.522,34.522,0,0,0-45.2,30.91,2.3,2.3,0,0,0,2.17,2.42c0.05,0,.09.01,0.13,0.01a2.3,2.3,0,0,0,2.3-2.18A29.917,29.917,0,0,1,1413.8,5203.58Zm23,27.87a2.3,2.3,0,0,0-2.43,2.17,29.917,29.917,0,0,1-39.17,26.8,2.3,2.3,0,1,0-1.43,4.37,34.522,34.522,0,0,0,45.2-30.91A2.311,2.311,0,0,0,1436.8,5231.45Zm-61.66,6.27a2.3,2.3,0,0,0-4.52.89c0.13,0.63.27,1.28,0.44,1.92a2.3,2.3,0,0,0,2.22,1.74,2.239,2.239,0,0,0,.57-0.08,2.3,2.3,0,0,0,1.67-2.79C1375.37,5238.84,1375.25,5238.27,1375.14,5237.72Zm58.72-11.45a2.307,2.307,0,0,0,2.26,1.86,2.25,2.25,0,0,0,.44-0.04,2.306,2.306,0,0,0,1.82-2.7c-0.13-.64-0.27-1.28-0.44-1.93a2.3,2.3,0,0,0-4.46,1.14C1433.63,5225.16,1433.75,5225.72,1433.86,5226.27Z" transform="translate(-1359 -5186)"/>
</svg>
