<svg xmlns="http://www.w3.org/2000/svg" width="131" height="94" viewBox="0 0 131 94">
  <path id="excellence_1.svg" class="cls-1" d="M572.248,5337.23L548,5313.11a2.553,2.553,0,0,0-3.62,3.6l22.439,22.32-13.12,13.05a1.035,1.035,0,0,1-1.457,0l-25.906-25.77a1.022,1.022,0,0,1,0-1.45l8.8-8.76a2.535,2.535,0,0,0,0-3.6,2.576,2.576,0,0,0-3.619,0l-8.8,8.76a6.1,6.1,0,0,0-1.305,6.72l-2.978,2.97h-20.82l-3.756-3.74a6.174,6.174,0,0,0,.22-1.63,6.044,6.044,0,0,0-1.8-4.32l-8.567-8.53a2.577,2.577,0,0,0-3.62,0,2.537,2.537,0,0,0,0,3.6l8.567,8.53a1,1,0,0,1,.3.72,1.037,1.037,0,0,1-.3.73l-0.713.7-25.2,25.07c-0.009.01-.015,0.02-0.023,0.03a1.054,1.054,0,0,1-.7.27,1.035,1.035,0,0,1-.729-0.3l-13.119-13.05,22.741-22.63a2.537,2.537,0,0,0,0-3.6,2.577,2.577,0,0,0-3.62,0l-24.55,24.43a2.535,2.535,0,0,0,0,3.6l14.929,14.85a6.158,6.158,0,0,0,4.348,1.79,6.011,6.011,0,0,0,2.131-.39l8.4,8.36a8.625,8.625,0,0,0-1.024,4.08,8.74,8.74,0,0,0,8.748,8.71h0.033a8.733,8.733,0,0,0,8.716,8.7v0.01a8.741,8.741,0,0,0,12.857,7.68l3.128,3.12a7.8,7.8,0,0,0,10.982,0,7.682,7.682,0,0,0,2.268-5.14,7.9,7.9,0,0,0,5.2-2.29,7.8,7.8,0,0,0,2.315-5.67v-0.02a8.577,8.577,0,0,0,8.06-8.55,8.3,8.3,0,0,0,5.667-2.44,8.281,8.281,0,0,0,1.556-9.62l8.395-7.64a6.176,6.176,0,0,0,7.866-.69l14.929-14.85A2.535,2.535,0,0,0,572.248,5337.23Zm-52.755-1.19a2.56,2.56,0,0,0,1.81-.75l3.411-3.39,21.041,20.93-8.023,7.3-15.593-15.3v-0.01l-0.023-.02a2.566,2.566,0,0,0-2.1-.71l-11.14-.12a2.565,2.565,0,0,0-1.838.74l-9.331,9.28a3.05,3.05,0,1,1-4.327-4.3l13.723-13.65h12.388Zm-42.842,33.48a3.63,3.63,0,1,1,3.63,3.61A3.624,3.624,0,0,1,476.651,5369.52Zm12.41,12.32a3.61,3.61,0,1,1,3.629-3.61,3.585,3.585,0,0,1-.926,2.4q-0.156.15-.305,0.3A3.638,3.638,0,0,1,489.061,5381.84Zm5.086,5.1a3.59,3.59,0,0,1,.926-2.4c0.105-.1.206-0.2,0.305-0.3a3.626,3.626,0,0,1,6.028,2.7,3.573,3.573,0,0,1-1.028,2.51,0.161,0.161,0,0,1-.036.04,0.144,0.144,0,0,0-.036.04A3.634,3.634,0,0,1,494.147,5386.94Zm41.735-16.91a3.243,3.243,0,0,1-4.587,0l-5.317-5.29a2.577,2.577,0,0,0-3.62,0,2.547,2.547,0,0,0,0,3.61l5.317,5.28v0.01l0.016,0.01a3.435,3.435,0,0,1,.1,4.78,3.473,3.473,0,0,1-4.945.17l-5.12-4.82a2.567,2.567,0,0,0-3.618.1,2.537,2.537,0,0,0,.1,3.6l5.574,5.25a2.767,2.767,0,0,1,.055,3.98,2.808,2.808,0,0,1-3.946,0l-2.585-2.57a2.559,2.559,0,0,0-3.62,0,2.537,2.537,0,0,0,0,3.6l2.687,2.67a2.614,2.614,0,0,1,.775,1.86,2.58,2.58,0,0,1-.775,1.86,2.659,2.659,0,0,1-3.743,0l-3.13-3.11a8.605,8.605,0,0,0,1.022-4.08,8.733,8.733,0,0,0-8.716-8.7v-0.01a8.732,8.732,0,0,0-8.748-8.7h-0.032v-0.01a8.754,8.754,0,0,0-12.855-7.68l-8-7.96,22.629-22.51,3.94,3.92a2.56,2.56,0,0,0,1.81.75h3.313l-10.1,10.05a8.112,8.112,0,0,0,0,11.51,8.216,8.216,0,0,0,11.566,0l8.57-8.53,9.381,0.1,16.587,16.29A3.206,3.206,0,0,1,535.882,5370.03Zm18.268-32.37a2.545,2.545,0,1,1-2.555,2.54A2.549,2.549,0,0,1,554.15,5337.66Zm-93.569.26a2.54,2.54,0,1,1-2.554,2.54A2.549,2.549,0,0,1,460.581,5337.92Zm14.948-31.72a2.54,2.54,0,1,1-2.555,2.54A2.549,2.549,0,0,1,475.529,5306.2Zm63.888-.2a2.54,2.54,0,1,1-2.554,2.54A2.543,2.543,0,0,1,539.417,5306Z" transform="translate(-442 -5306)"/>
</svg>
