<svg xmlns="http://www.w3.org/2000/svg" width="32" height="32" viewBox="0 0 32 32">

  <path id="linkdein_ic.svg" class="cls-1" d="M886.873,10286.5h4.454v13.4h-4.454v-13.4Zm2.2-1.8H889.1a2.484,2.484,0,1,0-.029,0h0Zm0,0,9.176,15.2v-7.5a2.335,2.335,0,0,1,.148-1,2.5,2.5,0,0,1,2.285-1.7c1.613,0,2.256,1.3,2.256,3.1v7.1h4.456v-7.7c0-4.1-2.2-6-5.13-6a4.439,4.439,0,0,0-4.015,2.2v0.1h-0.029c0.007,0,.02-0.1.029-0.1v-1.9h-4.456c0.059,1.3,0,13.4,0,13.4h4.456Zm0,0M881,10274v32h32v-32H881Zm30.021,30H882.979v-28h28.042v28Zm0,0" transform="translate(-881 -10274)"/>
</svg>
