<svg xmlns="http://www.w3.org/2000/svg" width="30.75" height="31" viewBox="0 0 30.75 31">
  <path id="linkedin.svg" class="cls-1" d="M469.546,18006H447.192c-1.254,0-4.192,2.9-4.192,4.2v22.6c0,1.3,2.938,4.2,4.192,4.2h22.354c1.254,0,4.191-2.9,4.191-4.2v-22.6c0-1.3-1.976-4.2-3.23-4.2h-0.961Zm-17.228,25.9h-4.644v-14h4.644v14ZM450,18016h-0.032a2.362,2.362,0,0,1-2.566-2.4,2.621,2.621,0,1,1,2.6,2.4h0Zm19.062,15.9h-4.642v-7.4c0-1.9-.674-3.2-2.352-3.2a2.588,2.588,0,0,0-2.383,1.7,3.048,3.048,0,0,0-.153,1.1v7.8h-4.642s0.061-12.6,0-14h4.642v2a4.7,4.7,0,0,1,4.184-2.3c3.055,0,5.346,2,5.346,6.3v8Zm-9.56-11.9a0.949,0.949,0,0,1,.03-0.1v0.1H459.5Zm0,0" transform="translate(-443 -18006)"/>
</svg>
