<svg xmlns="http://www.w3.org/2000/svg" width="17" height="13" viewBox="0 0 17 13">
  <path id="mail.svg" class="cls-1" d="M207.85,18094.9l-5.156,5.6,5.156,5.6a1.9,1.9,0,0,0,.15-0.7v-9.8A1.9,1.9,0,0,0,207.85,18094.9Zm-7.294,6.4,6.59-7.1a1.435,1.435,0,0,0-.64-0.2H192.494a1.435,1.435,0,0,0-.64.2l6.589,7.1A1.465,1.465,0,0,0,200.556,18101.3Zm-9.406-6.4a1.875,1.875,0,0,0-.15.7v9.8a1.875,1.875,0,0,0,.15.7l5.155-5.6Zm10.11,7.2a2.441,2.441,0,0,1-3.521,0l-0.729-.8-5.156,5.5a1.435,1.435,0,0,0,.64.2h14.012a1.435,1.435,0,0,0,.64-0.2l-5.156-5.5Z" transform="translate(-191 -18094)"/>
</svg>
