<svg 
 xmlns="http://www.w3.org/2000/svg"
 xmlns:xlink="http://www.w3.org/1999/xlink"
 width="22px" height="11px">
<path fill-rule="evenodd" 
 d="M21.312,6.184 L0.687,6.184 C0.308,6.184 -0.000,5.874 -0.000,5.496 C-0.000,5.117 0.308,4.808 0.687,4.808 L21.312,4.808 C21.692,4.808 22.000,5.117 22.000,5.496 C22.000,5.874 21.692,6.184 21.312,6.184 ZM21.312,1.371 L0.687,1.371 C0.308,1.371 -0.000,1.061 -0.000,0.682 C-0.000,0.304 0.308,-0.004 0.687,-0.004 L21.312,-0.004 C21.692,-0.004 22.000,0.304 22.000,0.682 C22.000,1.061 21.692,1.371 21.312,1.371 ZM7.562,9.621 L21.312,9.621 C21.692,9.621 22.000,9.928 22.000,10.309 C22.000,10.688 21.692,10.995 21.312,10.995 L7.562,10.995 C7.183,10.995 6.875,10.688 6.875,10.309 C6.875,9.928 7.183,9.621 7.562,9.621 Z"/>
</svg>