<svg 
 xmlns="http://www.w3.org/2000/svg"
 xmlns:xlink="http://www.w3.org/1999/xlink"
 width="178px" height="197px">
<path fill-rule="evenodd" 
 d="M143.786,179.769 L80.674,179.769 C61.806,179.769 46.460,164.472 46.460,145.678 C46.460,126.879 61.806,111.585 80.674,111.585 C81.872,111.585 83.086,111.648 84.280,111.774 L86.371,111.990 L86.986,109.990 C91.352,95.812 104.802,85.908 119.697,85.908 C135.338,85.908 148.964,96.434 152.834,111.506 L153.181,112.857 L154.510,113.293 C168.560,117.900 178.000,130.913 178.000,145.678 C178.000,164.472 162.651,179.769 143.786,179.769 ZM153.543,94.220 L153.500,94.220 C150.682,94.198 148.414,91.900 148.439,89.092 C148.528,78.341 139.821,69.523 129.033,69.434 C126.214,69.409 123.949,67.114 123.971,64.307 C123.993,61.513 126.277,59.262 129.072,59.262 L129.118,59.262 C145.535,59.395 158.781,72.817 158.646,89.175 C158.621,91.969 156.341,94.220 153.543,94.220 ZM93.927,88.896 C90.881,91.400 88.239,94.333 86.067,97.565 C77.456,99.549 67.952,100.563 58.694,100.563 C43.365,100.563 27.363,97.797 15.900,92.421 C13.963,93.949 12.932,95.418 12.932,96.642 C12.932,101.708 30.309,111.016 58.694,111.016 C59.140,111.016 59.578,111.009 60.019,111.003 C51.382,116.132 44.820,124.370 41.887,134.155 C32.285,132.886 23.179,130.530 15.902,127.115 C13.963,128.640 12.932,130.115 12.932,131.339 C12.932,135.185 22.967,141.480 40.230,144.283 C40.215,144.745 40.195,145.208 40.195,145.675 C40.195,154.587 43.113,162.830 48.043,169.510 C24.878,167.601 2.908,159.498 0.045,145.680 L0.013,145.382 L-0.000,131.339 C-0.000,126.984 1.834,123.127 5.019,119.779 C2.464,117.167 0.720,114.241 0.045,110.987 L0.013,110.688 L-0.000,96.642 C-0.000,92.290 1.837,88.433 5.021,85.084 C2.464,82.474 0.720,79.544 0.047,76.292 L0.015,75.996 L-0.000,61.948 C-0.000,57.596 1.837,53.739 5.021,50.390 C2.464,47.781 0.723,44.850 0.047,41.598 L0.015,41.299 L0.002,27.258 C0.002,9.548 30.241,-0.002 58.694,-0.002 C87.146,-0.002 117.387,9.548 117.387,27.253 L117.387,41.598 C116.712,44.860 114.957,47.801 112.380,50.420 C115.553,53.759 117.387,57.606 117.387,61.948 L117.387,76.292 C117.135,77.512 116.732,78.684 116.191,79.815 C108.049,80.521 100.252,83.685 93.927,88.896 ZM58.694,12.883 C30.309,12.883 12.932,22.188 12.932,27.253 C12.932,32.324 30.309,41.628 58.694,41.628 C87.078,41.628 104.456,32.324 104.456,27.253 C104.456,22.188 87.078,12.883 58.694,12.883 ZM101.498,57.737 C90.024,63.109 74.013,65.871 58.694,65.871 C43.365,65.871 27.363,63.107 15.902,57.726 C13.963,59.253 12.932,60.725 12.932,61.948 C12.932,67.017 30.309,76.322 58.694,76.322 C87.078,76.322 104.456,67.017 104.456,61.948 C104.456,60.726 103.426,59.260 101.498,57.737 ZM16.480,170.587 C19.144,169.661 22.052,171.066 22.977,173.720 C24.694,178.638 28.233,182.596 32.938,184.863 C37.643,187.130 42.951,187.438 47.888,185.727 C50.552,184.801 53.460,186.205 54.385,188.859 C55.312,191.510 53.906,194.413 51.242,195.333 C48.038,196.446 44.730,196.997 41.433,196.997 C37.005,196.997 32.597,195.998 28.492,194.019 C21.333,190.568 15.949,184.545 13.337,177.061 C12.410,174.409 13.818,171.508 16.480,170.587 Z"/>
</svg>