<svg xmlns="http://www.w3.org/2000/svg" width="52" height="52" viewBox="0 0 52 52">
  <path id="pdf.svg" class="cls-1" d="M227.375,8396.99h-6.5a1.628,1.628,0,0,0-1.625,1.63v13a1.628,1.628,0,0,0,1.625,1.63h6.5a3.255,3.255,0,0,0,3.25-3.26v-9.74A3.255,3.255,0,0,0,227.375,8396.99Zm0,13H222.5v-9.74h4.875v9.74ZM242,8400.25v-3.26h-8.125a1.627,1.627,0,0,0-1.625,1.63v14.63h3.25v-6.51H242v-3.25h-6.5v-3.24H242Zm-48.75,17.87v-42.25a1.627,1.627,0,0,1,1.625-1.63H219.25v6.5a3.247,3.247,0,0,0,3.25,3.25H229v4.88h3.25v-6.5a1.611,1.611,0,0,0-.471-1.15l-9.75-9.76a1.653,1.653,0,0,0-1.154-.47h-26a4.881,4.881,0,0,0-4.875,4.88v42.25a4.873,4.873,0,0,0,4.875,4.87H206.25v-3.25H194.875A1.619,1.619,0,0,1,193.25,8418.12Zm21.125-21.13h-6.5a1.628,1.628,0,0,0-1.625,1.63v14.63h3.25v-4.88h4.875a3.247,3.247,0,0,0,3.25-3.25v-4.87A3.255,3.255,0,0,0,214.375,8396.99Zm0,8.13H209.5v-4.87h4.875v4.87Z" transform="translate(-190 -8371)"/>
</svg>
