<svg xmlns="http://www.w3.org/2000/svg" width="47" height="47" viewBox="0 0 47 47">
  <defs>
    <style>
      .cls-1 {
        fill: #001420;
        fill-rule: evenodd;
      }
    </style>
  </defs>
  <path id="play.svg" class="cls-1" d="M1309.54,16124a25.572,25.572,0,0,1-6.12-.8,23.458,23.458,0,0,1-5.67-43l0.62,1-0.62-1A23.456,23.456,0,1,1,1309.54,16124Zm-0.07-44.6a21.339,21.339,0,0,0-20.3,15.6,20.985,20.985,0,0,0,2.1,16A20.9,20.9,0,1,0,1309.47,16079.4Zm-5.08,32.4a2.064,2.064,0,0,1-1.28-.4,2.467,2.467,0,0,1-1.28-2.2v-17.4a2.467,2.467,0,0,1,1.28-2.2,2.372,2.372,0,0,1,2.56,0l15.1,8.7a2.531,2.531,0,0,1,0,4.4l-15.1,8.7A2.064,2.064,0,0,1,1304.39,16111.8Zm0-20.1h-0.06c-0.06,0-.06.1-0.06,0.1v17.4s0,0.1.06,0.1h0.11l15.11-8.7c0.02,0,.05,0,0.05-0.1s-0.03-.1-0.05-0.1l-15.11-8.7h-0.05Zm18.58-.4a1.274,1.274,0,0,1-.96-0.5,16.394,16.394,0,0,0-10.4-6,1.2,1.2,0,0,1-1.05-1.3,1.242,1.242,0,0,1,1.38-1.1,18.89,18.89,0,0,1,12,6.9,1.327,1.327,0,0,1-.22,1.8A1.854,1.854,0,0,1,1322.97,16091.3Z" transform="translate(-1286 -16077)"/>
</svg>
