<svg xmlns="http://www.w3.org/2000/svg" width="31" height="31" viewBox="0 0 31 31">
  <path id="reddit.svg" class="cls-1" d="M362.971,18016.5a1.143,1.143,0,0,0,1.127-1.2,1.128,1.128,0,0,0-2.255,0A1.144,1.144,0,0,0,362.971,18016.5Zm-3.857,9.6a3.636,3.636,0,0,1-2.6.8h-0.02a3.63,3.63,0,0,1-2.6-.8,0.326,0.326,0,0,0-.416,0,0.277,0.277,0,0,0,0,.4,4.235,4.235,0,0,0,3.019.9h0.02a4.235,4.235,0,0,0,3.019-.9,0.278,0.278,0,0,0,0-.4A0.326,0.326,0,0,0,359.114,18026.1Zm-11.5-4.7a1.651,1.651,0,0,0,.612,1.2,5.42,5.42,0,0,1,1.828-2.4,1.53,1.53,0,0,0-.93-0.3A1.462,1.462,0,0,0,347.615,18021.4Zm7.259,1.4a1.249,1.249,0,0,0-2.5,0A1.249,1.249,0,1,0,354.874,18022.8Zm11.959-16.8H346.167a5.323,5.323,0,0,0-5.167,5.2v20.6a5.4,5.4,0,0,0,5.167,5.2h20.666a5.4,5.4,0,0,0,5.167-5.2v-20.6A5.323,5.323,0,0,0,366.833,18006Zm-1.97,17.2a3.3,3.3,0,0,1,.059.6c0,3.1-3.8,5.7-8.461,5.7s-8.461-2.6-8.461-5.7a2.989,2.989,0,0,1,.067-0.6,2.183,2.183,0,0,1-1.039-1.8,2.074,2.074,0,0,1,2.1-2.1,2.341,2.341,0,0,1,1.417.5,12.416,12.416,0,0,1,5.764-1.6l1.307-4.1a0.411,0.411,0,0,1,.346-0.2l3.417,0.8a1.781,1.781,0,0,1,1.6-1.1,1.733,1.733,0,0,1,1.714,1.7,1.715,1.715,0,0,1-3.43,0h0.006l-3.171-.8-1.17,3.7a10.524,10.524,0,0,1,5.509,1.7,1.977,1.977,0,0,1,1.445-.6,2.074,2.074,0,0,1,2.1,2.1A1.928,1.928,0,0,1,364.863,18023.2Zm-5.483-1.6a1.2,1.2,0,0,0-1.249,1.2,1.249,1.249,0,1,0,2.5,0A1.2,1.2,0,0,0,359.38,18021.6Zm4.494-1.7a1.615,1.615,0,0,0-.968.3,5.338,5.338,0,0,1,1.807,2.4A1.467,1.467,0,0,0,363.874,18019.9Z" transform="translate(-341 -18006)"/>
</svg>
