<svg xmlns="http://www.w3.org/2000/svg" width="17" height="17.03" viewBox="0 0 17 17.03">
  <path id="remove.svg" class="cls-1" d="M199.952,3193.76a0.37,0.37,0,0,1,0-.54l5.826-5.83a0.831,0.831,0,0,0,.232-0.54,0.875,0.875,0,0,0-.232-0.55l-1.089-1.09a0.856,0.856,0,0,0-.541-0.23,0.723,0.723,0,0,0-.547.23l-5.826,5.83a0.367,0.367,0,0,1-.543,0l-5.826-5.83a0.76,0.76,0,0,0-1.089,0l-1.088,1.09a0.869,0.869,0,0,0-.232.55,0.826,0.826,0,0,0,.232.54l5.826,5.83a0.372,0.372,0,0,1,0,.54l-5.826,5.83a0.829,0.829,0,0,0-.232.55,0.846,0.846,0,0,0,.232.54l1.088,1.09a0.76,0.76,0,0,0,1.089,0l5.826-5.83a0.367,0.367,0,0,1,.543,0l5.826,5.83a0.866,0.866,0,0,0,.547.23,0.856,0.856,0,0,0,.541-0.23l1.089-1.09a0.851,0.851,0,0,0,.232-0.54,0.834,0.834,0,0,0-.232-0.55Zm0,0" transform="translate(-189 -3184.97)"/>
</svg>
