<svg 
 xmlns="http://www.w3.org/2000/svg"
 xmlns:xlink="http://www.w3.org/1999/xlink"
 width="214px" height="197px">
<path fill-rule="evenodd"
 d="M193.299,124.123 L193.299,155.464 C193.299,156.860 192.457,158.125 191.167,158.658 C190.746,158.837 190.291,158.920 189.849,158.920 C188.952,158.920 188.069,158.568 187.414,157.911 L153.921,124.372 L126.200,124.372 C126.205,124.058 126.212,123.747 126.212,123.430 C126.212,94.248 102.587,70.590 73.444,70.590 C67.069,70.590 60.958,71.722 55.300,73.796 L55.300,24.180 C55.300,10.844 66.133,-0.003 79.450,-0.003 L189.849,-0.003 C203.166,-0.003 213.999,10.844 213.999,24.180 L213.999,100.188 C213.999,112.348 204.988,122.444 193.299,124.123 ZM134.650,103.644 C140.356,103.644 145.000,98.992 145.000,93.278 C145.000,87.564 140.356,82.913 134.650,82.913 C128.943,82.913 124.300,87.564 124.300,93.278 C124.300,98.992 128.943,103.644 134.650,103.644 ZM145.683,24.035 C143.723,21.928 140.963,20.727 138.100,20.727 L131.200,20.727 C128.336,20.727 125.576,21.928 123.617,24.035 C121.671,26.129 120.677,28.977 120.884,31.879 L123.796,65.923 C124.189,71.575 128.936,76.004 134.650,76.004 C140.301,76.004 145.055,71.575 145.448,65.984 L148.422,31.837 C148.629,28.977 147.628,26.136 145.683,24.035 ZM117.355,123.533 C117.355,147.872 97.649,167.604 73.343,167.604 C49.038,167.604 29.332,147.872 29.332,123.533 C29.332,99.192 49.038,79.460 73.343,79.460 C97.649,79.460 117.355,99.192 117.355,123.533 ZM40.335,123.533 C40.335,141.759 55.141,156.588 73.343,156.588 C91.546,156.588 106.352,141.759 106.352,123.533 C106.352,105.304 91.546,90.476 73.343,90.476 C55.141,90.476 40.335,105.304 40.335,123.533 ZM45.701,166.795 L18.773,193.760 C14.475,198.065 7.506,198.065 3.214,193.760 C-1.083,189.463 -1.083,182.484 3.214,178.178 L30.141,151.213 C34.153,157.462 39.461,162.778 45.701,166.795 Z"/>
</svg>