<svg xmlns="http://www.w3.org/2000/svg" width="17" height="17" viewBox="0 0 17 17">
  <path id="skype.svg" class="cls-1" d="M207.29,18130.7a7.706,7.706,0,0,0,.1-1.2,7.87,7.87,0,0,0-7.887-7.9,5.047,5.047,0,0,0-1.231.1,5.232,5.232,0,0,0-2.5-.7,4.752,4.752,0,0,0-4.767,4.8,4.987,4.987,0,0,0,.709,2.5,7.874,7.874,0,0,0,7.79,9.1c0.419,0,.83-0.1,1.231-0.1a5.239,5.239,0,0,0,2.5.7,4.752,4.752,0,0,0,4.767-4.8,4.978,4.978,0,0,0-.71-2.5h0Zm-4.046,2.4a3.3,3.3,0,0,1-1.464,1.1,5.344,5.344,0,0,1-2.276.4,6.479,6.479,0,0,1-2.6-.5,4.428,4.428,0,0,1-1.186-1.1,2.512,2.512,0,0,1-.459-1.3,0.946,0.946,0,0,1,.281-0.7,1.517,1.517,0,0,1,.715-0.2,0.666,0.666,0,0,1,.6.2,1.138,1.138,0,0,1,.41.6,4.17,4.17,0,0,0,.433.8,2.877,2.877,0,0,0,.649.5,3.187,3.187,0,0,0,1.1.2,3.3,3.3,0,0,0,1.529-.4,1.212,1.212,0,0,0,.58-1,1.113,1.113,0,0,0-.309-0.8,4.642,4.642,0,0,0-.818-0.5,12.868,12.868,0,0,0-1.36-.3,18.2,18.2,0,0,1-1.918-.6,2.763,2.763,0,0,1-1.235-.9,2.469,2.469,0,0,1,.025-2.9,3.049,3.049,0,0,1,1.4-1,6.844,6.844,0,0,1,2.138-.3,8.125,8.125,0,0,1,1.7.2,8.281,8.281,0,0,1,1.193.6,2.946,2.946,0,0,1,.7.8,1.645,1.645,0,0,1,.221.8,0.943,0.943,0,0,1-.281.7,0.924,0.924,0,0,1-.7.3,0.983,0.983,0,0,1-.584-0.2,1.751,1.751,0,0,1-.423-0.6,3.052,3.052,0,0,0-.685-0.8,2.12,2.12,0,0,0-1.279-.3,2.537,2.537,0,0,0-1.32.3,0.938,0.938,0,0,0-.495.8,0.91,0.91,0,0,0,.165.5,2.172,2.172,0,0,0,.467.3c0.2,0.1.4,0.2,0.607,0.3a7.483,7.483,0,0,1,1.025.2c0.6,0.2,1.14.3,1.626,0.5a4.117,4.117,0,0,1,1.244.5,2.743,2.743,0,0,1,.808.9,2.575,2.575,0,0,1,.289,1.3,2.746,2.746,0,0,1-.5,1.6h0Zm0,0" transform="translate(-191 -18121)"/>
</svg>
