<svg xmlns="http://www.w3.org/2000/svg" width="31" height="31" viewBox="0 0 31 31">
  <path id="telegramm.svg" class="cls-1" d="M210.659,18017.1l-8.136,5a0.91,0.91,0,0,0-.357,1l0.879,3.1c0.063,0.2.381,0.2,0.411-.1l0.228-1.7a1.314,1.314,0,0,1,.432-0.8l6.714-6.2C210.955,18017.2,210.805,18017,210.659,18017.1Zm5.174-11.1H195.167a5.323,5.323,0,0,0-5.167,5.2v20.6a5.4,5.4,0,0,0,5.167,5.2h20.666a5.4,5.4,0,0,0,5.167-5.2v-20.6A5.323,5.323,0,0,0,215.833,18006Zm-1.088,8.5-3.066,14.7a0.476,0.476,0,0,1-.769.3l-4.185-3a0.667,0.667,0,0,0-.843,0l-2.321,1.9a0.508,0.508,0,0,1-.778-0.2l-1.611-5.2-4.163-1.6a0.477,0.477,0,0,1,0-.9l17.082-6.6A0.521,0.521,0,0,1,214.745,18014.5Z" transform="translate(-190 -18006)"/>
</svg>
