<svg xmlns="http://www.w3.org/2000/svg" width="34.907" height="29" viewBox="0 0 34.907 29">
  <path id="twitter_ic.svg" class="cls-1" d="M857.477,10278.2a0.783,0.783,0,0,0-.922,0,1.729,1.729,0,0,1-.791.4,3.666,3.666,0,0,0,1.073-2.5,0.8,0.8,0,0,0-.452-0.6,0.758,0.758,0,0,0-.795,0,7.387,7.387,0,0,1-3.779,1.4,7.5,7.5,0,0,0-5.1-2.1,7.636,7.636,0,0,0-7.491,7.7,6.966,6.966,0,0,0,.053.9c-6.9-.2-12.49-6.8-12.544-6.9a0.868,0.868,0,0,0-.676-0.3,1.187,1.187,0,0,0-.61.4,7.659,7.659,0,0,0,.162,8,0.913,0.913,0,0,0-.725,0,0.765,0.765,0,0,0-.44.7,7.221,7.221,0,0,0,2.841,6.2,2.218,2.218,0,0,0-.282.2,0.836,0.836,0,0,0-.173.8,6.985,6.985,0,0,0,5.044,5,10.243,10.243,0,0,1-6.06,1.7,17.487,17.487,0,0,1-1.945-.1,0.751,0.751,0,0,0-.861.4,0.831,0.831,0,0,0,.251,1c3.6,2.8,7.943,3.3,10.958,3.3a28.284,28.284,0,0,0,4.118-.3c15.463-3.7,16.049-17.8,16.026-20.4,2.9-2.7,3.362-3.7,3.432-4a0.863,0.863,0,0,0-.313-0.9h0Zm-4.451,4a0.821,0.821,0,0,0-.255.6c0.009,0.2.854,15.4-14.783,19.1a22.526,22.526,0,0,1-3.778.3,19.165,19.165,0,0,1-7.357-1.4,10.631,10.631,0,0,0,7.377-3.3,0.7,0.7,0,0,0,.131-0.8,0.8,0.8,0,0,0-.726-0.5,5.583,5.583,0,0,1-4.813-3,5.024,5.024,0,0,0,1.856-.3,0.784,0.784,0,0,0,.46-0.8,0.773,0.773,0,0,0-.622-0.7,5.874,5.874,0,0,1-4.4-4.7,4.028,4.028,0,0,0,1.906.3,0.936,0.936,0,0,0,.645-0.6,1,1,0,0,0-.251-0.9c-0.158-.1-3.57-3.1-2.087-7.1,1.987,2.1,7.4,6.9,13.933,6.6a1.267,1.267,0,0,0,.591-0.4,0.688,0.688,0,0,0,.127-0.6,6.464,6.464,0,0,1-.182-1.5,5.906,5.906,0,0,1,5.913-6,5.982,5.982,0,0,1,4.216,1.7,0.667,0.667,0,0,0,.548.3H851.6a9.642,9.642,0,0,0,2.535-.4c-0.336.3-.772,0.7-1.335,1.2a0.78,0.78,0,0,0-.251.9,0.864,0.864,0,0,0,.8.5,5.062,5.062,0,0,0,1.386-.2c-0.441.5-1,1-1.711,1.7h0Zm0,0" transform="translate(-822.906 -10274.8)"/>
</svg>
