<svg xmlns="http://www.w3.org/2000/svg" width="31" height="31" viewBox="0 0 31 31">
  <path id="twitter.svg" class="cls-1" d="M315.833,18006H295.167a5.323,5.323,0,0,0-5.167,5.2v20.6a5.4,5.4,0,0,0,5.167,5.2h20.666a5.4,5.4,0,0,0,5.167-5.2v-20.6A5.323,5.323,0,0,0,315.833,18006Zm-2.465,16c-1.687,6.8-13,9.7-18.2,2.7a5.551,5.551,0,0,0,7.664-.2c-1.29.1-2.228-1.1-.643-1.8a2.422,2.422,0,0,1-2.544-1.3,1.886,1.886,0,0,1,1.416-.5c-1.561-.4-2.137-1.1-2.314-2.1a2.889,2.889,0,0,1,1.272-.1,2.8,2.8,0,0,1-1.768-2.6,40.319,40.319,0,0,1,5.3,2.3,8.887,8.887,0,0,1,1.566,1.3c0.743-2,1.661-4,3.233-5a1.282,1.282,0,0,1-.309.6,3.326,3.326,0,0,1,1.614-.8,1.614,1.614,0,0,1-1.088.9c0.291-.1,1.84-0.8,2.008-0.4,0.2,0.4-1.068.6-1.284,0.7-0.161.1-.322,0.1-0.48,0.2a4.421,4.421,0,0,1,4.382,3.4c0.038,0.2.077,0.3,0.112,0.5a3.852,3.852,0,0,0,2.437-.3,2.585,2.585,0,0,1-2.251,1.4,5.924,5.924,0,0,0,2.341.2A3.144,3.144,0,0,1,313.368,18022Z" transform="translate(-290 -18006)"/>
</svg>
