<svg xmlns="http://www.w3.org/2000/svg" width="388" height="271" viewBox="0 0 388 271"><defs><linearGradient id="ftiva" x1="350.71" x2="-148.99" y1="1494.87" y2="1104.81" gradientUnits="userSpaceOnUse"><stop offset="0" stop-color="#fff"/><stop offset="1" stop-color="#d3b464"/></linearGradient><linearGradient id="ftivb" x1="345.06" x2="-242.77" y1="918.52" y2="696.81" gradientUnits="userSpaceOnUse"><stop offset="0" stop-color="#fff"/><stop offset="1" stop-color="#d3b464"/></linearGradient><linearGradient id="ftivc" x1="237.74" x2="-100.43" y1="678.31" y2="499.31" gradientUnits="userSpaceOnUse"><stop offset="0" stop-color="#fff"/><stop offset="1" stop-color="#d3b464"/></linearGradient><linearGradient id="ftivd" x1="441" x2="-157.26" y1="2018.23" y2="1475.69" gradientUnits="userSpaceOnUse"><stop offset="0" stop-color="#fff"/><stop offset="1" stop-color="#d3b464"/></linearGradient><linearGradient id="ftive" x1="404.32" x2="-147.15" y1="1532.09" y2="1199.71" gradientUnits="userSpaceOnUse"><stop offset="0" stop-color="#fff"/><stop offset="1" stop-color="#d3b464"/></linearGradient><linearGradient id="ftivf" x1="416.02" x2="-193.15" y1="960.98" y2="774.79" gradientUnits="userSpaceOnUse"><stop offset="0" stop-color="#fff"/><stop offset="1" stop-color="#d3b464"/></linearGradient><linearGradient id="ftivg" x1="416.02" x2="-193.15" y1="686.13" y2="560.49" gradientUnits="userSpaceOnUse"><stop offset="0" stop-color="#fff"/><stop offset="1" stop-color="#d3b464"/></linearGradient><linearGradient id="ftivh" x1="372.85" x2="-9" y1="1055.99" y2="822.72" gradientUnits="userSpaceOnUse"><stop offset="0" stop-color="#fff"/><stop offset="1" stop-color="#d3b464"/></linearGradient><linearGradient id="ftivi" x1="240.95" x2="-39.04" y1="642.19" y2="491.3" gradientUnits="userSpaceOnUse"><stop offset="0" stop-color="#fff"/><stop offset="1" stop-color="#d3b464"/></linearGradient><linearGradient id="ftivj" x1="119.87" x2="-526.22" y1="1115.47" y2="844.37" gradientUnits="userSpaceOnUse"><stop offset="0" stop-color="#fff"/><stop offset="1" stop-color="#d3b464"/></linearGradient><linearGradient id="ftivk" x1="152.81" x2="-274.38" y1="1038.56" y2="795" gradientUnits="userSpaceOnUse"><stop offset="0" stop-color="#fff"/><stop offset="1" stop-color="#d3b464"/></linearGradient><linearGradient id="ftivl" x1="138.4" x2="-192.52" y1="952.5" y2="679.31" gradientUnits="userSpaceOnUse"><stop offset="0" stop-color="#fff"/><stop offset="1" stop-color="#d3b464"/></linearGradient></defs><g><g opacity=".27"><path fill="url(#ftiva)" d="M327.836-5l54.684 162.582L258 64.248z"/></g><g opacity=".27"><path fill="url(#ftivb)" d="M257.727 66l124.748 92.41L236 125.601z"/></g><g opacity=".27"><path fill="url(#ftivc)" d="M214.753-10l44.513 74.614L175 34.477z"/></g><g opacity=".27"><path fill="url(#ftivd)" d="M479.08-68L385.06 158.136 330-3.06z"/></g><g opacity=".27"><path fill="url(#ftive)" d="M439.424 321.032l-95.995 71.511L302 254z"/></g><g opacity=".27"><path fill="url(#ftivf)" d="M303 255.45L454.796 245l-15.018 77.609z"/></g><g opacity=".27"><path fill="url(#ftivg)" d="M396.7 203l58.096 41.592L303 255.371z"/></g><g opacity=".27"><path fill="url(#ftivh)" d="M302 256.234L384.774 159l12.374 46.353z"/></g><g opacity=".27"><path fill="url(#ftivi)" d="M258.77 65.022l-21.677 59.864L189 62z"/></g><g opacity=".27"><path fill="url(#ftivj)" d="M57.089 186L0 73l161 11.878z"/></g><g opacity=".27"><path fill="url(#ftivk)" d="M179.998 173.71L73.55 203.522 178.11 102z"/></g><g opacity=".27"><path fill="url(#ftivl)" d="M159.464 15.867L77-81.522 146.23-98z"/></g></g></svg>