<?xml version="1.0" encoding="UTF-8"?>
<svg width="176px" height="170px" viewBox="0 0 176 170" version="1.1" xmlns="http://www.w3.org/2000/svg" xmlns:xlink="http://www.w3.org/1999/xlink">
    <!-- Generator: Sketch 52.3 (67297) - http://www.bohemiancoding.com/sketch -->
    <title>Group 7</title>
    <desc>Created with Sketch.</desc>
    <defs>
        <linearGradient x1="92.0719059%" y1="87.7409794%" x2="-2.56905601%" y2="7.35174106%" id="linearGradient-1">
            <stop stop-color="#D3B464" offset="0%"></stop>
            <stop stop-color="#FFFFFF" offset="100%"></stop>
        </linearGradient>
    </defs>
    <g id="UI" stroke="none" stroke-width="1" fill="none" fill-rule="evenodd" opacity="0.67">
        <g id="main_1920" transform="translate(-774.000000, -1437.000000)">
            <g id="activity" transform="translate(310.000000, 754.000000)">
                <g id="activities" transform="translate(0.000000, 291.000000)">
                    <g id="2" transform="translate(0.000000, 291.000000)">
                        <g id="Group-7" transform="translate(464.000000, 101.000000)">
                            <path d="M44.4597736,62.3294491 C44.4615849,61.8195623 44.8944906,61.3902792 45.4034717,61.3920906 C46.9295094,61.3975245 48.4555472,61.4029585 49.9806792,61.4074868 C53.0218868,61.4183547 56.064,61.428317 59.1043019,61.4391849 C59.1061132,61.047034 59.1070189,60.6566943 59.1088302,60.2654491 L59.1513962,47.7374491 C59.1532075,47.2275623 59.5870189,46.7982792 60.0950943,46.8000906 C62.690717,46.8091472 65.285434,46.8182038 67.8810566,46.8272604 C68.3909434,46.8290717 68.8202264,47.2619774 68.8184151,47.7709585 C68.8138868,49.2960906 68.8084528,50.8221283 68.8030189,52.348166 C68.7921509,55.3893736 68.781283,58.4305811 68.7722264,61.4717887 L69.9450566,61.476317 C74.1210566,61.4899019 78.2961509,61.5043925 82.4730566,61.5179774 C82.9820377,61.5206943 83.4122264,61.9536 83.4104151,62.4625811 C83.4013585,65.0582038 83.3923019,67.6529208 83.3841509,70.2485434 C83.3823396,70.7584302 82.9485283,71.1877132 82.4404528,71.1859019 C80.9135094,71.1804679 79.3874717,71.175034 77.8623396,71.1705057 C74.8202264,71.1596377 71.7799245,71.1487698 68.738717,71.1388075 C68.7378113,71.5300528 68.736,71.9212981 68.7350943,72.3125434 C68.7206038,76.4885434 68.7052075,80.6645434 68.6916226,84.8396377 C68.690717,85.1357887 68.5775094,85.3585811 68.4072453,85.5098264 C68.2550943,85.6719396 68.0359245,85.7788075 67.7479245,85.7779019 C65.1532075,85.7688453 62.5566792,85.7597887 59.9619623,85.7507321 C59.4529811,85.7489208 59.0227925,85.3151094 59.0246038,84.807034 C59.0300377,83.2809962 59.0354717,81.7549585 59.0409057,80.2298264 C59.0508679,77.1886189 59.0608302,74.1474113 59.0716981,71.1052981 C58.6804528,71.1043925 58.2901132,71.1034868 57.8979623,71.1016755 C53.7228679,71.0871849 49.5459623,71.0736 45.3699623,71.0591094 C45.0738113,71.0582038 44.8519245,70.9449962 44.7006792,70.7747321 C44.538566,70.6225811 44.4316981,70.4034113 44.4326038,70.1154113 C44.4416604,67.5197887 44.450717,64.924166 44.4597736,62.3294491 M21.8499623,66.1993358 C26.490566,74.9516377 33.2594717,82.6569962 40.6732075,89.6034113 C42.7136604,91.5143547 45.8200755,94.1371472 49.0713962,96.7943547 C49.0541887,96.7898264 49.0360755,96.7862038 49.0188679,96.7816755 C55.6446792,102.195713 62.8528302,107.738355 62.8872453,107.711185 C62.8872453,107.712091 62.8963019,107.705751 62.8981132,107.704845 C62.9569811,107.746506 62.9986415,107.775487 63.0013585,107.773675 C63.0493585,107.816242 79.6093585,96.0716377 86.0504151,90.508166 C93.741283,83.8633358 100.818113,76.4332981 105.811925,67.8739019 C115.090415,51.9705057 106.225811,27.8020528 85.1510943,25.6348075 C77.1640755,24.8133736 67.0098113,28.9495245 64.466717,35.8397887 C62.2061887,28.8535245 50.0196226,24.3397132 42.0063396,24.8414491 C20.8600755,26.1673358 13.2262642,49.9391094 21.8499623,66.1993358" id="Fill-1" fill="url(#linearGradient-1)"></path>
                            <path d="M196.944181,32.4426566 C196.559275,40.0366189 190.82554,46.0864302 183.575728,47.1415245 L183.872785,41.2873358 L177.775879,40.9776 L177.478823,46.8336 C170.373011,45.0503547 165.279577,38.4508075 165.665389,30.8577509 C166.102823,22.2195623 173.459502,15.5729208 182.096785,16.0103547 C190.734974,16.4477887 197.381615,23.8044679 196.944181,32.4426566 M182.458143,8.89639245 C169.892106,8.25971321 159.189011,17.9303547 158.551426,30.4972981 C157.967275,42.028166 166.065691,51.9849962 177.113842,54.039034 L174.694823,101.780921 C173.178747,102.368694 172.050294,103.505298 172.005917,105.213374 C171.936181,107.952996 171.661766,110.693525 171.350219,113.419562 C171.013313,116.384694 170.582219,119.342581 170.060558,122.2896 C169.909313,123.142732 169.748106,123.994958 169.585087,124.847185 C169.566974,124.942279 169.553389,125.015638 169.542521,125.072694 C169.53437,125.108015 169.527125,125.146053 169.517162,125.192242 C169.412106,125.686732 169.309766,126.181223 169.202898,126.675713 C168.795351,128.551336 168.34886,130.420619 167.859804,132.283562 C165.729691,140.398279 162.8352,148.431487 158.641087,156.051713 C158.430974,156.433902 158.212709,156.815185 157.996257,157.195562 C158.094068,157.02077 157.612257,157.847638 157.464634,158.090355 C156.858747,159.083864 156.228408,160.067411 155.568181,161.040091 C154.329238,162.868619 152.990672,164.657298 151.537087,166.388921 C150.856936,167.198581 150.152332,167.996468 149.419653,168.779864 C149.076408,169.146657 148.726823,169.511638 148.369992,169.872996 C148.133615,170.112091 147.891804,170.348468 147.653615,170.586657 C147.579351,170.660921 147.416332,170.813977 147.294974,170.927185 C145.723653,172.354506 144.071728,173.723864 142.283955,174.995411 C141.401842,175.622128 140.490747,176.226204 139.551577,176.804015 C139.108709,177.077525 138.653162,177.337449 138.20486,177.603713 C139.421162,176.880091 137.480332,177.982279 137.16154,178.142581 C135.050445,179.21126 132.818898,180.141374 130.492257,180.911185 C130.258596,180.988166 130.016785,181.056996 129.784936,181.138506 C129.755049,181.149374 129.727879,181.159336 129.702521,181.167487 C129.689842,181.171109 129.679879,181.173826 129.665389,181.177449 C129.113842,181.318732 128.567728,181.475411 128.012558,181.612166 C126.696634,181.934581 125.358974,182.208091 124.005917,182.430883 C122.743426,182.639185 121.471879,182.784996 120.193087,182.923562 C120.107955,182.933525 119.981162,182.942581 119.859804,182.951638 C119.951275,182.946204 120.063577,182.938958 120.202143,182.930808 C120.011955,182.942581 119.82086,182.956166 119.629766,182.96794 C119.56003,182.972468 119.517464,182.974279 119.528332,182.973374 C119.473087,182.976996 119.416936,182.980619 119.362596,182.983336 C118.506747,183.020468 117.652709,183.061223 116.795049,183.074808 C113.787351,183.120091 110.833087,182.895487 107.847125,182.626506 C107.830823,182.6256 107.812709,182.623789 107.792785,182.621072 C107.51203,182.582128 107.232181,182.543185 106.953238,182.500619 C106.328332,182.405525 105.707049,182.302279 105.087577,182.189072 C103.615879,181.919185 102.160483,181.597675 100.728634,181.220015 C99.5893132,180.919336 98.4880302,180.557977 97.3695396,180.216543 C97.3423698,180.209298 97.320634,180.202958 97.2988981,180.195713 C97.2762566,180.186657 97.2554264,180.178506 97.2300679,180.168543 C96.9991245,180.076166 96.7591245,179.992845 96.5263698,179.904091 C95.829917,179.636015 95.1425208,179.354355 94.4659925,179.059109 C93.4607094,178.621675 92.4771623,178.153449 91.5198792,177.657147 C90.9909736,177.383638 90.4702189,177.101072 89.9567094,176.81126 C89.6922566,176.661826 88.2622189,175.769751 88.6081811,176.007034 C86.7923321,174.806128 85.069766,173.540015 83.4721811,172.166128 C82.7059925,171.506808 81.9687849,170.829374 81.2569358,170.137449 C81.0604075,169.946355 80.0832,168.923864 80.4717283,169.348619 C80.0967849,168.944694 79.7254642,168.54077 79.365917,168.130506 C76.4170868,164.766883 74.0542189,161.152392 72.0155774,157.427411 C71.9712,157.346808 71.9295396,157.265298 71.8860679,157.183789 C71.8317283,157.080543 71.7638038,156.947411 71.7239547,156.866808 C71.5120302,156.433902 71.2946717,156.000996 71.0872755,155.566279 C70.6018415,154.547411 70.1435774,153.522204 69.709766,152.489751 C68.8819925,150.520845 68.1438792,148.530204 67.4836528,146.525977 C67.3342189,146.072242 67.2038038,145.614883 67.0625208,145.159336 C76.8427472,144.480091 86.2987472,140.642808 94.1408604,134.714355 C117.80486,116.82394 127.717313,85.4446189 127.8432,56.766883 C127.912936,40.8009962 127.8432,24.8332981 127.8432,8.86650566 C127.8432,5.14967547 125.06554,3.22152453 122.181011,3.07752453 C122.07686,3.06031698 121.974521,3.03858113 121.867653,3.03858113 C118.091955,3.02861887 114.316257,3.02046792 110.539653,3.01050566 L110.545087,0.0363169811 L95.2638792,9.05660377e-05 C93.7324075,-0.00353207547 92.4889358,1.23541132 92.4862189,2.76597736 L92.4753509,8.41639245 C92.472634,9.94605283 93.7106717,11.1886189 95.2394264,11.1922415 L110.525162,11.2293736 L110.529691,8.60748679 C112.299351,8.61201509 114.069011,8.61563774 115.838672,8.62016604 C115.835049,8.70348679 115.826898,8.78227925 115.826898,8.86650566 L115.826898,52.6108075 C115.826898,75.6218264 111.074898,99.7911849 95.2448604,117.464242 C88.0412377,125.506506 78.4629736,132.07526 67.4592,133.127638 C56.6610113,134.160996 46.2124075,129.99677 38.1321057,122.945298 C19.3052377,106.517525 12.0499925,80.1709585 12.016483,55.9744302 C11.9947472,40.2720906 12.016483,24.5697509 12.016483,8.86650566 C12.016483,8.78137358 12.0074264,8.70258113 12.0047094,8.61835472 C13.5887094,8.61473208 15.1727094,8.61110943 16.7567094,8.60748679 L16.7621434,11.2293736 L32.0469736,11.1922415 C33.576634,11.1886189 34.813766,9.94605283 34.8110491,8.41639245 L34.8010868,2.76597736 C34.7974642,1.23541132 33.5539925,-0.00353207547 32.0225208,9.05660377e-05 L16.7413132,0.0363169811 L16.7467472,3.01050566 C12.9710491,3.02046792 9.19535094,3.02861887 5.41965283,3.03858113 C5.15882264,3.03858113 4.90976604,3.10288302 4.67248302,3.1970717 C2.1746717,3.68793962 0.000181132075,5.57352453 0.000181132075,8.86650566 L0.000181132075,54.5769962 C0.000181132075,80.7134491 7.02991698,108.089751 25.4863698,127.463638 C33.6481811,136.031185 44.0243321,142.308317 55.6376151,144.476468 C59.0392755,157.030732 65.1144453,169.406581 76.6190491,178.752996 C93.2025962,192.228317 121.875804,195.749525 142.187049,185.666808 C161.58086,176.039638 171.011502,158.090355 176.382068,141.524015 C178.843653,133.930958 180.533615,126.173977 181.680181,118.389826 C182.28154,114.311638 182.855728,110.17277 182.927275,106.05926 C182.930898,105.869072 182.944483,105.678883 182.949011,105.488694 C182.989766,103.920996 182.088634,102.788921 180.790823,102.100619 L183.210747,54.3478642 C194.410143,53.4213736 203.473992,44.334883 204.057238,32.8031094 C204.694823,20.236166 195.024181,9.53397736 182.458143,8.89639245" id="Fill-3" fill="url(#linearGradient-1)"></path>
                            <path d="M181.423245,26.8494792 C178.466264,26.6991396 175.947623,28.9750642 175.798189,31.9320453 C175.648755,34.8881208 177.923774,37.4067623 180.879849,37.5571019 C183.83683,37.7065358 186.355472,35.431517 186.504906,32.4745358 C186.655245,29.5175547 184.380226,26.9998189 181.423245,26.8494792" id="Fill-5" fill="#0078A6"></path>
                        </g>
                    </g>
                </g>
            </g>
        </g>
    </g>
</svg>