<?xml version="1.0" encoding="UTF-8"?>
<svg width="652px" height="273px" viewBox="0 0 652 273" version="1.1" xmlns="http://www.w3.org/2000/svg" xmlns:xlink="http://www.w3.org/1999/xlink">
    <!-- Generator: Sketch 52.3 (67297) - http://www.bohemiancoding.com/sketch -->
    <title>activities-4</title>
    <desc>Created with Sketch.</desc>
    <defs>
        <polygon id="path-1" points="504.765625 271 1.1812773e-13 271 1.1812773e-13 0 650 0 650 271 600.234375 271"></polygon>
        <linearGradient x1="-135.746294%" y1="465.044128%" x2="208.935497%" y2="0%" id="linearGradient-3">
            <stop stop-color="#D3B464" offset="0%"></stop>
            <stop stop-color="#FFFFFF" offset="100%"></stop>
        </linearGradient>
        <linearGradient x1="216.225275%" y1="114.829705%" x2="-2.56905601%" y2="7.35174106%" id="linearGradient-4">
            <stop stop-color="#D3B464" offset="0%"></stop>
            <stop stop-color="#FFFFFF" offset="100%"></stop>
        </linearGradient>
    </defs>
    <g id="UI" stroke="none" stroke-width="1" fill="none" fill-rule="evenodd">
        <g id="main_1440_ui" transform="translate(-59.000000, -1917.000000)">
            <g id="activity" transform="translate(60.000000, 754.000000)">
                <g id="activities" transform="translate(0.000000, 291.000000)">
                    <g id="4" transform="translate(0.000000, 873.000000)">
                        <g id="activities-4">
                            <mask id="mask-2" fill="white">
                                <use xlink:href="#path-1"></use>
                            </mask>
                            <path stroke="#D3B464" d="M650.5,271.5 L-0.5,271.5 L-0.5,-0.5 L650.5,-0.5 L650.5,271.5 Z"></path>
                            <g id="Group-97" mask="url(#mask-2)">
                                <g transform="translate(627.500000, 181.000000) scale(-1, 1) translate(-627.500000, -181.000000) translate(538.000000, 53.000000)">
                                    <path d="M138.033843,57.7683762 C131.210843,63.6963762 115.638843,56.9473762 103.254843,42.6933762 C90.8688426,28.4393762 86.3598426,12.0793762 93.1818426,6.15037624 C100.004843,0.22237624 115.575843,6.97137624 127.961843,21.2253762 C140.346843,35.4793762 144.855843,51.8403762 138.033843,57.7683762" id="Fill-1" fill="url(#linearGradient-3)"></path>
                                    <polygon id="Fill-3" fill="url(#linearGradient-3)" points="136.852 58.88 92 7.262 98.057 2 142.909 53.617"></polygon>
                                    <path d="M142.033843,53.7683762 C135.210843,59.6963762 119.639843,52.9473762 107.254843,38.6933762 C94.8688426,24.4393762 90.3598426,8.07937624 97.1818426,2.15037624 C104.005843,-3.77762376 119.575843,2.97137624 131.961843,17.2253762 C144.346843,31.4793762 148.855843,47.8403762 142.033843,53.7683762" id="Fill-5" fill="url(#linearGradient-3)"></path>
                                    <path d="M138.047463,48.6535298 C132.793463,53.2185298 120.550463,47.7325298 110.701463,36.3975298 C100.853463,25.0635298 97.1284629,12.1745298 102.383463,7.6085298 C107.637463,3.0425298 119.880463,8.5295298 129.729463,19.8635298 C139.577463,31.1985298 143.302463,44.0875298 138.047463,48.6535298" id="Fill-7" fill="url(#linearGradient-3)"></path>
                                    <polygon id="Fill-21" fill="url(#linearGradient-3)" points="0 211.023 68.381 211.023 68.381 203 0 203"></polygon>
                                    <path d="M146.381,185.365 C146.381,194.404 131.073,201.731 112.191,201.731 C93.308,201.731 78,194.404 78,185.365 C78,176.327 93.308,169 112.191,169 C131.073,169 146.381,176.327 146.381,185.365" id="Fill-25" fill="url(#linearGradient-3)"></path>
                                    <polygon id="Fill-26" fill="url(#linearGradient-3)" points="78 186.024 146.381 186.024 146.381 178 78 178"></polygon>
                                    <path d="M146.381,179.365 C146.381,188.404 131.073,195.731 112.191,195.731 C93.308,195.731 78,188.404 78,179.365 C78,170.327 93.308,163 112.191,163 C131.073,163 146.381,170.327 146.381,179.365" id="Fill-27" fill="url(#linearGradient-3)"></path>
                                    <path d="M139.375,178.604 C139.375,185.565 127.203,191.208 112.188,191.208 C97.172,191.208 85,185.565 85,178.604 C85,171.643 97.172,166 112.188,166 C127.203,166 139.375,171.643 139.375,178.604" id="Fill-28" fill="url(#linearGradient-3)"></path>
                                    <path d="M104.255,179.688 L100,177.431 L103.329,175.702 L107.585,177.959 C109.592,179.023 112.894,179.022 114.945,177.956 C116.997,176.89 117.033,175.157 115.026,174.092 L110.571,171.729 L113.9,170 L118.356,172.362 C122.159,174.379 122.091,177.664 118.203,179.683 C114.316,181.704 108.059,181.706 104.255,179.688" id="Fill-29" fill="url(#linearGradient-3)"></path>
                                    <polygon id="Fill-30" fill="url(#linearGradient-3)" points="120.159 182.771 105 174.731 108.33 173 123.489 181.041"></polygon>
                                    <polygon id="Fill-31" fill="url(#linearGradient-3)" points="125.159 179.77 110 171.73 113.329 170 128.488 178.041"></polygon>
                                    <polygon id="Fill-32" fill="url(#linearGradient-3)" points="103.311 187.652 104.795 178.172 100.154 178 99 185.366"></polygon>
                                    <path d="M146.381,173.366 C146.381,182.404 131.073,189.731 112.191,189.731 C93.308,189.731 78,182.404 78,173.366 C78,164.327 93.308,157 112.191,157 C131.073,157 146.381,164.327 146.381,173.366" id="Fill-33" fill="url(#linearGradient-3)"></path>
                                    <polygon id="Fill-34" fill="url(#linearGradient-3)" points="78 175.023 146.381 175.023 146.381 167 78 167"></polygon>
                                    <path d="M146.381,167.365 C146.381,176.403 131.073,183.73 112.191,183.73 C93.308,183.73 78,176.403 78,167.365 C78,158.326 93.308,151 112.191,151 C131.073,151 146.381,158.326 146.381,167.365" id="Fill-35" fill="url(#linearGradient-3)"></path>
                                    <path d="M139.375,167.604 C139.375,174.565 127.203,180.208 112.188,180.208 C97.172,180.208 85,174.565 85,167.604 C85,160.643 97.172,155 112.188,155 C127.203,155 139.375,160.643 139.375,167.604" id="Fill-36" fill="url(#linearGradient-3)"></path>
                                    <path d="M104.255,168.689 L100,166.432 L103.329,164.703 L107.585,166.959 C109.592,168.024 112.894,168.022 114.945,166.957 C116.997,165.89 117.033,164.157 115.026,163.092 L110.571,160.73 L113.9,159 L118.356,161.363 C122.159,163.379 122.091,166.664 118.203,168.684 C114.316,170.704 108.059,170.706 104.255,168.689" id="Fill-37" fill="url(#linearGradient-3)"></path>
                                    <polygon id="Fill-38" fill="url(#linearGradient-3)" points="120.159 171.77 105 163.73 108.33 162 123.489 170.041"></polygon>
                                    <polygon id="Fill-39" fill="url(#linearGradient-3)" points="125.159 168.771 110 160.731 113.329 159 128.488 167.041"></polygon>
                                    <polygon id="Fill-40" fill="url(#linearGradient-3)" points="103.311 175.651 104.795 166.172 100.154 166 99 173.365"></polygon>
                                    <path d="M146.381,162.365 C146.381,171.404 131.073,178.73 112.191,178.73 C93.308,178.73 78,171.404 78,162.365 C78,153.327 93.308,146 112.191,146 C131.073,146 146.381,153.327 146.381,162.365" id="Fill-41" fill="url(#linearGradient-3)"></path>
                                    <polygon id="Fill-42" fill="url(#linearGradient-3)" points="78 163.024 146.381 163.024 146.381 155 78 155"></polygon>
                                    <path d="M146.381,155.365 C146.381,164.404 131.073,171.731 112.191,171.731 C93.308,171.731 78,164.404 78,155.365 C78,146.327 93.308,139 112.191,139 C131.073,139 146.381,146.327 146.381,155.365" id="Fill-43" fill="url(#linearGradient-3)"></path>
                                    <path d="M139.375,155.604 C139.375,162.565 127.203,168.208 112.188,168.208 C97.172,168.208 85,162.565 85,155.604 C85,148.643 97.172,143 112.188,143 C127.203,143 139.375,148.643 139.375,155.604" id="Fill-44" fill="url(#linearGradient-3)"></path>
                                    <path d="M104.255,156.689 L100,154.432 L103.329,152.703 L107.585,154.96 C109.592,156.024 112.894,156.023 114.945,154.957 C116.997,153.891 117.033,152.158 115.026,151.092 L110.571,148.73 L113.9,147 L118.356,149.363 C122.159,151.38 122.091,154.665 118.203,156.684 C114.316,158.705 108.059,158.707 104.255,156.689" id="Fill-45" fill="url(#linearGradient-3)"></path>
                                    <polygon id="Fill-46" fill="url(#linearGradient-3)" points="120.159 159.77 105 151.731 108.33 150 123.489 158.041"></polygon>
                                    <polygon id="Fill-47" fill="url(#linearGradient-3)" points="125.159 156.77 110 148.73 113.329 147 128.488 155.041"></polygon>
                                    <polygon id="Fill-48" fill="url(#linearGradient-3)" points="103.311 164.652 104.795 155.172 100.154 155 99 162.365"></polygon>
                                    <path d="M146.381,150.366 C146.381,159.404 131.073,166.731 112.191,166.731 C93.308,166.731 78,159.404 78,150.366 C78,141.327 93.308,134 112.191,134 C131.073,134 146.381,141.327 146.381,150.366" id="Fill-49" fill="url(#linearGradient-3)"></path>
                                    <polygon id="Fill-50" fill="url(#linearGradient-3)" points="78 152.023 146.381 152.023 146.381 144 78 144"></polygon>
                                    <path d="M146.381,144.365 C146.381,153.404 131.073,160.731 112.191,160.731 C93.308,160.731 78,153.404 78,144.365 C78,135.327 93.308,128 112.191,128 C131.073,128 146.381,135.327 146.381,144.365" id="Fill-51" fill="url(#linearGradient-3)"></path>
                                    <path d="M139.375,144.604 C139.375,151.565 127.203,157.208 112.188,157.208 C97.172,157.208 85,151.565 85,144.604 C85,137.644 97.172,132 112.188,132 C127.203,132 139.375,137.644 139.375,144.604" id="Fill-52" fill="url(#linearGradient-3)"></path>
                                    <path d="M104.255,145.689 L100,143.432 L103.329,141.702 L107.585,143.959 C109.592,145.023 112.894,145.022 114.945,143.956 C116.997,142.89 117.033,141.157 115.026,140.092 L110.571,137.73 L113.9,136 L118.356,138.362 C122.159,140.379 122.091,143.664 118.203,145.684 C114.316,147.704 108.059,147.706 104.255,145.689" id="Fill-53" fill="url(#linearGradient-3)"></path>
                                    <polygon id="Fill-54" fill="url(#linearGradient-3)" points="120.159 147.77 105 139.73 108.33 138 123.489 146.04"></polygon>
                                    <polygon id="Fill-55" fill="url(#linearGradient-3)" points="125.159 145.77 110 137.73 113.329 136 128.488 144.04"></polygon>
                                    <polygon id="Fill-56" fill="url(#linearGradient-3)" points="103.311 152.652 104.795 143.172 100.154 143 99 150.366"></polygon>
                                    <path d="M146.381,138.365 C146.381,147.404 131.073,154.73 112.191,154.73 C93.308,154.73 78,147.404 78,138.365 C78,129.326 93.308,122 112.191,122 C131.073,122 146.381,129.326 146.381,138.365" id="Fill-57" fill="url(#linearGradient-3)"></path>
                                    <polygon id="Fill-58" fill="url(#linearGradient-3)" points="78 140.024 146.381 140.024 146.381 132 78 132"></polygon>
                                    <path d="M146.381,132.365 C146.381,141.404 131.073,148.73 112.191,148.73 C93.308,148.73 78,141.404 78,132.365 C78,123.327 93.308,116 112.191,116 C131.073,116 146.381,123.327 146.381,132.365" id="Fill-59" fill="url(#linearGradient-3)"></path>
                                    <path d="M139.375,132.604 C139.375,139.565 127.203,145.208 112.188,145.208 C97.172,145.208 85,139.565 85,132.604 C85,125.643 97.172,120 112.188,120 C127.203,120 139.375,125.643 139.375,132.604" id="Fill-60" fill="url(#linearGradient-3)"></path>
                                    <path d="M104.255,133.689 L100,131.432 L103.329,129.703 L107.585,131.959 C109.592,133.024 112.894,133.023 114.945,131.957 C116.997,130.891 117.033,129.157 115.026,128.093 L110.571,125.73 L113.9,124 L118.356,126.363 C122.159,128.38 122.091,131.665 118.203,133.684 C114.316,135.704 108.059,135.707 104.255,133.689" id="Fill-61" fill="url(#linearGradient-3)"></path>
                                    <polygon id="Fill-62" fill="url(#linearGradient-3)" points="120.159 136.77 105 128.73 108.33 127 123.489 135.04"></polygon>
                                    <polygon id="Fill-63" fill="url(#linearGradient-3)" points="125.159 133.77 110 125.73 113.329 124 128.488 132.04"></polygon>
                                    <polygon id="Fill-64" fill="url(#linearGradient-3)" points="103.311 140.652 104.795 131.172 100.154 131 99 138.365"></polygon>
                                    <path d="M146.381,127.366 C146.381,136.405 131.073,143.732 112.191,143.732 C93.308,143.732 78,136.405 78,127.366 C78,118.327 93.308,111 112.191,111 C131.073,111 146.381,118.327 146.381,127.366" id="Fill-65" fill="url(#linearGradient-3)"></path>
                                    <polygon id="Fill-66" fill="url(#linearGradient-3)" points="78 128.024 146.381 128.024 146.381 120 78 120"></polygon>
                                    <path d="M146.381,121.365 C146.381,130.404 131.073,137.731 112.191,137.731 C93.308,137.731 78,130.404 78,121.365 C78,112.326 93.308,105 112.191,105 C131.073,105 146.381,112.326 146.381,121.365" id="Fill-67" fill="url(#linearGradient-3)"></path>
                                    <path d="M139.375,120.604 C139.375,127.565 127.203,133.208 112.188,133.208 C97.172,133.208 85,127.565 85,120.604 C85,113.643 97.172,108 112.188,108 C127.203,108 139.375,113.643 139.375,120.604" id="Fill-68" fill="url(#linearGradient-3)"></path>
                                    <path d="M104.255,121.689 L100,119.432 L103.329,117.702 L107.585,119.959 C109.592,121.024 112.894,121.022 114.945,119.957 C116.997,118.891 117.033,117.157 115.026,116.093 L110.571,113.73 L113.9,112 L118.356,114.363 C122.159,116.38 122.091,119.664 118.203,121.684 C114.316,123.704 108.059,123.706 104.255,121.689" id="Fill-69" fill="url(#linearGradient-3)"></path>
                                    <polygon id="Fill-70" fill="url(#linearGradient-3)" points="120.159 124.77 105 116.73 108.33 115 123.489 123.041"></polygon>
                                    <polygon id="Fill-71" fill="url(#linearGradient-3)" points="125.159 121.77 110 113.73 113.329 112 128.488 120.04"></polygon>
                                    <polygon id="Fill-72" fill="url(#linearGradient-3)" points="103.311 129.652 104.795 120.172 100.154 120 99 127.366"></polygon>
                                    <path d="M146.381,115.366 C146.381,124.405 131.073,131.731 112.191,131.731 C93.308,131.731 78,124.405 78,115.366 C78,106.327 93.308,99 112.191,99 C131.073,99 146.381,106.327 146.381,115.366" id="Fill-73" fill="url(#linearGradient-3)"></path>
                                    <polygon id="Fill-74" fill="url(#linearGradient-3)" points="78 117.024 146.381 117.024 146.381 109 78 109"></polygon>
                                    <path d="M146.381,109.366 C146.381,118.405 131.073,125.732 112.191,125.732 C93.308,125.732 78,118.405 78,109.366 C78,100.327 93.308,93 112.191,93 C131.073,93 146.381,100.327 146.381,109.366" id="Fill-75" fill="url(#linearGradient-3)"></path>
                                    <path d="M139.375,109.604 C139.375,116.565 127.203,122.208 112.188,122.208 C97.172,122.208 85,116.565 85,109.604 C85,102.643 97.172,97 112.188,97 C127.203,97 139.375,102.643 139.375,109.604" id="Fill-76" fill="url(#linearGradient-3)"></path>
                                    <g id="Group-25" stroke-width="1" fill="none" transform="translate(110.000000, 190.000000)">
                                        <path d="M68.382,43.365 C68.382,52.404 53.074,59.731 34.191,59.731 C15.308,59.731 2.84217094e-14,52.404 2.84217094e-14,43.365 C2.84217094e-14,34.327 15.308,27 34.191,27 C53.074,27 68.382,34.327 68.382,43.365" id="Fill-79" fill="url(#linearGradient-4)"></path>
                                        <path d="M68.382,36.366 C68.382,45.404 53.074,52.731 34.191,52.731 C15.308,52.731 2.84217094e-14,45.404 2.84217094e-14,36.366 C2.84217094e-14,27.327 15.308,20 34.191,20 C53.074,20 68.382,27.327 68.382,36.366" id="Fill-85" fill="url(#linearGradient-4)"></path>
                                        <path d="M68.382,30.365 C68.382,39.403 53.074,46.73 34.191,46.73 C15.308,46.73 2.84217094e-14,39.403 2.84217094e-14,30.365 C2.84217094e-14,21.327 15.308,14 34.191,14 C53.074,14 68.382,21.327 68.382,30.365" id="Fill-87" fill="url(#linearGradient-4)"></path>
                                        <path d="M61.376,29.604 C61.376,36.565 49.203,42.208 34.188,42.208 C19.173,42.208 7,36.565 7,29.604 C7,22.643 19.173,17 34.188,17 C49.203,17 61.376,22.643 61.376,29.604" id="Fill-88" fill="url(#linearGradient-4)"></path>
                                        <path d="M68.382,23.365 C68.382,32.404 53.074,39.731 34.191,39.731 C15.308,39.731 2.84217094e-14,32.404 2.84217094e-14,23.365 C2.84217094e-14,14.327 15.308,7 34.191,7 C53.074,7 68.382,14.327 68.382,23.365" id="Fill-93" fill="url(#linearGradient-4)"></path>
                                        <path d="M68.382,16.365 C68.382,25.404 53.074,32.731 34.191,32.731 C15.308,32.731 2.84217094e-14,25.404 2.84217094e-14,16.365 C2.84217094e-14,7.327 15.308,-1.17239551e-13 34.191,-1.17239551e-13 C53.074,-1.17239551e-13 68.382,7.327 68.382,16.365" id="Fill-95" fill="url(#linearGradient-4)"></path>
                                        <path d="M61.376,16.604 C61.376,23.565 49.203,29.208 34.188,29.208 C19.173,29.208 7,23.565 7,16.604 C7,9.643 19.173,4 34.188,4 C49.203,4 61.376,9.643 61.376,16.604" id="Fill-96" fill="url(#linearGradient-4)"></path>
                                    </g>
                                    <g id="Group-26" stroke-width="1" fill="none" transform="translate(30.000000, 188.000000)">
                                        <path d="M68.381,22.365 C68.381,31.403 53.073,38.73 34.191,38.73 C15.308,38.73 -7.10542736e-14,31.403 -7.10542736e-14,22.365 C-7.10542736e-14,13.327 15.308,6 34.191,6 C53.073,6 68.381,13.327 68.381,22.365" id="Fill-19" fill="url(#linearGradient-3)"></path>
                                        <path d="M68.381,16.365 C68.381,25.403 53.073,32.73 34.191,32.73 C15.308,32.73 -7.10542736e-14,25.403 -7.10542736e-14,16.365 C-7.10542736e-14,7.327 15.308,7.10542736e-15 34.191,7.10542736e-15 C53.073,7.10542736e-15 68.381,7.327 68.381,16.365" id="Fill-23" fill="url(#linearGradient-3)"></path>
                                        <path d="M61.375,15.604 C61.375,22.565 49.203,28.208 34.187,28.208 C19.172,28.208 7,22.565 7,15.604 C7,8.643 19.172,3 34.187,3 C49.203,3 61.375,8.643 61.375,15.604" id="Fill-24" fill="url(#linearGradient-3)"></path>
                                    </g>
                                </g>
                            </g>
                        </g>
                    </g>
                </g>
            </g>
        </g>
    </g>
</svg>