<svg width="307" height="410" viewBox="0 0 307 410" fill="none" xmlns="http://www.w3.org/2000/svg">
<g opacity="0.27">
<path fill-rule="evenodd" clip-rule="evenodd" d="M318 297.349L279.371 221L253 307L318 297.349Z" fill="url(#paint0_linear)"/>
<path fill-rule="evenodd" clip-rule="evenodd" d="M316.849 296L423 197L278 218.778L316.849 296Z" fill="url(#paint1_linear)"/>
<path fill-rule="evenodd" clip-rule="evenodd" d="M278.753 221L423 199.065L159 122L278.753 221Z" fill="url(#paint2_linear)"/>
<path fill-rule="evenodd" clip-rule="evenodd" d="M423 198L227.425 -13H202.546L159 121.772L423 198Z" fill="url(#paint3_linear)"/>
<path fill-rule="evenodd" clip-rule="evenodd" d="M232.936 -13H227L423 198L232.936 -13Z" fill="url(#paint4_linear)"/>
<path fill-rule="evenodd" clip-rule="evenodd" d="M303.608 508L317.72 409L292.28 447.221L303.608 508Z" fill="url(#paint5_linear)"/>
<path fill-rule="evenodd" clip-rule="evenodd" d="M390.422 103.119L300.505 19.291L341.741 127.62L390.422 103.119Z" fill="url(#paint6_linear)"/>
<path fill-rule="evenodd" clip-rule="evenodd" d="M304.02 319.605L324.768 367.786L317.224 295.482L304.02 319.605Z" fill="url(#paint7_linear)"/>
<path fill-rule="evenodd" clip-rule="evenodd" d="M303.559 320.032L316.818 296.183L251.582 305.87L303.559 320.032Z" fill="url(#paint8_linear)"/>
<path fill-rule="evenodd" clip-rule="evenodd" d="M436 181.15V32.1914L288.251 -13H234L423.461 198L436 181.15Z" fill="url(#paint9_linear)"/>
<path fill-rule="evenodd" clip-rule="evenodd" d="M156 -12.072H131.131L108 6.072L156 -12.072Z" fill="url(#paint10_linear)"/>
<path fill-rule="evenodd" clip-rule="evenodd" d="M131.096 -12.072H106.904L108.088 6.072L131.096 -12.072Z" fill="url(#paint11_linear)"/>
<path fill-rule="evenodd" clip-rule="evenodd" d="M0 446L109 413.463L18.9873 353L0 446Z" fill="url(#paint12_linear)"/>
<path fill-rule="evenodd" clip-rule="evenodd" d="M63 343.997L152.555 404.451L162 339.451L63 343.997Z" fill="url(#paint13_linear)"/>
<path fill-rule="evenodd" clip-rule="evenodd" d="M185.372 401.313L233.02 400.541L194.915 336.947L185.372 401.313Z" fill="url(#paint14_linear)"/>
<path fill-rule="evenodd" clip-rule="evenodd" d="M242.253 395.636L325.555 369.287L304.928 321.055L242.253 395.636Z" fill="url(#paint15_linear)"/>
<path fill-rule="evenodd" clip-rule="evenodd" d="M202.997 331.565L241.38 394.7L252.882 307.02L202.997 331.565Z" fill="url(#paint16_linear)"/>
<path fill-rule="evenodd" clip-rule="evenodd" d="M242 395L304 320.32L253.124 306L242 395Z" fill="url(#paint17_linear)"/>
<path fill-rule="evenodd" clip-rule="evenodd" d="M157.792 122L202 -13H192.378L109 89.8495L157.792 122Z" fill="url(#paint18_linear)"/>
<path fill-rule="evenodd" clip-rule="evenodd" d="M98.0001 90.1919L96.1411 6L29.0901 73.8141L98.0001 90.1919Z" fill="url(#paint19_linear)"/>
<path fill-rule="evenodd" clip-rule="evenodd" d="M109.92 90L192 -13H155.776L108 5.25602L109.92 90Z" fill="url(#paint20_linear)"/>
</g>
<defs>
<linearGradient id="paint0_linear" x1="396.185" y1="794.629" x2="24.8865" y2="634.475" gradientUnits="userSpaceOnUse">
<stop stop-color="white"/>
<stop offset="1" stop-color="#D3B464"/>
</linearGradient>
<linearGradient id="paint1_linear" x1="597.413" y1="857.34" x2="19.0848" y2="373.939" gradientUnits="userSpaceOnUse">
<stop stop-color="white"/>
<stop offset="1" stop-color="#D3B464"/>
</linearGradient>
<linearGradient id="paint2_linear" x1="740.552" y1="782.34" x2="201.162" y2="-38.5247" gradientUnits="userSpaceOnUse">
<stop stop-color="white"/>
<stop offset="1" stop-color="#D3B464"/>
</linearGradient>
<linearGradient id="paint3_linear" x1="740.552" y1="1394.39" x2="-444.078" y2="548.52" gradientUnits="userSpaceOnUse">
<stop stop-color="white"/>
<stop offset="1" stop-color="#D3B464"/>
</linearGradient>
<linearGradient id="paint4_linear" x1="658.758" y1="1394.39" x2="-377.841" y2="844.87" gradientUnits="userSpaceOnUse">
<stop stop-color="white"/>
<stop offset="1" stop-color="#D3B464"/>
</linearGradient>
<linearGradient id="paint5_linear" x1="359.491" y1="1069.34" x2="149.824" y2="1030.66" gradientUnits="userSpaceOnUse">
<stop stop-color="white"/>
<stop offset="1" stop-color="#D3B464"/>
</linearGradient>
<linearGradient id="paint6_linear" x1="498.579" y1="741.858" x2="1.02746" y2="506.171" gradientUnits="userSpaceOnUse">
<stop stop-color="white"/>
<stop offset="1" stop-color="#D3B464"/>
</linearGradient>
<linearGradient id="paint7_linear" x1="368.832" y1="777.757" x2="165.207" y2="726.377" gradientUnits="userSpaceOnUse">
<stop stop-color="white"/>
<stop offset="1" stop-color="#D3B464"/>
</linearGradient>
<linearGradient id="paint8_linear" x1="395.286" y1="505.358" x2="207.706" y2="286.91" gradientUnits="userSpaceOnUse">
<stop stop-color="white"/>
<stop offset="1" stop-color="#D3B464"/>
</linearGradient>
<linearGradient id="paint9_linear" x1="678.975" y1="1394.39" x2="-374.984" y2="818.563" gradientUnits="userSpaceOnUse">
<stop stop-color="white"/>
<stop offset="1" stop-color="#D3B464"/>
</linearGradient>
<linearGradient id="paint10_linear" x1="213.737" y1="194.443" x2="26.0616" y2="33.7867" gradientUnits="userSpaceOnUse">
<stop stop-color="white"/>
<stop offset="1" stop-color="#D3B464"/>
</linearGradient>
<linearGradient id="paint11_linear" x1="173.491" y1="194.443" x2="9.95189" y2="101.113" gradientUnits="userSpaceOnUse">
<stop stop-color="white"/>
<stop offset="1" stop-color="#D3B464"/>
</linearGradient>
<linearGradient id="paint12_linear" x1="240.11" y1="973.32" x2="-270.105" y2="632.05" gradientUnits="userSpaceOnUse">
<stop stop-color="white"/>
<stop offset="1" stop-color="#D3B464"/>
</linearGradient>
<linearGradient id="paint13_linear" x1="281.082" y1="773.008" x2="-100.988" y2="440.911" gradientUnits="userSpaceOnUse">
<stop stop-color="white"/>
<stop offset="1" stop-color="#D3B464"/>
</linearGradient>
<linearGradient id="paint14_linear" x1="290.334" y1="766.271" x2="16.4049" y2="650.544" gradientUnits="userSpaceOnUse">
<stop stop-color="white"/>
<stop offset="1" stop-color="#D3B464"/>
</linearGradient>
<linearGradient id="paint15_linear" x1="425.755" y1="818.52" x2="24.4363" y2="562.711" gradientUnits="userSpaceOnUse">
<stop stop-color="white"/>
<stop offset="1" stop-color="#D3B464"/>
</linearGradient>
<linearGradient id="paint16_linear" x1="312.887" y1="891.857" x2="7.1445" y2="792.586" gradientUnits="userSpaceOnUse">
<stop stop-color="white"/>
<stop offset="1" stop-color="#D3B464"/>
</linearGradient>
<linearGradient id="paint17_linear" x1="378.576" y1="899.639" x2="15.8526" y2="755.435" gradientUnits="userSpaceOnUse">
<stop stop-color="white"/>
<stop offset="1" stop-color="#D3B464"/>
</linearGradient>
<linearGradient id="paint18_linear" x1="313.865" y1="887.464" x2="-231.867" y2="672.914" gradientUnits="userSpaceOnUse">
<stop stop-color="white"/>
<stop offset="1" stop-color="#D3B464"/>
</linearGradient>
<linearGradient id="paint19_linear" x1="180.888" y1="567.569" x2="-202.362" y2="388.552" gradientUnits="userSpaceOnUse">
<stop stop-color="white"/>
<stop offset="1" stop-color="#D3B464"/>
</linearGradient>
<linearGradient id="paint20_linear" x1="293.039" y1="674.021" x2="-174.739" y2="456.309" gradientUnits="userSpaceOnUse">
<stop stop-color="white"/>
<stop offset="1" stop-color="#D3B464"/>
</linearGradient>
</defs>
</svg>
