<?xml version="1.0" encoding="utf-8"?>
<!-- Generator: Adobe Illustrator 21.0.0, SVG Export Plug-In . SVG Version: 6.00 Build 0)  -->
<svg version="1.1" id="Layer_1" xmlns="http://www.w3.org/2000/svg" xmlns:xlink="http://www.w3.org/1999/xlink" x="0px" y="0px"
	 viewBox="0 0 26 26" style="enable-background:new 0 0 26 26;" xml:space="preserve">
<style type="text/css">
	.st0{fill:none;stroke:#D3B464;stroke-linecap:square;}
	.st1{fill:#D1AC4C;}
</style>
<title>expand</title>
<desc>Created with Sketch.</desc>
<g id="Symbols">
	<g id="person_closed_ui" transform="translate(-23.000000, -334.000000)">
		<g id="person_ui">
			
				<g id="expand" transform="translate(36.000000, 347.000000) scale(-1, 1) translate(-36.000000, -347.000000) translate(24.000000, 335.000000)">
				<path id="Path-2_1_" class="st0" d="M12.2,23.8h-12V0.3h23.5V12"/>
				<path id="Path" class="st1" d="M23.3,22.8c-0.1,0-0.3,0.1-0.4,0.1s-0.1,0.2-0.1,0.4s0.1,0.3,0.1,0.4c0.1,0.1,0.2,0.1,0.4,0.1
					c0.1,0,0.3-0.1,0.4-0.1c0.1-0.1,0.1-0.2,0.1-0.4s-0.1-0.3-0.1-0.4C23.5,22.8,23.4,22.8,23.3,22.8z"/>
				<path id="Path_1_" class="st1" d="M21.2,22.8c-0.3,0-0.5,0.2-0.5,0.5c0,0.3,0.2,0.5,0.5,0.5c0.3,0,0.5-0.2,0.5-0.5
					C21.7,23,21.5,22.8,21.2,22.8z"/>
				<path id="Path_2_" class="st1" d="M19.1,22.8c-0.3,0-0.5,0.2-0.5,0.5c0,0.3,0.2,0.5,0.5,0.5c0.3,0,0.5-0.2,0.5-0.5
					C19.6,23,19.4,22.8,19.1,22.8z"/>
				<path id="Path_3_" class="st1" d="M17,22.8c-0.3,0-0.5,0.2-0.5,0.5c0,0.3,0.2,0.5,0.5,0.5s0.5-0.2,0.5-0.5
					C17.5,23,17.3,22.8,17,22.8z"/>
				<path id="Path_4_" class="st1" d="M14.9,22.8c-0.1,0-0.3,0.1-0.4,0.1c-0.1,0.1-0.1,0.2-0.1,0.4s0.1,0.3,0.1,0.4
					c0.1,0.1,0.2,0.1,0.4,0.1c0.1,0,0.3-0.1,0.4-0.1c0.1-0.1,0.1-0.2,0.1-0.4s-0.1-0.3-0.1-0.4C15.2,22.8,15,22.8,14.9,22.8z"/>
				<path id="Path_5_" class="st1" d="M14.9,20.7c-0.3,0-0.5,0.2-0.5,0.5c0,0.3,0.2,0.5,0.5,0.5c0.3,0,0.5-0.2,0.5-0.5
					C15.4,20.9,15.2,20.7,14.9,20.7z"/>
				<path id="Path_6_" class="st1" d="M14.9,18.6c-0.3,0-0.5,0.2-0.5,0.5c0,0.3,0.2,0.5,0.5,0.5c0.3,0,0.5-0.2,0.5-0.5
					C15.4,18.8,15.2,18.6,14.9,18.6z"/>
				<path id="Path_7_" class="st1" d="M14.9,16.5c-0.3,0-0.5,0.2-0.5,0.5s0.2,0.5,0.5,0.5c0.3,0,0.5-0.2,0.5-0.5
					S15.2,16.5,14.9,16.5z"/>
				<path id="Path_8_" class="st1" d="M14.9,14.4c-0.1,0-0.3,0.1-0.4,0.1c-0.1,0.1-0.1,0.2-0.1,0.4c0,0.1,0.1,0.3,0.1,0.4
					c0.1,0.1,0.2,0.1,0.4,0.1c0.1,0,0.3-0.1,0.4-0.1c0.1-0.1,0.1-0.2,0.1-0.4c0-0.1-0.1-0.3-0.1-0.4C15.2,14.5,15,14.4,14.9,14.4z"
					/>
				<path id="Path_9_" class="st1" d="M21.2,14.4c-0.3,0-0.5,0.2-0.5,0.5c0,0.3,0.2,0.5,0.5,0.5c0.3,0,0.5-0.2,0.5-0.5
					C21.7,14.6,21.5,14.4,21.2,14.4z"/>
				<path id="Path_10_" class="st1" d="M19.1,14.4c-0.3,0-0.5,0.2-0.5,0.5c0,0.3,0.2,0.5,0.5,0.5c0.3,0,0.5-0.2,0.5-0.5
					C19.6,14.6,19.4,14.4,19.1,14.4z"/>
				<path id="Path_16_" class="st1" d="M17,14.4c-0.3,0-0.5,0.2-0.5,0.5c0,0.3,0.2,0.5,0.5,0.5c0.3,0,0.5-0.2,0.5-0.5
					C17.5,14.6,17.3,14.4,17,14.4z"/>
				<path id="Path_11_" class="st1" d="M23.6,14.6c-0.1-0.1-0.2-0.1-0.4-0.1s-0.3,0.1-0.4,0.1c-0.1,0.1-0.1,0.2-0.1,0.4
					c0,0.1,0.1,0.3,0.1,0.4c0.1,0.1,0.2,0.1,0.4,0.1c0.1,0,0.3-0.1,0.4-0.1c0.1-0.1,0.1-0.2,0.1-0.4C23.8,14.8,23.7,14.7,23.6,14.6z
					"/>
				<path id="Path_12_" class="st1" d="M23.3,20.7c-0.3,0-0.5,0.2-0.5,0.5c0,0.3,0.2,0.5,0.5,0.5c0.3,0,0.5-0.2,0.5-0.5
					C23.8,20.9,23.5,20.7,23.3,20.7z"/>
				<path id="Path_13_" class="st1" d="M23.3,16.5c-0.3,0-0.5,0.2-0.5,0.5s0.2,0.5,0.5,0.5c0.3,0,0.5-0.2,0.5-0.5
					S23.5,16.5,23.3,16.5z"/>
				<path id="Path_14_" class="st1" d="M23.3,18.6c-0.3,0-0.5,0.2-0.5,0.5c0,0.3,0.2,0.5,0.5,0.5c0.3,0,0.5-0.2,0.5-0.5
					C23.8,18.8,23.5,18.6,23.3,18.6z"/>
				<path id="Path_15_" class="st1" d="M6.3,5.4h3.9c0.3,0,0.6-0.3,0.6-0.6c0-0.3-0.3-0.6-0.6-0.6H4.8c-0.3,0-0.6,0.3-0.6,0.6v5.4
					c0,0.3,0.3,0.6,0.6,0.6c0.3,0,0.6-0.3,0.6-0.6V6.3l6.8,6.8c0.1,0.1,0.3,0.2,0.4,0.2c0.2,0,0.3-0.1,0.4-0.2
					c0.2-0.2,0.2-0.6,0-0.9L6.3,5.4z"/>
			</g>
		</g>
	</g>
</g>
</svg>
