<?xml version="1.0" encoding="UTF-8"?>
<svg width="12px" height="12px" viewBox="0 0 12 12" version="1.1" xmlns="http://www.w3.org/2000/svg" xmlns:xlink="http://www.w3.org/1999/xlink">
    <!-- Generator: Sketch 52.3 (67297) - http://www.bohemiancoding.com/sketch -->
    <title>Path</title>
    <desc>Created with Sketch.</desc>
    <g id="Symbols" stroke="none" stroke-width="1" fill="none" fill-rule="evenodd" fill-opacity="0.67">
        <g id="header_1440" transform="translate(-990.000000, -4.000000)" fill="#434343" fill-rule="nonzero">
            <g id="contacts">
                <g transform="translate(772.000000, 2.000000)">
                    <g id="Group-3-Copy" transform="translate(218.000000, 0.000000)">
                        <path d="M2.4,7.2 C3.33333333,9.06666667 4.93333333,10.6 6.8,11.6 L8.26666667,10.1333333 C8.46664052,9.93335948 8.73333333,9.86669281 8.93333333,10 C9.66666667,10.2666667 10.4666405,10.4 11.3333333,10.4 C11.7333333,10.4 12,10.6666667 12,11.0666667 L12,13.3333333 C12,13.7333333 11.7333333,14 11.3333333,14 C5.06666667,14 0,8.93333333 0,2.66666667 C0,2.26666667 0.266666667,2 0.666666667,2 L3,2 C3.4,2 3.66666667,2.26666667 3.66666667,2.66666667 C3.66666667,3.46666667 3.8,4.26666667 4.06666667,5.06666667 C4.13333333,5.26666667 4.06666667,5.53333333 3.93333333,5.73333333 L2.4,7.2 Z" id="Path"></path>
                    </g>
                </g>
            </g>
        </g>
    </g>
</svg>