<?xml version="1.0" encoding="UTF-8"?>
<svg width="1460px" height="320px" viewBox="0 0 1460 320" version="1.1" xmlns="http://www.w3.org/2000/svg" xmlns:xlink="http://www.w3.org/1999/xlink">
    <!-- Generator: Sketch 52.3 (67297) - http://www.bohemiancoding.com/sketch -->
    <title>VISUM</title>
    <desc>Created with Sketch.</desc>
    <defs>
        <path d="M303.735352,27.4072266 L282.70752,27.4072266 C280.725088,27.4072266 278.955086,27.832027 277.397461,28.6816406 C275.839836,29.5312542 274.282234,31.1242559 272.724609,33.4606934 C271.166984,35.7971308 269.538583,39.0185342 267.839355,43.125 C266.140128,47.2314658 264.157726,52.6122714 261.89209,59.2675781 L173.10791,315 L129.56543,315 L36.9580078,48.4350586 C35.5419851,44.3285927 33.7365832,40.8947892 31.541748,38.1335449 C29.3469129,35.3723006 27.0105104,33.2128984 24.5324707,31.6552734 C22.054431,30.0976485 19.5410284,29.0002473 16.9921875,28.3630371 C14.4433466,27.7258269 12.1069442,27.4072266 9.98291016,27.4072266 L0,27.4072266 L0,4.46777344 L143.583984,4.46777344 L143.583984,27.4072266 L123.618164,27.4072266 C121.49413,27.4072266 119.440928,27.6550268 117.458496,28.1506348 C115.476064,28.6462427 113.670662,29.4604436 112.042236,30.5932617 C110.41381,31.7260799 109.104009,33.2128814 108.112793,35.0537109 C107.121577,36.8945405 106.625977,39.1601428 106.625977,41.8505859 C106.625977,44.6826313 107.050777,47.9040347 107.900391,51.5148926 C108.750004,55.1257505 109.599605,58.1347536 110.449219,60.5419922 L154.841309,194.567871 C155.974127,197.824723 157.142328,201.647927 158.345947,206.037598 C159.549567,210.427268 160.717768,215.029273 161.850586,219.84375 C162.983404,224.658227 164.010005,229.437232 164.93042,234.180908 C165.850835,238.924584 166.523435,243.278789 166.948242,247.243652 C167.373049,244.836414 168.11645,241.54421 169.178467,237.366943 C170.240484,233.189676 171.479485,228.658472 172.895508,223.773193 C174.311531,218.887915 175.762932,214.00271 177.249756,209.117432 C178.73658,204.232153 180.117181,199.807149 181.391602,195.842285 L226.208496,63.515625 C226.774905,61.958 227.376706,60.2233982 228.013916,58.3117676 C228.651126,56.4001369 229.217527,54.4531349 229.713135,52.4707031 C230.208743,50.4882713 230.633543,48.5766694 230.987549,46.7358398 C231.341555,44.8950103 231.518555,43.4082088 231.518555,42.2753906 C231.518555,37.4609134 229.925553,33.7793096 226.739502,31.2304688 C223.553451,28.6816279 219.340847,27.4072266 214.101562,27.4072266 L191.374512,27.4072266 L191.374512,4.46777344 L303.735352,4.46777344 L303.735352,27.4072266 Z M315.842285,315 L315.842285,291.848145 L334.108887,291.848145 C337.365739,291.848145 340.339342,291.529544 343.029785,290.892334 C345.720228,290.255124 348.056631,288.945322 350.039062,286.962891 C352.021494,284.980459 353.579096,282.148456 354.711914,278.466797 C355.844732,274.785138 356.411133,269.829133 356.411133,263.598633 L356.411133,55.8691406 C356.411133,49.6386407 355.844732,44.6826356 354.711914,41.0009766 C353.579096,37.3193175 352.021494,34.4873146 350.039062,32.5048828 C348.056631,30.522451 345.720228,29.2126497 343.029785,28.5754395 C340.339342,27.9382292 337.365739,27.6196289 334.108887,27.6196289 L315.842285,27.6196289 L315.842285,4.46777344 L466.010742,4.46777344 L466.010742,27.6196289 L447.744141,27.6196289 C444.628891,27.6196289 441.690688,27.9382292 438.929443,28.5754395 C436.168199,29.2126497 433.796397,30.522451 431.813965,32.5048828 C429.831533,34.4873146 428.273931,37.3193175 427.141113,41.0009766 C426.008295,44.6826356 425.441895,49.6386407 425.441895,55.8691406 L425.441895,263.598633 C425.441895,269.829133 426.008295,274.785138 427.141113,278.466797 C428.273931,282.148456 429.831533,284.980459 431.813965,286.962891 C433.796397,288.945322 436.168199,290.255124 438.929443,290.892334 C441.690688,291.529544 444.628891,291.848145 447.744141,291.848145 L466.010742,291.848145 L466.010742,315 L315.842285,315 Z M593.027344,319.248047 C573.48623,319.248047 557.202214,317.407245 544.174805,313.725586 C531.147396,310.043927 520.704385,305.300322 512.845459,299.494629 C504.986533,293.688936 499.393327,287.175329 496.065674,279.953613 C492.73802,272.731897 491.074219,265.58109 491.074219,258.500977 C491.074219,250.996056 492.45482,244.69485 495.216064,239.597168 C497.977309,234.499486 501.658913,230.322282 506.260986,227.06543 C510.86306,223.808577 516.102266,221.472175 521.97876,220.056152 C527.855254,218.64013 533.97946,217.932129 540.351562,217.932129 C540.351562,230.393129 541.838364,241.33174 544.812012,250.748291 C547.785659,260.164842 551.892064,268.02365 557.131348,274.324951 C562.370632,280.626252 568.636438,285.369857 575.928955,288.555908 C583.221472,291.741959 591.18648,293.334961 599.824219,293.334961 C608.320355,293.334961 615.895963,292.13136 622.55127,289.724121 C629.206576,287.316882 634.870582,283.989279 639.543457,279.741211 C644.216332,275.493143 647.756336,270.501738 650.163574,264.766846 C652.570813,259.031954 653.774414,252.836947 653.774414,246.181641 C653.774414,238.818323 652.287613,232.269316 649.313965,226.534424 C646.340317,220.799532 641.844513,215.489526 635.826416,210.604248 C629.80832,205.71897 622.232712,201.046165 613.099365,196.585693 C603.966019,192.125222 593.310608,187.346217 581.132812,182.248535 C565.98137,176.018035 553.201956,169.610629 542.794189,163.026123 C532.386423,156.441617 523.996614,149.32621 517.624512,141.679688 C511.25241,134.033165 506.685805,125.749556 503.924561,116.828613 C501.163316,107.90767 499.782715,98.1372601 499.782715,87.5170898 C499.782715,74.2064764 502.473118,62.170464 507.854004,51.4086914 C513.23489,40.6469188 520.668898,31.4429093 530.15625,23.7963867 C539.643602,16.1498641 550.900814,10.273458 563.928223,6.16699219 C576.955632,2.06052634 591.115646,0.00732421875 606.408691,0.00732421875 C622.409748,0.00732421875 636.215762,1.31712557 647.827148,3.93676758 C659.438535,6.55640958 669.031945,10.1318133 676.607666,14.6630859 C684.183387,19.1943586 689.811993,24.5397641 693.493652,30.6994629 C697.175311,36.8591617 699.016113,43.4789685 699.016113,50.559082 C699.016113,55.6567638 697.918712,60.4003687 695.723877,64.7900391 C693.529042,69.1797094 690.201438,73.0029134 685.740967,76.2597656 C681.280495,79.5166178 675.687289,82.0654205 668.961182,83.90625 C662.235074,85.7470795 654.411666,86.6674805 645.490723,86.6674805 C645.490723,80.5785828 644.676522,74.0295761 643.048096,67.0202637 C641.41967,60.0109513 638.764667,53.4973445 635.083008,47.479248 C631.401349,41.4611516 626.622344,36.4697464 620.74585,32.5048828 C614.869355,28.5400192 607.753948,26.5576172 599.399414,26.5576172 C593.593721,26.5576172 588.071315,27.4072181 582.832031,29.1064453 C577.592747,30.8056726 573.026143,33.3544752 569.13208,36.7529297 C565.238018,40.1513842 562.158214,44.3639885 559.892578,49.3908691 C557.626942,54.4177497 556.494141,60.1879557 556.494141,66.7016602 C556.494141,72.7905578 557.485342,78.5253637 559.467773,83.90625 C561.450205,89.2871363 565.096409,94.5617417 570.406494,99.7302246 C575.716579,104.898707 583.008987,110.067113 592.283936,115.235596 C601.558884,120.404079 613.559497,125.961884 628.286133,131.90918 C643.154371,137.998077 655.827584,144.228484 666.306152,150.600586 C676.78472,156.972688 685.386929,163.804895 692.113037,171.097412 C698.839145,178.389929 703.72435,186.390337 706.768799,195.098877 C709.813248,203.807417 711.335449,213.471627 711.335449,224.091797 C711.335449,238.110422 708.574246,250.960635 703.051758,262.642822 C697.529269,274.32501 689.599661,284.34322 679.262695,292.697754 C668.92573,301.052288 656.500317,307.565895 641.986084,312.23877 C627.471851,316.911644 611.152434,319.248047 593.027344,319.248047 Z M1050.9668,27.4072266 L1032.27539,27.4072266 C1029.30174,27.4072266 1026.46974,27.7258269 1023.7793,28.3630371 C1021.08885,29.0002473 1018.71705,30.3100487 1016.66382,32.2924805 C1014.61059,34.2749123 1013.01758,37.1069152 1011.88477,40.7885742 C1010.75195,44.4702333 1010.18555,49.4262384 1010.18555,55.6567383 L1010.18555,225.366211 C1010.18555,239.951245 1008.09694,253.049258 1003.91968,264.660645 C999.742411,276.272031 993.228804,286.113241 984.378662,294.18457 C975.52852,302.2559 964.235909,308.450906 950.500488,312.769775 C936.765068,317.088645 920.410251,319.248047 901.435547,319.248047 C882.460843,319.248047 865.504225,317.442645 850.565186,313.831787 C835.626146,310.220929 822.988333,304.450723 812.651367,296.520996 C802.314401,288.591269 794.420193,278.360658 788.968506,265.828857 C783.516818,253.297056 780.791016,238.110441 780.791016,220.268555 L780.791016,53.9575195 C780.791016,48.1518264 780.189215,43.5144216 778.985596,40.045166 C777.781976,36.5759104 776.153575,33.9209076 774.100342,32.0800781 C772.047109,30.2392486 769.710706,29.0002473 767.091064,28.3630371 C764.471422,27.7258269 761.67482,27.4072266 758.701172,27.4072266 L740.009766,27.4072266 L740.009766,4.46777344 L889.96582,4.46777344 L889.96582,27.4072266 L871.699219,27.4072266 C868.725571,27.4072266 865.893568,27.7258269 863.203125,28.3630371 C860.512682,29.0002473 858.140879,30.3100487 856.087646,32.2924805 C854.034414,34.2749123 852.441412,37.1069152 851.308594,40.7885742 C850.175776,44.4702333 849.609375,49.4262384 849.609375,55.6567383 L849.609375,223.666992 C849.609375,235.844787 851.131577,246.075398 854.176025,254.359131 C857.220474,262.642864 861.574679,269.298071 867.23877,274.324951 C872.90286,279.351832 879.699667,282.962636 887.629395,285.157471 C895.559122,287.352306 904.479931,288.449707 914.39209,288.449707 C924.021044,288.449707 932.729453,287.210706 940.517578,284.732666 C948.305703,282.254626 954.92551,278.396022 960.377197,273.156738 C965.828885,267.917454 970.041489,261.262247 973.015137,253.190918 C975.988784,245.119589 977.475586,235.561579 977.475586,224.516602 L977.475586,53.9575195 C977.475586,48.1518264 976.909185,43.5144216 975.776367,40.045166 C974.643549,36.5759104 973.050547,33.9209076 970.997314,32.0800781 C968.944082,30.2392486 966.572279,29.0002473 963.881836,28.3630371 C961.191393,27.7258269 958.35939,27.4072266 955.385742,27.4072266 L937.119141,27.4072266 L937.119141,4.46777344 L1050.9668,4.46777344 L1050.9668,27.4072266 Z M1320.71777,315 L1320.71777,291.848145 L1324.96582,291.848145 C1329.49709,291.848145 1333.4973,291.564944 1336.96655,290.998535 C1340.43581,290.432126 1343.30321,289.299325 1345.56885,287.600098 C1347.83448,285.90087 1349.53369,283.458268 1350.6665,280.272217 C1351.79932,277.086166 1352.36572,272.873561 1352.36572,267.634277 L1352.36572,47.3730469 L1264.64355,315 L1235.11963,315 L1143.14941,47.3730469 L1143.14941,263.598633 C1143.14941,269.829133 1143.89281,274.785138 1145.37964,278.466797 C1146.86646,282.148456 1148.99046,284.980459 1151.75171,286.962891 C1154.51295,288.945322 1157.87596,290.255124 1161.84082,290.892334 C1165.80568,291.529544 1170.33689,291.848145 1175.43457,291.848145 L1177.9834,291.848145 L1177.9834,315 L1070.08301,315 L1070.08301,291.848145 L1088.34961,291.848145 C1091.46486,291.848145 1094.36766,291.564944 1097.05811,290.998535 C1099.74855,290.432126 1102.12035,289.263925 1104.17358,287.493896 C1106.22682,285.723868 1107.81982,283.104265 1108.95264,279.63501 C1110.08545,276.165754 1110.65186,271.599149 1110.65186,265.935059 L1110.65186,53.9575195 C1110.65186,48.1518264 1110.08545,43.5144216 1108.95264,40.045166 C1107.81982,36.5759104 1106.22682,33.9209076 1104.17358,32.0800781 C1102.12035,30.2392486 1099.74855,29.0002473 1097.05811,28.3630371 C1094.36766,27.7258269 1091.46486,27.4072266 1088.34961,27.4072266 L1070.08301,27.4072266 L1070.08301,4.46777344 L1195.40039,4.46777344 L1267.61719,214.533691 L1336.86035,4.46777344 L1459.84131,4.46777344 L1459.84131,27.4072266 L1441.57471,27.4072266 C1438.45946,27.4072266 1435.55665,27.7258269 1432.86621,28.3630371 C1430.17577,29.0002473 1427.83937,30.3100487 1425.85693,32.2924805 C1423.8745,34.2749123 1422.3169,37.1069152 1421.18408,40.7885742 C1420.05126,44.4702333 1419.48486,49.4262384 1419.48486,55.6567383 L1419.48486,263.598633 C1419.48486,269.829133 1420.05126,274.785138 1421.18408,278.466797 C1422.3169,282.148456 1423.8745,284.980459 1425.85693,286.962891 C1427.83937,288.945322 1430.17577,290.255124 1432.86621,290.892334 C1435.55665,291.529544 1438.45946,291.848145 1441.57471,291.848145 L1459.84131,291.848145 L1459.84131,315 L1320.71777,315 Z" id="path-1"></path>
    </defs>
    <g id="UI" stroke="none" stroke-width="1" fill="none" fill-rule="evenodd">
        <g id="main_1920" transform="translate(-249.000000, -2534.000000)">
            <g id="info" transform="translate(0.000000, 2279.000000)">
                <g id="visum" transform="translate(249.000000, 255.000000)">
                    <mask id="mask-2" fill="white">
                        <use xlink:href="#path-1"></use>
                    </mask>
                    <use id="VISUM" fill-opacity="0.67" fill="#FFFFFF" xlink:href="#path-1"></use>
                </g>
            </g>
        </g>
    </g>
</svg>