<!DOCTYPE svg PUBLIC "-//W3C//DTD SVG 20010904//EN" "http://www.w3.org/TR/2001/REC-SVG-20010904/DTD/svg10.dtd">
<svg version="1.0" xmlns="http://www.w3.org/2000/svg" width="96px" height="96px" viewBox="0 0 960 960" preserveAspectRatio="xMidYMid meet">
<g id="layer1" fill="#000000" stroke="none">
 <path d="M345 946 c-136 -45 -243 -138 -303 -263 -34 -72 -37 -86 -40 -183 -3 -88 0 -116 18 -169 44 -131 130 -228 260 -290 74 -35 77 -36 200 -36 124 0 126 0 203 37 105 50 185 130 235 235 37 77 37 79 37 203 0 124 0 126 -37 203 -51 105 -130 185 -235 235 -74 35 -84 37 -188 39 -71 2 -124 -2 -150 -11z m305 -44 c110 -43 208 -141 252 -252 32 -80 32 -260 0 -340 -44 -111 -141 -208 -252 -252 -80 -32 -260 -32 -340 0 -111 45 -209 142 -252 252 -30 77 -36 217 -13 296 42 147 148 257 293 305 79 26 234 21 312 -9z"/>
 <path d="M466 574 l-90 -94 90 -94 c49 -51 95 -94 102 -95 28 -3 8 28 -70 106 l-83 83 83 83 c78 78 98 109 70 106 -7 -1 -53 -44 -102 -95z"/>
 </g>

</svg>