<!DOCTYPE svg PUBLIC "-//W3C//DTD SVG 20010904//EN" "http://www.w3.org/TR/2001/REC-SVG-20010904/DTD/svg10.dtd">
<svg version="1.0" xmlns="http://www.w3.org/2000/svg" width="96px" height="96px" viewBox="0 0 960 960" preserveAspectRatio="xMidYMid meet">
<g id="layer1" fill="#000000" stroke="none">
 <path d="M345 946 c-136 -44 -243 -137 -303 -263 -37 -77 -37 -79 -37 -203 0 -124 0 -126 37 -203 50 -105 130 -185 235 -235 77 -37 79 -37 203 -37 123 0 126 1 200 36 130 62 216 159 260 290 18 53 21 81 18 169 -3 97 -6 111 -40 183 -50 105 -130 184 -235 235 -74 35 -84 37 -188 39 -71 2 -124 -2 -150 -11z m305 -44 c110 -43 208 -141 252 -252 32 -80 32 -260 0 -340 -44 -111 -141 -208 -252 -252 -80 -32 -260 -32 -340 0 -111 45 -209 142 -252 252 -30 77 -36 217 -13 296 42 147 148 257 293 305 79 26 234 21 312 -9z"/>
 <path d="M380 658 c0 -7 37 -50 82 -95 l83 -83 -83 -83 c-78 -78 -98 -109 -69 -106 6 1 52 44 101 95 l90 94 -90 94 c-85 89 -114 111 -114 84z"/>
 </g>

</svg>