<svg width="22" height="15" viewBox="0 0 22 15" fill="none" xmlns="http://www.w3.org/2000/svg">
<path d="M22 0H0V15H22V0Z" fill="#338AF3"/>
<path d="M15.125 7.92914H6.875C6.875 8.51163 7.37103 8.98377 7.94058 8.98377H7.90625C7.90625 9.56626 8.36791 10.0385 8.93754 10.0385C8.93754 10.621 9.3992 11.0932 9.96884 11.0932H12.0313C12.6009 11.0932 13.0626 10.6211 13.0626 10.0385C13.6322 10.0385 14.0939 9.56635 14.0939 8.98377H14.0596C14.6289 8.98377 15.125 8.51163 15.125 7.92914Z" fill="#FFDA44"/>
<path d="M13.8558 6.55017C13.8558 8.16317 12.5772 9.47083 11 9.47083C9.42277 9.47083 8.1442 8.16321 8.1442 6.55017" fill="#338AF3"/>
<path d="M13.8309 6.2766L12.6741 6.75556L13.2901 7.74172L12.034 7.53017L11.8749 8.64703L11 7.82561L10.1251 8.64703L9.96595 7.53017L8.70989 7.74163L9.3258 6.75551L8.16913 6.2766L9.32585 5.79765L8.70989 4.81157L9.96591 5.02307L10.1251 3.90613L11 4.72763L11.8749 3.90613L12.034 5.02307L13.2901 4.81157L12.6742 5.79769L13.8309 6.2766Z" fill="#FFDA44"/>
</svg>
